  0
SECTION
  2
HEADER
  9
$ACADVER
  1
AC1006
  9
$EXTMIN
 10
0.000000
 20
0.000000
 30
0.000000
  9
$EXTMAX
 10
1975.000000
 20
2092.000000
 30
0.000000
  0
ENDSEC
  0
SECTION
  2
ENTITIES
  0
POLYLINE
  8
0
 66
1
 70
1
  0
VERTEX
  8
0
 10
1776.697990
 20
2090.616804
 42
0.074308
  0
VERTEX
  8
0
 10
1768.347446
 20
2085.999770
 42
0.023490
  0
VERTEX
  8
0
 10
1757.424629
 20
2076.792449
 42
0.009174
  0
VERTEX
  8
0
 10
1739.043994
 20
2059.121990
 42
0.000790
  0
VERTEX
  8
0
 10
1693.000000
 20
2013.056704
 42
-0.001590
  0
VERTEX
  8
0
 10
1652.537383
 20
1972.704737
 42
-0.003940
  0
VERTEX
  8
0
 10
1622.566586
 20
1943.469888
 42
-0.004491
  0
VERTEX
  8
0
 10
1594.544243
 20
1917.042913
 42
-0.002738
  0
VERTEX
  8
0
 10
1561.000000
 20
1886.312457
 42
0.007139
  0
VERTEX
  8
0
 10
1510.725437
 20
1839.434559
 42
0.013247
  0
VERTEX
  8
0
 10
1471.515569
 20
1799.765479
 42
0.015346
  0
VERTEX
  8
0
 10
1438.639029
 20
1762.461430
 42
0.015223
  0
VERTEX
  8
0
 10
1408.020834
 20
1723.112812
 42
-0.002058
  0
VERTEX
  8
0
 10
1400.165209
 20
1712.449484
 42
-0.021152
  0
VERTEX
  8
0
 10
1396.718577
 20
1708.199044
 42
-0.083200
  0
VERTEX
  8
0
 10
1394.881541
 20
1706.710050
 42
-0.482412
  0
VERTEX
  8
0
 10
1393.884286
 20
1707.112812
 42
-0.050109
  0
VERTEX
  8
0
 10
1393.561734
 20
1708.809483
 42
-0.002082
  0
VERTEX
  8
0
 10
1393.045908
 20
1714.967514
 42
-0.003590
  0
VERTEX
  8
0
 10
1392.516744
 20
1722.281202
 42
-0.002540
  0
VERTEX
  8
0
 10
1392.023285
 20
1730.500000
 42
0.013632
  0
VERTEX
  8
0
 10
1389.431501
 20
1761.977906
 42
0.024592
  0
VERTEX
  8
0
 10
1385.345120
 20
1787.528935
 42
0.028495
  0
VERTEX
  8
0
 10
1379.318889
 20
1809.757899
 42
0.029226
  0
VERTEX
  8
0
 10
1370.845079
 20
1830.964636
 42
0.032611
  0
VERTEX
  8
0
 10
1361.752597
 20
1847.459844
 42
0.026331
  0
VERTEX
  8
0
 10
1349.969301
 20
1863.908505
 42
0.025918
  0
VERTEX
  8
0
 10
1336.286857
 20
1879.318048
 42
0.028573
  0
VERTEX
  8
0
 10
1321.500000
 20
1892.704713
 42
0.035541
  0
VERTEX
  8
0
 10
1304.879451
 20
1904.260781
 42
0.013714
  0
VERTEX
  8
0
 10
1280.343359
 20
1917.955578
 42
0.011948
  0
VERTEX
  8
0
 10
1249.719329
 20
1933.042794
 42
0.007749
  0
VERTEX
  8
0
 10
1213.643840
 20
1949.082494
 42
-0.003846
  0
VERTEX
  8
0
 10
1201.668824
 20
1954.295198
 42
-0.003637
  0
VERTEX
  8
0
 10
1189.550049
 20
1959.787640
 42
-0.003614
  0
VERTEX
  8
0
 10
1178.892971
 20
1964.805155
 42
-0.012704
  0
VERTEX
  8
0
 10
1172.143840
 20
1968.256126
 42
-0.020081
  0
VERTEX
  8
0
 10
1149.615780
 20
1981.705861
 42
-0.020225
  0
VERTEX
  8
0
 10
1128.294801
 20
1996.889402
 42
-0.020899
  0
VERTEX
  8
0
 10
1109.003124
 20
2013.173705
 42
-0.026009
  0
VERTEX
  8
0
 10
1092.569185
 20
2029.921740
 42
-0.008668
  0
VERTEX
  8
0
 10
1085.099434
 20
2038.672441
 42
-0.013933
  0
VERTEX
  8
0
 10
1079.075072
 20
2046.412505
 42
-0.013055
  0
VERTEX
  8
0
 10
1073.225649
 20
2054.827948
 42
-0.006526
  0
VERTEX
  8
0
 10
1066.247994
 20
2065.755898
 42
0.010830
  0
VERTEX
  8
0
 10
1060.318327
 20
2074.868674
 42
0.020967
  0
VERTEX
  8
0
 10
1055.124513
 20
2081.837923
 42
0.025678
  0
VERTEX
  8
0
 10
1050.616510
 20
2086.837669
 42
0.077273
  0
VERTEX
  8
0
 10
1046.919618
 20
2089.541567
 42
0.056433
  0
VERTEX
  8
0
 10
1045.447829
 20
2090.103132
 42
0.020470
  0
VERTEX
  8
0
 10
1043.258818
 20
2090.571585
 42
0.019994
  0
VERTEX
  8
0
 10
1040.799859
 20
2090.892826
 42
0.022484
  0
VERTEX
  8
0
 10
1038.417737
 20
2091.000000
 42
0.017260
  0
VERTEX
  8
0
 10
1035.037646
 20
2090.883283
 42
0.076407
  0
VERTEX
  8
0
 10
1033.101659
 20
2090.447204
 42
0.085560
  0
VERTEX
  8
0
 10
1031.494711
 20
2089.473494
 42
0.024801
  0
VERTEX
  8
0
 10
1029.396146
 20
2087.458560
 42
0.065565
  0
VERTEX
  8
0
 10
1025.301579
 20
2081.785668
 42
0.010182
  0
VERTEX
  8
0
 10
1018.969781
 20
2069.439781
 42
0.011344
  0
VERTEX
  8
0
 10
1013.137853
 20
2056.751599
 42
0.045678
  0
VERTEX
  8
0
 10
1010.483036
 20
2048.655289
 42
0.053380
  0
VERTEX
  8
0
 10
1008.935249
 20
2035.699640
 42
0.009247
  0
VERTEX
  8
0
 10
1009.089659
 20
2010.988116
 42
0.010512
  0
VERTEX
  8
0
 10
1010.243608
 20
1985.790939
 42
0.030594
  0
VERTEX
  8
0
 10
1012.466250
 20
1968.515488
 42
0.072079
  0
VERTEX
  8
0
 10
1022.543670
 20
1939.383107
 42
0.048581
  0
VERTEX
  8
0
 10
1041.680140
 20
1909.790732
 42
0.039681
  0
VERTEX
  8
0
 10
1070.359173
 20
1879.032813
 42
0.022421
  0
VERTEX
  8
0
 10
1109.500000
 20
1846.317998
 42
-0.009120
  0
VERTEX
  8
0
 10
1129.038937
 20
1830.850582
 42
-0.016242
  0
VERTEX
  8
0
 10
1144.453523
 20
1817.321925
 42
-0.019413
  0
VERTEX
  8
0
 10
1155.914903
 20
1805.716717
 42
-0.053150
  0
VERTEX
  8
0
 10
1162.733937
 20
1796.445128
 42
-0.015981
  0
VERTEX
  8
0
 10
1172.339691
 20
1778.692741
 42
-0.012506
  0
VERTEX
  8
0
 10
1181.651833
 20
1758.861705
 42
-0.005050
  0
VERTEX
  8
0
 10
1189.727359
 20
1739.967152
 42
-0.534866
  0
VERTEX
  8
0
 10
1188.414518
 20
1738.000000
 42
-0.150689
  0
VERTEX
  8
0
 10
1187.135440
 20
1738.394443
 42
-0.000903
  0
VERTEX
  8
0
 10
1176.884847
 20
1745.408181
 42
-0.003823
  0
VERTEX
  8
0
 10
1165.648603
 20
1753.253290
 42
-0.002941
  0
VERTEX
  8
0
 10
1153.500000
 20
1761.982212
 42
0.004886
  0
VERTEX
  8
0
 10
1118.702727
 20
1786.779801
 42
0.010616
  0
VERTEX
  8
0
 10
1091.406960
 20
1804.982754
 42
0.013119
  0
VERTEX
  8
0
 10
1067.484908
 20
1819.344516
 42
0.014279
  0
VERTEX
  8
0
 10
1043.500000
 20
1832.011400
 42
0.009680
  0
VERTEX
  8
0
 10
1023.421579
 20
1841.414271
 42
0.010588
  0
VERTEX
  8
0
 10
1003.580778
 20
1849.743024
 42
0.007660
  0
VERTEX
  8
0
 10
978.684665
 20
1859.140903
 42
0.002381
  0
VERTEX
  8
0
 10
941.000000
 20
1872.508050
 42
-0.000549
  0
VERTEX
  8
0
 10
912.058183
 20
1882.654784
 42
-0.002602
  0
VERTEX
  8
0
 10
895.517455
 20
1888.571104
 42
-0.004071
  0
VERTEX
  8
0
 10
882.802822
 20
1893.311213
 42
-0.003171
  0
VERTEX
  8
0
 10
869.057754
 20
1898.663487
 42
-0.011325
  0
VERTEX
  8
0
 10
839.422432
 20
1911.204426
 42
-0.019811
  0
VERTEX
  8
0
 10
815.575710
 20
1923.096298
 42
-0.022383
  0
VERTEX
  8
0
 10
794.886604
 20
1935.694693
 42
-0.021155
  0
VERTEX
  8
0
 10
775.000000
 20
1950.317360
 42
-0.031321
  0
VERTEX
  8
0
 10
756.300953
 20
1967.355397
 42
-0.043504
  0
VERTEX
  8
0
 10
742.017831
 20
1984.936356
 42
-0.041299
  0
VERTEX
  8
0
 10
730.478648
 20
2005.432517
 42
-0.024704
  0
VERTEX
  8
0
 10
720.079760
 20
2031.406645
 42
0.013404
  0
VERTEX
  8
0
 10
714.389181
 20
2046.606980
 42
0.043825
  0
VERTEX
  8
0
 10
709.506345
 20
2056.157435
 42
0.054814
  0
VERTEX
  8
0
 10
703.665607
 20
2063.533769
 42
0.030975
  0
VERTEX
  8
0
 10
695.153665
 20
2071.145332
 42
0.000000
  0
VERTEX
  8
0
 10
687.625745
 20
2077.081020
 42
0.000000
  0
VERTEX
  8
0
 10
679.726183
 20
2069.290510
 42
0.016157
  0
VERTEX
  8
0
 10
673.581010
 20
2062.825467
 42
0.024849
  0
VERTEX
  8
0
 10
668.739538
 20
2056.814386
 42
0.024835
  0
VERTEX
  8
0
 10
664.516398
 20
2050.350098
 42
0.016114
  0
VERTEX
  8
0
 10
660.260334
 20
2042.500000
 42
0.028559
  0
VERTEX
  8
0
 10
652.524182
 20
2024.577347
 42
0.023318
  0
VERTEX
  8
0
 10
646.275638
 20
2004.642740
 42
0.022447
  0
VERTEX
  8
0
 10
641.692980
 20
1983.375803
 42
0.021439
  0
VERTEX
  8
0
 10
638.950179
 20
1961.455535
 42
0.027909
  0
VERTEX
  8
0
 10
638.484431
 20
1943.409922
 42
0.015443
  0
VERTEX
  8
0
 10
639.826035
 20
1921.401428
 42
0.015352
  0
VERTEX
  8
0
 10
642.571685
 20
1899.094518
 42
0.023613
  0
VERTEX
  8
0
 10
646.442882
 20
1880.035339
 42
0.012493
  0
VERTEX
  8
0
 10
648.549265
 20
1872.500401
 42
0.031100
  0
VERTEX
  8
0
 10
650.562946
 20
1867.146621
 42
0.042058
  0
VERTEX
  8
0
 10
652.759755
 20
1863.182127
 42
0.057505
  0
VERTEX
  8
0
 10
655.402682
 20
1860.075686
 42
-0.085182
  0
VERTEX
  8
0
 10
657.170317
 20
1857.749911
 42
-0.096558
  0
VERTEX
  8
0
 10
657.963564
 20
1855.066344
 42
-0.118290
  0
VERTEX
  8
0
 10
657.627566
 20
1852.692277
 42
-0.182213
  0
VERTEX
  8
0
 10
656.250000
 20
1851.173101
 42
-0.053525
  0
VERTEX
  8
0
 10
655.251407
 20
1850.789425
 42
-0.012343
  0
VERTEX
  8
0
 10
653.495472
 20
1850.368653
 42
-0.012613
  0
VERTEX
  8
0
 10
651.437850
 20
1849.982984
 42
-0.012023
  0
VERTEX
  8
0
 10
649.330330
 20
1849.694546
 42
0.054383
  0
VERTEX
  8
0
 10
634.967231
 20
1846.473175
 42
0.007665
  0
VERTEX
  8
0
 10
606.368756
 20
1836.207986
 42
0.009421
  0
VERTEX
  8
0
 10
575.959667
 20
1824.104864
 42
0.015020
  0
VERTEX
  8
0
 10
550.500000
 20
1812.500312
 42
0.057588
  0
VERTEX
  8
0
 10
464.174737
 20
1756.832555
 42
0.045224
  0
VERTEX
  8
0
 10
384.813467
 20
1678.607261
 42
0.037621
  0
VERTEX
  8
0
 10
308.581263
 20
1573.394095
 42
0.021114
  0
VERTEX
  8
0
 10
231.524074
 20
1435.500000
 42
0.011460
  0
VERTEX
  8
0
 10
194.955140
 20
1358.710116
 42
0.013225
  0
VERTEX
  8
0
 10
163.747890
 20
1283.872890
 42
0.012921
  0
VERTEX
  8
0
 10
135.953968
 20
1205.992120
 42
0.010054
  0
VERTEX
  8
0
 10
109.650719
 20
1120.000000
 42
0.004344
  0
VERTEX
  8
0
 10
98.514145
 20
1079.452764
 42
0.002958
  0
VERTEX
  8
0
 10
86.521524
 20
1033.151409
 42
0.002867
  0
VERTEX
  8
0
 10
75.845568
 20
989.861735
 42
0.009330
  0
VERTEX
  8
0
 10
69.472603
 20
961.010332
 42
0.006676
  0
VERTEX
  8
0
 10
61.551395
 20
918.773090
 42
0.002386
  0
VERTEX
  8
0
 10
51.344989
 20
858.322830
 42
0.002268
  0
VERTEX
  8
0
 10
40.289539
 20
788.913733
 42
0.002048
  0
VERTEX
  8
0
 10
29.470825
 20
717.000000
 42
-0.000970
  0
VERTEX
  8
0
 10
19.484566
 20
649.633345
 42
-0.002589
  0
VERTEX
  8
0
 10
12.019412
 20
601.632062
 42
-0.001955
  0
VERTEX
  8
0
 10
6.188476
 20
566.258739
 42
-0.040029
  0
VERTEX
  8
0
 10
3.541192
 20
555.772893
 42
0.062896
  0
VERTEX
  8
0
 10
1.970434
 20
548.090557
 42
0.007771
  0
VERTEX
  8
0
 10
0.934374
 20
530.991225
 42
0.007708
  0
VERTEX
  8
0
 10
0.256211
 20
508.055502
 42
0.003491
  0
VERTEX
  8
0
 10
0.040948
 20
478.000000
 42
0.003589
  0
VERTEX
  8
0
 10
0.227641
 20
451.317374
 42
0.003707
  0
VERTEX
  8
0
 10
0.797460
 20
424.926285
 42
0.003338
  0
VERTEX
  8
0
 10
1.610460
 20
402.148439
 42
0.019808
  0
VERTEX
  8
0
 10
2.585823
 20
390.275075
 42
0.025746
  0
VERTEX
  8
0
 10
3.002024
 20
387.894083
 42
0.033787
  0
VERTEX
  8
0
 10
3.637406
 20
385.780946
 42
0.037910
  0
VERTEX
  8
0
 10
4.463576
 20
384.004968
 42
0.059121
  0
VERTEX
  8
0
 10
5.455539
 20
382.642475
 42
-0.067848
  0
VERTEX
  8
0
 10
6.613495
 20
380.992453
 42
-0.055752
  0
VERTEX
  8
0
 10
7.382511
 20
378.980236
 42
-0.035023
  0
VERTEX
  8
0
 10
7.918065
 20
376.096772
 42
-0.009227
  0
VERTEX
  8
0
 10
8.364284
 20
371.422243
 42
0.047827
  0
VERTEX
  8
0
 10
13.574450
 20
341.482568
 42
0.020874
  0
VERTEX
  8
0
 10
25.875716
 20
303.030026
 42
0.019963
  0
VERTEX
  8
0
 10
42.854660
 20
261.874352
 42
0.021137
  0
VERTEX
  8
0
 10
62.771556
 20
223.000000
 42
0.017435
  0
VERTEX
  8
0
 10
75.164379
 20
202.814182
 42
0.019360
  0
VERTEX
  8
0
 10
88.531924
 20
184.254476
 42
0.018154
  0
VERTEX
  8
0
 10
104.044373
 20
165.807643
 42
0.012341
  0
VERTEX
  8
0
 10
122.947369
 20
145.926731
 42
0.018954
  0
VERTEX
  8
0
 10
153.114453
 20
117.934410
 42
0.022195
  0
VERTEX
  8
0
 10
183.817487
 20
93.822138
 42
0.022045
  0
VERTEX
  8
0
 10
216.720873
 20
72.392936
 42
0.018238
  0
VERTEX
  8
0
 10
253.500000
 20
52.456846
 42
0.013470
  0
VERTEX
  8
0
 10
279.220763
 20
40.557638
 42
0.014326
  0
VERTEX
  8
0
 10
305.027330
 20
30.318379
 42
0.014833
  0
VERTEX
  8
0
 10
330.445729
 20
21.911804
 42
0.017418
  0
VERTEX
  8
0
 10
355.000000
 20
15.513574
 42
-0.001900
  0
VERTEX
  8
0
 10
374.183245
 20
11.145746
 42
-0.006649
  0
VERTEX
  8
0
 10
386.499406
 20
8.119106
 42
-0.008915
  0
VERTEX
  8
0
 10
394.797658
 20
5.803743
 42
-0.047676
  0
VERTEX
  8
0
 10
399.148306
 20
4.039716
 42
0.059150
  0
VERTEX
  8
0
 10
402.141610
 20
2.905078
 42
0.030496
  0
VERTEX
  8
0
 10
406.086182
 20
2.174285
 42
0.016035
  0
VERTEX
  8
0
 10
412.238346
 20
1.618176
 42
0.002840
  0
VERTEX
  8
0
 10
423.800405
 20
1.011769
 42
0.007735
  0
VERTEX
  8
0
 10
446.610700
 20
0.298704
 42
0.003958
  0
VERTEX
  8
0
 10
475.244351
 20
0.073505
 42
0.003958
  0
VERTEX
  8
0
 10
504.098802
 20
0.303433
 42
0.007184
  0
VERTEX
  8
0
 10
527.683975
 20
1.017149
 42
0.002478
  0
VERTEX
  8
0
 10
541.334282
 20
1.694417
 42
0.019175
  0
VERTEX
  8
0
 10
547.696161
 20
2.286991
 42
0.036539
  0
VERTEX
  8
0
 10
552.220970
 20
3.224335
 42
0.025112
  0
VERTEX
  8
0
 10
557.183975
 20
4.910578
 42
-0.026878
  0
VERTEX
  8
0
 10
561.315955
 20
6.298218
 42
-0.006425
  0
VERTEX
  8
0
 10
568.323108
 20
8.142788
 42
-0.006510
  0
VERTEX
  8
0
 10
576.525342
 20
10.076540
 42
-0.006002
  0
VERTEX
  8
0
 10
585.000000
 20
11.851939
 42
0.022352
  0
VERTEX
  8
0
 10
626.496650
 20
21.971810
 42
0.012951
  0
VERTEX
  8
0
 10
675.396517
 20
37.625088
 42
0.010209
  0
VERTEX
  8
0
 10
735.180599
 20
59.863595
 42
0.004901
  0
VERTEX
  8
0
 10
810.997303
 20
90.704537
 42
-0.000348
  0
VERTEX
  8
0
 10
827.986960
 20
97.796618
 42
-0.000275
  0
VERTEX
  8
0
 10
846.383690
 20
105.449181
 42
-0.000278
  0
VERTEX
  8
0
 10
863.475157
 20
112.536660
 42
-0.000689
  0
VERTEX
  8
0
 10
875.997303
 20
117.700987
 42
-0.001252
  0
VERTEX
  8
0
 10
894.313820
 20
125.171941
 42
-0.001049
  0
VERTEX
  8
0
 10
913.777698
 20
133.006597
 42
-0.000589
  0
VERTEX
  8
0
 10
941.519785
 20
144.067903
 42
-0.000110
  0
VERTEX
  8
0
 10
992.500000
 20
164.312124
 42
0.003894
  0
VERTEX
  8
0
 10
1028.049817
 20
178.741417
 42
0.005929
  0
VERTEX
  8
0
 10
1058.672599
 20
191.877335
 42
0.006280
  0
VERTEX
  8
0
 10
1087.617444
 20
205.139317
 42
0.005257
  0
VERTEX
  8
0
 10
1118.000000
 20
219.917452
 42
0.016758
  0
VERTEX
  8
0
 10
1215.768239
 20
272.915010
 42
0.015699
  0
VERTEX
  8
0
 10
1311.967396
 20
333.447749
 42
0.015558
  0
VERTEX
  8
0
 10
1405.055051
 20
400.489310
 42
0.015702
  0
VERTEX
  8
0
 10
1493.500000
 20
472.992190
 42
0.008826
  0
VERTEX
  8
0
 10
1530.276118
 20
506.284740
 42
0.007912
  0
VERTEX
  8
0
 10
1567.240837
 20
542.070809
 42
0.008075
  0
VERTEX
  8
0
 10
1602.126882
 20
578.075119
 42
0.010713
  0
VERTEX
  8
0
 10
1632.612311
 20
612.000000
 42
0.014449
  0
VERTEX
  8
0
 10
1666.606449
 20
653.889316
 42
0.016856
  0
VERTEX
  8
0
 10
1696.343383
 20
695.620312
 42
0.018203
  0
VERTEX
  8
0
 10
1720.852365
 20
735.684240
 42
0.027177
  0
VERTEX
  8
0
 10
1739.013391
 20
772.500000
 42
0.013181
  0
VERTEX
  8
0
 10
1748.125808
 20
795.476624
 42
0.009967
  0
VERTEX
  8
0
 10
1756.953044
 20
821.140999
 42
0.009805
  0
VERTEX
  8
0
 10
1764.925645
 20
847.689877
 42
0.011246
  0
VERTEX
  8
0
 10
1771.467577
 20
873.349806
 42
0.007467
  0
VERTEX
  8
0
 10
1773.204164
 20
881.410173
 42
0.002577
  0
VERTEX
  8
0
 10
1775.479281
 20
893.106601
 42
0.002560
  0
VERTEX
  8
0
 10
1777.855031
 20
906.027312
 42
0.002968
  0
VERTEX
  8
0
 10
1779.980210
 20
918.349806
 42
-0.003582
  0
VERTEX
  8
0
 10
1781.990506
 20
929.921345
 42
-0.004543
  0
VERTEX
  8
0
 10
1784.020893
 20
940.578641
 42
-0.003600
  0
VERTEX
  8
0
 10
1785.866996
 20
949.477800
 42
-0.036811
  0
VERTEX
  8
0
 10
1786.926046
 20
953.088123
 42
0.000000
  0
VERTEX
  8
0
 10
1789.022566
 20
958.676245
 42
0.000000
  0
VERTEX
  8
0
 10
1814.299078
 20
958.205844
 42
0.008198
  0
VERTEX
  8
0
 10
1837.519967
 20
958.154486
 42
0.009294
  0
VERTEX
  8
0
 10
1859.777050
 20
958.884175
 42
0.008846
  0
VERTEX
  8
0
 10
1878.641924
 20
960.188902
 42
0.045929
  0
VERTEX
  8
0
 10
1888.905683
 20
962.041080
 42
0.041618
  0
VERTEX
  8
0
 10
1906.618168
 20
968.577359
 42
0.020631
  0
VERTEX
  8
0
 10
1927.902667
 20
979.603228
 42
0.020588
  0
VERTEX
  8
0
 10
1948.587539
 20
992.582771
 42
0.035029
  0
VERTEX
  8
0
 10
1964.564584
 20
1005.281952
 42
0.022390
  0
VERTEX
  8
0
 10
1970.837042
 20
1011.566830
 42
0.078812
  0
VERTEX
  8
0
 10
1973.968655
 20
1016.322400
 42
0.123875
  0
VERTEX
  8
0
 10
1974.735471
 20
1020.571497
 42
0.102683
  0
VERTEX
  8
0
 10
1973.494431
 20
1025.010770
 42
0.123522
  0
VERTEX
  8
0
 10
1970.288342
 20
1028.643837
 42
0.046268
  0
VERTEX
  8
0
 10
1964.313016
 20
1031.982117
 42
0.023438
  0
VERTEX
  8
0
 10
1953.980748
 20
1035.991326
 42
0.004037
  0
VERTEX
  8
0
 10
1934.000000
 20
1042.506512
 42
-0.041908
  0
VERTEX
  8
0
 10
1907.459400
 20
1053.443952
 42
-0.033388
  0
VERTEX
  8
0
 10
1880.909408
 20
1069.409813
 42
-0.031700
  0
VERTEX
  8
0
 10
1855.326559
 20
1089.742185
 42
-0.028924
  0
VERTEX
  8
0
 10
1831.675861
 20
1113.743270
 42
-0.014239
  0
VERTEX
  8
0
 10
1815.842681
 20
1132.859404
 42
-0.020523
  0
VERTEX
  8
0
 10
1803.044600
 20
1150.702222
 42
-0.014157
  0
VERTEX
  8
0
 10
1788.749248
 20
1173.869190
 42
-0.003373
  0
VERTEX
  8
0
 10
1766.325805
 20
1213.232334
 42
0.002918
  0
VERTEX
  8
0
 10
1747.167580
 20
1246.934765
 42
0.007687
  0
VERTEX
  8
0
 10
1732.930001
 20
1270.788719
 42
0.010299
  0
VERTEX
  8
0
 10
1720.799502
 20
1289.544983
 42
0.012508
  0
VERTEX
  8
0
 10
1708.641505
 20
1306.586124
 42
0.037937
  0
VERTEX
  8
0
 10
1679.088427
 20
1340.244195
 42
0.023708
  0
VERTEX
  8
0
 10
1639.875741
 20
1375.125314
 42
0.021547
  0
VERTEX
  8
0
 10
1592.870963
 20
1409.868152
 42
0.017405
  0
VERTEX
  8
0
 10
1539.638947
 20
1443.139464
 42
-0.003753
  0
VERTEX
  8
0
 10
1522.602739
 20
1453.151403
 42
-0.018439
  0
VERTEX
  8
0
 10
1513.246412
 20
1459.223970
 42
-0.028139
  0
VERTEX
  8
0
 10
1508.046514
 20
1463.333739
 42
-0.432098
  0
VERTEX
  8
0
 10
1507.985051
 20
1465.384225
 42
-0.196603
  0
VERTEX
  8
0
 10
1510.618963
 20
1466.487820
 42
-0.003826
  0
VERTEX
  8
0
 10
1525.596705
 20
1466.500793
 42
-0.009254
  0
VERTEX
  8
0
 10
1539.871138
 20
1466.139650
 42
-0.037541
  0
VERTEX
  8
0
 10
1548.500000
 20
1465.109262
 42
-0.034142
  0
VERTEX
  8
0
 10
1563.357773
 20
1461.122511
 42
-0.026830
  0
VERTEX
  8
0
 10
1578.819925
 20
1454.873872
 42
-0.019113
  0
VERTEX
  8
0
 10
1597.810165
 20
1445.085440
 42
-0.006593
  0
VERTEX
  8
0
 10
1624.500000
 20
1429.542779
 42
0.004488
  0
VERTEX
  8
0
 10
1660.401423
 20
1408.432906
 42
0.013106
  0
VERTEX
  8
0
 10
1685.668327
 20
1394.748719
 42
0.018187
  0
VERTEX
  8
0
 10
1706.298556
 20
1385.192729
 42
0.021237
  0
VERTEX
  8
0
 10
1726.541519
 20
1377.689899
 42
0.048293
  0
VERTEX
  8
0
 10
1763.832580
 20
1369.508755
 42
0.054813
  0
VERTEX
  8
0
 10
1800.415885
 20
1369.145157
 42
0.059165
  0
VERTEX
  8
0
 10
1833.636463
 20
1376.496194
 42
0.077602
  0
VERTEX
  8
0
 10
1861.003701
 20
1391.123721
 42
0.024015
  0
VERTEX
  8
0
 10
1867.424133
 20
1396.463576
 42
0.025104
  0
VERTEX
  8
0
 10
1873.203675
 20
1402.319823
 42
0.023067
  0
VERTEX
  8
0
 10
1878.765784
 20
1409.163194
 42
0.015210
  0
VERTEX
  8
0
 10
1884.542248
 20
1417.500000
 42
0.013683
  0
VERTEX
  8
0
 10
1888.789779
 20
1424.456693
 42
0.049490
  0
VERTEX
  8
0
 10
1890.912026
 20
1429.184973
 42
0.085461
  0
VERTEX
  8
0
 10
1891.450273
 20
1432.687440
 42
0.141436
  0
VERTEX
  8
0
 10
1890.575474
 20
1435.525156
 42
0.098861
  0
VERTEX
  8
0
 10
1888.007950
 20
1438.135541
 42
0.050859
  0
VERTEX
  8
0
 10
1883.956499
 20
1440.322440
 42
0.034020
  0
VERTEX
  8
0
 10
1877.942986
 20
1442.350817
 42
0.011555
  0
VERTEX
  8
0
 10
1868.964174
 20
1444.492920
 42
-0.023330
  0
VERTEX
  8
0
 10
1848.377066
 20
1449.919707
 42
-0.031909
  0
VERTEX
  8
0
 10
1830.493752
 20
1456.818707
 42
-0.031163
  0
VERTEX
  8
0
 10
1813.316119
 20
1466.075891
 42
-0.020803
  0
VERTEX
  8
0
 10
1794.845768
 20
1478.663234
 42
-0.026850
  0
VERTEX
  8
0
 10
1782.779144
 20
1488.693110
 42
-0.027507
  0
VERTEX
  8
0
 10
1771.959414
 20
1499.882021
 42
-0.017212
  0
VERTEX
  8
0
 10
1758.915743
 20
1516.038212
 42
-0.003903
  0
VERTEX
  8
0
 10
1737.958326
 20
1544.364360
 42
0.018939
  0
VERTEX
  8
0
 10
1701.041830
 20
1591.244704
 42
0.046521
  0
VERTEX
  8
0
 10
1669.677478
 20
1621.834667
 42
0.058615
  0
VERTEX
  8
0
 10
1638.028848
 20
1641.801725
 42
0.050512
  0
VERTEX
  8
0
 10
1601.000000
 20
1655.100318
 42
0.016063
  0
VERTEX
  8
0
 10
1595.085729
 20
1656.371626
 42
0.024481
  0
VERTEX
  8
0
 10
1589.879629
 20
1657.055746
 42
0.016909
  0
VERTEX
  8
0
 10
1583.407666
 20
1657.365938
 42
0.003912
  0
VERTEX
  8
0
 10
1572.500000
 20
1657.434145
 42
0.000000
  0
VERTEX
  8
0
 10
1553.500000
 20
1657.404290
 42
0.000000
  0
VERTEX
  8
0
 10
1532.263095
 20
1652.590131
 42
-0.003938
  0
VERTEX
  8
0
 10
1524.012599
 20
1650.788042
 42
-0.005980
  0
VERTEX
  8
0
 10
1516.811134
 20
1649.364116
 42
-0.002510
  0
VERTEX
  8
0
 10
1510.653280
 20
1648.254833
 42
-0.135729
  0
VERTEX
  8
0
 10
1509.482709
 20
1648.368262
 42
-0.112580
  0
VERTEX
  8
0
 10
1508.757423
 20
1648.854535
 42
-0.214281
  0
VERTEX
  8
0
 10
1508.531808
 20
1649.505181
 42
-0.085771
  0
VERTEX
  8
0
 10
1508.812607
 20
1650.562779
 42
-0.010276
  0
VERTEX
  8
0
 10
1509.870748
 20
1652.746645
 42
-0.077162
  0
VERTEX
  8
0
 10
1521.445593
 20
1668.764009
 42
-0.006108
  0
VERTEX
  8
0
 10
1558.874871
 20
1705.702632
 42
-0.009075
  0
VERTEX
  8
0
 10
1600.171624
 20
1744.053980
 42
-0.013842
  0
VERTEX
  8
0
 10
1637.500000
 20
1775.661719
 42
-0.006209
  0
VERTEX
  8
0
 10
1651.874942
 20
1786.875950
 42
-0.015808
  0
VERTEX
  8
0
 10
1662.651056
 20
1794.544287
 42
-0.018852
  0
VERTEX
  8
0
 10
1672.708964
 20
1800.699218
 42
-0.013077
  0
VERTEX
  8
0
 10
1684.500000
 20
1806.917526
 42
-0.021932
  0
VERTEX
  8
0
 10
1711.252388
 20
1818.713910
 42
-0.020274
  0
VERTEX
  8
0
 10
1739.639146
 20
1828.465669
 42
-0.019169
  0
VERTEX
  8
0
 10
1770.255976
 20
1836.349539
 42
-0.015391
  0
VERTEX
  8
0
 10
1803.710326
 20
1842.537948
 42
0.005645
  0
VERTEX
  8
0
 10
1822.501552
 20
1845.636480
 42
0.014194
  0
VERTEX
  8
0
 10
1836.094442
 20
1848.435749
 42
0.019181
  0
VERTEX
  8
0
 10
1846.120502
 20
1851.208822
 42
0.045405
  0
VERTEX
  8
0
 10
1853.253043
 20
1854.215554
 42
0.042549
  0
VERTEX
  8
0
 10
1859.368588
 20
1858.176442
 42
0.033623
  0
VERTEX
  8
0
 10
1865.260198
 20
1863.417270
 42
0.034099
  0
VERTEX
  8
0
 10
1870.291528
 20
1869.289868
 42
0.049274
  0
VERTEX
  8
0
 10
1873.813971
 20
1875.142813
 42
0.079864
  0
VERTEX
  8
0
 10
1878.374429
 20
1890.772355
 42
0.065797
  0
VERTEX
  8
0
 10
1878.254585
 20
1908.161004
 42
0.048810
  0
VERTEX
  8
0
 10
1873.191623
 20
1929.229322
 42
0.020287
  0
VERTEX
  8
0
 10
1862.490209
 20
1956.500000
 42
-0.006160
  0
VERTEX
  8
0
 10
1856.521844
 20
1970.530413
 42
-0.004201
  0
VERTEX
  8
0
 10
1850.068458
 20
1986.618529
 42
-0.003746
  0
VERTEX
  8
0
 10
1843.100922
 20
2004.820458
 42
-0.002679
  0
VERTEX
  8
0
 10
1835.568219
 20
2025.282641
 42
0.008669
  0
VERTEX
  8
0
 10
1824.346478
 20
2054.674976
 42
0.034003
  0
VERTEX
  8
0
 10
1815.906728
 20
2072.145298
 42
0.057399
  0
VERTEX
  8
0
 10
1808.009143
 20
2082.916253
 42
0.101874
  0
VERTEX
  8
0
 10
1799.089391
 20
2089.289466
 42
0.057571
  0
VERTEX
  8
0
 10
1794.046941
 20
2090.862180
 42
0.032038
  0
VERTEX
  8
0
 10
1787.650514
 20
2091.654648
 42
0.032074
  0
VERTEX
  8
0
 10
1781.356075
 20
2091.623696
 42
0.072044
  0
SEQEND
  0
POLYLINE
  8
0
 66
1
 70
1
  0
VERTEX
  8
0
 10
1789.604951
 20
2055.523191
 42
-0.105944
  0
VERTEX
  8
0
 10
1792.627472
 20
2052.465762
 42
-0.012789
  0
VERTEX
  8
0
 10
1797.547822
 20
2044.312583
 42
-0.010168
  0
VERTEX
  8
0
 10
1804.398304
 20
2031.685013
 42
-0.002604
  0
VERTEX
  8
0
 10
1814.956355
 20
2010.978297
 42
-0.006193
  0
VERTEX
  8
0
 10
1833.647453
 20
1972.669960
 42
-0.018978
  0
VERTEX
  8
0
 10
1844.991033
 20
1946.106353
 42
-0.027899
  0
VERTEX
  8
0
 10
1851.346278
 20
1926.256769
 42
-0.061525
  0
VERTEX
  8
0
 10
1853.425162
 20
1910.500000
 42
-0.010590
  0
VERTEX
  8
0
 10
1853.356976
 20
1905.212934
 42
-0.039479
  0
VERTEX
  8
0
 10
1852.982107
 20
1901.909401
 42
-0.045458
  0
VERTEX
  8
0
 10
1852.120677
 20
1898.944545
 42
-0.017419
  0
VERTEX
  8
0
 10
1850.413519
 20
1895.000000
 42
-0.040977
  0
VERTEX
  8
0
 10
1847.087885
 20
1889.260981
 42
-0.026963
  0
VERTEX
  8
0
 10
1842.399478
 20
1883.232686
 42
-0.027011
  0
VERTEX
  8
0
 10
1837.372706
 20
1878.037655
 42
-0.069136
  0
VERTEX
  8
0
 10
1833.091180
 20
1875.046516
 42
-0.036791
  0
VERTEX
  8
0
 10
1828.686131
 20
1873.193455
 42
-0.028815
  0
VERTEX
  8
0
 10
1823.683059
 20
1871.824787
 42
-0.017403
  0
VERTEX
  8
0
 10
1816.580241
 20
1870.571776
 42
-0.003990
  0
VERTEX
  8
0
 10
1804.500000
 20
1868.969941
 42
0.018786
  0
VERTEX
  8
0
 10
1770.087733
 20
1863.366412
 42
0.016079
  0
VERTEX
  8
0
 10
1734.339145
 20
1854.953062
 42
0.016598
  0
VERTEX
  8
0
 10
1701.642414
 20
1844.964374
 42
0.034207
  0
VERTEX
  8
0
 10
1677.000000
 20
1834.601721
 42
0.026774
  0
VERTEX
  8
0
 10
1642.214471
 20
1814.685227
 42
0.020859
  0
VERTEX
  8
0
 10
1606.627849
 20
1789.534587
 42
0.018756
  0
VERTEX
  8
0
 10
1569.596596
 20
1758.692895
 42
0.013384
  0
VERTEX
  8
0
 10
1530.437080
 20
1721.568234
 42
0.008245
  0
VERTEX
  8
0
 10
1501.089639
 20
1691.230678
 42
0.010439
  0
VERTEX
  8
0
 10
1475.033754
 20
1662.199699
 42
0.010060
  0
VERTEX
  8
0
 10
1449.458424
 20
1631.240086
 42
0.006815
  0
VERTEX
  8
0
 10
1421.523608
 20
1595.000000
 42
-0.005985
  0
VERTEX
  8
0
 10
1402.495431
 20
1570.229632
 42
-0.009752
  0
VERTEX
  8
0
 10
1385.694894
 20
1549.728341
 42
-0.005951
  0
VERTEX
  8
0
 10
1371.456718
 20
1533.426074
 42
-0.149876
  0
VERTEX
  8
0
 10
1366.440576
 20
1530.395729
 42
-0.199321
  0
VERTEX
  8
0
 10
1358.789321
 20
1531.533182
 42
-0.054694
  0
VERTEX
  8
0
 10
1348.888828
 20
1539.064996
 42
-0.054574
  0
VERTEX
  8
0
 10
1340.616429
 20
1548.843986
 42
-0.149369
  0
VERTEX
  8
0
 10
1338.000000
 20
1557.406875
 42
-0.133274
  0
VERTEX
  8
0
 10
1342.108588
 20
1572.547152
 42
-0.005200
  0
VERTEX
  8
0
 10
1372.089127
 20
1622.519937
 42
-0.009984
  0
VERTEX
  8
0
 10
1405.961168
 20
1675.278934
 42
-0.012695
  0
VERTEX
  8
0
 10
1439.395302
 20
1722.500000
 42
-0.013312
  0
VERTEX
  8
0
 10
1474.584963
 20
1767.090035
 42
-0.015989
  0
VERTEX
  8
0
 10
1510.085577
 20
1807.023053
 42
-0.014670
  0
VERTEX
  8
0
 10
1550.533563
 20
1847.259519
 42
-0.008675
  0
VERTEX
  8
0
 10
1601.000000
 20
1892.979158
 42
0.003246
  0
VERTEX
  8
0
 10
1630.937827
 20
1919.514937
 42
0.002987
  0
VERTEX
  8
0
 10
1661.374038
 20
1947.177530
 42
0.002997
  0
VERTEX
  8
0
 10
1691.360339
 20
1975.093812
 42
0.003338
  0
VERTEX
  8
0
 10
1719.946385
 20
2002.390725
 42
-0.001599
  0
VERTEX
  8
0
 10
1738.316393
 20
2020.054863
 42
-0.002518
  0
VERTEX
  8
0
 10
1754.211082
 20
2035.088868
 42
-0.002667
  0
VERTEX
  8
0
 10
1767.074136
 20
2047.005112
 42
-0.011950
  0
VERTEX
  8
0
 10
1774.807877
 20
2053.760452
 42
-0.008189
  0
VERTEX
  8
0
 10
1778.521518
 20
2056.749411
 42
-0.059010
  0
VERTEX
  8
0
 10
1780.484672
 20
2057.935374
 42
-0.111796
  0
VERTEX
  8
0
 10
1782.114365
 20
2058.270631
 42
-0.064971
  0
VERTEX
  8
0
 10
1784.098923
 20
2057.971629
 42
-0.020892
  0
VERTEX
  8
0
 10
1785.475709
 20
2057.513731
 42
-0.013893
  0
VERTEX
  8
0
 10
1787.014236
 20
2056.880163
 42
-0.013998
  0
VERTEX
  8
0
 10
1788.475643
 20
2056.180669
 42
-0.026413
  0
SEQEND
  0
POLYLINE
  8
0
 66
1
 70
1
  0
VERTEX
  8
0
 10
1050.635053
 20
2027.750000
 42
-0.007771
  0
VERTEX
  8
0
 10
1053.160570
 20
2024.972651
 42
-0.002328
  0
VERTEX
  8
0
 10
1056.922359
 20
2020.664062
 42
-0.002333
  0
VERTEX
  8
0
 10
1061.100259
 20
2015.787868
 42
-0.002526
  0
VERTEX
  8
0
 10
1065.122454
 20
2011.000000
 42
0.023034
  0
VERTEX
  8
0
 10
1081.781987
 20
1992.744288
 42
0.026426
  0
VERTEX
  8
0
 10
1099.337695
 20
1976.964237
 42
0.025725
  0
VERTEX
  8
0
 10
1118.875202
 20
1962.781759
 42
0.019859
  0
VERTEX
  8
0
 10
1141.500000
 20
1949.319416
 42
0.011304
  0
VERTEX
  8
0
 10
1157.373211
 20
1941.167605
 42
0.011016
  0
VERTEX
  8
0
 10
1173.734373
 20
1933.668053
 42
0.008615
  0
VERTEX
  8
0
 10
1193.625465
 20
1925.479259
 42
0.003490
  0
VERTEX
  8
0
 10
1221.000000
 20
1914.977240
 42
-0.013422
  0
VERTEX
  8
0
 10
1263.788346
 20
1897.579258
 42
-0.036090
  0
VERTEX
  8
0
 10
1292.831625
 20
1882.267288
 42
-0.047562
  0
VERTEX
  8
0
 10
1314.427811
 20
1865.768491
 42
-0.044734
  0
VERTEX
  8
0
 10
1333.010065
 20
1845.168794
 42
-0.050252
  0
VERTEX
  8
0
 10
1349.823687
 20
1817.380190
 42
-0.050495
  0
VERTEX
  8
0
 10
1360.723191
 20
1786.840407
 42
-0.045538
  0
VERTEX
  8
0
 10
1366.019444
 20
1752.006012
 42
-0.029631
  0
VERTEX
  8
0
 10
1366.044995
 20
1711.278223
 42
-0.019203
  0
VERTEX
  8
0
 10
1363.442174
 20
1684.534412
 42
-0.039529
  0
VERTEX
  8
0
 10
1358.970122
 20
1664.000329
 42
-0.033605
  0
VERTEX
  8
0
 10
1350.834930
 20
1642.429247
 42
-0.010478
  0
VERTEX
  8
0
 10
1335.815001
 20
1611.238600
 42
0.002089
  0
VERTEX
  8
0
 10
1321.767057
 20
1583.276402
 42
0.019049
  0
VERTEX
  8
0
 10
1316.168888
 20
1570.850367
 42
0.045285
  0
VERTEX
  8
0
 10
1313.735208
 20
1562.832230
 42
0.067735
  0
VERTEX
  8
0
 10
1313.231790
 20
1555.538834
 42
0.095632
  0
VERTEX
  8
0
 10
1317.895664
 20
1537.795140
 42
0.062773
  0
VERTEX
  8
0
 10
1329.386519
 20
1519.989471
 42
0.064539
  0
VERTEX
  8
0
 10
1344.403810
 20
1506.182896
 42
0.126089
  0
VERTEX
  8
0
 10
1359.500000
 20
1500.437361
 42
-0.006028
  0
VERTEX
  8
0
 10
1365.733947
 20
1499.654862
 42
-0.091382
  0
VERTEX
  8
0
 10
1367.794991
 20
1498.973721
 42
-0.215105
  0
VERTEX
  8
0
 10
1368.718103
 20
1497.748272
 42
-0.055673
  0
VERTEX
  8
0
 10
1368.997697
 20
1495.230948
 42
-0.082498
  0
VERTEX
  8
0
 10
1367.573222
 20
1486.688952
 42
-0.004964
  0
VERTEX
  8
0
 10
1358.866079
 20
1462.057985
 42
-0.008156
  0
VERTEX
  8
0
 10
1348.822062
 20
1435.854359
 42
-0.011463
  0
VERTEX
  8
0
 10
1338.949709
 20
1412.842874
 42
-0.013634
  0
VERTEX
  8
0
 10
1325.594438
 20
1385.576511
 42
-0.011658
  0
VERTEX
  8
0
 10
1310.088044
 20
1357.595390
 42
-0.011864
  0
VERTEX
  8
0
 10
1293.678013
 20
1331.014208
 42
-0.016333
  0
VERTEX
  8
0
 10
1277.611042
 20
1308.000000
 42
-0.028697
  0
VERTEX
  8
0
 10
1266.527688
 20
1294.828327
 42
-0.020794
  0
VERTEX
  8
0
 10
1252.790928
 20
1281.446101
 42
-0.014585
  0
VERTEX
  8
0
 10
1233.729536
 20
1265.339516
 42
-0.004895
  0
VERTEX
  8
0
 10
1205.000000
 20
1242.921735
 42
0.005086
  0
VERTEX
  8
0
 10
1173.874817
 20
1218.615548
 42
0.014787
  0
VERTEX
  8
0
 10
1153.050905
 20
1200.978030
 42
0.020912
  0
VERTEX
  8
0
 10
1138.007312
 20
1186.269678
 42
0.029218
  0
VERTEX
  8
0
 10
1125.943217
 20
1171.842427
 42
0.022522
  0
VERTEX
  8
0
 10
1122.921225
 20
1167.357891
 42
0.007474
  0
VERTEX
  8
0
 10
1118.891225
 20
1160.526671
 42
0.007189
  0
VERTEX
  8
0
 10
1114.500286
 20
1152.558638
 42
0.006652
  0
VERTEX
  8
0
 10
1110.222340
 20
1144.260220
 42
-0.005072
  0
VERTEX
  8
0
 10
1106.268390
 20
1136.530385
 42
-0.006301
  0
VERTEX
  8
0
 10
1102.428328
 20
1129.426486
 42
-0.005214
  0
VERTEX
  8
0
 10
1099.073387
 20
1123.547817
 42
-0.046624
  0
VERTEX
  8
0
 10
1097.342182
 20
1121.134119
 42
0.000000
  0
VERTEX
  8
0
 10
1094.184364
 20
1117.500000
 42
0.000000
  0
VERTEX
  8
0
 10
1090.989081
 20
1120.500000
 42
-0.080352
  0
VERTEX
  8
0
 10
1087.225764
 20
1125.383679
 42
-0.011288
  0
VERTEX
  8
0
 10
1081.402147
 20
1136.746333
 42
-0.013641
  0
VERTEX
  8
0
 10
1075.612291
 20
1149.581589
 42
-0.018425
  0
VERTEX
  8
0
 10
1071.131148
 20
1161.500000
 42
-0.022933
  0
VERTEX
  8
0
 10
1066.280279
 20
1178.566420
 42
-0.028759
  0
VERTEX
  8
0
 10
1063.439744
 20
1194.767012
 42
-0.021912
  0
VERTEX
  8
0
 10
1062.024395
 20
1214.321989
 42
-0.007322
  0
VERTEX
  8
0
 10
1061.628855
 20
1243.000000
 42
-0.011851
  0
VERTEX
  8
0
 10
1062.546394
 20
1280.360878
 42
-0.021553
  0
VERTEX
  8
0
 10
1065.331907
 20
1310.767126
 42
-0.025208
  0
VERTEX
  8
0
 10
1070.281377
 20
1337.235553
 42
-0.027154
  0
VERTEX
  8
0
 10
1077.781280
 20
1362.408504
 42
-0.026750
  0
VERTEX
  8
0
 10
1085.648697
 20
1381.155431
 42
-0.019644
  0
VERTEX
  8
0
 10
1096.262146
 20
1401.048249
 42
-0.019254
  0
VERTEX
  8
0
 10
1108.708862
 20
1420.557032
 42
-0.022020
  0
VERTEX
  8
0
 10
1122.107108
 20
1438.165741
 42
-0.024483
  0
VERTEX
  8
0
 10
1141.523445
 20
1459.284598
 42
-0.016071
  0
VERTEX
  8
0
 10
1165.786496
 20
1481.719940
 42
-0.015605
  0
VERTEX
  8
0
 10
1192.526984
 20
1503.473948
 42
-0.017695
  0
VERTEX
  8
0
 10
1219.500000
 20
1522.581466
 42
-0.017561
  0
VERTEX
  8
0
 10
1234.390031
 20
1531.625462
 42
-0.025988
  0
VERTEX
  8
0
 10
1248.084077
 20
1538.388858
 42
-0.025751
  0
VERTEX
  8
0
 10
1262.500505
 20
1543.737940
 42
-0.016813
  0
VERTEX
  8
0
 10
1279.602017
 20
1548.474280
 42
0.016315
  0
VERTEX
  8
0
 10
1294.084404
 20
1552.469722
 42
0.091735
  0
VERTEX
  8
0
 10
1301.158550
 20
1556.195608
 42
0.351258
  0
VERTEX
  8
0
 10
1301.990017
 20
1559.787517
 42
0.171068
  0
VERTEX
  8
0
 10
1298.438404
 20
1563.327982
 42
0.084408
  0
VERTEX
  8
0
 10
1291.486099
 20
1565.301237
 42
0.007374
  0
VERTEX
  8
0
 10
1273.155627
 20
1567.018144
 42
0.006070
  0
VERTEX
  8
0
 10
1244.627907
 20
1568.918181
 42
0.001263
  0
VERTEX
  8
0
 10
1194.500000
 20
1571.519089
 42
-0.015439
  0
VERTEX
  8
0
 10
1121.455093
 20
1577.389075
 42
-0.024448
  0
VERTEX
  8
0
 10
1059.472105
 20
1587.388767
 42
-0.026766
  0
VERTEX
  8
0
 10
1003.068550
 20
1602.535756
 42
-0.024787
  0
VERTEX
  8
0
 10
947.104521
 20
1623.948999
 42
-0.022012
  0
VERTEX
  8
0
 10
902.836437
 20
1645.827440
 42
-0.022855
  0
VERTEX
  8
0
 10
861.232053
 20
1671.262957
 42
-0.022862
  0
VERTEX
  8
0
 10
822.134785
 20
1700.381809
 42
-0.022056
  0
VERTEX
  8
0
 10
785.368991
 20
1733.282241
 42
-0.027565
  0
VERTEX
  8
0
 10
744.596203
 20
1777.792151
 42
-0.034324
  0
VERTEX
  8
0
 10
712.105501
 20
1823.508885
 42
-0.037352
  0
VERTEX
  8
0
 10
688.501689
 20
1869.454114
 42
-0.048353
  0
VERTEX
  8
0
 10
674.357701
 20
1914.652639
 42
-0.027587
  0
VERTEX
  8
0
 10
672.197536
 20
1928.803373
 42
-0.021921
  0
VERTEX
  8
0
 10
671.386475
 20
1944.241571
 42
-0.022245
  0
VERTEX
  8
0
 10
671.928222
 20
1959.354937
 42
-0.032708
  0
VERTEX
  8
0
 10
673.857195
 20
1972.500000
 42
-0.016700
  0
VERTEX
  8
0
 10
677.388398
 20
1986.653905
 42
-0.019397
  0
VERTEX
  8
0
 10
681.709681
 20
1999.840178
 42
-0.019961
  0
VERTEX
  8
0
 10
686.238870
 20
2010.691951
 42
-0.076902
  0
VERTEX
  8
0
 10
690.284624
 20
2016.750000
 42
-0.093413
  0
VERTEX
  8
0
 10
692.864367
 20
2018.679573
 42
-0.278944
  0
VERTEX
  8
0
 10
694.971701
 20
2018.493347
 42
-0.112513
  0
VERTEX
  8
0
 10
697.146792
 20
2015.985765
 42
-0.012857
  0
VERTEX
  8
0
 10
700.523676
 20
2009.250000
 42
0.004273
  0
VERTEX
  8
0
 10
706.037117
 20
1997.764524
 42
0.011098
  0
VERTEX
  8
0
 10
710.260383
 20
1989.618425
 42
0.013126
  0
VERTEX
  8
0
 10
714.403179
 20
1982.494630
 42
0.008601
  0
VERTEX
  8
0
 10
719.529645
 20
1974.500000
 42
0.053273
  0
VERTEX
  8
0
 10
744.231749
 20
1944.803188
 42
0.040439
  0
VERTEX
  8
0
 10
776.928967
 20
1917.834680
 42
0.034635
  0
VERTEX
  8
0
 10
818.602293
 20
1892.877044
 42
0.021510
  0
VERTEX
  8
0
 10
870.505726
 20
1869.239584
 42
0.003427
  0
VERTEX
  8
0
 10
878.376663
 20
1866.118819
 42
0.001008
  0
VERTEX
  8
0
 10
890.495432
 20
1861.437780
 42
0.001012
  0
VERTEX
  8
0
 10
904.148922
 20
1856.227214
 42
0.001087
  0
VERTEX
  8
0
 10
917.500000
 20
1851.196173
 42
-0.004635
  0
VERTEX
  8
0
 10
967.129908
 20
1832.091127
 42
-0.011511
  0
VERTEX
  8
0
 10
1002.987198
 20
1816.941212
 42
-0.015461
  0
VERTEX
  8
0
 10
1030.437427
 20
1803.555833
 42
-0.024383
  0
VERTEX
  8
0
 10
1053.000000
 20
1790.233597
 42
-0.016002
  0
VERTEX
  8
0
 10
1083.277179
 20
1768.885610
 42
-0.010032
  0
VERTEX
  8
0
 10
1117.352249
 20
1742.099857
 42
-0.009142
  0
VERTEX
  8
0
 10
1154.090827
 20
1710.869041
 42
-0.007337
  0
VERTEX
  8
0
 10
1192.500000
 20
1675.973806
 42
0.003492
  0
VERTEX
  8
0
 10
1235.339807
 20
1636.447656
 42
0.008297
  0
VERTEX
  8
0
 10
1267.886651
 20
1607.808902
 42
0.005009
  0
VERTEX
  8
0
 10
1293.343613
 20
1586.583444
 42
0.172939
  0
VERTEX
  8
0
 10
1300.589441
 20
1584.000000
 42
0.069585
  0
VERTEX
  8
0
 10
1301.561002
 20
1584.135871
 42
0.078934
  0
VERTEX
  8
0
 10
1302.413188
 20
1584.532321
 42
0.082429
  0
VERTEX
  8
0
 10
1303.072334
 20
1585.155632
 42
0.085587
  0
VERTEX
  8
0
 10
1303.484395
 20
1585.950834
 42
0.163130
  0
VERTEX
  8
0
 10
1303.403422
 20
1590.986228
 42
0.027880
  0
VERTEX
  8
0
 10
1299.664087
 20
1599.949374
 42
0.018425
  0
VERTEX
  8
0
 10
1292.534830
 20
1613.385528
 42
0.004265
  0
VERTEX
  8
0
 10
1279.521783
 20
1635.432922
 42
-0.004824
  0
VERTEX
  8
0
 10
1273.702925
 20
1645.316767
 42
-0.003878
  0
VERTEX
  8
0
 10
1267.630082
 20
1656.055253
 42
-0.003920
  0
VERTEX
  8
0
 10
1262.172674
 20
1666.066746
 42
-0.009997
  0
VERTEX
  8
0
 10
1258.419304
 20
1673.432922
 42
-0.010819
  0
VERTEX
  8
0
 10
1253.524501
 20
1684.116464
 42
-0.010267
  0
VERTEX
  8
0
 10
1249.006172
 20
1695.188667
 42
-0.006048
  0
VERTEX
  8
0
 10
1243.277960
 20
1710.649257
 42
-0.001210
  0
VERTEX
  8
0
 10
1233.461478
 20
1738.372795
 42
0.016016
  0
VERTEX
  8
0
 10
1221.603357
 20
1768.953006
 42
0.024624
  0
VERTEX
  8
0
 10
1209.226559
 20
1794.497342
 42
0.028006
  0
VERTEX
  8
0
 10
1195.859341
 20
1815.988724
 42
0.034715
  0
VERTEX
  8
0
 10
1181.016329
 20
1834.275436
 42
0.017580
  0
VERTEX
  8
0
 10
1172.575040
 20
1842.700107
 42
0.013432
  0
VERTEX
  8
0
 10
1162.784910
 20
1851.328272
 42
0.010620
  0
VERTEX
  8
0
 10
1150.455098
 20
1861.183083
 42
0.004882
  0
VERTEX
  8
0
 10
1134.000000
 20
1873.519011
 42
-0.002848
  0
VERTEX
  8
0
 10
1115.097857
 20
1887.569694
 42
-0.008593
  0
VERTEX
  8
0
 10
1102.435203
 20
1897.440052
 42
-0.011662
  0
VERTEX
  8
0
 10
1092.456859
 20
1905.889401
 42
-0.011020
  0
VERTEX
  8
0
 10
1082.689244
 20
1914.952032
 42
-0.024605
  0
VERTEX
  8
0
 10
1068.612600
 20
1930.014457
 42
-0.041562
  0
VERTEX
  8
0
 10
1058.587888
 20
1944.077101
 42
-0.044783
  0
VERTEX
  8
0
 10
1051.525832
 20
1958.819769
 42
-0.034794
  0
VERTEX
  8
0
 10
1046.477798
 20
1975.881633
 42
-0.025622
  0
VERTEX
  8
0
 10
1043.445634
 20
1993.883643
 42
-0.021703
  0
VERTEX
  8
0
 10
1042.052875
 20
2013.130614
 42
-0.013482
  0
VERTEX
  8
0
 10
1042.020763
 20
2030.260185
 42
-0.406884
  0
VERTEX
  8
0
 10
1044.830192
 20
2033.000000
 42
-0.178068
  0
VERTEX
  8
0
 10
1045.363931
 20
2032.803691
 42
-0.007591
  0
VERTEX
  8
0
 10
1046.898244
 20
2031.457813
 42
-0.012209
  0
VERTEX
  8
0
 10
1048.684069
 20
2029.761610
 42
-0.008308
  0
SEQEND
  0
POLYLINE
  8
0
 66
1
 70
1
  0
VERTEX
  8
0
 10
656.126608
 20
1783.099142
 42
-0.016057
  0
VERTEX
  8
0
 10
669.173758
 20
1780.029530
 42
-0.017988
  0
VERTEX
  8
0
 10
681.505540
 20
1776.226322
 42
-0.019402
  0
VERTEX
  8
0
 10
692.411273
 20
1771.947091
 42
-0.033136
  0
VERTEX
  8
0
 10
701.089827
 20
1767.440282
 42
-0.035277
  0
VERTEX
  8
0
 10
706.816380
 20
1763.388721
 42
-0.024462
  0
VERTEX
  8
0
 10
712.700331
 20
1758.067876
 42
-0.018459
  0
VERTEX
  8
0
 10
719.479342
 20
1750.787950
 42
-0.007684
  0
VERTEX
  8
0
 10
728.104666
 20
1740.495528
 42
0.034149
  0
VERTEX
  8
0
 10
766.507326
 20
1699.306608
 42
0.025696
  0
VERTEX
  8
0
 10
813.859063
 20
1659.363069
 42
0.024670
  0
VERTEX
  8
0
 10
867.406858
 20
1622.727014
 42
0.024482
  0
VERTEX
  8
0
 10
924.436692
 20
1591.442420
 42
0.009393
  0
VERTEX
  8
0
 10
948.751780
 20
1580.173054
 42
0.014778
  0
VERTEX
  8
0
 10
970.075905
 20
1571.515657
 42
0.014043
  0
VERTEX
  8
0
 10
992.642607
 20
1563.835882
 42
0.007486
  0
VERTEX
  8
0
 10
1020.942783
 20
1555.545736
 42
0.004215
  0
VERTEX
  8
0
 10
1049.275375
 20
1547.961230
 42
0.005112
  0
VERTEX
  8
0
 10
1075.968856
 20
1541.346504
 42
0.005140
  0
VERTEX
  8
0
 10
1098.575619
 20
1536.234031
 42
0.021851
  0
VERTEX
  8
0
 10
1112.235795
 20
1533.911203
 42
-0.013380
  0
VERTEX
  8
0
 10
1115.694113
 20
1533.383231
 42
-0.011902
  0
VERTEX
  8
0
 10
1119.257824
 20
1532.653185
 42
-0.012036
  0
VERTEX
  8
0
 10
1122.431893
 20
1531.842933
 42
-0.035632
  0
VERTEX
  8
0
 10
1124.546792
 20
1531.082326
 42
-0.054121
  0
VERTEX
  8
0
 10
1129.944192
 20
1527.958862
 42
-0.051407
  0
VERTEX
  8
0
 10
1134.649069
 20
1523.701821
 42
-0.055918
  0
VERTEX
  8
0
 10
1137.935510
 20
1519.106989
 42
-0.127984
  0
VERTEX
  8
0
 10
1139.000000
 20
1515.016416
 42
-0.126249
  0
VERTEX
  8
0
 10
1137.709804
 20
1509.988141
 42
-0.027845
  0
VERTEX
  8
0
 10
1132.955766
 20
1502.371779
 42
-0.019336
  0
VERTEX
  8
0
 10
1124.848966
 20
1491.759828
 42
-0.005578
  0
VERTEX
  8
0
 10
1111.515798
 20
1476.000000
 42
0.027575
  0
VERTEX
  8
0
 10
1084.254305
 20
1440.743099
 42
0.040158
  0
VERTEX
  8
0
 10
1064.644655
 20
1406.714645
 42
0.040505
  0
VERTEX
  8
0
 10
1050.841400
 20
1370.214973
 42
0.028723
  0
VERTEX
  8
0
 10
1041.147884
 20
1327.500000
 42
0.007422
  0
VERTEX
  8
0
 10
1037.720456
 20
1304.956373
 42
0.014392
  0
VERTEX
  8
0
 10
1035.769817
 20
1286.839105
 42
0.013760
  0
VERTEX
  8
0
 10
1034.815201
 20
1268.120571
 42
0.006181
  0
VERTEX
  8
0
 10
1034.542575
 20
1243.500000
 42
0.002271
  0
VERTEX
  8
0
 10
1034.650481
 20
1224.998668
 42
0.008760
  0
VERTEX
  8
0
 10
1034.970947
 20
1213.512984
 42
0.012570
  0
VERTEX
  8
0
 10
1035.622134
 20
1204.298452
 42
0.009718
  0
VERTEX
  8
0
 10
1036.778586
 20
1194.297720
 42
0.014297
  0
VERTEX
  8
0
 10
1040.868746
 20
1169.450804
 42
0.021440
  0
VERTEX
  8
0
 10
1045.978089
 20
1148.074406
 42
0.023147
  0
VERTEX
  8
0
 10
1052.546530
 20
1128.501289
 42
0.021588
  0
VERTEX
  8
0
 10
1061.032596
 20
1109.147778
 42
0.018104
  0
VERTEX
  8
0
 10
1069.725947
 20
1092.951116
 42
0.029751
  0
VERTEX
  8
0
 10
1078.354919
 20
1080.015818
 42
0.035716
  0
VERTEX
  8
0
 10
1086.678444
 20
1070.509934
 42
0.082530
  0
VERTEX
  8
0
 10
1094.404498
 20
1065.046232
 42
0.034714
  0
VERTEX
  8
0
 10
1098.060439
 20
1063.579893
 42
0.078247
  0
VERTEX
  8
0
 10
1101.001677
 20
1063.117708
 42
0.078187
  0
VERTEX
  8
0
 10
1103.944046
 20
1063.581584
 42
0.034618
  0
VERTEX
  8
0
 10
1107.603980
 20
1065.050336
 42
0.095019
  0
VERTEX
  8
0
 10
1112.927642
 20
1069.016595
 42
0.056368
  0
VERTEX
  8
0
 10
1117.595482
 20
1075.440214
 42
0.036701
  0
VERTEX
  8
0
 10
1122.282925
 20
1085.334912
 42
0.011637
  0
VERTEX
  8
0
 10
1127.820887
 20
1100.707734
 42
-0.019462
  0
VERTEX
  8
0
 10
1134.944728
 20
1119.552758
 42
-0.031853
  0
VERTEX
  8
0
 10
1142.582015
 20
1134.813043
 42
-0.033822
  0
VERTEX
  8
0
 10
1151.733277
 20
1148.324495
 42
-0.025912
  0
VERTEX
  8
0
 10
1163.428345
 20
1161.800669
 42
-0.021371
  0
VERTEX
  8
0
 10
1173.932638
 20
1171.814398
 42
-0.021868
  0
VERTEX
  8
0
 10
1185.175754
 20
1180.814236
 42
-0.016362
  0
VERTEX
  8
0
 10
1199.701516
 20
1190.721596
 42
-0.005778
  0
VERTEX
  8
0
 10
1221.127646
 20
1203.985260
 42
0.003885
  0
VERTEX
  8
0
 10
1243.791128
 20
1217.896544
 42
0.005281
  0
VERTEX
  8
0
 10
1264.009456
 20
1230.823140
 42
0.005668
  0
VERTEX
  8
0
 10
1280.580594
 20
1241.936458
 42
0.019294
  0
VERTEX
  8
0
 10
1291.000000
 20
1249.705006
 42
0.027336
  0
VERTEX
  8
0
 10
1304.214351
 20
1261.624175
 42
0.017572
  0
VERTEX
  8
0
 10
1318.243770
 20
1276.772014
 42
0.017564
  0
VERTEX
  8
0
 10
1331.188166
 20
1292.883723
 42
0.027107
  0
VERTEX
  8
0
 10
1341.088762
 20
1307.750971
 42
-0.013187
  0
VERTEX
  8
0
 10
1347.795383
 20
1318.456138
 42
-0.027240
  0
VERTEX
  8
0
 10
1353.694391
 20
1326.370761
 42
-0.031642
  0
VERTEX
  8
0
 10
1358.687154
 20
1331.642397
 42
-0.189547
  0
VERTEX
  8
0
 10
1362.139671
 20
1333.000000
 42
-0.241478
  0
VERTEX
  8
0
 10
1364.548208
 20
1331.764753
 42
-0.023223
  0
VERTEX
  8
0
 10
1368.250923
 20
1326.070951
 42
-0.013825
  0
VERTEX
  8
0
 10
1373.891027
 20
1315.807961
 42
-0.001886
  0
VERTEX
  8
0
 10
1384.998424
 20
1294.000000
 42
0.004287
  0
VERTEX
  8
0
 10
1396.828235
 20
1271.046887
 42
0.008575
  0
VERTEX
  8
0
 10
1406.643817
 20
1253.148056
 42
0.009556
  0
VERTEX
  8
0
 10
1416.334110
 20
1236.903797
 42
0.007033
  0
VERTEX
  8
0
 10
1427.661909
 20
1219.271510
 42
0.016138
  0
VERTEX
  8
0
 10
1453.178579
 20
1183.331115
 42
0.015280
  0
VERTEX
  8
0
 10
1481.411681
 20
1148.433353
 42
0.015150
  0
VERTEX
  8
0
 10
1511.981321
 20
1115.026099
 42
0.015177
  0
VERTEX
  8
0
 10
1544.500000
 20
1083.552125
 42
0.013062
  0
VERTEX
  8
0
 10
1562.401243
 20
1068.084384
 42
0.014831
  0
VERTEX
  8
0
 10
1580.359394
 20
1054.238325
 42
0.013853
  0
VERTEX
  8
0
 10
1600.134253
 20
1040.725468
 42
0.009108
  0
VERTEX
  8
0
 10
1623.587128
 20
1026.232121
 42
-0.007367
  0
VERTEX
  8
0
 10
1639.485419
 20
1016.483709
 42
-0.017840
  0
VERTEX
  8
0
 10
1650.850132
 20
1008.701023
 42
-0.021025
  0
VERTEX
  8
0
 10
1660.469880
 20
1000.950821
 42
-0.014900
  0
VERTEX
  8
0
 10
1670.614218
 20
991.500000
 42
-0.019320
  0
VERTEX
  8
0
 10
1682.458833
 20
978.845269
 42
-0.026510
  0
VERTEX
  8
0
 10
1692.025516
 20
966.536547
 42
-0.027358
  0
VERTEX
  8
0
 10
1700.007883
 20
953.603927
 42
-0.022815
  0
VERTEX
  8
0
 10
1707.071065
 20
939.081054
 42
-0.026908
  0
VERTEX
  8
0
 10
1713.062848
 20
922.830280
 42
-0.027831
  0
VERTEX
  8
0
 10
1717.196829
 20
906.210565
 42
-0.026503
  0
VERTEX
  8
0
 10
1719.603932
 20
888.508587
 42
-0.020324
  0
VERTEX
  8
0
 10
1720.414265
 20
869.000000
 42
-0.026978
  0
VERTEX
  8
0
 10
1719.065590
 20
843.612057
 42
-0.033777
  0
VERTEX
  8
0
 10
1714.970691
 20
820.390306
 42
-0.031838
  0
VERTEX
  8
0
 10
1707.546517
 20
796.867996
 42
-0.020200
  0
VERTEX
  8
0
 10
1696.093181
 20
770.500000
 42
-0.020967
  0
VERTEX
  8
0
 10
1682.227866
 20
744.636030
 42
-0.012338
  0
VERTEX
  8
0
 10
1663.628155
 20
714.883202
 42
-0.012358
  0
VERTEX
  8
0
 10
1643.865203
 20
686.491459
 42
-0.023926
  0
VERTEX
  8
0
 10
1626.462773
 20
665.000000
 42
0.002423
  0
VERTEX
  8
0
 10
1623.355753
 20
661.483455
 42
0.001253
  0
VERTEX
  8
0
 10
1619.504430
 20
657.059375
 42
0.001246
  0
VERTEX
  8
0
 10
1615.568334
 20
652.492019
 42
0.001891
  0
VERTEX
  8
0
 10
1612.171465
 20
648.500000
 42
-0.012634
  0
VERTEX
  8
0
 10
1597.824932
 20
632.355851
 42
-0.009355
  0
VERTEX
  8
0
 10
1581.191647
 20
615.218964
 42
-0.007558
  0
VERTEX
  8
0
 10
1560.607388
 20
595.398962
 42
-0.003736
  0
VERTEX
  8
0
 10
1533.904167
 20
570.824988
 42
-0.015551
  0
VERTEX
  8
0
 10
1438.241729
 20
489.374648
 42
-0.017355
  0
VERTEX
  8
0
 10
1341.057540
 20
417.089098
 42
-0.017795
  0
VERTEX
  8
0
 10
1241.443506
 20
353.348156
 42
-0.018324
  0
VERTEX
  8
0
 10
1138.500000
 20
297.510658
 42
-0.007069
  0
VERTEX
  8
0
 10
1090.380112
 20
274.490302
 42
-0.007410
  0
VERTEX
  8
0
 10
1042.375362
 20
253.210401
 42
-0.006696
  0
VERTEX
  8
0
 10
989.652616
 20
231.597256
 42
-0.004112
  0
VERTEX
  8
0
 10
927.000000
 20
207.481640
 42
0.002170
  0
VERTEX
  8
0
 10
892.165376
 20
194.228526
 42
0.002379
  0
VERTEX
  8
0
 10
858.502031
 20
181.069164
 42
0.002260
  0
VERTEX
  8
0
 10
823.479862
 20
167.002646
 42
0.001626
  0
VERTEX
  8
0
 10
784.500000
 20
150.993653
 42
-0.005545
  0
VERTEX
  8
0
 10
689.789762
 20
112.961176
 42
-0.016783
  0
VERTEX
  8
0
 10
624.218364
 20
89.972301
 42
-0.023526
  0
VERTEX
  8
0
 10
571.148653
 20
76.047841
 42
-0.026396
  0
VERTEX
  8
0
 10
519.000000
 20
67.804646
 42
-0.021955
  0
VERTEX
  8
0
 10
500.074749
 20
66.666025
 42
-0.005317
  0
VERTEX
  8
0
 10
468.719999
 20
66.491852
 42
-0.005368
  0
VERTEX
  8
0
 10
437.321933
 20
66.988435
 42
-0.021068
  0
VERTEX
  8
0
 10
418.000000
 20
68.317578
 42
-0.027956
  0
VERTEX
  8
0
 10
358.341508
 20
78.356354
 42
-0.033025
  0
VERTEX
  8
0
 10
303.492974
 20
94.642184
 42
-0.034178
  0
VERTEX
  8
0
 10
252.910040
 20
117.412605
 42
-0.034370
  0
VERTEX
  8
0
 10
206.000000
 20
146.824662
 42
-0.021642
  0
VERTEX
  8
0
 10
164.480985
 20
179.854808
 42
-0.037642
  0
VERTEX
  8
0
 10
133.526524
 20
211.129439
 42
-0.039238
  0
VERTEX
  8
0
 10
108.467866
 20
245.746959
 42
-0.026036
  0
VERTEX
  8
0
 10
85.115812
 20
288.894416
 42
-0.011633
  0
VERTEX
  8
0
 10
71.277807
 20
319.819353
 42
-0.022375
  0
VERTEX
  8
0
 10
61.899310
 20
345.294850
 42
-0.025580
  0
VERTEX
  8
0
 10
55.652969
 20
369.076678
 42
-0.022092
  0
VERTEX
  8
0
 10
51.499940
 20
394.563914
 42
-0.023255
  0
VERTEX
  8
0
 10
48.892287
 20
431.307951
 42
-0.007442
  0
VERTEX
  8
0
 10
48.373953
 20
486.068454
 42
-0.007692
  0
VERTEX
  8
0
 10
49.554589
 20
542.817031
 42
-0.014986
  0
VERTEX
  8
0
 10
52.548025
 20
588.000000
 42
-0.009603
  0
VERTEX
  8
0
 10
59.461395
 20
647.678045
 42
-0.002592
  0
VERTEX
  8
0
 10
72.726005
 20
741.996210
 42
-0.002749
  0
VERTEX
  8
0
 10
87.570561
 20
839.949112
 42
-0.005560
  0
VERTEX
  8
0
 10
100.540621
 20
916.879942
 42
-0.008719
  0
VERTEX
  8
0
 10
119.081932
 20
1010.468658
 42
-0.012853
  0
VERTEX
  8
0
 10
138.890152
 20
1091.861605
 42
-0.013377
  0
VERTEX
  8
0
 10
162.194780
 20
1169.621574
 42
-0.010717
  0
VERTEX
  8
0
 10
191.295815
 20
1252.055298
 42
-0.006911
  0
VERTEX
  8
0
 10
208.493269
 20
1295.793783
 42
-0.008287
  0
VERTEX
  8
0
 10
225.923407
 20
1336.450190
 42
-0.007070
  0
VERTEX
  8
0
 10
246.834554
 20
1381.365012
 42
-0.003299
  0
VERTEX
  8
0
 10
275.136667
 20
1439.000000
 42
-0.001643
  0
VERTEX
  8
0
 10
292.939016
 20
1474.365238
 42
-0.009167
  0
VERTEX
  8
0
 10
302.891003
 20
1493.114829
 42
-0.012172
  0
VERTEX
  8
0
 10
312.289986
 20
1509.132595
 42
-0.004366
  0
VERTEX
  8
0
 10
326.429398
 20
1531.500000
 42
-0.014822
  0
VERTEX
  8
0
 10
386.910629
 20
1619.509363
 42
-0.029407
  0
VERTEX
  8
0
 10
440.815374
 20
1684.751224
 42
-0.036855
  0
VERTEX
  8
0
 10
492.044333
 20
1732.264968
 42
-0.053384
  0
VERTEX
  8
0
 10
544.043826
 20
1765.407913
 42
-0.017965
  0
VERTEX
  8
0
 10
559.562446
 20
1772.428610
 42
-0.020733
  0
VERTEX
  8
0
 10
574.828908
 20
1777.957499
 42
-0.021195
  0
VERTEX
  8
0
 10
590.192273
 20
1782.104124
 42
-0.020591
  0
VERTEX
  8
0
 10
606.000000
 20
1784.981659
 42
-0.033945
  0
VERTEX
  8
0
 10
615.791538
 20
1785.678241
 42
-0.010174
  0
VERTEX
  8
0
 10
630.751084
 20
1785.421058
 42
-0.010357
  0
VERTEX
  8
0
 10
645.799966
 20
1784.543449
 42
-0.030007
  0
SEQEND
  0
POLYLINE
  8
0
 66
1
 70
1
  0
VERTEX
  8
0
 10
1597.500000
 20
1629.934829
 42
-0.035511
  0
VERTEX
  8
0
 10
1615.882474
 20
1625.489512
 42
-0.048527
  0
VERTEX
  8
0
 10
1631.529581
 20
1618.777182
 42
-0.043843
  0
VERTEX
  8
0
 10
1646.720564
 20
1608.609366
 42
-0.022768
  0
VERTEX
  8
0
 10
1663.843685
 20
1593.500000
 42
-0.016148
  0
VERTEX
  8
0
 10
1677.885313
 20
1579.018313
 42
-0.014252
  0
VERTEX
  8
0
 10
1691.580513
 20
1563.058328
 42
-0.012216
  0
VERTEX
  8
0
 10
1706.156988
 20
1544.130347
 42
-0.006882
  0
VERTEX
  8
0
 10
1722.957368
 20
1520.500000
 42
0.014879
  0
VERTEX
  8
0
 10
1744.846643
 20
1490.731738
 42
0.042449
  0
VERTEX
  8
0
 10
1762.334827
 20
1471.908356
 42
0.045460
  0
VERTEX
  8
0
 10
1782.061531
 20
1457.022307
 42
0.019148
  0
VERTEX
  8
0
 10
1810.959191
 20
1440.580139
 42
-0.004868
  0
VERTEX
  8
0
 10
1818.545342
 20
1436.546030
 42
-0.005986
  0
VERTEX
  8
0
 10
1825.541765
 20
1432.628389
 42
-0.005020
  0
VERTEX
  8
0
 10
1831.339107
 20
1429.212423
 42
-0.042762
  0
VERTEX
  8
0
 10
1833.779891
 20
1427.440371
 42
-0.008713
  0
VERTEX
  8
0
 10
1836.135444
 20
1425.328638
 42
-0.119864
  0
VERTEX
  8
0
 10
1836.763302
 20
1424.378445
 42
-0.231144
  0
VERTEX
  8
0
 10
1836.668269
 20
1423.509942
 42
-0.042771
  0
VERTEX
  8
0
 10
1835.668221
 20
1422.191126
 42
-0.075941
  0
VERTEX
  8
0
 10
1832.653408
 20
1419.728484
 42
-0.016408
  0
VERTEX
  8
0
 10
1826.729490
 20
1416.488187
 42
-0.017990
  0
VERTEX
  8
0
 10
1820.179103
 20
1413.470274
 42
-0.030859
  0
VERTEX
  8
0
 10
1814.500000
 20
1411.499248
 42
-0.049666
  0
VERTEX
  8
0
 10
1805.364052
 20
1409.901751
 42
-0.013158
  0
VERTEX
  8
0
 10
1790.553296
 20
1409.197077
 42
-0.013958
  0
VERTEX
  8
0
 10
1775.050116
 20
1409.300723
 42
-0.027287
  0
VERTEX
  8
0
 10
1762.748332
 20
1410.400466
 42
-0.013366
  0
VERTEX
  8
0
 10
1752.841500
 20
1412.105650
 42
-0.013259
  0
VERTEX
  8
0
 10
1743.013096
 20
1414.341686
 42
-0.013788
  0
VERTEX
  8
0
 10
1733.764384
 20
1416.979083
 42
-0.018878
  0
VERTEX
  8
0
 10
1725.612011
 20
1419.891493
 42
-0.024276
  0
VERTEX
  8
0
 10
1711.450751
 20
1426.376043
 42
-0.005977
  0
VERTEX
  8
0
 10
1688.867610
 20
1438.418928
 42
-0.006446
  0
VERTEX
  8
0
 10
1665.449236
 20
1451.664740
 42
-0.012110
  0
VERTEX
  8
0
 10
1646.938162
 20
1463.061535
 42
0.009683
  0
VERTEX
  8
0
 10
1634.653499
 20
1470.707356
 42
0.006955
  0
VERTEX
  8
0
 10
1620.652902
 20
1478.787699
 42
0.006341
  0
VERTEX
  8
0
 10
1605.013596
 20
1487.267669
 42
0.004902
  0
VERTEX
  8
0
 10
1587.765674
 20
1496.123975
 42
0.000000
  0
VERTEX
  8
0
 10
1571.500000
 20
1504.275426
 42
0.000000
  0
VERTEX
  8
0
 10
1545.000000
 20
1503.602353
 42
0.002721
  0
VERTEX
  8
0
 10
1508.963100
 20
1502.490773
 42
0.004139
  0
VERTEX
  8
0
 10
1477.673536
 20
1501.095679
 42
0.004232
  0
VERTEX
  8
0
 10
1452.501882
 20
1499.550705
 42
0.021326
  0
VERTEX
  8
0
 10
1438.500000
 20
1497.970078
 42
0.032931
  0
VERTEX
  8
0
 10
1434.152452
 20
1496.993796
 42
0.117083
  0
VERTEX
  8
0
 10
1431.691364
 20
1495.585199
 42
0.144779
  0
VERTEX
  8
0
 10
1430.415155
 20
1493.408520
 42
0.060758
  0
VERTEX
  8
0
 10
1430.000000
 20
1490.004651
 42
0.116386
  0
VERTEX
  8
0
 10
1431.318607
 20
1484.416575
 42
0.063848
  0
VERTEX
  8
0
 10
1435.257580
 20
1478.546068
 42
0.050975
  0
VERTEX
  8
0
 10
1441.606177
 20
1472.626616
 42
0.030472
  0
VERTEX
  8
0
 10
1450.203879
 20
1466.899252
 42
-0.011064
  0
VERTEX
  8
0
 10
1476.309106
 20
1450.935362
 42
-0.001878
  0
VERTEX
  8
0
 10
1525.290795
 20
1419.211688
 42
-0.001673
  0
VERTEX
  8
0
 10
1574.200972
 20
1387.038968
 42
-0.014503
  0
VERTEX
  8
0
 10
1595.501908
 20
1372.018326
 42
-0.031921
  0
VERTEX
  8
0
 10
1635.206353
 20
1338.097348
 42
-0.025820
  0
VERTEX
  8
0
 10
1673.354454
 20
1297.011858
 42
-0.022545
  0
VERTEX
  8
0
 10
1711.680043
 20
1246.767428
 42
-0.014240
  0
VERTEX
  8
0
 10
1751.977971
 20
1185.000000
 42
0.005022
  0
VERTEX
  8
0
 10
1763.759133
 20
1166.193499
 42
0.003495
  0
VERTEX
  8
0
 10
1777.421001
 20
1145.188685
 42
0.003443
  0
VERTEX
  8
0
 10
1790.469969
 20
1125.722592
 42
0.009977
  0
VERTEX
  8
0
 10
1799.857552
 20
1112.500000
 42
0.034073
  0
VERTEX
  8
0
 10
1822.926198
 20
1085.413214
 42
0.035142
  0
VERTEX
  8
0
 10
1849.237060
 20
1062.010522
 42
0.036924
  0
VERTEX
  8
0
 10
1877.091113
 20
1043.645877
 42
0.049834
  0
VERTEX
  8
0
 10
1904.758593
 20
1031.637237
 42
-0.008510
  0
VERTEX
  8
0
 10
1913.478164
 20
1028.680425
 42
-0.025414
  0
VERTEX
  8
0
 10
1919.292054
 20
1026.258121
 42
-0.036690
  0
VERTEX
  8
0
 10
1923.103878
 20
1024.081010
 42
-0.122385
  0
VERTEX
  8
0
 10
1925.021963
 20
1021.958961
 42
-0.170205
  0
VERTEX
  8
0
 10
1925.502449
 20
1018.868063
 42
-0.141942
  0
VERTEX
  8
0
 10
1924.004409
 20
1015.881809
 42
-0.062729
  0
VERTEX
  8
0
 10
1919.837425
 20
1012.382411
 42
-0.011763
  0
VERTEX
  8
0
 10
1911.325459
 20
1007.166988
 42
-0.030974
  0
VERTEX
  8
0
 10
1898.811934
 20
1000.900580
 42
-0.035314
  0
VERTEX
  8
0
 10
1886.148373
 20
996.538386
 42
-0.032905
  0
VERTEX
  8
0
 10
1872.255385
 20
993.789263
 42
-0.021599
  0
VERTEX
  8
0
 10
1856.000000
 20
992.381654
 42
-0.038049
  0
VERTEX
  8
0
 10
1815.021931
 20
993.729315
 42
-0.033471
  0
VERTEX
  8
0
 10
1772.882937
 20
1001.217044
 42
-0.031719
  0
VERTEX
  8
0
 10
1729.935410
 20
1014.794143
 42
-0.026899
  0
VERTEX
  8
0
 10
1686.541559
 20
1034.349483
 42
-0.035361
  0
VERTEX
  8
0
 10
1627.899812
 20
1070.131390
 42
-0.033160
  0
VERTEX
  8
0
 10
1573.537369
 20
1114.530776
 42
-0.031523
  0
VERTEX
  8
0
 10
1523.072244
 20
1167.987917
 42
-0.025917
  0
VERTEX
  8
0
 10
1476.084182
 20
1230.865473
 42
-0.016072
  0
VERTEX
  8
0
 10
1456.011981
 20
1263.037913
 42
-0.015821
  0
VERTEX
  8
0
 10
1437.936592
 20
1296.600012
 42
-0.014705
  0
VERTEX
  8
0
 10
1420.896215
 20
1333.465924
 42
-0.010502
  0
VERTEX
  8
0
 10
1403.926290
 20
1375.639067
 42
-0.006589
  0
VERTEX
  8
0
 10
1393.465361
 20
1404.441691
 42
-0.022681
  0
VERTEX
  8
0
 10
1387.784922
 20
1423.487807
 42
-0.030864
  0
VERTEX
  8
0
 10
1384.794320
 20
1439.666551
 42
-0.022694
  0
VERTEX
  8
0
 10
1383.414979
 20
1457.853936
 42
0.006886
  0
VERTEX
  8
0
 10
1382.834203
 20
1471.018884
 42
0.014137
  0
VERTEX
  8
0
 10
1381.946287
 20
1481.302326
 42
0.016362
  0
VERTEX
  8
0
 10
1380.802452
 20
1489.020716
 42
0.074488
  0
VERTEX
  8
0
 10
1379.341239
 20
1493.307010
 42
-0.064444
  0
VERTEX
  8
0
 10
1378.418090
 20
1495.847492
 42
-0.179872
  0
VERTEX
  8
0
 10
1378.671329
 20
1497.696576
 42
-0.107430
  0
VERTEX
  8
0
 10
1380.227793
 20
1499.521821
 42
-0.016064
  0
VERTEX
  8
0
 10
1384.180367
 20
1502.334941
 42
0.056488
  0
VERTEX
  8
0
 10
1391.889708
 20
1508.818922
 42
0.010104
  0
VERTEX
  8
0
 10
1404.567071
 20
1522.746110
 42
0.009039
  0
VERTEX
  8
0
 10
1420.822951
 20
1542.039123
 42
0.004134
  0
VERTEX
  8
0
 10
1441.371105
 20
1567.772650
 42
-0.008793
  0
VERTEX
  8
0
 10
1459.075539
 20
1589.526030
 42
-0.030723
  0
VERTEX
  8
0
 10
1471.562291
 20
1602.607190
 42
-0.045779
  0
VERTEX
  8
0
 10
1482.579098
 20
1611.082103
 42
-0.048500
  0
VERTEX
  8
0
 10
1494.750021
 20
1617.223292
 42
-0.016948
  0
VERTEX
  8
0
 10
1503.589612
 20
1620.315293
 42
-0.005271
  0
VERTEX
  8
0
 10
1517.063620
 20
1624.366239
 42
-0.005127
  0
VERTEX
  8
0
 10
1530.521236
 20
1628.108947
 42
-0.019657
  0
VERTEX
  8
0
 10
1539.002113
 20
1630.020521
 42
-0.025928
  0
VERTEX
  8
0
 10
1552.578502
 20
1631.802904
 42
-0.020042
  0
VERTEX
  8
0
 10
1567.492828
 20
1632.379098
 42
-0.019632
  0
VERTEX
  8
0
 10
1582.783731
 20
1631.756047
 42
-0.021576
  0
SEQEND
  0
POLYLINE
  8
0
 66
1
 70
1
  0
VERTEX
  8
0
 10
1058.398830
 20
1985.596952
 42
0.248061
  0
VERTEX
  8
0
 10
1059.091870
 20
1979.844405
 42
0.012278
  0
VERTEX
  8
0
 10
1070.711263
 20
1963.933451
 42
0.020036
  0
VERTEX
  8
0
 10
1084.337049
 20
1947.603822
 42
0.029243
  0
VERTEX
  8
0
 10
1097.695024
 20
1934.471487
 42
0.022672
  0
VERTEX
  8
0
 10
1110.223881
 20
1924.482603
 42
0.030299
  0
VERTEX
  8
0
 10
1122.486927
 20
1916.671468
 42
0.025189
  0
VERTEX
  8
0
 10
1137.253123
 20
1909.425139
 42
0.010252
  0
VERTEX
  8
0
 10
1158.000000
 20
1901.009842
 42
-0.009486
  0
VERTEX
  8
0
 10
1178.707289
 20
1892.647549
 42
-0.013108
  0
VERTEX
  8
0
 10
1196.931730
 20
1884.311673
 42
-0.014200
  0
VERTEX
  8
0
 10
1213.450193
 20
1875.636179
 42
-0.015399
  0
VERTEX
  8
0
 10
1229.000000
 20
1866.255926
 42
-0.014749
  0
VERTEX
  8
0
 10
1238.425952
 20
1859.764441
 42
-0.023880
  0
VERTEX
  8
0
 10
1245.990876
 20
1853.642770
 42
-0.026147
  0
VERTEX
  8
0
 10
1252.430646
 20
1847.267429
 42
-0.023486
  0
VERTEX
  8
0
 10
1258.418050
 20
1840.030340
 42
-0.024805
  0
VERTEX
  8
0
 10
1270.681968
 20
1821.895546
 42
-0.069016
  0
VERTEX
  8
0
 10
1276.758180
 20
1807.807832
 42
-0.055755
  0
VERTEX
  8
0
 10
1279.442397
 20
1790.960509
 42
-0.012132
  0
VERTEX
  8
0
 10
1280.100646
 20
1761.500000
 42
0.008236
  0
VERTEX
  8
0
 10
1280.674578
 20
1722.050141
 42
0.022918
  0
VERTEX
  8
0
 10
1282.801439
 20
1694.428184
 42
0.029459
  0
VERTEX
  8
0
 10
1286.281725
 20
1675.472378
 42
0.167490
  0
VERTEX
  8
0
 10
1291.754725
 20
1666.978293
 42
0.176523
  0
VERTEX
  8
0
 10
1296.010714
 20
1665.581726
 42
0.249712
  0
VERTEX
  8
0
 10
1299.400564
 20
1667.530694
 42
0.082832
  0
VERTEX
  8
0
 10
1302.186028
 20
1674.225004
 42
0.013079
  0
VERTEX
  8
0
 10
1305.066892
 20
1688.230898
 42
-0.005137
  0
VERTEX
  8
0
 10
1306.397592
 20
1695.264691
 42
-0.003896
  0
VERTEX
  8
0
 10
1307.996323
 20
1702.952201
 42
-0.003939
  0
VERTEX
  8
0
 10
1309.609854
 20
1710.143710
 42
-0.009161
  0
VERTEX
  8
0
 10
1310.959920
 20
1715.500000
 42
-0.000101
  0
VERTEX
  8
0
 10
1312.254008
 20
1720.260350
 42
-0.000077
  0
VERTEX
  8
0
 10
1313.672744
 20
1725.471875
 42
-0.000078
  0
VERTEX
  8
0
 10
1315.003809
 20
1730.355373
 42
-0.000184
  0
VERTEX
  8
0
 10
1315.999251
 20
1734.000000
 42
0.045727
  0
VERTEX
  8
0
 10
1319.257120
 20
1752.361722
 42
0.048161
  0
VERTEX
  8
0
 10
1319.036489
 20
1770.686870
 42
0.046827
  0
VERTEX
  8
0
 10
1315.272275
 20
1789.079333
 42
0.039140
  0
VERTEX
  8
0
 10
1307.993405
 20
1807.642016
 42
0.024861
  0
VERTEX
  8
0
 10
1302.662248
 20
1817.362489
 42
0.024471
  0
VERTEX
  8
0
 10
1296.366537
 20
1826.559133
 42
0.021742
  0
VERTEX
  8
0
 10
1288.530794
 20
1836.001052
 42
0.013186
  0
VERTEX
  8
0
 10
1278.500948
 20
1846.500000
 42
0.018339
  0
VERTEX
  8
0
 10
1264.336076
 20
1859.569502
 42
0.015654
  0
VERTEX
  8
0
 10
1248.500622
 20
1872.302382
 42
0.015935
  0
VERTEX
  8
0
 10
1232.287567
 20
1883.731975
 42
0.022003
  0
VERTEX
  8
0
 10
1217.000000
 20
1892.858101
 42
0.022838
  0
VERTEX
  8
0
 10
1212.459040
 20
1895.043342
 42
0.003431
  0
VERTEX
  8
0
 10
1203.127651
 20
1898.944543
 42
0.003847
  0
VERTEX
  8
0
 10
1192.033734
 20
1903.394040
 42
0.003313
  0
VERTEX
  8
0
 10
1180.306897
 20
1907.903547
 42
-0.004956
  0
VERTEX
  8
0
 10
1141.097024
 20
1923.129651
 42
-0.036414
  0
VERTEX
  8
0
 10
1123.030621
 20
1931.926093
 42
-0.049200
  0
VERTEX
  8
0
 10
1108.652640
 20
1942.282659
 42
-0.013191
  0
VERTEX
  8
0
 10
1088.000000
 20
1961.481219
 42
0.001616
  0
VERTEX
  8
0
 10
1070.517179
 20
1978.504272
 42
0.021305
  0
VERTEX
  8
0
 10
1063.772016
 20
1984.495086
 42
0.085413
  0
VERTEX
  8
0
 10
1060.281637
 20
1986.462247
 42
0.407318
  0
SEQEND
  0
POLYLINE
  8
0
 66
1
 70
1
  0
VERTEX
  8
0
 10
692.882637
 20
1972.331282
 42
0.110474
  0
VERTEX
  8
0
 10
692.143457
 20
1967.738737
 42
0.020966
  0
VERTEX
  8
0
 10
693.015283
 20
1959.254481
 42
0.022172
  0
VERTEX
  8
0
 10
694.869615
 20
1949.542497
 42
0.022380
  0
VERTEX
  8
0
 10
697.572251
 20
1940.063642
 42
0.035331
  0
VERTEX
  8
0
 10
705.116591
 20
1921.872657
 42
0.029641
  0
VERTEX
  8
0
 10
715.549587
 20
1903.778734
 42
0.027069
  0
VERTEX
  8
0
 10
729.046176
 20
1885.515555
 42
0.020045
  0
VERTEX
  8
0
 10
745.805884
 20
1866.811865
 42
0.016036
  0
VERTEX
  8
0
 10
761.496428
 20
1851.657824
 42
0.023665
  0
VERTEX
  8
0
 10
776.277222
 20
1839.493104
 42
0.024979
  0
VERTEX
  8
0
 10
791.500753
 20
1829.270428
 42
0.021238
  0
VERTEX
  8
0
 10
808.500000
 20
1820.007342
 42
0.017668
  0
VERTEX
  8
0
 10
826.227042
 20
1812.066953
 42
0.017117
  0
VERTEX
  8
0
 10
844.656798
 20
1805.306862
 42
0.013064
  0
VERTEX
  8
0
 10
867.455321
 20
1798.473494
 42
0.004974
  0
VERTEX
  8
0
 10
899.561436
 20
1790.099701
 42
-0.006336
  0
VERTEX
  8
0
 10
927.575870
 20
1782.711557
 42
-0.015005
  0
VERTEX
  8
0
 10
948.181138
 20
1776.325525
 42
-0.018203
  0
VERTEX
  8
0
 10
965.792109
 20
1769.556705
 42
-0.015140
  0
VERTEX
  8
0
 10
984.000000
 20
1761.126189
 42
-0.011517
  0
VERTEX
  8
0
 10
997.918268
 20
1753.757095
 42
-0.009398
  0
VERTEX
  8
0
 10
1012.471566
 20
1745.254292
 42
-0.006545
  0
VERTEX
  8
0
 10
1030.917926
 20
1733.672762
 42
-0.002070
  0
VERTEX
  8
0
 10
1058.156386
 20
1715.909603
 42
0.000984
  0
VERTEX
  8
0
 10
1084.643869
 20
1698.554096
 42
0.010411
  0
VERTEX
  8
0
 10
1095.609125
 20
1691.721256
 42
0.018022
  0
VERTEX
  8
0
 10
1101.881231
 20
1688.291560
 42
0.322041
  0
VERTEX
  8
0
 10
1104.027033
 20
1688.635098
 42
0.393751
  0
VERTEX
  8
0
 10
1104.252762
 20
1694.461419
 42
0.013922
  0
VERTEX
  8
0
 10
1087.731122
 20
1712.579883
 42
0.020251
  0
VERTEX
  8
0
 10
1066.052838
 20
1733.313322
 42
0.014948
  0
VERTEX
  8
0
 10
1040.500000
 20
1754.520665
 42
0.012762
  0
VERTEX
  8
0
 10
1027.721710
 20
1763.981449
 42
0.011844
  0
VERTEX
  8
0
 10
1014.159853
 20
1773.024700
 42
0.012088
  0
VERTEX
  8
0
 10
1000.516843
 20
1781.207226
 42
0.015257
  0
VERTEX
  8
0
 10
987.500000
 20
1788.076125
 42
0.017636
  0
VERTEX
  8
0
 10
970.067602
 20
1795.856267
 42
0.021018
  0
VERTEX
  8
0
 10
953.110106
 20
1801.902050
 42
0.015219
  0
VERTEX
  8
0
 10
931.797662
 20
1807.800689
 42
0.004562
  0
VERTEX
  8
0
 10
899.000000
 20
1815.495661
 42
-0.019399
  0
VERTEX
  8
0
 10
862.993123
 20
1825.078894
 42
-0.022857
  0
VERTEX
  8
0
 10
829.794132
 20
1836.995388
 42
-0.024361
  0
VERTEX
  8
0
 10
799.852274
 20
1851.056154
 42
-0.030349
  0
VERTEX
  8
0
 10
773.626935
 20
1867.078321
 42
-0.036172
  0
VERTEX
  8
0
 10
760.041622
 20
1878.096166
 42
-0.020368
  0
VERTEX
  8
0
 10
745.158654
 20
1893.251391
 42
-0.019888
  0
VERTEX
  8
0
 10
730.906096
 20
1910.316356
 42
-0.024943
  0
VERTEX
  8
0
 10
719.162914
 20
1927.255378
 42
-0.013053
  0
VERTEX
  8
0
 10
714.562425
 20
1935.103381
 42
-0.013322
  0
VERTEX
  8
0
 10
710.410485
 20
1943.128142
 42
-0.013462
  0
VERTEX
  8
0
 10
706.732911
 20
1951.277756
 42
-0.014046
  0
VERTEX
  8
0
 10
703.554320
 20
1959.500000
 42
0.014958
  0
VERTEX
  8
0
 10
700.016276
 20
1968.602645
 42
0.073417
  0
VERTEX
  8
0
 10
697.154301
 20
1973.300134
 42
0.288183
  0
VERTEX
  8
0
 10
694.852140
 20
1974.052498
 42
0.240973
  0
SEQEND
  0
POLYLINE
  8
0
 66
1
 70
1
  0
VERTEX
  8
0
 10
1285.500000
 20
1485.089720
 42
0.018517
  0
VERTEX
  8
0
 10
1265.998961
 20
1476.281503
 42
0.029399
  0
VERTEX
  8
0
 10
1250.105416
 20
1467.180214
 42
0.029491
  0
VERTEX
  8
0
 10
1235.423986
 20
1456.299272
 42
0.018784
  0
VERTEX
  8
0
 10
1219.636619
 20
1442.047244
 42
0.022646
  0
VERTEX
  8
0
 10
1203.207592
 20
1424.539292
 42
0.021219
  0
VERTEX
  8
0
 10
1188.049544
 20
1405.244521
 42
0.020648
  0
VERTEX
  8
0
 10
1174.194981
 20
1384.198177
 42
0.018854
  0
VERTEX
  8
0
 10
1161.670077
 20
1361.444119
 42
0.021837
  0
VERTEX
  8
0
 10
1150.724550
 20
1337.053098
 42
0.005812
  0
VERTEX
  8
0
 10
1135.449434
 20
1297.260876
 42
0.004010
  0
VERTEX
  8
0
 10
1120.881565
 20
1256.962433
 42
0.054149
  0
VERTEX
  8
0
 10
1117.303488
 20
1241.726883
 42
0.008129
  0
VERTEX
  8
0
 10
1117.012573
 20
1238.998440
 42
0.086078
  0
VERTEX
  8
0
 10
1117.103633
 20
1237.887271
 42
0.303952
  0
VERTEX
  8
0
 10
1117.544745
 20
1237.494779
 42
0.126516
  0
VERTEX
  8
0
 10
1118.375126
 20
1237.590455
 42
0.163487
  0
VERTEX
  8
0
 10
1121.577944
 20
1240.236624
 42
0.009770
  0
VERTEX
  8
0
 10
1128.073023
 20
1251.155166
 42
0.010613
  0
VERTEX
  8
0
 10
1136.718928
 20
1267.137853
 42
0.003301
  0
VERTEX
  8
0
 10
1149.034202
 20
1291.500000
 42
-0.004214
  0
VERTEX
  8
0
 10
1163.836452
 20
1320.649604
 42
-0.007234
  0
VERTEX
  8
0
 10
1176.727723
 20
1344.658044
 42
-0.008425
  0
VERTEX
  8
0
 10
1188.689132
 20
1365.352517
 42
-0.010239
  0
VERTEX
  8
0
 10
1200.612659
 20
1384.311250
 42
-0.014650
  0
VERTEX
  8
0
 10
1220.908215
 20
1413.276365
 42
-0.025581
  0
VERTEX
  8
0
 10
1239.597468
 20
1435.845338
 42
-0.029010
  0
VERTEX
  8
0
 10
1258.663371
 20
1454.333052
 42
-0.027816
  0
VERTEX
  8
0
 10
1280.000000
 20
1470.769184
 42
0.018311
  0
VERTEX
  8
0
 10
1286.465672
 20
1475.556920
 42
0.027775
  0
VERTEX
  8
0
 10
1291.679823
 20
1480.218821
 42
0.026462
  0
VERTEX
  8
0
 10
1295.326162
 20
1484.270342
 42
0.267711
  0
VERTEX
  8
0
 10
1295.666825
 20
1486.425856
 42
0.170707
  0
VERTEX
  8
0
 10
1294.739652
 20
1487.516498
 42
0.166193
  0
VERTEX
  8
0
 10
1293.322445
 20
1487.801869
 42
0.057371
  0
VERTEX
  8
0
 10
1290.823194
 20
1487.176235
 42
0.006829
  0
SEQEND
  0
POLYLINE
  8
0
 66
1
 70
1
  0
VERTEX
  8
0
 10
622.500000
 20
1718.380424
 42
0.016489
  0
VERTEX
  8
0
 10
606.742170
 20
1712.995479
 42
0.013559
  0
VERTEX
  8
0
 10
590.295557
 20
1706.246919
 42
0.013917
  0
VERTEX
  8
0
 10
575.254844
 20
1699.086345
 42
0.028645
  0
VERTEX
  8
0
 10
564.006120
 20
1692.504069
 42
0.044700
  0
VERTEX
  8
0
 10
553.688298
 20
1684.227653
 42
0.047716
  0
VERTEX
  8
0
 10
545.252927
 20
1674.414631
 42
0.051908
  0
VERTEX
  8
0
 10
539.492314
 20
1664.139297
 42
0.086125
  0
VERTEX
  8
0
 10
537.181149
 20
1654.503947
 42
0.041212
  0
VERTEX
  8
0
 10
537.279788
 20
1649.254360
 42
0.086793
  0
VERTEX
  8
0
 10
538.380438
 20
1645.343178
 42
0.098370
  0
VERTEX
  8
0
 10
540.627688
 20
1642.347326
 42
0.064932
  0
VERTEX
  8
0
 10
544.188201
 20
1639.903987
 42
0.155147
  0
VERTEX
  8
0
 10
554.440450
 20
1638.208389
 42
0.068273
  0
VERTEX
  8
0
 10
567.800485
 20
1642.054041
 42
0.052346
  0
VERTEX
  8
0
 10
583.270297
 20
1650.936198
 42
0.030105
  0
VERTEX
  8
0
 10
599.919272
 20
1664.565409
 42
0.028912
  0
VERTEX
  8
0
 10
613.002169
 20
1678.144148
 42
0.023603
  0
VERTEX
  8
0
 10
625.403756
 20
1694.064274
 42
0.019412
  0
VERTEX
  8
0
 10
635.147462
 20
1709.074119
 42
0.164481
  0
VERTEX
  8
0
 10
636.808492
 20
1716.832184
 42
0.055736
  0
VERTEX
  8
0
 10
636.465235
 20
1718.321800
 42
0.175431
  0
VERTEX
  8
0
 10
635.826144
 20
1719.103814
 42
0.108505
  0
VERTEX
  8
0
 10
634.625095
 20
1719.504685
 42
0.015199
  0
VERTEX
  8
0
 10
632.000000
 20
1719.703469
 42
0.029954
  0
VERTEX
  8
0
 10
629.917238
 20
1719.672837
 42
0.015947
  0
VERTEX
  8
0
 10
627.353125
 20
1719.398755
 42
0.015819
  0
VERTEX
  8
0
 10
624.742372
 20
1718.950565
 42
0.023671
  0
SEQEND
  0
POLYLINE
  8
0
 66
1
 70
1
  0
VERTEX
  8
0
 10
953.000000
 20
1484.904084
 42
0.022640
  0
VERTEX
  8
0
 10
944.778360
 20
1481.563332
 42
0.008981
  0
VERTEX
  8
0
 10
933.796581
 20
1476.269460
 42
0.008982
  0
VERTEX
  8
0
 10
923.011844
 20
1470.584468
 42
0.022636
  0
VERTEX
  8
0
 10
915.437710
 20
1465.957967
 42
0.033674
  0
VERTEX
  8
0
 10
904.571611
 20
1457.508530
 42
0.032654
  0
VERTEX
  8
0
 10
894.818180
 20
1447.595040
 42
0.034349
  0
VERTEX
  8
0
 10
886.991262
 20
1437.154895
 42
0.053841
  0
VERTEX
  8
0
 10
881.943985
 20
1427.145821
 42
0.045977
  0
VERTEX
  8
0
 10
880.327134
 20
1421.248499
 42
0.042037
  0
VERTEX
  8
0
 10
879.750220
 20
1414.973362
 42
0.044282
  0
VERTEX
  8
0
 10
880.225262
 20
1409.110704
 42
0.076523
  0
VERTEX
  8
0
 10
881.770487
 20
1404.480528
 42
0.062140
  0
VERTEX
  8
0
 10
885.217015
 20
1399.431668
 42
0.064034
  0
VERTEX
  8
0
 10
889.767257
 20
1395.442350
 42
0.067030
  0
VERTEX
  8
0
 10
894.970391
 20
1392.877051
 42
0.081227
  0
VERTEX
  8
0
 10
900.333525
 20
1392.000000
 42
0.097372
  0
VERTEX
  8
0
 10
905.784208
 20
1393.071654
 42
0.039996
  0
VERTEX
  8
0
 10
912.536895
 20
1396.486645
 42
0.034060
  0
VERTEX
  8
0
 10
920.047963
 20
1401.806556
 42
0.022849
  0
VERTEX
  8
0
 10
927.891473
 20
1408.826448
 42
0.023504
  0
VERTEX
  8
0
 10
939.232262
 20
1421.047272
 42
0.040589
  0
VERTEX
  8
0
 10
947.285045
 20
1432.328734
 42
0.037497
  0
VERTEX
  8
0
 10
953.810849
 20
1445.374106
 42
0.017009
  0
VERTEX
  8
0
 10
960.449535
 20
1463.289848
 42
0.003376
  0
VERTEX
  8
0
 10
963.609109
 20
1473.016092
 42
0.015110
  0
VERTEX
  8
0
 10
965.248399
 20
1478.779172
 42
0.025817
  0
VERTEX
  8
0
 10
966.026649
 20
1482.713547
 42
0.058062
  0
VERTEX
  8
0
 10
966.110691
 20
1485.750000
 42
0.353244
  0
VERTEX
  8
0
 10
965.121301
 20
1486.775565
 42
0.047199
  0
VERTEX
  8
0
 10
961.897271
 20
1486.871982
 42
0.040196
  0
VERTEX
  8
0
 10
957.628368
 20
1486.249571
 42
0.028896
  0
SEQEND
  0
POLYLINE
  8
0
 66
1
 70
1
  0
VERTEX
  8
0
 10
656.042682
 20
1446.923861
 42
0.019945
  0
VERTEX
  8
0
 10
646.591278
 20
1443.226202
 42
0.010127
  0
VERTEX
  8
0
 10
634.999460
 20
1437.866953
 42
0.010071
  0
VERTEX
  8
0
 10
623.807363
 20
1432.133016
 42
0.023505
  0
VERTEX
  8
0
 10
615.738339
 20
1427.289645
 42
0.055069
  0
VERTEX
  8
0
 10
597.952630
 20
1412.380990
 42
0.071005
  0
VERTEX
  8
0
 10
585.556147
 20
1395.067066
 42
0.081630
  0
VERTEX
  8
0
 10
579.668933
 20
1377.103693
 42
0.112645
  0
VERTEX
  8
0
 10
580.861082
 20
1360.231447
 42
0.050046
  0
VERTEX
  8
0
 10
583.358812
 20
1354.238621
 42
0.047507
  0
VERTEX
  8
0
 10
587.033887
 20
1348.747935
 42
0.048759
  0
VERTEX
  8
0
 10
591.567079
 20
1344.185885
 42
0.060145
  0
VERTEX
  8
0
 10
596.608510
 20
1340.947471
 42
0.231244
  0
VERTEX
  8
0
 10
614.831243
 20
1341.014159
 42
0.080953
  0
VERTEX
  8
0
 10
636.744840
 20
1356.648959
 42
0.065910
  0
VERTEX
  8
0
 10
656.993054
 20
1382.851793
 42
0.061129
  0
VERTEX
  8
0
 10
670.351144
 20
1414.083086
 42
0.022826
  0
VERTEX
  8
0
 10
672.295808
 20
1422.154807
 42
0.014472
  0
VERTEX
  8
0
 10
673.855066
 20
1431.705715
 42
0.012863
  0
VERTEX
  8
0
 10
674.813722
 20
1440.617338
 42
0.066820
  0
VERTEX
  8
0
 10
674.557111
 20
1445.547262
 42
0.161934
  0
VERTEX
  8
0
 10
672.869630
 20
1448.588819
 42
0.168820
  0
VERTEX
  8
0
 10
669.726102
 20
1449.950245
 42
0.082397
  0
VERTEX
  8
0
 10
664.474402
 20
1449.475224
 42
0.019605
  0
SEQEND
  0
POLYLINE
  8
0
 66
1
 70
1
  0
VERTEX
  8
0
 10
359.500000
 20
1375.728588
 42
0.016110
  0
VERTEX
  8
0
 10
351.660262
 20
1371.112931
 42
0.020338
  0
VERTEX
  8
0
 10
344.738417
 20
1366.326502
 42
0.020128
  0
VERTEX
  8
0
 10
338.171166
 20
1360.951239
 42
0.015245
  0
VERTEX
  8
0
 10
331.398935
 20
1354.557547
 42
0.010191
  0
VERTEX
  8
0
 10
326.372345
 20
1349.303454
 42
0.026981
  0
VERTEX
  8
0
 10
323.067062
 20
1345.290047
 42
0.029385
  0
VERTEX
  8
0
 10
320.374272
 20
1341.146081
 42
0.014177
  0
VERTEX
  8
0
 10
317.398935
 20
1335.556276
 42
0.000000
  0
VERTEX
  8
0
 10
312.500000
 20
1325.687863
 42
0.000000
  0
VERTEX
  8
0
 10
312.500000
 20
1315.093932
 42
0.007067
  0
VERTEX
  8
0
 10
312.587786
 20
1308.883143
 42
0.035046
  0
VERTEX
  8
0
 10
312.930552
 20
1305.408511
 42
0.051616
  0
VERTEX
  8
0
 10
313.692973
 20
1302.670022
 42
0.028218
  0
VERTEX
  8
0
 10
315.151015
 20
1299.500000
 42
0.028403
  0
VERTEX
  8
0
 10
317.607462
 20
1295.441768
 42
0.049648
  0
VERTEX
  8
0
 10
320.137699
 20
1292.439670
 42
0.058598
  0
VERTEX
  8
0
 10
322.871515
 20
1290.343207
 42
0.064551
  0
VERTEX
  8
0
 10
325.931914
 20
1289.019527
 42
0.182652
  0
VERTEX
  8
0
 10
336.429141
 20
1289.882450
 42
0.081988
  0
VERTEX
  8
0
 10
347.971929
 20
1297.897642
 42
0.065162
  0
VERTEX
  8
0
 10
358.775550
 20
1311.531536
 42
0.048219
  0
VERTEX
  8
0
 10
367.041391
 20
1328.926848
 42
0.026186
  0
VERTEX
  8
0
 10
370.904826
 20
1341.647114
 42
0.023777
  0
VERTEX
  8
0
 10
373.564728
 20
1355.116866
 42
0.023450
  0
VERTEX
  8
0
 10
374.778931
 20
1367.154342
 42
0.092733
  0
VERTEX
  8
0
 10
373.808870
 20
1374.500000
 42
0.023456
  0
VERTEX
  8
0
 10
372.950275
 20
1376.759511
 42
0.109597
  0
VERTEX
  8
0
 10
372.136861
 20
1377.878966
 42
0.127319
  0
VERTEX
  8
0
 10
370.990532
 20
1378.462460
 42
0.036381
  0
VERTEX
  8
0
 10
369.000000
 20
1378.752772
 42
0.057552
  0
VERTEX
  8
0
 10
367.068896
 20
1378.669911
 42
0.037601
  0
VERTEX
  8
0
 10
364.897226
 20
1378.154492
 42
0.030793
  0
VERTEX
  8
0
 10
362.407906
 20
1377.189669
 42
0.017143
  0
SEQEND
  0
POLYLINE
  8
0
 66
1
 70
1
  0
VERTEX
  8
0
 10
943.732952
 20
1250.955478
 42
0.032594
  0
VERTEX
  8
0
 10
932.126496
 20
1245.336885
 42
0.019183
  0
VERTEX
  8
0
 10
919.015309
 20
1237.219339
 42
0.019211
  0
VERTEX
  8
0
 10
906.641406
 20
1228.175589
 42
0.034428
  0
VERTEX
  8
0
 10
897.336244
 20
1219.706514
 42
0.047350
  0
VERTEX
  8
0
 10
887.434624
 20
1207.181315
 42
0.068788
  0
VERTEX
  8
0
 10
881.480941
 20
1194.434282
 42
0.076278
  0
VERTEX
  8
0
 10
879.576078
 20
1181.598903
 42
0.076680
  0
VERTEX
  8
0
 10
881.613989
 20
1168.807423
 42
0.088240
  0
VERTEX
  8
0
 10
885.095198
 20
1162.234599
 42
0.088643
  0
VERTEX
  8
0
 10
890.624692
 20
1157.277469
 42
0.093288
  0
VERTEX
  8
0
 10
897.267842
 20
1154.716037
 42
0.111712
  0
VERTEX
  8
0
 10
903.952109
 20
1154.987104
 42
0.118401
  0
VERTEX
  8
0
 10
917.299774
 20
1162.257108
 42
0.042835
  0
VERTEX
  8
0
 10
932.125499
 20
1178.147977
 42
0.040554
  0
VERTEX
  8
0
 10
945.618653
 20
1198.561941
 42
0.044365
  0
VERTEX
  8
0
 10
955.177190
 20
1220.297100
 42
0.013922
  0
VERTEX
  8
0
 10
956.681227
 20
1225.197360
 42
0.020349
  0
VERTEX
  8
0
 10
957.706915
 20
1229.592440
 42
0.020413
  0
VERTEX
  8
0
 10
958.369755
 20
1234.045795
 42
0.014139
  0
VERTEX
  8
0
 10
958.769902
 20
1239.122445
 42
0.005457
  0
VERTEX
  8
0
 10
958.997274
 20
1244.880460
 42
0.041881
  0
VERTEX
  8
0
 10
958.848324
 20
1247.577998
 42
0.088177
  0
VERTEX
  8
0
 10
958.283045
 20
1249.314119
 42
0.073815
  0
VERTEX
  8
0
 10
957.127555
 20
1250.872445
 42
0.110030
  0
VERTEX
  8
0
 10
954.798427
 20
1252.352953
 42
0.085418
  0
VERTEX
  8
0
 10
951.833557
 20
1252.882125
 42
0.065228
  0
VERTEX
  8
0
 10
948.166698
 20
1252.424820
 42
0.032845
  0
SEQEND
  0
POLYLINE
  8
0
 66
1
 70
1
  0
VERTEX
  8
0
 10
1334.812201
 20
1178.017166
 42
0.044742
  0
VERTEX
  8
0
 10
1330.293619
 20
1176.199552
 42
0.010230
  0
VERTEX
  8
0
 10
1323.028029
 20
1172.302384
 42
0.011171
  0
VERTEX
  8
0
 10
1315.570925
 20
1167.881562
 42
0.021481
  0
VERTEX
  8
0
 10
1309.839036
 20
1163.956540
 42
0.029057
  0
VERTEX
  8
0
 10
1302.595977
 20
1157.837408
 42
0.010082
  0
VERTEX
  8
0
 10
1292.867737
 20
1148.218546
 42
0.010270
  0
VERTEX
  8
0
 10
1283.380049
 20
1138.041305
 42
0.023422
  0
VERTEX
  8
0
 10
1276.754098
 20
1129.897207
 42
0.023324
  0
VERTEX
  8
0
 10
1269.918710
 20
1119.677268
 42
0.049206
  0
VERTEX
  8
0
 10
1265.820672
 20
1111.073738
 42
0.062334
  0
VERTEX
  8
0
 10
1264.066944
 20
1103.292873
 42
0.070774
  0
VERTEX
  8
0
 10
1264.404034
 20
1095.659853
 42
0.096664
  0
VERTEX
  8
0
 10
1265.924026
 20
1091.834024
 42
0.043331
  0
VERTEX
  8
0
 10
1269.245128
 20
1087.532773
 42
0.042939
  0
VERTEX
  8
0
 10
1273.387608
 20
1083.743845
 42
0.072682
  0
VERTEX
  8
0
 10
1277.483864
 20
1081.453012
 42
0.134508
  0
VERTEX
  8
0
 10
1289.311207
 20
1080.297403
 42
0.086276
  0
VERTEX
  8
0
 10
1302.385319
 20
1084.953720
 42
0.073428
  0
VERTEX
  8
0
 10
1314.983427
 20
1094.748563
 42
0.058601
  0
VERTEX
  8
0
 10
1325.356721
 20
1108.500000
 42
0.034425
  0
VERTEX
  8
0
 10
1332.027541
 20
1121.951201
 42
0.020627
  0
VERTEX
  8
0
 10
1338.152209
 20
1138.713445
 42
0.020554
  0
VERTEX
  8
0
 10
1342.701852
 20
1155.283703
 42
0.050043
  0
VERTEX
  8
0
 10
1344.302922
 20
1167.836949
 42
0.008602
  0
VERTEX
  8
0
 10
1344.344497
 20
1172.144721
 42
0.055615
  0
VERTEX
  8
0
 10
1344.087598
 20
1174.299408
 42
0.101407
  0
VERTEX
  8
0
 10
1343.422903
 20
1175.741482
 42
0.064024
  0
VERTEX
  8
0
 10
1342.139216
 20
1177.086949
 42
0.033555
  0
VERTEX
  8
0
 10
1340.392007
 20
1178.318364
 42
0.105531
  0
VERTEX
  8
0
 10
1339.045177
 20
1178.789589
 42
0.086784
  0
VERTEX
  8
0
 10
1337.476846
 20
1178.716055
 42
0.018261
  0
SEQEND
  0
POLYLINE
  8
0
 66
1
 70
1
  0
VERTEX
  8
0
 10
628.000000
 20
1147.778488
 42
0.006095
  0
VERTEX
  8
0
 10
611.042226
 20
1137.340058
 42
0.015521
  0
VERTEX
  8
0
 10
599.080438
 20
1129.243944
 42
0.020102
  0
VERTEX
  8
0
 10
589.647052
 20
1121.827806
 42
0.020582
  0
VERTEX
  8
0
 10
580.916594
 20
1113.733601
 42
0.025764
  0
VERTEX
  8
0
 10
571.904394
 20
1103.673753
 42
0.032121
  0
VERTEX
  8
0
 10
564.668713
 20
1093.425873
 42
0.034946
  0
VERTEX
  8
0
 10
559.328041
 20
1083.184981
 42
0.045413
  0
VERTEX
  8
0
 10
556.000225
 20
1073.145530
 42
0.062332
  0
VERTEX
  8
0
 10
554.951425
 20
1063.175485
 42
0.065731
  0
VERTEX
  8
0
 10
556.432318
 20
1053.440735
 42
0.067162
  0
VERTEX
  8
0
 10
560.340443
 20
1044.603161
 42
0.070076
  0
VERTEX
  8
0
 10
566.406542
 20
1037.259410
 42
0.053601
  0
VERTEX
  8
0
 10
572.504123
 20
1032.782062
 42
0.081509
  0
VERTEX
  8
0
 10
578.634000
 20
1030.449478
 42
0.082822
  0
VERTEX
  8
0
 10
585.115059
 20
1030.218121
 42
0.057172
  0
VERTEX
  8
0
 10
592.254842
 20
1031.994159
 42
0.120225
  0
VERTEX
  8
0
 10
608.399471
 20
1042.976022
 42
0.057684
  0
VERTEX
  8
0
 10
623.028405
 20
1063.513824
 42
0.051779
  0
VERTEX
  8
0
 10
634.205391
 20
1089.933401
 42
0.048145
  0
VERTEX
  8
0
 10
640.061272
 20
1118.741138
 42
0.028784
  0
VERTEX
  8
0
 10
640.619199
 20
1130.660720
 42
0.050355
  0
VERTEX
  8
0
 10
639.521584
 20
1140.472499
 42
0.068777
  0
VERTEX
  8
0
 10
637.059572
 20
1147.230515
 42
0.251573
  0
VERTEX
  8
0
 10
633.399674
 20
1149.687267
 42
0.083942
  0
VERTEX
  8
0
 10
632.434706
 20
1149.620354
 42
0.025772
  0
VERTEX
  8
0
 10
631.029904
 20
1149.203811
 42
0.024986
  0
VERTEX
  8
0
 10
629.479440
 20
1148.566938
 42
0.024975
  0
SEQEND
  0
POLYLINE
  8
0
 66
1
 70
1
  0
VERTEX
  8
0
 10
307.905036
 20
1065.873133
 42
0.025565
  0
VERTEX
  8
0
 10
295.123234
 20
1056.680635
 42
0.020247
  0
VERTEX
  8
0
 10
282.271234
 20
1045.519658
 42
0.020657
  0
VERTEX
  8
0
 10
271.195859
 20
1034.186792
 42
0.048075
  0
VERTEX
  8
0
 10
264.145387
 20
1024.648238
 42
0.018661
  0
VERTEX
  8
0
 10
259.788175
 20
1016.731420
 42
0.042120
  0
VERTEX
  8
0
 10
257.240655
 20
1010.383179
 42
0.046547
  0
VERTEX
  8
0
 10
255.938889
 20
1004.103565
 42
0.027997
  0
VERTEX
  8
0
 10
255.517240
 20
996.500000
 42
0.028079
  0
VERTEX
  8
0
 10
255.965611
 20
988.604391
 42
0.063905
  0
VERTEX
  8
0
 10
257.385831
 20
982.813558
 42
0.064357
  0
VERTEX
  8
0
 10
260.214953
 20
977.593740
 42
0.028821
  0
VERTEX
  8
0
 10
265.150496
 20
971.525711
 42
0.056380
  0
VERTEX
  8
0
 10
271.379672
 20
966.087705
 42
0.117689
  0
VERTEX
  8
0
 10
277.346028
 20
963.768431
 42
0.122124
  0
VERTEX
  8
0
 10
283.567222
 20
964.434103
 42
0.063334
  0
VERTEX
  8
0
 10
290.554731
 20
968.037656
 42
0.068125
  0
VERTEX
  8
0
 10
300.830991
 20
977.395928
 42
0.044069
  0
VERTEX
  8
0
 10
310.034075
 20
990.619861
 42
0.040696
  0
VERTEX
  8
0
 10
317.501815
 20
1006.541415
 42
0.036824
  0
VERTEX
  8
0
 10
322.590357
 20
1024.000000
 42
0.035491
  0
VERTEX
  8
0
 10
324.084989
 20
1034.680343
 42
0.016234
  0
VERTEX
  8
0
 10
324.586544
 20
1048.754663
 42
0.011363
  0
VERTEX
  8
0
 10
324.320824
 20
1062.331094
 42
0.135128
  0
VERTEX
  8
0
 10
322.726947
 20
1067.291099
 42
0.132007
  0
VERTEX
  8
0
 10
320.337844
 20
1069.423770
 42
0.141337
  0
VERTEX
  8
0
 10
317.265686
 20
1070.000086
 42
0.089308
  0
VERTEX
  8
0
 10
313.237337
 20
1068.869929
 42
0.030186
  0
SEQEND
  0
POLYLINE
  8
0
 66
1
 70
1
  0
VERTEX
  8
0
 10
1079.157699
 20
1012.954042
 42
0.029538
  0
VERTEX
  8
0
 10
1059.677009
 20
1006.612896
 42
0.032752
  0
VERTEX
  8
0
 10
1041.764732
 20
998.196927
 42
0.033822
  0
VERTEX
  8
0
 10
1025.628363
 20
987.800852
 42
0.036336
  0
VERTEX
  8
0
 10
1011.448258
 20
975.548668
 42
0.026817
  0
VERTEX
  8
0
 10
1002.921253
 20
966.057664
 42
0.043216
  0
VERTEX
  8
0
 10
996.860832
 20
957.044285
 42
0.051500
  0
VERTEX
  8
0
 10
993.220476
 20
948.497527
 42
0.075079
  0
VERTEX
  8
0
 10
992.000000
 20
940.415393
 42
0.047208
  0
VERTEX
  8
0
 10
992.359565
 20
936.615548
 42
0.066788
  0
VERTEX
  8
0
 10
993.433858
 20
933.396080
 42
0.058860
  0
VERTEX
  8
0
 10
995.437675
 20
930.290605
 42
0.028174
  0
VERTEX
  8
0
 10
998.667579
 20
926.802262
 42
0.050102
  0
VERTEX
  8
0
 10
1003.404906
 20
923.069145
 42
0.042258
  0
VERTEX
  8
0
 10
1009.061498
 20
920.104042
 42
0.041616
  0
VERTEX
  8
0
 10
1015.232422
 20
918.092175
 42
0.044808
  0
VERTEX
  8
0
 10
1021.500000
 20
917.193472
 42
0.123717
  0
VERTEX
  8
0
 10
1044.809452
 20
921.756625
 42
0.089507
  0
VERTEX
  8
0
 10
1066.472264
 20
937.157860
 42
0.072046
  0
VERTEX
  8
0
 10
1085.098666
 20
962.684244
 42
0.045169
  0
VERTEX
  8
0
 10
1099.391600
 20
996.846198
 42
0.037036
  0
VERTEX
  8
0
 10
1102.272729
 20
1009.044427
 42
0.270404
  0
VERTEX
  8
0
 10
1100.183689
 20
1014.426100
 42
0.211273
  0
VERTEX
  8
0
 10
1093.908155
 20
1016.068173
 42
0.023789
  0
SEQEND
  0
POLYLINE
  8
0
 66
1
 70
1
  0
VERTEX
  8
0
 10
802.152150
 20
910.750000
 42
0.040210
  0
VERTEX
  8
0
 10
784.743958
 20
899.922638
 42
0.027330
  0
VERTEX
  8
0
 10
766.761139
 20
885.037171
 42
0.027474
  0
VERTEX
  8
0
 10
751.433294
 20
869.222760
 42
0.069347
  0
VERTEX
  8
0
 10
742.717679
 20
855.813936
 42
0.034937
  0
VERTEX
  8
0
 10
740.297769
 20
849.538624
 42
0.026274
  0
VERTEX
  8
0
 10
738.498007
 20
842.360682
 42
0.025117
  0
VERTEX
  8
0
 10
737.389616
 20
834.657696
 42
0.024356
  0
VERTEX
  8
0
 10
737.043893
 20
826.802595
 42
0.019607
  0
VERTEX
  8
0
 10
737.345243
 20
819.946888
 42
0.044230
  0
VERTEX
  8
0
 10
738.232048
 20
814.828036
 42
0.053454
  0
VERTEX
  8
0
 10
739.865790
 20
810.574926
 42
0.044541
  0
VERTEX
  8
0
 10
742.449675
 20
806.477092
 42
0.057847
  0
VERTEX
  8
0
 10
746.189001
 20
802.598891
 42
0.020673
  0
VERTEX
  8
0
 10
752.332674
 20
797.960149
 42
0.019370
  0
VERTEX
  8
0
 10
758.691596
 20
793.914307
 42
0.085826
  0
VERTEX
  8
0
 10
762.830875
 20
792.371950
 42
0.221975
  0
VERTEX
  8
0
 10
774.830071
 20
795.454012
 42
0.047127
  0
VERTEX
  8
0
 10
790.538429
 20
811.070685
 42
0.046743
  0
VERTEX
  8
0
 10
804.716607
 20
831.762729
 42
0.066305
  0
VERTEX
  8
0
 10
812.876718
 20
852.500000
 42
0.023728
  0
VERTEX
  8
0
 10
816.070202
 20
868.666370
 42
0.018693
  0
VERTEX
  8
0
 10
818.032982
 20
886.405352
 42
0.017167
  0
VERTEX
  8
0
 10
818.649578
 20
902.418827
 42
0.085708
  0
VERTEX
  8
0
 10
817.162318
 20
911.250000
 42
0.116043
  0
VERTEX
  8
0
 10
815.415892
 20
913.981296
 42
0.203789
  0
VERTEX
  8
0
 10
812.956097
 20
914.931892
 42
0.095229
  0
VERTEX
  8
0
 10
809.088173
 20
914.054012
 42
0.015744
  0
SEQEND
  0
POLYLINE
  8
0
 66
1
 70
1
  0
VERTEX
  8
0
 10
1631.500000
 20
900.318996
 42
0.036652
  0
VERTEX
  8
0
 10
1627.691014
 20
897.912509
 42
0.010721
  0
VERTEX
  8
0
 10
1622.207573
 20
893.672748
 42
0.011207
  0
VERTEX
  8
0
 10
1616.647899
 20
888.970532
 42
0.020090
  0
VERTEX
  8
0
 10
1612.333276
 20
884.831580
 42
0.025496
  0
VERTEX
  8
0
 10
1605.786165
 20
877.291390
 42
0.016722
  0
VERTEX
  8
0
 10
1599.001743
 20
867.998025
 42
0.016152
  0
VERTEX
  8
0
 10
1592.538737
 20
857.799687
 42
0.017663
  0
VERTEX
  8
0
 10
1586.948995
 20
847.500000
 42
0.015674
  0
VERTEX
  8
0
 10
1581.409896
 20
835.440130
 42
0.033327
  0
VERTEX
  8
0
 10
1578.058949
 20
825.738991
 42
0.040813
  0
VERTEX
  8
0
 10
1576.440636
 20
817.061543
 42
0.041300
  0
VERTEX
  8
0
 10
1576.262648
 20
808.271324
 42
0.036053
  0
VERTEX
  8
0
 10
1577.324877
 20
800.414368
 42
0.133895
  0
VERTEX
  8
0
 10
1579.578916
 20
796.006094
 42
0.155308
  0
VERTEX
  8
0
 10
1583.540308
 20
793.718072
 42
0.053956
  0
VERTEX
  8
0
 10
1590.175122
 20
793.000000
 42
0.142487
  0
VERTEX
  8
0
 10
1601.984071
 20
796.434988
 42
0.068330
  0
VERTEX
  8
0
 10
1614.138616
 20
806.726474
 42
0.060946
  0
VERTEX
  8
0
 10
1624.498828
 20
821.549021
 42
0.060111
  0
VERTEX
  8
0
 10
1631.038464
 20
838.500000
 42
0.021028
  0
VERTEX
  8
0
 10
1634.388876
 20
854.527303
 42
0.012082
  0
VERTEX
  8
0
 10
1637.140684
 20
874.073718
 42
0.007743
  0
VERTEX
  8
0
 10
1639.016781
 20
892.731504
 42
0.112790
  0
VERTEX
  8
0
 10
1638.098854
 20
899.250000
 42
0.064986
  0
VERTEX
  8
0
 10
1637.112154
 20
901.080791
 42
0.199092
  0
VERTEX
  8
0
 10
1635.936922
 20
901.807240
 42
0.137408
  0
VERTEX
  8
0
 10
1634.278261
 20
901.619842
 42
0.026153
  0
SEQEND
  0
POLYLINE
  8
0
 66
1
 70
1
  0
VERTEX
  8
0
 10
1348.000000
 20
882.981502
 42
0.008618
  0
VERTEX
  8
0
 10
1344.307093
 20
881.615325
 42
0.006215
  0
VERTEX
  8
0
 10
1340.234375
 20
879.969716
 42
0.006280
  0
VERTEX
  8
0
 10
1336.400084
 20
878.307823
 42
0.013525
  0
VERTEX
  8
0
 10
1333.500000
 20
876.911942
 42
0.050970
  0
VERTEX
  8
0
 10
1317.767569
 20
866.660762
 42
0.024419
  0
VERTEX
  8
0
 10
1299.751770
 20
850.597174
 42
0.024166
  0
VERTEX
  8
0
 10
1283.709912
 20
833.220215
 42
0.063973
  0
VERTEX
  8
0
 10
1274.607739
 20
819.000000
 42
0.017320
  0
VERTEX
  8
0
 10
1272.964074
 20
815.186652
 42
0.041357
  0
VERTEX
  8
0
 10
1272.084135
 20
812.234301
 42
0.038869
  0
VERTEX
  8
0
 10
1271.672659
 20
809.069715
 42
0.013768
  0
VERTEX
  8
0
 10
1271.562652
 20
804.500000
 42
0.033680
  0
VERTEX
  8
0
 10
1272.014061
 20
798.134828
 42
0.065272
  0
VERTEX
  8
0
 10
1273.364788
 20
793.225544
 42
0.068549
  0
VERTEX
  8
0
 10
1275.881322
 20
788.986451
 42
0.040889
  0
VERTEX
  8
0
 10
1279.905308
 20
784.704514
 42
0.037253
  0
VERTEX
  8
0
 10
1283.873105
 20
781.623555
 42
0.049493
  0
VERTEX
  8
0
 10
1287.908233
 20
779.487489
 42
0.046826
  0
VERTEX
  8
0
 10
1292.459008
 20
778.107763
 42
0.028884
  0
VERTEX
  8
0
 10
1298.000000
 20
777.309723
 42
0.082239
  0
VERTEX
  8
0
 10
1310.639548
 20
778.308029
 42
0.067839
  0
VERTEX
  8
0
 10
1323.218703
 20
783.308955
 42
0.063620
  0
VERTEX
  8
0
 10
1334.714672
 20
791.884980
 42
0.057160
  0
VERTEX
  8
0
 10
1344.164089
 20
803.366992
 42
0.038125
  0
VERTEX
  8
0
 10
1352.790695
 20
819.226175
 42
0.026106
  0
VERTEX
  8
0
 10
1360.201281
 20
838.345222
 42
0.026422
  0
VERTEX
  8
0
 10
1365.383623
 20
857.460908
 42
0.051389
  0
VERTEX
  8
0
 10
1367.105285
 20
873.161178
 42
0.047271
  0
VERTEX
  8
0
 10
1366.360320
 20
881.610826
 42
0.232454
  0
VERTEX
  8
0
 10
1363.585991
 20
885.343218
 42
0.177917
  0
VERTEX
  8
0
 10
1358.335249
 20
885.990435
 42
0.026904
  0
SEQEND
  0
POLYLINE
  8
0
 66
1
 70
1
  0
VERTEX
  8
0
 10
502.393116
 20
802.590873
 42
0.020950
  0
VERTEX
  8
0
 10
486.565278
 20
796.501798
 42
0.031534
  0
VERTEX
  8
0
 10
473.401838
 20
789.778857
 42
0.033701
  0
VERTEX
  8
0
 10
461.849832
 20
781.831254
 42
0.029476
  0
VERTEX
  8
0
 10
450.911511
 20
772.063459
 42
0.011240
  0
VERTEX
  8
0
 10
446.518721
 20
767.445869
 42
0.022745
  0
VERTEX
  8
0
 10
443.315664
 20
763.584609
 42
0.026034
  0
VERTEX
  8
0
 10
440.762957
 20
759.812635
 42
0.020973
  0
VERTEX
  8
0
 10
438.411511
 20
755.518130
 42
0.011671
  0
VERTEX
  8
0
 10
436.151541
 20
750.663301
 42
0.044808
  0
VERTEX
  8
0
 10
435.095712
 20
747.506643
 42
0.045783
  0
VERTEX
  8
0
 10
434.630449
 20
744.245748
 42
0.012556
  0
VERTEX
  8
0
 10
434.500000
 20
739.051863
 42
0.062430
  0
VERTEX
  8
0
 10
436.010724
 20
726.999740
 42
0.092798
  0
VERTEX
  8
0
 10
440.475396
 20
717.378311
 42
0.111628
  0
VERTEX
  8
0
 10
447.377707
 20
711.214584
 42
0.127330
  0
VERTEX
  8
0
 10
455.932934
 20
709.000000
 42
0.078859
  0
VERTEX
  8
0
 10
463.715884
 20
710.235197
 42
0.049257
  0
VERTEX
  8
0
 10
472.187387
 20
713.949651
 42
0.041508
  0
VERTEX
  8
0
 10
481.187502
 20
720.036155
 42
0.026745
  0
VERTEX
  8
0
 10
490.567219
 20
728.448258
 42
0.038820
  0
VERTEX
  8
0
 10
503.651738
 20
743.712731
 42
0.043711
  0
VERTEX
  8
0
 10
513.646090
 20
760.247312
 42
0.047022
  0
VERTEX
  8
0
 10
520.005731
 20
777.023661
 42
0.064308
  0
VERTEX
  8
0
 10
522.256883
 20
793.005856
 42
0.027267
  0
VERTEX
  8
0
 10
522.014198
 20
798.642831
 42
0.059099
  0
VERTEX
  8
0
 10
521.087932
 20
802.872157
 42
0.088157
  0
VERTEX
  8
0
 10
519.559310
 20
805.608010
 42
0.191645
  0
VERTEX
  8
0
 10
517.490633
 20
806.756229
 42
0.094108
  0
VERTEX
  8
0
 10
516.167299
 20
806.677197
 42
0.005471
  0
VERTEX
  8
0
 10
512.234601
 20
805.638350
 42
0.008146
  0
VERTEX
  8
0
 10
507.558843
 20
804.265967
 42
0.005894
  0
SEQEND
  0
POLYLINE
  8
0
 66
1
 70
1
  0
VERTEX
  8
0
 10
1043.500000
 20
756.880517
 42
0.020966
  0
VERTEX
  8
0
 10
1035.926556
 20
754.803599
 42
0.008999
  0
VERTEX
  8
0
 10
1025.997904
 20
751.429620
 42
0.009014
  0
VERTEX
  8
0
 10
1016.170662
 20
747.690122
 42
0.020331
  0
VERTEX
  8
0
 10
1008.904474
 20
744.425286
 42
0.029993
  0
VERTEX
  8
0
 10
994.182838
 20
735.939230
 42
0.021509
  0
VERTEX
  8
0
 10
978.786825
 20
724.810351
 42
0.020964
  0
VERTEX
  8
0
 10
965.545771
 20
713.410242
 42
0.072389
  0
VERTEX
  8
0
 10
958.502225
 20
704.583743
 42
0.057166
  0
VERTEX
  8
0
 10
956.543864
 20
700.136291
 42
0.034793
  0
VERTEX
  8
0
 10
955.227436
 20
694.539721
 42
0.034200
  0
VERTEX
  8
0
 10
954.677584
 20
688.650127
 42
0.045734
  0
VERTEX
  8
0
 10
955.035078
 20
683.297375
 42
0.080343
  0
VERTEX
  8
0
 10
958.604293
 20
672.470173
 42
0.109873
  0
VERTEX
  8
0
 10
965.178873
 20
664.627115
 42
0.107122
  0
VERTEX
  8
0
 10
974.598231
 20
660.182812
 42
0.073426
  0
VERTEX
  8
0
 10
986.420616
 20
659.225027
 42
0.057148
  0
VERTEX
  8
0
 10
996.309758
 20
661.023745
 42
0.047586
  0
VERTEX
  8
0
 10
1006.201034
 20
665.080267
 42
0.042876
  0
VERTEX
  8
0
 10
1016.074727
 20
671.408883
 42
0.031133
  0
VERTEX
  8
0
 10
1025.910858
 20
680.000000
 42
0.031697
  0
VERTEX
  8
0
 10
1035.540065
 20
690.819801
 42
0.031924
  0
VERTEX
  8
0
 10
1043.699392
 20
702.745209
 42
0.030170
  0
VERTEX
  8
0
 10
1050.651048
 20
716.233090
 42
0.022925
  0
VERTEX
  8
0
 10
1056.662754
 20
731.745199
 42
0.019313
  0
VERTEX
  8
0
 10
1059.354624
 20
740.924272
 42
0.046547
  0
VERTEX
  8
0
 10
1060.436643
 20
747.912504
 42
0.068368
  0
VERTEX
  8
0
 10
1060.051809
 20
752.970653
 42
0.170807
  0
VERTEX
  8
0
 10
1058.139216
 20
756.084519
 42
0.103566
  0
VERTEX
  8
0
 10
1055.751214
 20
757.313335
 42
0.053683
  0
VERTEX
  8
0
 10
1052.425759
 20
757.855401
 42
0.043618
  0
VERTEX
  8
0
 10
1048.307407
 20
757.720027
 42
0.026429
  0
SEQEND
  0
POLYLINE
  8
0
 66
1
 70
1
  0
VERTEX
  8
0
 10
225.409722
 20
751.009449
 42
0.064163
  0
VERTEX
  8
0
 10
213.951992
 20
743.227549
 42
0.023691
  0
VERTEX
  8
0
 10
199.936387
 20
729.578710
 42
0.023069
  0
VERTEX
  8
0
 10
187.443557
 20
714.900893
 42
0.080131
  0
VERTEX
  8
0
 10
181.498104
 20
703.994626
 42
0.070834
  0
VERTEX
  8
0
 10
179.885064
 20
695.944386
 42
0.056110
  0
VERTEX
  8
0
 10
180.380380
 20
687.074089
 42
0.057724
  0
VERTEX
  8
0
 10
182.779343
 20
678.830971
 42
0.090161
  0
VERTEX
  8
0
 10
186.808951
 20
672.658417
 42
0.067730
  0
VERTEX
  8
0
 10
191.243546
 20
669.091756
 42
0.056531
  0
VERTEX
  8
0
 10
196.744460
 20
666.574579
 42
0.059653
  0
VERTEX
  8
0
 10
202.288197
 20
665.467872
 42
0.109860
  0
VERTEX
  8
0
 10
206.820270
 20
666.111005
 42
0.120780
  0
VERTEX
  8
0
 10
214.111726
 20
671.101529
 42
0.036769
  0
VERTEX
  8
0
 10
222.340319
 20
681.776620
 42
0.034870
  0
VERTEX
  8
0
 10
230.006421
 20
695.370569
 42
0.034085
  0
VERTEX
  8
0
 10
235.775487
 20
710.000000
 42
0.024195
  0
VERTEX
  8
0
 10
240.023561
 20
726.027051
 42
0.051095
  0
VERTEX
  8
0
 10
241.416052
 20
738.796913
 42
0.073596
  0
VERTEX
  8
0
 10
240.117943
 20
747.981032
 42
0.200644
  0
VERTEX
  8
0
 10
236.055391
 20
752.970356
 42
0.066180
  0
VERTEX
  8
0
 10
233.977650
 20
753.750596
 42
0.102663
  0
VERTEX
  8
0
 10
232.069510
 20
753.793447
 42
0.060510
  0
VERTEX
  8
0
 10
229.644836
 20
753.035352
 42
0.011142
  0
SEQEND
  0
POLYLINE
  8
0
 66
1
 70
1
  0
VERTEX
  8
0
 10
746.742706
 20
605.572964
 42
0.046033
  0
VERTEX
  8
0
 10
739.810778
 20
602.383064
 42
0.023913
  0
VERTEX
  8
0
 10
731.791129
 20
597.230268
 42
0.020978
  0
VERTEX
  8
0
 10
723.021404
 20
590.411860
 42
0.014935
  0
VERTEX
  8
0
 10
713.767808
 20
582.085803
 42
0.042999
  0
VERTEX
  8
0
 10
695.975125
 20
561.893002
 42
0.080817
  0
VERTEX
  8
0
 10
686.055882
 20
542.608242
 42
0.115382
  0
VERTEX
  8
0
 10
684.655250
 20
525.980252
 42
0.171753
  0
VERTEX
  8
0
 10
691.410629
 20
513.189144
 42
0.050386
  0
VERTEX
  8
0
 10
695.566115
 20
510.069128
 42
0.063449
  0
VERTEX
  8
0
 10
699.962267
 20
508.123777
 42
0.057506
  0
VERTEX
  8
0
 10
705.044154
 20
507.225270
 42
0.032709
  0
VERTEX
  8
0
 10
711.293900
 20
507.258278
 42
0.082519
  0
VERTEX
  8
0
 10
722.713508
 20
509.996517
 42
0.063170
  0
VERTEX
  8
0
 10
733.834560
 20
516.455551
 42
0.059067
  0
VERTEX
  8
0
 10
743.671522
 20
526.000729
 42
0.054636
  0
VERTEX
  8
0
 10
751.304072
 20
537.822730
 42
0.027112
  0
VERTEX
  8
0
 10
757.282919
 20
551.581926
 42
0.023586
  0
VERTEX
  8
0
 10
762.055770
 20
566.556828
 42
0.024316
  0
VERTEX
  8
0
 10
765.231717
 20
581.258403
 42
0.037987
  0
VERTEX
  8
0
 10
766.371748
 20
594.150485
 42
0.006654
  0
VERTEX
  8
0
 10
766.366185
 20
599.478889
 42
0.034047
  0
VERTEX
  8
0
 10
766.122695
 20
602.426489
 42
0.062989
  0
VERTEX
  8
0
 10
765.574057
 20
604.361376
 42
0.083557
  0
VERTEX
  8
0
 10
764.590060
 20
605.900485
 42
0.146894
  0
VERTEX
  8
0
 10
761.962316
 20
607.488274
 42
0.067648
  0
VERTEX
  8
0
 10
757.953573
 20
607.958395
 42
0.051593
  0
VERTEX
  8
0
 10
752.812685
 20
607.330978
 42
0.028694
  0
SEQEND
  0
POLYLINE
  8
0
 66
1
 70
1
  0
VERTEX
  8
0
 10
1341.500000
 20
575.387824
 42
0.026442
  0
VERTEX
  8
0
 10
1333.528621
 20
573.189134
 42
0.014800
  0
VERTEX
  8
0
 10
1324.084093
 20
569.724472
 42
0.014654
  0
VERTEX
  8
0
 10
1315.154845
 20
565.838174
 42
0.037191
  0
VERTEX
  8
0
 10
1309.000000
 20
562.361713
 42
0.038454
  0
VERTEX
  8
0
 10
1302.437789
 20
557.211952
 42
0.011498
  0
VERTEX
  8
0
 10
1293.258515
 20
548.395391
 42
0.011492
  0
VERTEX
  8
0
 10
1284.495810
 20
539.167987
 42
0.038588
  0
VERTEX
  8
0
 10
1279.393808
 20
532.586708
 42
0.068979
  0
VERTEX
  8
0
 10
1275.898604
 20
525.249739
 42
0.136328
  0
VERTEX
  8
0
 10
1275.669163
 20
518.852449
 42
0.137589
  0
VERTEX
  8
0
 10
1278.768682
 20
513.292951
 42
0.070836
  0
VERTEX
  8
0
 10
1285.176405
 20
508.448984
 42
0.024606
  0
VERTEX
  8
0
 10
1288.605817
 20
506.764101
 42
0.057246
  0
VERTEX
  8
0
 10
1291.343117
 20
505.938013
 42
0.038383
  0
VERTEX
  8
0
 10
1294.794518
 20
505.584739
 42
0.006318
  0
VERTEX
  8
0
 10
1301.500000
 20
505.500000
 42
0.007143
  0
VERTEX
  8
0
 10
1307.905698
 20
505.591512
 42
0.032421
  0
VERTEX
  8
0
 10
1311.620444
 20
505.939444
 42
0.045575
  0
VERTEX
  8
0
 10
1314.629369
 20
506.705495
 42
0.024500
  0
VERTEX
  8
0
 10
1318.175146
 20
508.160407
 42
0.044425
  0
VERTEX
  8
0
 10
1323.878242
 20
511.480190
 42
0.040693
  0
VERTEX
  8
0
 10
1329.088027
 20
515.844244
 42
0.033636
  0
VERTEX
  8
0
 10
1334.312523
 20
521.742240
 42
0.017070
  0
VERTEX
  8
0
 10
1340.104550
 20
529.794988
 42
0.021339
  0
VERTEX
  8
0
 10
1349.127929
 20
544.621146
 42
0.036090
  0
VERTEX
  8
0
 10
1355.212409
 20
557.821523
 42
0.042463
  0
VERTEX
  8
0
 10
1358.198626
 20
568.410074
 42
0.212468
  0
VERTEX
  8
0
 10
1356.833927
 20
574.272833
 42
0.148041
  0
VERTEX
  8
0
 10
1354.792294
 20
575.759660
 42
0.065821
  0
VERTEX
  8
0
 10
1351.498985
 20
576.441104
 42
0.048373
  0
VERTEX
  8
0
 10
1347.063201
 20
576.334245
 42
0.023880
  0
SEQEND
  0
POLYLINE
  8
0
 66
1
 70
1
  0
VERTEX
  8
0
 10
476.500000
 20
505.098049
 42
0.020994
  0
VERTEX
  8
0
 10
467.991918
 20
501.721853
 42
0.013011
  0
VERTEX
  8
0
 10
458.290752
 20
497.086201
 42
0.013046
  0
VERTEX
  8
0
 10
448.931800
 20
491.999129
 42
0.022788
  0
VERTEX
  8
0
 10
441.500000
 20
487.240430
 42
0.034264
  0
VERTEX
  8
0
 10
430.803884
 20
478.526893
 42
0.030267
  0
VERTEX
  8
0
 10
420.915606
 20
468.084964
 42
0.031598
  0
VERTEX
  8
0
 10
412.997962
 20
457.327301
 42
0.061585
  0
VERTEX
  8
0
 10
408.386679
 20
447.739422
 42
0.139698
  0
VERTEX
  8
0
 10
407.648530
 20
432.268775
 42
0.203150
  0
VERTEX
  8
0
 10
415.601079
 20
421.379240
 42
0.162564
  0
VERTEX
  8
0
 10
430.719939
 20
418.047959
 42
0.090251
  0
VERTEX
  8
0
 10
449.030521
 20
423.421438
 42
0.034406
  0
VERTEX
  8
0
 10
457.242495
 20
428.279950
 42
0.039084
  0
VERTEX
  8
0
 10
464.344873
 20
434.037018
 42
0.038681
  0
VERTEX
  8
0
 10
470.524484
 20
440.884380
 42
0.032484
  0
VERTEX
  8
0
 10
475.980882
 20
449.000000
 42
0.025645
  0
VERTEX
  8
0
 10
481.887406
 20
460.465712
 42
0.013875
  0
VERTEX
  8
0
 10
488.021098
 20
475.109244
 42
0.013421
  0
VERTEX
  8
0
 10
493.123772
 20
489.439656
 42
0.042590
  0
VERTEX
  8
0
 10
495.442706
 20
499.338834
 42
0.117689
  0
VERTEX
  8
0
 10
494.959754
 20
504.731312
 42
0.242604
  0
VERTEX
  8
0
 10
492.003932
 20
507.604160
 42
0.128871
  0
VERTEX
  8
0
 10
486.130257
 20
507.832313
 42
0.029578
  0
SEQEND
  0
POLYLINE
  8
0
 66
1
 70
1
  0
VERTEX
  8
0
 10
1039.500000
 20
464.520802
 42
0.020489
  0
VERTEX
  8
0
 10
1033.892419
 20
463.043748
 42
0.013164
  0
VERTEX
  8
0
 10
1027.516092
 20
460.896320
 42
0.013008
  0
VERTEX
  8
0
 10
1021.126469
 20
458.365008
 42
0.017268
  0
VERTEX
  8
0
 10
1015.464578
 20
455.715124
 42
0.041336
  0
VERTEX
  8
0
 10
1003.872584
 20
448.529700
 42
0.024984
  0
VERTEX
  8
0
 10
991.379280
 20
438.271417
 42
0.024626
  0
VERTEX
  8
0
 10
980.549839
 20
427.414251
 42
0.071652
  0
VERTEX
  8
0
 10
974.653747
 20
418.642793
 42
0.051228
  0
VERTEX
  8
0
 10
971.925555
 20
411.084319
 42
0.071022
  0
VERTEX
  8
0
 10
971.191488
 20
403.928092
 42
0.079229
  0
VERTEX
  8
0
 10
972.486160
 20
397.465394
 42
0.086129
  0
VERTEX
  8
0
 10
975.711727
 20
391.930746
 42
0.105169
  0
VERTEX
  8
0
 10
981.858253
 20
387.143415
 42
0.072806
  0
VERTEX
  8
0
 10
990.286583
 20
384.473305
 42
0.065323
  0
VERTEX
  8
0
 10
1000.049824
 20
384.170699
 42
0.056214
  0
VERTEX
  8
0
 10
1010.096371
 20
386.330799
 42
0.024538
  0
VERTEX
  8
0
 10
1017.025539
 20
389.043593
 42
0.026046
  0
VERTEX
  8
0
 10
1023.514775
 20
392.375139
 42
0.027935
  0
VERTEX
  8
0
 10
1029.064548
 20
396.028988
 42
0.049546
  0
VERTEX
  8
0
 10
1033.115956
 20
399.706868
 42
0.042723
  0
VERTEX
  8
0
 10
1044.321364
 20
414.468870
 42
0.020036
  0
VERTEX
  8
0
 10
1056.323754
 20
435.246975
 42
0.011884
  0
VERTEX
  8
0
 10
1066.645052
 20
456.079813
 42
0.258671
  0
VERTEX
  8
0
 10
1066.184419
 20
462.647391
 42
0.192976
  0
VERTEX
  8
0
 10
1063.065178
 20
464.842674
 42
0.040499
  0
VERTEX
  8
0
 10
1056.336593
 20
465.866789
 42
0.038296
  0
VERTEX
  8
0
 10
1048.063687
 20
465.813321
 42
0.033404
  0
SEQEND
  0
POLYLINE
  8
0
 66
1
 70
1
  0
VERTEX
  8
0
 10
201.245614
 20
460.525384
 42
0.028225
  0
VERTEX
  8
0
 10
195.088195
 20
455.328183
 42
0.013480
  0
VERTEX
  8
0
 10
187.754648
 20
448.008873
 42
0.013490
  0
VERTEX
  8
0
 10
180.802030
 20
440.277820
 42
0.027233
  0
VERTEX
  8
0
 10
175.838676
 20
433.762440
 42
0.046411
  0
VERTEX
  8
0
 10
169.111389
 20
421.558563
 42
0.067366
  0
VERTEX
  8
0
 10
165.757961
 20
409.741631
 42
0.075387
  0
VERTEX
  8
0
 10
165.853516
 20
398.506166
 42
0.079223
  0
VERTEX
  8
0
 10
169.298446
 20
388.009230
 42
0.080130
  0
VERTEX
  8
0
 10
173.349350
 20
382.512917
 42
0.066566
  0
VERTEX
  8
0
 10
179.169969
 20
378.153833
 42
0.069212
  0
VERTEX
  8
0
 10
185.672184
 20
375.619442
 42
0.105110
  0
VERTEX
  8
0
 10
191.715004
 20
375.474357
 42
0.158521
  0
VERTEX
  8
0
 10
198.182604
 20
379.006541
 42
0.058641
  0
VERTEX
  8
0
 10
204.452914
 20
387.439621
 42
0.047186
  0
VERTEX
  8
0
 10
209.979274
 20
399.556587
 42
0.029977
  0
VERTEX
  8
0
 10
214.173997
 20
414.500000
 42
0.044256
  0
VERTEX
  8
0
 10
215.260859
 20
423.130360
 42
0.013958
  0
VERTEX
  8
0
 10
215.376744
 20
436.141029
 42
0.013865
  0
VERTEX
  8
0
 10
214.770406
 20
449.105318
 42
0.046230
  0
VERTEX
  8
0
 10
213.356544
 20
457.500000
 42
0.031979
  0
VERTEX
  8
0
 10
211.528902
 20
462.956769
 42
0.239127
  0
VERTEX
  8
0
 10
209.528290
 20
464.691136
 42
0.202186
  0
VERTEX
  8
0
 10
206.706542
 20
464.252547
 42
0.022855
  0
SEQEND
  0
POLYLINE
  8
0
 66
1
 70
1
  0
VERTEX
  8
0
 10
769.500000
 20
353.297991
 42
0.041416
  0
VERTEX
  8
0
 10
757.452525
 20
350.653187
 42
0.025610
  0
VERTEX
  8
0
 10
743.826725
 20
345.677878
 42
0.025688
  0
VERTEX
  8
0
 10
730.894033
 20
339.387997
 42
0.044600
  0
VERTEX
  8
0
 10
721.000000
 20
332.717762
 42
0.040014
  0
VERTEX
  8
0
 10
712.784164
 20
324.872910
 42
0.045253
  0
VERTEX
  8
0
 10
706.291562
 20
316.117296
 42
0.049937
  0
VERTEX
  8
0
 10
702.066198
 20
307.321358
 42
0.087134
  0
VERTEX
  8
0
 10
700.668213
 20
299.377759
 42
0.139521
  0
VERTEX
  8
0
 10
702.788611
 20
291.916183
 42
0.129347
  0
VERTEX
  8
0
 10
708.567420
 20
286.430264
 42
0.102229
  0
VERTEX
  8
0
 10
717.549804
 20
283.667543
 42
0.062752
  0
VERTEX
  8
0
 10
728.658617
 20
284.008710
 42
0.074947
  0
VERTEX
  8
0
 10
741.695097
 20
288.122296
 42
0.068299
  0
VERTEX
  8
0
 10
753.404725
 20
295.990669
 42
0.058738
  0
VERTEX
  8
0
 10
763.948720
 20
307.882066
 42
0.036069
  0
VERTEX
  8
0
 10
773.522132
 20
324.000000
 42
0.009415
  0
VERTEX
  8
0
 10
777.528651
 20
332.400426
 42
0.016116
  0
VERTEX
  8
0
 10
780.509247
 20
339.570363
 42
0.018111
  0
VERTEX
  8
0
 10
782.462358
 20
345.356792
 42
0.072453
  0
VERTEX
  8
0
 10
783.000000
 20
349.047580
 42
0.157468
  0
VERTEX
  8
0
 10
782.145180
 20
351.694549
 42
0.161645
  0
VERTEX
  8
0
 10
779.911674
 20
353.307817
 42
0.086066
  0
VERTEX
  8
0
 10
775.886200
 20
353.847656
 42
0.023735
  0
SEQEND
  0
POLYLINE
  8
0
 66
1
 70
1
  0
VERTEX
  8
0
 10
543.000000
 20
242.151271
 42
0.025718
  0
VERTEX
  8
0
 10
532.018434
 20
237.871205
 42
0.032839
  0
VERTEX
  8
0
 10
522.430152
 20
232.772711
 42
0.033355
  0
VERTEX
  8
0
 10
513.711345
 20
226.534349
 42
0.027968
  0
VERTEX
  8
0
 10
505.341644
 20
218.835629
 42
0.014058
  0
VERTEX
  8
0
 10
500.311230
 20
213.360556
 42
0.029875
  0
VERTEX
  8
0
 10
496.806371
 20
208.800044
 42
0.038749
  0
VERTEX
  8
0
 10
494.656309
 20
205.027918
 42
0.110597
  0
VERTEX
  8
0
 10
494.000000
 20
202.097105
 42
0.121761
  0
VERTEX
  8
0
 10
494.858477
 20
198.624107
 42
0.036133
  0
VERTEX
  8
0
 10
497.771315
 20
193.945801
 42
0.036949
  0
VERTEX
  8
0
 10
501.462057
 20
189.590489
 42
0.080724
  0
VERTEX
  8
0
 10
504.979783
 20
187.010314
 42
0.123717
  0
VERTEX
  8
0
 10
513.525687
 20
185.049327
 42
0.103879
  0
VERTEX
  8
0
 10
522.604060
 20
187.152371
 42
0.081977
  0
VERTEX
  8
0
 10
531.780358
 20
193.406578
 42
0.047330
  0
VERTEX
  8
0
 10
540.556947
 20
203.527600
 42
0.030562
  0
VERTEX
  8
0
 10
545.926610
 20
212.117491
 42
0.016030
  0
VERTEX
  8
0
 10
551.585315
 20
223.382134
 42
0.013181
  0
VERTEX
  8
0
 10
556.300797
 20
234.318140
 42
0.091944
  0
VERTEX
  8
0
 10
557.437009
 20
240.000000
 42
0.013016
  0
VERTEX
  8
0
 10
557.403457
 20
242.788350
 42
0.130007
  0
VERTEX
  8
0
 10
557.065302
 20
243.894720
 42
0.199097
  0
VERTEX
  8
0
 10
556.278851
 20
244.459208
 42
0.037844
  0
VERTEX
  8
0
 10
554.500000
 20
244.735052
 42
0.062415
  0
VERTEX
  8
0
 10
552.825208
 20
244.657156
 42
0.012466
  0
VERTEX
  8
0
 10
549.884375
 20
244.073025
 42
0.013004
  0
VERTEX
  8
0
 10
546.474224
 20
243.213111
 42
0.011799
  0
SEQEND
  0
POLYLINE
  8
0
 66
1
 70
1
  0
VERTEX
  8
0
 10
324.774538
 20
239.059185
 42
0.036706
  0
VERTEX
  8
0
 10
313.442452
 20
233.640531
 42
0.028010
  0
VERTEX
  8
0
 10
301.903973
 20
226.156268
 42
0.028661
  0
VERTEX
  8
0
 10
291.868154
 20
217.894786
 42
0.059067
  0
VERTEX
  8
0
 10
285.274330
 20
210.172954
 42
0.049246
  0
VERTEX
  8
0
 10
281.497118
 20
203.097497
 42
0.112613
  0
VERTEX
  8
0
 10
280.493619
 20
197.168531
 42
0.133342
  0
VERTEX
  8
0
 10
282.204656
 20
192.035164
 42
0.083276
  0
VERTEX
  8
0
 10
286.566052
 20
187.381822
 42
0.030220
  0
VERTEX
  8
0
 10
288.868537
 20
185.836234
 42
0.064930
  0
VERTEX
  8
0
 10
290.833083
 20
185.003126
 42
0.053095
  0
VERTEX
  8
0
 10
293.185220
 20
184.610697
 42
0.014808
  0
VERTEX
  8
0
 10
296.922158
 20
184.500000
 42
0.050155
  0
VERTEX
  8
0
 10
302.960547
 20
185.107238
 42
0.060613
  0
VERTEX
  8
0
 10
308.362182
 20
186.906451
 42
0.055132
  0
VERTEX
  8
0
 10
313.558469
 20
190.112074
 42
0.032656
  0
VERTEX
  8
0
 10
319.000000
 20
194.964181
 42
0.034074
  0
VERTEX
  8
0
 10
323.516695
 20
200.227696
 42
0.032788
  0
VERTEX
  8
0
 10
327.340499
 20
206.121616
 42
0.028998
  0
VERTEX
  8
0
 10
330.732070
 20
213.107397
 42
0.017682
  0
VERTEX
  8
0
 10
333.952079
 20
221.697572
 42
0.027198
  0
VERTEX
  8
0
 10
337.078838
 20
233.044101
 42
0.177012
  0
VERTEX
  8
0
 10
336.289875
 20
238.814655
 42
0.304636
  0
VERTEX
  8
0
 10
332.420998
 20
240.893765
 42
0.068697
  0
SEQEND
  0
POLYLINE
  8
0
 66
1
 70
1
  0
VERTEX
  8
0
 10
1544.824002
 20
1585.920839
 42
0.018703
  0
VERTEX
  8
0
 10
1541.320138
 20
1585.416556
 42
0.010494
  0
VERTEX
  8
0
 10
1537.104528
 20
1584.556169
 42
0.010460
  0
VERTEX
  8
0
 10
1532.876999
 20
1583.507103
 42
0.016771
  0
VERTEX
  8
0
 10
1529.324002
 20
1582.416995
 42
0.016428
  0
VERTEX
  8
0
 10
1516.479827
 20
1577.522391
 42
0.008870
  0
VERTEX
  8
0
 10
1500.985968
 20
1570.701907
 42
0.008871
  0
VERTEX
  8
0
 10
1485.759547
 20
1563.343694
 42
0.016590
  0
VERTEX
  8
0
 10
1473.757377
 20
1556.770074
 42
0.033790
  0
VERTEX
  8
0
 10
1466.651712
 20
1551.889936
 42
0.078942
  0
VERTEX
  8
0
 10
1462.296134
 20
1547.156748
 42
0.188291
  0
VERTEX
  8
0
 10
1461.524417
 20
1543.607415
 42
0.300254
  0
VERTEX
  8
0
 10
1463.547215
 20
1541.398794
 42
0.082076
  0
VERTEX
  8
0
 10
1467.076866
 20
1541.108286
 42
0.037189
  0
VERTEX
  8
0
 10
1471.672072
 20
1541.831053
 42
0.023998
  0
VERTEX
  8
0
 10
1478.039660
 20
1543.650649
 42
0.007060
  0
VERTEX
  8
0
 10
1487.618723
 20
1547.043953
 42
-0.014399
  0
VERTEX
  8
0
 10
1507.280847
 20
1553.685991
 42
-0.024776
  0
VERTEX
  8
0
 10
1524.036488
 20
1557.918679
 42
-0.027121
  0
VERTEX
  8
0
 10
1540.014885
 20
1560.230166
 42
-0.022363
  0
VERTEX
  8
0
 10
1557.218243
 20
1561.000000
 42
-0.016949
  0
VERTEX
  8
0
 10
1569.334892
 20
1560.589152
 42
-0.023943
  0
VERTEX
  8
0
 10
1580.060427
 20
1559.342998
 42
-0.023631
  0
VERTEX
  8
0
 10
1590.723828
 20
1557.061270
 42
-0.015901
  0
VERTEX
  8
0
 10
1602.660135
 20
1553.501247
 42
-0.032657
  0
VERTEX
  8
0
 10
1619.849894
 20
1546.496662
 42
-0.047037
  0
VERTEX
  8
0
 10
1633.877335
 20
1537.968785
 42
-0.030501
  0
VERTEX
  8
0
 10
1649.884993
 20
1524.452111
 42
-0.006452
  0
VERTEX
  8
0
 10
1676.000000
 20
1498.868758
 42
0.002761
  0
VERTEX
  8
0
 10
1689.674323
 20
1485.273531
 42
0.004633
  0
VERTEX
  8
0
 10
1701.329781
 20
1474.023244
 42
0.004720
  0
VERTEX
  8
0
 10
1710.689559
 20
1465.321053
 42
0.026924
  0
VERTEX
  8
0
 10
1715.943472
 20
1461.022364
 42
0.025345
  0
VERTEX
  8
0
 10
1722.915282
 20
1456.442488
 42
0.010445
  0
VERTEX
  8
0
 10
1732.782167
 20
1450.927869
 42
0.006004
  0
VERTEX
  8
0
 10
1742.726419
 20
1445.791730
 42
0.116712
  0
VERTEX
  8
0
 10
1746.072013
 20
1445.000000
 42
0.667991
  0
VERTEX
  8
0
 10
1746.184036
 20
1445.270247
 42
0.008813
  0
VERTEX
  8
0
 10
1744.415793
 20
1446.979008
 42
0.011742
  0
VERTEX
  8
0
 10
1741.974468
 20
1449.151445
 42
0.006202
  0
VERTEX
  8
0
 10
1738.849957
 20
1451.737047
 42
-0.024863
  0
VERTEX
  8
0
 10
1722.510701
 20
1466.318534
 42
-0.015382
  0
VERTEX
  8
0
 10
1704.745564
 20
1484.946051
 42
-0.014432
  0
VERTEX
  8
0
 10
1686.707462
 20
1506.271372
 42
-0.013480
  0
VERTEX
  8
0
 10
1669.500000
 20
1529.083176
 42
0.029721
  0
VERTEX
  8
0
 10
1661.241951
 20
1539.321800
 42
0.013448
  0
VERTEX
  8
0
 10
1649.301475
 20
1551.758469
 42
0.013300
  0
VERTEX
  8
0
 10
1636.889579
 20
1563.373758
 42
0.035150
  0
VERTEX
  8
0
 10
1627.249071
 20
1570.784788
 42
0.039854
  0
VERTEX
  8
0
 10
1616.577319
 20
1576.690537
 42
0.037559
  0
VERTEX
  8
0
 10
1604.892923
 20
1580.964964
 42
0.031686
  0
VERTEX
  8
0
 10
1590.999660
 20
1583.959179
 42
0.016810
  0
VERTEX
  8
0
 10
1573.500000
 20
1585.985925
 42
0.005491
  0
VERTEX
  8
0
 10
1564.505001
 20
1586.622964
 42
0.015499
  0
VERTEX
  8
0
 10
1558.207632
 20
1586.803909
 42
0.017340
  0
VERTEX
  8
0
 10
1552.314075
 20
1586.586060
 42
0.008479
  0
SEQEND
  0
POLYLINE
  8
0
 66
1
 70
1
  0
VERTEX
  8
0
 10
1461.000000
 20
1420.215592
 42
0.073226
  0
VERTEX
  8
0
 10
1459.026674
 20
1419.253061
 42
0.073568
  0
VERTEX
  8
0
 10
1457.418091
 20
1417.763863
 42
0.076857
  0
VERTEX
  8
0
 10
1456.363817
 20
1415.937956
 42
0.092820
  0
VERTEX
  8
0
 10
1456.000000
 20
1413.995051
 42
0.163353
  0
VERTEX
  8
0
 10
1457.780686
 20
1408.690068
 42
0.026075
  0
VERTEX
  8
0
 10
1464.931073
 20
1400.197893
 42
0.018882
  0
VERTEX
  8
0
 10
1476.856598
 20
1388.375173
 42
0.005196
  0
VERTEX
  8
0
 10
1496.500000
 20
1370.692450
 42
-0.001353
  0
VERTEX
  8
0
 10
1518.385329
 20
1351.293994
 42
-0.005670
  0
VERTEX
  8
0
 10
1531.381050
 20
1339.444931
 42
-0.009056
  0
VERTEX
  8
0
 10
1540.711336
 20
1330.420644
 42
-0.010535
  0
VERTEX
  8
0
 10
1549.239133
 20
1321.500000
 42
-0.017612
  0
VERTEX
  8
0
 10
1564.411004
 20
1303.726601
 42
-0.017411
  0
VERTEX
  8
0
 10
1578.355314
 20
1284.862749
 42
-0.014972
  0
VERTEX
  8
0
 10
1592.645951
 20
1262.655452
 42
-0.008065
  0
VERTEX
  8
0
 10
1608.981626
 20
1234.500000
 42
0.001299
  0
VERTEX
  8
0
 10
1614.129710
 20
1225.343775
 42
0.001222
  0
VERTEX
  8
0
 10
1619.431184
 20
1216.025000
 42
0.001214
  0
VERTEX
  8
0
 10
1624.171322
 20
1207.786552
 42
0.004230
  0
VERTEX
  8
0
 10
1627.290129
 20
1202.500000
 42
0.015906
  0
VERTEX
  8
0
 10
1648.407933
 20
1169.788970
 42
0.019068
  0
VERTEX
  8
0
 10
1670.387619
 20
1140.464804
 42
0.020640
  0
VERTEX
  8
0
 10
1692.646693
 20
1115.219211
 42
0.029184
  0
VERTEX
  8
0
 10
1714.600746
 20
1094.825956
 42
0.011609
  0
VERTEX
  8
0
 10
1731.981492
 20
1081.140995
 42
0.007053
  0
VERTEX
  8
0
 10
1753.124124
 20
1065.736467
 42
0.006315
  0
VERTEX
  8
0
 10
1773.240462
 20
1051.887493
 42
0.030715
  0
VERTEX
  8
0
 10
1785.187398
 20
1044.905402
 42
0.026456
  0
VERTEX
  8
0
 10
1791.134170
 20
1042.288304
 42
0.160524
  0
VERTEX
  8
0
 10
1794.451400
 20
1042.144418
 42
0.396273
  0
VERTEX
  8
0
 10
1795.486014
 20
1043.865598
 42
0.085263
  0
VERTEX
  8
0
 10
1794.056986
 20
1047.407795
 42
0.058125
  0
VERTEX
  8
0
 10
1791.227905
 20
1050.980967
 42
0.015213
  0
VERTEX
  8
0
 10
1785.891899
 20
1055.997614
 42
0.010538
  0
VERTEX
  8
0
 10
1777.716157
 20
1062.926864
 42
0.003030
  0
VERTEX
  8
0
 10
1764.776917
 20
1073.303504
 42
-0.004932
  0
VERTEX
  8
0
 10
1751.292684
 20
1084.201760
 42
-0.008187
  0
VERTEX
  8
0
 10
1740.167567
 20
1093.686462
 42
-0.008386
  0
VERTEX
  8
0
 10
1729.547363
 20
1103.366462
 42
-0.005515
  0
VERTEX
  8
0
 10
1717.638256
 20
1114.843316
 42
-0.013518
  0
VERTEX
  8
0
 10
1693.703667
 20
1139.734125
 42
-0.035702
  0
VERTEX
  8
0
 10
1678.411761
 20
1159.138998
 42
-0.030953
  0
VERTEX
  8
0
 10
1664.862776
 20
1182.045048
 42
-0.008146
  0
VERTEX
  8
0
 10
1646.093926
 20
1220.314482
 42
0.009113
  0
VERTEX
  8
0
 10
1627.100258
 20
1258.853498
 42
0.025661
  0
VERTEX
  8
0
 10
1611.981825
 20
1284.808436
 42
0.030723
  0
VERTEX
  8
0
 10
1595.925195
 20
1306.365971
 42
0.018704
  0
VERTEX
  8
0
 10
1574.523991
 20
1329.850747
 42
0.009726
  0
VERTEX
  8
0
 10
1555.216884
 20
1348.757799
 42
0.008954
  0
VERTEX
  8
0
 10
1534.657649
 20
1367.438875
 42
0.008728
  0
VERTEX
  8
0
 10
1512.900803
 20
1385.846718
 42
0.008130
  0
VERTEX
  8
0
 10
1490.000000
 20
1403.933886
 42
0.008145
  0
VERTEX
  8
0
 10
1478.467248
 20
1412.448040
 42
0.027025
  0
VERTEX
  8
0
 10
1470.508503
 20
1417.500284
 42
0.040446
  0
VERTEX
  8
0
 10
1464.772905
 20
1420.135855
 42
0.165875
  0
SEQEND
  0
ENDSEC
  0
EOF
