  0
SECTION
  2
HEADER
  9
$ACADVER
  1
AC1015
  9
$ACADMAINTVER
 70
     6
  9
$DWGCODEPAGE
  3
ANSI_1252
  9
$INSBASE
 10
0.0
 20
0.0
 30
0.0
  9
$EXTMIN
 10
-85.7435897436
 20
0.0
 30
0.0
  9
$EXTMAX
 10
-29.7435897436
 20
283.0
 30
0.0
  9
$LIMMIN
 10
0.0
 20
0.0
  9
$LIMMAX
 10
420.0
 20
297.0
  9
$ORTHOMODE
 70
     0
  9
$REGENMODE
 70
     1
  9
$FILLMODE
 70
     1
  9
$QTEXTMODE
 70
     0
  9
$MIRRTEXT
 70
     1
  9
$LTSCALE
 40
1.0
  9
$ATTMODE
 70
     1
  9
$TEXTSIZE
 40
3.5
  9
$TRACEWID
 40
1.0
  9
$TEXTSTYLE
  7
Standard
  9
$CLAYER
  8
0
  9
$CELTYPE
  6
ByLayer
  9
$CECOLOR
 62
   256
  9
$CELTSCALE
 40
1.0
  9
$DISPSILH
 70
     0
  9
$DIMSCALE
 40
1.0
  9
$DIMASZ
 40
3.302
  9
$DIMEXO
 40
0.0
  9
$DIMDLI
 40
3.75
  9
$DIMRND
 40
0.0
  9
$DIMDLE
 40
0.0
  9
$DIMEXE
 40
1.0
  9
$DIMTP
 40
0.0
  9
$DIMTM
 40
0.0
  9
$DIMTXT
 40
3.5
  9
$DIMCEN
 40
2.5
  9
$DIMTSZ
 40
0.0
  9
$DIMTOL
 70
     0
  9
$DIMLIM
 70
     0
  9
$DIMTIH
 70
     1
  9
$DIMTOH
 70
     1
  9
$DIMSE1
 70
     0
  9
$DIMSE2
 70
     0
  9
$DIMTAD
 70
     1
  9
$DIMZIN
 70
     1
  9
$DIMBLK
  1

  9
$DIMASO
 70
     1
  9
$DIMSHO
 70
     1
  9
$DIMPOST
  1

  9
$DIMAPOST
  1

  9
$DIMALT
 70
     0
  9
$DIMALTD
 70
     3
  9
$DIMALTF
 40
0.0393700787
  9
$DIMLFAC
 40
1.0
  9
$DIMTOFL
 70
     1
  9
$DIMTVP
 40
0.0
  9
$DIMTIX
 70
     0
  9
$DIMSOXD
 70
     0
  9
$DIMSAH
 70
     0
  9
$DIMBLK1
  1

  9
$DIMBLK2
  1

  9
$DIMSTYLE
  2
ISO-25
  9
$DIMCLRD
 70
     0
  9
$DIMCLRE
 70
     0
  9
$DIMCLRT
 70
     0
  9
$DIMTFAC
 40
1.0
  9
$DIMGAP
 40
1.524
  9
$DIMJUST
 70
     0
  9
$DIMSD1
 70
     0
  9
$DIMSD2
 70
     0
  9
$DIMTOLJ
 70
     0
  9
$DIMTZIN
 70
     1
  9
$DIMALTZ
 70
     0
  9
$DIMALTTZ
 70
     0
  9
$DIMUPT
 70
     0
  9
$DIMDEC
 70
     2
  9
$DIMTDEC
 70
     2
  9
$DIMALTU
 70
     2
  9
$DIMALTTD
 70
     3
  9
$DIMTXSTY
  7
Standard
  9
$DIMAUNIT
 70
     0
  9
$DIMADEC
 70
     2
  9
$DIMALTRND
 40
0.0
  9
$DIMAZIN
 70
     0
  9
$DIMDSEP
 70
    44
  9
$DIMATFIT
 70
     3
  9
$DIMFRAC
 70
     0
  9
$DIMLDRBLK
  1

  9
$DIMLUNIT
 70
     2
  9
$DIMLWD
 70
    -2
  9
$DIMLWE
 70
    -2
  9
$DIMTMOVE
 70
     0
  9
$LUNITS
 70
     2
  9
$LUPREC
 70
     2
  9
$SKETCHINC
 40
1.0
  9
$FILLETRAD
 40
10.0
  9
$AUNITS
 70
     0
  9
$AUPREC
 70
     2
  9
$MENU
  1
.
  9
$ELEVATION
 40
0.0
  9
$PELEVATION
 40
0.0
  9
$THICKNESS
 40
0.0
  9
$LIMCHECK
 70
     0
  9
$CHAMFERA
 40
0.0
  9
$CHAMFERB
 40
0.0
  9
$CHAMFERC
 40
0.0
  9
$CHAMFERD
 40
0.0
  9
$SKPOLY
 70
     0
  9
$TDCREATE
 40
2459205.341879398
  9
$TDUCREATE
 40
2459205.300212732
  9
$TDUPDATE
 40
2459205.341905521
  9
$TDUUPDATE
 40
2459205.300238854
  9
$TDINDWG
 40
0.0000000116
  9
$TDUSRTIMER
 40
0.0000000116
  9
$USRTIMER
 70
     1
  9
$ANGBASE
 50
0.0
  9
$ANGDIR
 70
     0
  9
$PDMODE
 70
     0
  9
$PDSIZE
 40
-1.0
  9
$PLINEWID
 40
0.0
  9
$SPLFRAME
 70
     0
  9
$SPLINETYPE
 70
     6
  9
$SPLINESEGS
 70
     8
  9
$HANDSEED
  5
1EE
  9
$SURFTAB1
 70
     6
  9
$SURFTAB2
 70
     6
  9
$SURFTYPE
 70
     6
  9
$SURFU
 70
     6
  9
$SURFV
 70
     6
  9
$UCSBASE
  2

  9
$UCSNAME
  2

  9
$UCSORG
 10
0.0
 20
0.0
 30
0.0
  9
$UCSXDIR
 10
1.0
 20
0.0
 30
0.0
  9
$UCSYDIR
 10
0.0
 20
1.0
 30
0.0
  9
$UCSORTHOREF
  2

  9
$UCSORTHOVIEW
 70
     0
  9
$UCSORGTOP
 10
0.0
 20
0.0
 30
0.0
  9
$UCSORGBOTTOM
 10
0.0
 20
0.0
 30
0.0
  9
$UCSORGLEFT
 10
0.0
 20
0.0
 30
0.0
  9
$UCSORGRIGHT
 10
0.0
 20
0.0
 30
0.0
  9
$UCSORGFRONT
 10
0.0
 20
0.0
 30
0.0
  9
$UCSORGBACK
 10
0.0
 20
0.0
 30
0.0
  9
$PUCSBASE
  2

  9
$PUCSNAME
  2

  9
$PUCSORG
 10
0.0
 20
0.0
 30
0.0
  9
$PUCSXDIR
 10
1.0
 20
0.0
 30
0.0
  9
$PUCSYDIR
 10
0.0
 20
1.0
 30
0.0
  9
$PUCSORTHOREF
  2

  9
$PUCSORTHOVIEW
 70
     0
  9
$PUCSORGTOP
 10
0.0
 20
0.0
 30
0.0
  9
$PUCSORGBOTTOM
 10
0.0
 20
0.0
 30
0.0
  9
$PUCSORGLEFT
 10
0.0
 20
0.0
 30
0.0
  9
$PUCSORGRIGHT
 10
0.0
 20
0.0
 30
0.0
  9
$PUCSORGFRONT
 10
0.0
 20
0.0
 30
0.0
  9
$PUCSORGBACK
 10
0.0
 20
0.0
 30
0.0
  9
$USERI1
 70
     0
  9
$USERI2
 70
     0
  9
$USERI3
 70
     0
  9
$USERI4
 70
     0
  9
$USERI5
 70
     0
  9
$USERR1
 40
0.0
  9
$USERR2
 40
0.0
  9
$USERR3
 40
0.0
  9
$USERR4
 40
0.0
  9
$USERR5
 40
0.0
  9
$WORLDVIEW
 70
     1
  9
$SHADEDGE
 70
     3
  9
$SHADEDIF
 70
    70
  9
$TILEMODE
 70
     1
  9
$MAXACTVP
 70
    64
  9
$PINSBASE
 10
0.0
 20
0.0
 30
0.0
  9
$PLIMCHECK
 70
     0
  9
$PEXTMIN
 10
1.0000000000E+20
 20
1.0000000000E+20
 30
1.0000000000E+20
  9
$PEXTMAX
 10
-1.0000000000E+20
 20
-1.0000000000E+20
 30
-1.0000000000E+20
  9
$PLIMMIN
 10
0.0
 20
0.0
  9
$PLIMMAX
 10
420.0
 20
297.0
  9
$UNITMODE
 70
     0
  9
$VISRETAIN
 70
     1
  9
$PLINEGEN
 70
     0
  9
$PSLTSCALE
 70
     1
  9
$TREEDEPTH
 70
  3020
  9
$CMLSTYLE
  2
Standard
  9
$CMLJUST
 70
     0
  9
$CMLSCALE
 40
20.0
  9
$PROXYGRAPHICS
 70
     1
  9
$MEASUREMENT
 70
     1
  9
$CELWEIGHT
370
    -1
  9
$ENDCAPS
280
     0
  9
$JOINSTYLE
280
     0
  9
$LWDISPLAY
290
     1
  9
$INSUNITS
 70
     4
  9
$HYPERLINKBASE
  1

  9
$STYLESHEET
  1

  9
$XEDIT
290
     1
  9
$CEPSNTYPE
380
     0
  9
$PSTYLEMODE
290
     1
  9
$FINGERPRINTGUID
  2
{4a3b62e2-a897-4cf7-8505-1ab6b69cc1a5}
  9
$VERSIONGUID
  2
{FAEB1C32-E019-11D5-929B-00C0DF256EC4}
  9
$EXTNAMES
290
     1
  9
$PSVPSCALE
 40
0.0
  9
$OLESTARTUP
290
     0
  0
ENDSEC
  0
SECTION
  2
CLASSES
  0
CLASS
  1
ACDBDICTIONARYWDFLT
  2
AcDbDictionaryWithDefault
  3
ObjectDBX Classes
 90
        0
280
     0
281
     0
  0
CLASS
  1
VISUALSTYLE
  2
AcDbVisualStyle
  3
ObjectDBX Classes
 90
     4095
280
     0
281
     0
  0
CLASS
  1
MATERIAL
  2
AcDbMaterial
  3
ObjectDBX Classes
 90
     1153
280
     0
281
     0
  0
CLASS
  1
SCALE
  2
AcDbScale
  3
ObjectDBX Classes
 90
     1153
280
     0
281
     0
  0
CLASS
  1
TABLESTYLE
  2
AcDbTableStyle
  3
ObjectDBX Classes
 90
     4095
280
     0
281
     0
  0
CLASS
  1
MLEADERSTYLE
  2
AcDbMLeaderStyle
  3
ACDB_MLEADERSTYLE_CLASS
 90
     4095
280
     0
281
     0
  0
CLASS
  1
SUN
  2
AcDbSun
  3
SCENEOE
 90
     1153
280
     0
281
     0
  0
CLASS
  1
ACDBPLACEHOLDER
  2
AcDbPlaceHolder
  3
ObjectDBX Classes
 90
        0
280
     0
281
     0
  0
CLASS
  1
LAYOUT
  2
AcDbLayout
  3
ObjectDBX Classes
 90
        0
280
     0
281
     0
  0
ENDSEC
  0
SECTION
  2
TABLES
  0
TABLE
  2
VPORT
  5
8
330
0
100
AcDbSymbolTable
 70
     1
  0
VPORT
  5
29
330
8
100
AcDbSymbolTableRecord
100
AcDbViewportTableRecord
  2
*Active
 70
     0
 10
0.0
 20
0.0
 11
1.0
 21
1.0
 12
-57.7435897436
 22
141.5
 13
0.0
 23
0.0
 14
10.0
 24
10.0
 15
10.0
 25
10.0
 16
0.0
 26
0.0
 36
1.0
 17
0.0
 27
0.0
 37
0.0
 40
288.66
 41
0.1978798587
 42
50.0
 43
0.0
 44
0.0
 50
0.0
 51
0.0
 71
     0
 72
   100
 73
     1
 74
     3
 75
     0
 76
     0
 77
     0
 78
     0
281
     0
 65
     1
110
0.0
120
0.0
130
0.0
111
1.0
121
0.0
131
0.0
112
0.0
122
1.0
132
0.0
 79
     0
146
0.0
  0
ENDTAB
  0
TABLE
  2
LTYPE
  5
5
330
0
100
AcDbSymbolTable
 70
     6
  0
LTYPE
  5
14
330
5
100
AcDbSymbolTableRecord
100
AcDbLinetypeTableRecord
  2
ByBlock
 70
     0
  3

 72
    65
 73
     0
 40
0.0
  0
LTYPE
  5
15
330
5
100
AcDbSymbolTableRecord
100
AcDbLinetypeTableRecord
  2
ByLayer
 70
     0
  3

 72
    65
 73
     0
 40
0.0
  0
LTYPE
  5
16
330
5
100
AcDbSymbolTableRecord
100
AcDbLinetypeTableRecord
  2
Continuous
 70
     0
  3
Solid line
 72
    65
 73
     0
 40
0.0
  0
LTYPE
  5
6E
330
5
100
AcDbSymbolTableRecord
100
AcDbLinetypeTableRecord
  2
HIDDEN
 70
     0
  3
Hidden __ __ __ __ __ __ __ __ __ __ __ __ __ __
 72
    65
 73
     2
 40
1.905
 49
1.27
 74
     0
 49
-0.635
 74
     0
  0
LTYPE
  5
6F
330
5
100
AcDbSymbolTableRecord
100
AcDbLinetypeTableRecord
  2
PHANTOM
 70
     0
  3
Phantom ______  __  __  ______  __  __  ______
 72
    65
 73
     6
 40
12.7
 49
6.35
 74
     0
 49
-1.27
 74
     0
 49
1.27
 74
     0
 49
-1.27
 74
     0
 49
1.27
 74
     0
 49
-1.27
 74
     0
  0
LTYPE
  5
70
330
5
100
AcDbSymbolTableRecord
100
AcDbLinetypeTableRecord
  2
CENTER
 70
     0
  3
Center ____ _ ____ _ ____ _ ____ _ ____ _ ____
 72
    65
 73
     4
 40
10.16
 49
6.35
 74
     0
 49
-1.27
 74
     0
 49
1.27
 74
     0
 49
-1.27
 74
     0
  0
LTYPE
  5
71
330
5
100
AcDbSymbolTableRecord
100
AcDbLinetypeTableRecord
  2
CENTERX2
 70
     0
  3
Center (2x) ________  __  ________  __  _____
 72
    65
 73
     4
 40
20.32
 49
12.7
 74
     0
 49
-2.54
 74
     0
 49
2.54
 74
     0
 49
-2.54
 74
     0
  0
LTYPE
  5
72
330
5
100
AcDbSymbolTableRecord
100
AcDbLinetypeTableRecord
  2
DOT2
 70
     0
  3
Dot (.5x) ........................................
 72
    65
 73
     2
 40
0.635
 49
0.0
 74
     0
 49
-0.635
 74
     0
  0
ENDTAB
  0
TABLE
  2
LAYER
  5
2
330
0
100
AcDbSymbolTable
 70
     1
  0
LAYER
  5
10
330
2
100
AcDbSymbolTableRecord
100
AcDbLayerTableRecord
  2
0
 70
     0
 62
     7
  6
Continuous
370
    -3
390
F
  0
ENDTAB
  0
TABLE
  2
STYLE
  5
3
330
0
100
AcDbSymbolTable
 70
     2
  0
STYLE
  5
11
330
3
100
AcDbSymbolTableRecord
100
AcDbTextStyleTableRecord
  2
Standard
 70
     0
 40
0.0
 41
1.0
 50
0.0
 71
     0
 42
3.5
  3
txt
  4

  0
STYLE
  5
1EA
330
3
100
AcDbSymbolTableRecord
100
AcDbTextStyleTableRecord
  2
SLDTEXTSTYLE0
 70
     0
 40
0.0
 41
0.7
 50
0.0
 71
     0
 42
3.5
  3
TXT
  4

  0
ENDTAB
  0
TABLE
  2
VIEW
  5
6
330
0
100
AcDbSymbolTable
 70
     0
  0
ENDTAB
  0
TABLE
  2
UCS
  5
7
330
0
100
AcDbSymbolTable
 70
     0
  0
ENDTAB
  0
TABLE
  2
APPID
  5
9
330
0
100
AcDbSymbolTable
 70
     1
  0
APPID
  5
12
330
9
100
AcDbSymbolTableRecord
100
AcDbRegAppTableRecord
  2
ACAD
 70
     0
  0
ENDTAB
  0
TABLE
  2
DIMSTYLE
  5
A
330
0
100
AcDbSymbolTable
 70
     1
100
AcDbDimStyleTable
  0
DIMSTYLE
105
27
330
A
100
AcDbSymbolTableRecord
100
AcDbDimStyleTableRecord
  2
ISO-25
 70
     0
 41
2.5
 42
0.625
 43
3.75
 44
1.25
 73
     0
 74
     0
 77
     1
 78
     8
140
2.5
141
2.5
143
0.0393700787
147
0.625
171
     3
172
     1
178
     0
271
     2
272
     2
274
     3
278
    44
283
     0
284
     8
340
11
  0
ENDTAB
  0
TABLE
  2
BLOCK_RECORD
  5
1
330
0
100
AcDbSymbolTable
 70
     1
  0
BLOCK_RECORD
  5
1F
330
1
100
AcDbSymbolTableRecord
100
AcDbBlockTableRecord
  2
*Model_Space
340
22
  0
BLOCK_RECORD
  5
1B
330
1
100
AcDbSymbolTableRecord
100
AcDbBlockTableRecord
  2
*Paper_Space
340
1E
  0
BLOCK_RECORD
  5
23
330
1
100
AcDbSymbolTableRecord
100
AcDbBlockTableRecord
  2
*Paper_Space0
340
26
  0
ENDTAB
  0
ENDSEC
  0
SECTION
  2
BLOCKS
  0
BLOCK
  5
20
330
1F
100
AcDbEntity
  8
0
100
AcDbBlockBegin
  2
*Model_Space
 70
     0
 10
0.0
 20
0.0
 30
0.0
  3
*Model_Space
  1

  0
ENDBLK
  5
21
330
1F
100
AcDbEntity
  8
0
100
AcDbBlockEnd
  0
BLOCK
  5
1C
330
1B
100
AcDbEntity
 67
     1
  8
0
100
AcDbBlockBegin
  2
*Paper_Space
 70
     0
 10
0.0
 20
0.0
 30
0.0
  3
*Paper_Space
  1

  0
ENDBLK
  5
1D
330
1B
100
AcDbEntity
 67
     1
  8
0
100
AcDbBlockEnd
  0
BLOCK
  5
24
330
23
100
AcDbEntity
  8
0
100
AcDbBlockBegin
  2
*Paper_Space0
 70
     0
 10
0.0
 20
0.0
 30
0.0
  3
*Paper_Space0
  1

  0
ENDBLK
  5
25
330
23
100
AcDbEntity
  8
0
100
AcDbBlockEnd
  0
ENDSEC
  0
SECTION
  2
ENTITIES
  0
ARC
  5
73
330
1F
100
AcDbEntity
  8
0
  6
Continuous
 62
     7
370
    25
100
AcDbCircle
 10
-57.6185897436
 20
189.4310915352
 30
0.0
 40
2.857205352115496
100
AcDbArc
 50
245.1890173885
 51
248.189747574
  0
LINE
  5
74
330
1F
100
AcDbEntity
  8
0
  6
Continuous
 62
     7
370
    25
100
AcDbLine
 10
-58.6801385956
 20
186.7784067709
 30
0.0
 11
-64.7134500817
 21
171.7018764468
 31
0.0
  0
LINE
  5
75
330
1F
100
AcDbEntity
  8
0
  6
Continuous
 62
     7
370
    25
100
AcDbLine
 10
-64.7134500817
 20
171.7018764468
 30
0.0
 11
-65.6318231485
 21
172.0975921405
 31
0.0
  0
LINE
  5
76
330
1F
100
AcDbEntity
  8
0
  6
Continuous
 62
     7
370
    25
100
AcDbLine
 10
-65.6318231485
 20
172.0975921405
 30
0.0
 11
-58.8175476253
 21
186.8376146369
 31
0.0
  0
ARC
  5
77
330
1F
100
AcDbEntity
  8
0
  6
Continuous
 62
     7
370
    25
100
AcDbCircle
 10
-57.6185897436
 20
189.4310915352
 30
0.0
 40
2.857205352115484
100
AcDbArc
 50
345.1890173885
 51
348.186666526
  0
LINE
  5
78
330
1F
100
AcDbEntity
  8
0
  6
Continuous
 62
     7
370
    25
100
AcDbLine
 10
-38.9013106983
 20
185.5163021402
 30
0.0
 11
-54.8219006484
 21
188.8461534796
 31
0.0
  0
LINE
  5
79
330
1F
100
AcDbEntity
  8
0
  6
Continuous
 62
     7
370
    25
100
AcDbLine
 10
-38.9013106983
 20
185.5163021402
 30
0.0
 11
-39.1569417748
 21
184.5495277339
 31
0.0
  0
LINE
  5
7A
330
1F
100
AcDbEntity
  8
0
  6
Continuous
 62
     7
370
    25
100
AcDbLine
 10
-39.1569417748
 20
184.5495277339
 30
0.0
 11
-54.8563167356
 21
188.700701055
 31
0.0
  0
CIRCLE
  5
7B
330
1F
100
AcDbEntity
  8
0
  6
Continuous
 62
     7
370
    25
100
AcDbCircle
 10
-75.1185897436
 20
189.4310915352
 30
0.0
 40
1.75
  0
CIRCLE
  5
7C
330
1F
100
AcDbEntity
  8
0
  6
Continuous
 62
     7
370
    25
100
AcDbCircle
 10
-67.4935897436
 20
225.103941312
 30
0.0
 40
1.599999999999966
  0
CIRCLE
  5
7D
330
1F
100
AcDbEntity
  8
0
  6
Continuous
 62
     7
370
    25
100
AcDbCircle
 10
-47.4935897436
 20
225.103941312
 30
0.0
 40
1.599999999999966
  0
LINE
  5
7E
330
1F
100
AcDbEntity
  8
0
  6
Continuous
 62
     7
370
    25
100
AcDbLine
 10
-60.2435897436
 20
222.603941312
 30
0.0
 11
-54.9935897436
 21
222.603941312
 31
0.0
  0
LINE
  5
7F
330
1F
100
AcDbEntity
  8
0
  6
Continuous
 62
     7
370
    25
100
AcDbLine
 10
-59.9935897436
 20
227.603941312
 30
0.0
 11
-60.2435897436
 21
222.603941312
 31
0.0
  0
LINE
  5
80
330
1F
100
AcDbEntity
  8
0
  6
Continuous
 62
     7
370
    25
100
AcDbLine
 10
-54.9935897436
 20
227.603941312
 30
0.0
 11
-59.9935897436
 21
227.603941312
 31
0.0
  0
LINE
  5
81
330
1F
100
AcDbEntity
  8
0
  6
Continuous
 62
     7
370
    25
100
AcDbLine
 10
-54.9935897436
 20
222.603941312
 30
0.0
 11
-54.9935897436
 21
227.603941312
 31
0.0
  0
LINE
  5
82
330
1F
100
AcDbEntity
  8
0
  6
Continuous
 62
     7
370
    25
100
AcDbLine
 10
-56.2179487179
 20
212.7450731275
 30
0.0
 11
-56.2179487179
 21
216.2450731275
 31
0.0
  0
LINE
  5
83
330
1F
100
AcDbEntity
  8
0
  6
Continuous
 62
     7
370
    25
100
AcDbLine
 10
-56.2179487179
 20
216.2450731275
 30
0.0
 11
-55.5175280449
 21
216.2450731275
 31
0.0
  0
SPLINE
  5
84
330
1F
100
AcDbEntity
  8
0
  6
Continuous
 62
     7
370
    25
100
AcDbSpline
210
0.0
220
0.0
230
1.0
 70
     8
 71
     3
 72
    15
 73
    11
 74
     0
 42
0.00000001
 43
0.00000001
 40
0.0
 40
0.0
 40
0.0
 40
0.0
 40
0.1762577548177992
 40
0.3384344138804686
 40
0.4848220507878292
 40
0.6171575782663286
 40
0.7346983606124721
 40
0.8373851838323512
 40
0.9263724209295824
 40
0.9999999999999999
 40
0.9999999999999999
 40
0.9999999999999999
 40
0.9999999999999999
 10
-55.5175280448719
 20
216.2450731274809
 30
0.0
 10
-55.47078691635831
 20
216.2449175414929
 30
0.0
 10
-55.38103877194926
 20
216.2446187991611
 30
0.0
 10
-55.25246550158963
 20
216.242953036253
 30
0.0
 10
-55.13563840458943
 20
216.2381786805447
 30
0.0
 10
-55.03061856527227
 20
216.2340700970676
 30
0.0
 10
-54.93740791029599
 20
216.2265781557445
 30
0.0
 10
-54.85572061954802
 20
216.2194175086247
 30
0.0
 10
-54.78593292204683
 20
216.2100438478458
 30
0.0
 10
-54.74368707074424
 20
216.2013384248801
 30
0.0
 10
-54.7245592948719
 20
216.1973968454296
 30
0.0
  0
SPLINE
  5
85
330
1F
100
AcDbEntity
  8
0
  6
Continuous
 62
     7
370
    25
100
AcDbSpline
210
0.0
220
0.0
230
1.0
 70
     8
 71
     3
 72
    23
 73
    19
 74
     0
 42
0.00000001
 43
0.00000001
 40
0.0
 40
0.0
 40
0.0
 40
0.0
 40
0.0642168426314281
 40
0.127063765693124
 40
0.1887445383478273
 40
0.2491321028350416
 40
0.3094525327106246
 40
0.3698266762476881
 40
0.4306501418384651
 40
0.4923519318794724
 40
0.5540721062625267
 40
0.6156897837449724
 40
0.6767977025065406
 40
0.7384390482469491
 40
0.8013169100649051
 40
0.865184511711536
 40
0.9316413244190731
 40
1.0
 40
1.0
 40
1.0
 40
1.0
 10
-54.7245592948719
 20
216.1973968454296
 30
0.0
 10
-54.69895267073507
 20
216.1910700800641
 30
0.0
 10
-54.64828568126332
 20
216.1785515164122
 30
0.0
 10
-54.57533561522344
 20
216.1520919155885
 30
0.0
 10
-54.50582129127168
 20
216.1214722909639
 30
0.0
 10
-54.44003146694998
 20
216.0855085706457
 30
0.0
 10
-54.37829567575957
 20
216.0439337909733
 30
0.0
 10
-54.3199773649649
 20
215.9974656685381
 30
0.0
 10
-54.26481190158491
 20
215.9463584627676
 30
0.0
 10
-54.21503027140454
 20
215.8893236212649
 30
0.0
 10
-54.16809121971004
 20
215.829487111585
 30
0.0
 10
-54.1285025932094
 20
215.7647833547438
 30
0.0
 10
-54.09437611348695
 20
215.6971218272197
 30
0.0
 10
-54.06720559648682
 20
215.6258144094644
 30
0.0
 10
-54.04532762301365
 20
215.5515526376016
 30
0.0
 10
-54.0299013836427
 20
215.4736638408745
 30
0.0
 10
-54.02065019601189
 20
215.3925028657905
 30
0.0
 10
-54.01970834045837
 20
215.3371449569989
 30
0.0
 10
-54.01923076923087
 20
215.3090755313271
 30
0.0
  0
SPLINE
  5
86
330
1F
100
AcDbEntity
  8
0
  6
Continuous
 62
     7
370
    25
100
AcDbSpline
210
0.0
220
0.0
230
1.0
 70
     8
 71
     3
 72
    23
 73
    19
 74
     0
 42
0.00000001
 43
0.00000001
 40
0.0
 40
0.0
 40
0.0
 40
0.0
 40
0.0787802355821467
 40
0.1537206442085852
 40
0.2267135303087771
 40
0.2991911660659437
 40
0.3711899968376735
 40
0.4430064143534148
 40
0.5166891732948885
 40
0.593217216623411
 40
0.6338729178078524
 40
0.6769891422899839
 40
0.7228995063258293
 40
0.7719586105061472
 40
0.8242113233348383
 40
0.8793786506272037
 40
0.9379481193304173
 40
1.0
 40
1.0
 40
1.0
 40
1.0
 10
-54.01923076923087
 20
215.3090755313271
 30
0.0
 10
-54.02069976733937
 20
215.2624404267161
 30
0.0
 10
-54.02356616312902
 20
215.171443258828
 30
0.0
 10
-54.05029126680902
 20
215.0393823774193
 30
0.0
 10
-54.0940677865378
 20
214.9161930627788
 30
0.0
 10
-54.1543910755471
 20
214.8020304248634
 30
0.0
 10
-54.23121055126058
 20
214.6991197795032
 30
0.0
 10
-54.32353534236395
 20
214.6087293241994
 30
0.0
 10
-54.43141695385361
 20
214.5330894116086
 30
0.0
 10
-54.53184626979279
 20
214.480636606907
 30
0.0
 10
-54.62056046948942
 20
214.4470436982823
 30
0.0
 10
-54.69359378227746
 20
214.4234073394233
 30
0.0
 10
-54.77326075977329
 20
214.4051453741462
 30
0.0
 10
-54.85879809437917
 20
214.3887852423756
 30
0.0
 10
-54.95056174987127
 20
214.3764335479642
 30
0.0
 10
-55.04833178926044
 20
214.3673869534947
 30
0.0
 10
-55.15217794089056
 20
214.3617329047965
 30
0.0
 10
-55.22351701024371
 20
214.3608908999076
 30
0.0
 10
-55.26021634615395
 20
214.3604577428655
 30
0.0
  0
LINE
  5
87
330
1F
100
AcDbEntity
  8
0
  6
Continuous
 62
     7
370
    25
100
AcDbLine
 10
-55.2602163462
 20
214.3604577429
 30
0.0
 11
-53.9743589744
 21
212.7450731275
 31
0.0
  0
LINE
  5
88
330
1F
100
AcDbEntity
  8
0
  6
Continuous
 62
     7
370
    25
100
AcDbLine
 10
-53.9743589744
 20
212.7450731275
 30
0.0
 11
-54.3627804487
 21
212.7450731275
 31
0.0
  0
LINE
  5
89
330
1F
100
AcDbEntity
  8
0
  6
Continuous
 62
     7
370
    25
100
AcDbLine
 10
-54.3627804487
 20
212.7450731275
 30
0.0
 11
-55.6486378205
 21
214.3604577429
 31
0.0
  0
LINE
  5
8A
330
1F
100
AcDbEntity
  8
0
  6
Continuous
 62
     7
370
    25
100
AcDbLine
 10
-55.6486378205
 20
214.3604577429
 30
0.0
 11
-55.9038461538
 21
214.3604577429
 31
0.0
  0
LINE
  5
8B
330
1F
100
AcDbEntity
  8
0
  6
Continuous
 62
     7
370
    25
100
AcDbLine
 10
-55.9038461538
 20
214.3604577429
 30
0.0
 11
-55.9038461538
 21
212.7450731275
 31
0.0
  0
LINE
  5
8C
330
1F
100
AcDbEntity
  8
0
  6
Continuous
 62
     7
370
    25
100
AcDbLine
 10
-55.9038461538
 20
212.7450731275
 30
0.0
 11
-56.2179487179
 21
212.7450731275
 31
0.0
  0
LINE
  5
8D
330
1F
100
AcDbEntity
  8
0
  6
Continuous
 62
     7
370
    25
100
AcDbLine
 10
-61.5128205128
 20
215.8860987685
 30
0.0
 11
-62.2756410256
 21
215.8860987685
 31
0.0
  0
LINE
  5
8E
330
1F
100
AcDbEntity
  8
0
  6
Continuous
 62
     7
370
    25
100
AcDbLine
 10
-62.2756410256
 20
215.8860987685
 30
0.0
 11
-62.2756410256
 21
216.2450731275
 31
0.0
  0
LINE
  5
8F
330
1F
100
AcDbEntity
  8
0
  6
Continuous
 62
     7
370
    25
100
AcDbLine
 10
-62.2756410256
 20
216.2450731275
 30
0.0
 11
-60.4358974359
 21
216.2450731275
 31
0.0
  0
LINE
  5
90
330
1F
100
AcDbEntity
  8
0
  6
Continuous
 62
     7
370
    25
100
AcDbLine
 10
-60.4358974359
 20
216.2450731275
 30
0.0
 11
-60.4358974359
 21
215.8860987685
 31
0.0
  0
LINE
  5
91
330
1F
100
AcDbEntity
  8
0
  6
Continuous
 62
     7
370
    25
100
AcDbLine
 10
-60.4358974359
 20
215.8860987685
 30
0.0
 11
-61.1987179487
 21
215.8860987685
 31
0.0
  0
LINE
  5
92
330
1F
100
AcDbEntity
  8
0
  6
Continuous
 62
     7
370
    25
100
AcDbLine
 10
-61.1987179487
 20
215.8860987685
 30
0.0
 11
-61.1987179487
 21
212.7450731275
 31
0.0
  0
LINE
  5
93
330
1F
100
AcDbEntity
  8
0
  6
Continuous
 62
     7
370
    25
100
AcDbLine
 10
-61.1987179487
 20
212.7450731275
 30
0.0
 11
-61.5128205128
 21
212.7450731275
 31
0.0
  0
LINE
  5
94
330
1F
100
AcDbEntity
  8
0
  6
Continuous
 62
     7
370
    25
100
AcDbLine
 10
-61.5128205128
 20
212.7450731275
 30
0.0
 11
-61.5128205128
 21
215.8860987685
 31
0.0
  0
LINE
  5
95
330
1F
100
AcDbEntity
  8
0
  6
Continuous
 62
     7
370
    25
100
AcDbLine
 10
-40.7435897436
 20
210.4
 30
0.0
 11
-35.7435897436
 21
210.4
 31
0.0
  0
LINE
  5
96
330
1F
100
AcDbEntity
  8
0
  6
Continuous
 62
     7
370
    25
100
AcDbLine
 10
-40.7435897436
 20
209.2
 30
0.0
 11
-40.7435897436
 21
210.4
 31
0.0
  0
LINE
  5
97
330
1F
100
AcDbEntity
  8
0
  6
Continuous
 62
     7
370
    25
100
AcDbLine
 10
-44.2435897436
 20
209.2
 30
0.0
 11
-40.7435897436
 21
209.2
 31
0.0
  0
LINE
  5
98
330
1F
100
AcDbEntity
  8
0
  6
Continuous
 62
     7
370
    25
100
AcDbLine
 10
-44.2435897436
 20
210.4
 30
0.0
 11
-44.2435897436
 21
209.2
 31
0.0
  0
LINE
  5
99
330
1F
100
AcDbEntity
  8
0
  6
Continuous
 62
     7
370
    25
100
AcDbLine
 10
-47.7435897436
 20
210.4
 30
0.0
 11
-44.2435897436
 21
210.4
 31
0.0
  0
LINE
  5
9A
330
1F
100
AcDbEntity
  8
0
  6
Continuous
 62
     7
370
    25
100
AcDbLine
 10
-47.7435897436
 20
213.6
 30
0.0
 11
-47.7435897436
 21
210.4
 31
0.0
  0
LINE
  5
9B
330
1F
100
AcDbEntity
  8
0
  6
Continuous
 62
     7
370
    25
100
AcDbLine
 10
-47.7435897436
 20
213.6
 30
0.0
 11
-44.2435897436
 21
213.6
 31
0.0
  0
LINE
  5
9C
330
1F
100
AcDbEntity
  8
0
  6
Continuous
 62
     7
370
    25
100
AcDbLine
 10
-44.2435897436
 20
214.8
 30
0.0
 11
-44.2435897436
 21
213.6
 31
0.0
  0
LINE
  5
9D
330
1F
100
AcDbEntity
  8
0
  6
Continuous
 62
     7
370
    25
100
AcDbLine
 10
-40.7435897436
 20
214.8
 30
0.0
 11
-44.2435897436
 21
214.8
 31
0.0
  0
LINE
  5
9E
330
1F
100
AcDbEntity
  8
0
  6
Continuous
 62
     7
370
    25
100
AcDbLine
 10
-40.7435897436
 20
213.6
 30
0.0
 11
-40.7435897436
 21
214.8
 31
0.0
  0
LINE
  5
9F
330
1F
100
AcDbEntity
  8
0
  6
Continuous
 62
     7
370
    25
100
AcDbLine
 10
-40.7435897436
 20
213.6
 30
0.0
 11
-35.7435897436
 21
213.6
 31
0.0
  0
LINE
  5
A0
330
1F
100
AcDbEntity
  8
0
  6
Continuous
 62
     7
370
    25
100
AcDbLine
 10
-35.7435897436
 20
213.6
 30
0.0
 11
-35.7435897436
 21
217.0
 31
0.0
  0
LINE
  5
A1
330
1F
100
AcDbEntity
  8
0
  6
Continuous
 62
     7
370
    25
100
AcDbLine
 10
-35.7435897436
 20
217.0
 30
0.0
 11
-29.7435897436
 21
217.0
 31
0.0
  0
LINE
  5
A2
330
1F
100
AcDbEntity
  8
0
  6
Continuous
 62
     7
370
    25
100
AcDbLine
 10
-29.7435897436
 20
227.0
 30
0.0
 11
-29.7435897436
 21
217.0
 31
0.0
  0
LINE
  5
A3
330
1F
100
AcDbEntity
  8
0
  6
Continuous
 62
     7
370
    25
100
AcDbLine
 10
-29.7435897436
 20
227.0
 30
0.0
 11
-35.7435897436
 21
227.0
 31
0.0
  0
LINE
  5
A4
330
1F
100
AcDbEntity
  8
0
  6
Continuous
 62
     7
370
    25
100
AcDbLine
 10
-35.7435897436
 20
227.0
 30
0.0
 11
-35.7435897436
 21
237.0
 31
0.0
  0
LINE
  5
A5
330
1F
100
AcDbEntity
  8
0
  6
Continuous
 62
     7
370
    25
100
AcDbLine
 10
-35.7435897436
 20
237.0
 30
0.0
 11
-29.7435897436
 21
237.0
 31
0.0
  0
LINE
  5
A6
330
1F
100
AcDbEntity
  8
0
  6
Continuous
 62
     7
370
    25
100
AcDbLine
 10
-29.7435897436
 20
247.0
 30
0.0
 11
-29.7435897436
 21
237.0
 31
0.0
  0
LINE
  5
A7
330
1F
100
AcDbEntity
  8
0
  6
Continuous
 62
     7
370
    25
100
AcDbLine
 10
-29.7435897436
 20
247.0
 30
0.0
 11
-35.7435897436
 21
247.0
 31
0.0
  0
LINE
  5
A8
330
1F
100
AcDbEntity
  8
0
  6
Continuous
 62
     7
370
    25
100
AcDbLine
 10
-35.7435897436
 20
247.0
 30
0.0
 11
-35.7435897436
 21
250.4
 31
0.0
  0
LINE
  5
A9
330
1F
100
AcDbEntity
  8
0
  6
Continuous
 62
     7
370
    25
100
AcDbLine
 10
-40.7435897436
 20
250.4
 30
0.0
 11
-35.7435897436
 21
250.4
 31
0.0
  0
LINE
  5
AA
330
1F
100
AcDbEntity
  8
0
  6
Continuous
 62
     7
370
    25
100
AcDbLine
 10
-40.7435897436
 20
249.2
 30
0.0
 11
-40.7435897436
 21
250.4
 31
0.0
  0
LINE
  5
AB
330
1F
100
AcDbEntity
  8
0
  6
Continuous
 62
     7
370
    25
100
AcDbLine
 10
-44.2435897436
 20
249.2
 30
0.0
 11
-40.7435897436
 21
249.2
 31
0.0
  0
LINE
  5
AC
330
1F
100
AcDbEntity
  8
0
  6
Continuous
 62
     7
370
    25
100
AcDbLine
 10
-44.2435897436
 20
250.4
 30
0.0
 11
-44.2435897436
 21
249.2
 31
0.0
  0
LINE
  5
AD
330
1F
100
AcDbEntity
  8
0
  6
Continuous
 62
     7
370
    25
100
AcDbLine
 10
-47.7435897436
 20
250.4
 30
0.0
 11
-44.2435897436
 21
250.4
 31
0.0
  0
LINE
  5
AE
330
1F
100
AcDbEntity
  8
0
  6
Continuous
 62
     7
370
    25
100
AcDbLine
 10
-47.7435897436
 20
253.6
 30
0.0
 11
-47.7435897436
 21
250.4
 31
0.0
  0
LINE
  5
AF
330
1F
100
AcDbEntity
  8
0
  6
Continuous
 62
     7
370
    25
100
AcDbLine
 10
-47.7435897436
 20
253.6
 30
0.0
 11
-44.2435897436
 21
253.6
 31
0.0
  0
LINE
  5
B0
330
1F
100
AcDbEntity
  8
0
  6
Continuous
 62
     7
370
    25
100
AcDbLine
 10
-44.2435897436
 20
254.8
 30
0.0
 11
-44.2435897436
 21
253.6
 31
0.0
  0
LINE
  5
B1
330
1F
100
AcDbEntity
  8
0
  6
Continuous
 62
     7
370
    25
100
AcDbLine
 10
-40.7435897436
 20
254.8
 30
0.0
 11
-44.2435897436
 21
254.8
 31
0.0
  0
LINE
  5
B2
330
1F
100
AcDbEntity
  8
0
  6
Continuous
 62
     7
370
    25
100
AcDbLine
 10
-40.7435897436
 20
253.6
 30
0.0
 11
-40.7435897436
 21
254.8
 31
0.0
  0
LINE
  5
B3
330
1F
100
AcDbEntity
  8
0
  6
Continuous
 62
     7
370
    25
100
AcDbLine
 10
-40.7435897436
 20
253.6
 30
0.0
 11
-35.7435897436
 21
253.6
 31
0.0
  0
LINE
  5
B4
330
1F
100
AcDbEntity
  8
0
  6
Continuous
 62
     7
370
    25
100
AcDbLine
 10
-35.7435897436
 20
253.6
 30
0.0
 11
-35.7435897436
 21
257.0
 31
0.0
  0
LINE
  5
B5
330
1F
100
AcDbEntity
  8
0
  6
Continuous
 62
     7
370
    25
100
AcDbLine
 10
-35.7435897436
 20
257.0
 30
0.0
 11
-29.7435897436
 21
257.0
 31
0.0
  0
LINE
  5
B6
330
1F
100
AcDbEntity
  8
0
  6
Continuous
 62
     7
370
    25
100
AcDbLine
 10
-29.7435897436
 20
267.0
 30
0.0
 11
-29.7435897436
 21
257.0
 31
0.0
  0
LINE
  5
B7
330
1F
100
AcDbEntity
  8
0
  6
Continuous
 62
     7
370
    25
100
AcDbLine
 10
-29.7435897436
 20
267.0
 30
0.0
 11
-35.7435897436
 21
267.0
 31
0.0
  0
LINE
  5
B8
330
1F
100
AcDbEntity
  8
0
  6
Continuous
 62
     7
370
    25
100
AcDbLine
 10
-35.7435897436
 20
267.0
 30
0.0
 11
-35.7435897436
 21
277.0
 31
0.0
  0
LINE
  5
B9
330
1F
100
AcDbEntity
  8
0
  6
Continuous
 62
     7
370
    25
100
AcDbLine
 10
-42.7435897436
 20
277.0
 30
0.0
 11
-35.7435897436
 21
277.0
 31
0.0
  0
LINE
  5
BA
330
1F
100
AcDbEntity
  8
0
  6
Continuous
 62
     7
370
    25
100
AcDbLine
 10
-42.7435897436
 20
283.0
 30
0.0
 11
-42.7435897436
 21
277.0
 31
0.0
  0
LINE
  5
BB
330
1F
100
AcDbEntity
  8
0
  6
Continuous
 62
     7
370
    25
100
AcDbLine
 10
-52.2435897436
 20
283.0
 30
0.0
 11
-42.7435897436
 21
283.0
 31
0.0
  0
LINE
  5
BC
330
1F
100
AcDbEntity
  8
0
  6
Continuous
 62
     7
370
    25
100
AcDbLine
 10
-52.2435897436
 20
283.0
 30
0.0
 11
-52.2435897436
 21
277.0
 31
0.0
  0
LINE
  5
BD
330
1F
100
AcDbEntity
  8
0
  6
Continuous
 62
     7
370
    25
100
AcDbLine
 10
-62.7435897436
 20
277.0
 30
0.0
 11
-52.2435897436
 21
277.0
 31
0.0
  0
LINE
  5
BE
330
1F
100
AcDbEntity
  8
0
  6
Continuous
 62
     7
370
    25
100
AcDbLine
 10
-62.7435897436
 20
283.0
 30
0.0
 11
-62.7435897436
 21
277.0
 31
0.0
  0
LINE
  5
BF
330
1F
100
AcDbEntity
  8
0
  6
Continuous
 62
     7
370
    25
100
AcDbLine
 10
-72.2435897436
 20
283.0
 30
0.0
 11
-62.7435897436
 21
283.0
 31
0.0
  0
LINE
  5
C0
330
1F
100
AcDbEntity
  8
0
  6
Continuous
 62
     7
370
    25
100
AcDbLine
 10
-72.2435897436
 20
283.0
 30
0.0
 11
-72.2435897436
 21
277.0
 31
0.0
  0
LINE
  5
C1
330
1F
100
AcDbEntity
  8
0
  6
Continuous
 62
     7
370
    25
100
AcDbLine
 10
-79.7435897436
 20
277.0
 30
0.0
 11
-72.2435897436
 21
277.0
 31
0.0
  0
LINE
  5
C2
330
1F
100
AcDbEntity
  8
0
  6
Continuous
 62
     7
370
    25
100
AcDbLine
 10
-79.7435897436
 20
277.0
 30
0.0
 11
-79.7435897436
 21
267.0
 31
0.0
  0
LINE
  5
C3
330
1F
100
AcDbEntity
  8
0
  6
Continuous
 62
     7
370
    25
100
AcDbLine
 10
-79.7435897436
 20
267.0
 30
0.0
 11
-85.7435897436
 21
267.0
 31
0.0
  0
LINE
  5
C4
330
1F
100
AcDbEntity
  8
0
  6
Continuous
 62
     7
370
    25
100
AcDbLine
 10
-85.7435897436
 20
267.0
 30
0.0
 11
-85.7435897436
 21
257.0
 31
0.0
  0
LINE
  5
C5
330
1F
100
AcDbEntity
  8
0
  6
Continuous
 62
     7
370
    25
100
AcDbLine
 10
-85.7435897436
 20
257.0
 30
0.0
 11
-79.7435897436
 21
257.0
 31
0.0
  0
LINE
  5
C6
330
1F
100
AcDbEntity
  8
0
  6
Continuous
 62
     7
370
    25
100
AcDbLine
 10
-79.7435897436
 20
257.0
 30
0.0
 11
-79.7435897436
 21
253.6
 31
0.0
  0
LINE
  5
C7
330
1F
100
AcDbEntity
  8
0
  6
Continuous
 62
     7
370
    25
100
AcDbLine
 10
-74.7435897436
 20
253.6
 30
0.0
 11
-79.7435897436
 21
253.6
 31
0.0
  0
LINE
  5
C8
330
1F
100
AcDbEntity
  8
0
  6
Continuous
 62
     7
370
    25
100
AcDbLine
 10
-74.7435897436
 20
254.8
 30
0.0
 11
-74.7435897436
 21
253.6
 31
0.0
  0
LINE
  5
C9
330
1F
100
AcDbEntity
  8
0
  6
Continuous
 62
     7
370
    25
100
AcDbLine
 10
-71.2435897436
 20
254.8
 30
0.0
 11
-74.7435897436
 21
254.8
 31
0.0
  0
LINE
  5
CA
330
1F
100
AcDbEntity
  8
0
  6
Continuous
 62
     7
370
    25
100
AcDbLine
 10
-71.2435897436
 20
253.6
 30
0.0
 11
-71.2435897436
 21
254.8
 31
0.0
  0
LINE
  5
CB
330
1F
100
AcDbEntity
  8
0
  6
Continuous
 62
     7
370
    25
100
AcDbLine
 10
-67.7435897436
 20
253.6
 30
0.0
 11
-71.2435897436
 21
253.6
 31
0.0
  0
LINE
  5
CC
330
1F
100
AcDbEntity
  8
0
  6
Continuous
 62
     7
370
    25
100
AcDbLine
 10
-67.7435897436
 20
250.4
 30
0.0
 11
-67.7435897436
 21
253.6
 31
0.0
  0
LINE
  5
CD
330
1F
100
AcDbEntity
  8
0
  6
Continuous
 62
     7
370
    25
100
AcDbLine
 10
-67.7435897436
 20
250.4
 30
0.0
 11
-71.2435897436
 21
250.4
 31
0.0
  0
LINE
  5
CE
330
1F
100
AcDbEntity
  8
0
  6
Continuous
 62
     7
370
    25
100
AcDbLine
 10
-71.2435897436
 20
249.2
 30
0.0
 11
-71.2435897436
 21
250.4
 31
0.0
  0
LINE
  5
CF
330
1F
100
AcDbEntity
  8
0
  6
Continuous
 62
     7
370
    25
100
AcDbLine
 10
-74.7435897436
 20
249.2
 30
0.0
 11
-71.2435897436
 21
249.2
 31
0.0
  0
LINE
  5
D0
330
1F
100
AcDbEntity
  8
0
  6
Continuous
 62
     7
370
    25
100
AcDbLine
 10
-74.7435897436
 20
250.4
 30
0.0
 11
-74.7435897436
 21
249.2
 31
0.0
  0
LINE
  5
D1
330
1F
100
AcDbEntity
  8
0
  6
Continuous
 62
     7
370
    25
100
AcDbLine
 10
-74.7435897436
 20
250.4
 30
0.0
 11
-79.7435897436
 21
250.4
 31
0.0
  0
LINE
  5
D2
330
1F
100
AcDbEntity
  8
0
  6
Continuous
 62
     7
370
    25
100
AcDbLine
 10
-79.7435897436
 20
250.4
 30
0.0
 11
-79.7435897436
 21
247.0
 31
0.0
  0
LINE
  5
D3
330
1F
100
AcDbEntity
  8
0
  6
Continuous
 62
     7
370
    25
100
AcDbLine
 10
-79.7435897436
 20
247.0
 30
0.0
 11
-85.7435897436
 21
247.0
 31
0.0
  0
LINE
  5
D4
330
1F
100
AcDbEntity
  8
0
  6
Continuous
 62
     7
370
    25
100
AcDbLine
 10
-85.7435897436
 20
247.0
 30
0.0
 11
-85.7435897436
 21
237.0
 31
0.0
  0
LINE
  5
D5
330
1F
100
AcDbEntity
  8
0
  6
Continuous
 62
     7
370
    25
100
AcDbLine
 10
-85.7435897436
 20
237.0
 30
0.0
 11
-79.7435897436
 21
237.0
 31
0.0
  0
LINE
  5
D6
330
1F
100
AcDbEntity
  8
0
  6
Continuous
 62
     7
370
    25
100
AcDbLine
 10
-79.7435897436
 20
237.0
 30
0.0
 11
-79.7435897436
 21
227.0
 31
0.0
  0
LINE
  5
D7
330
1F
100
AcDbEntity
  8
0
  6
Continuous
 62
     7
370
    25
100
AcDbLine
 10
-79.7435897436
 20
227.0
 30
0.0
 11
-85.7435897436
 21
227.0
 31
0.0
  0
LINE
  5
D8
330
1F
100
AcDbEntity
  8
0
  6
Continuous
 62
     7
370
    25
100
AcDbLine
 10
-85.7435897436
 20
227.0
 30
0.0
 11
-85.7435897436
 21
217.0
 31
0.0
  0
LINE
  5
D9
330
1F
100
AcDbEntity
  8
0
  6
Continuous
 62
     7
370
    25
100
AcDbLine
 10
-85.7435897436
 20
217.0
 30
0.0
 11
-79.7435897436
 21
217.0
 31
0.0
  0
LINE
  5
DA
330
1F
100
AcDbEntity
  8
0
  6
Continuous
 62
     7
370
    25
100
AcDbLine
 10
-79.7435897436
 20
217.0
 30
0.0
 11
-79.7435897436
 21
213.6
 31
0.0
  0
LINE
  5
DB
330
1F
100
AcDbEntity
  8
0
  6
Continuous
 62
     7
370
    25
100
AcDbLine
 10
-74.7435897436
 20
213.6
 30
0.0
 11
-79.7435897436
 21
213.6
 31
0.0
  0
LINE
  5
DC
330
1F
100
AcDbEntity
  8
0
  6
Continuous
 62
     7
370
    25
100
AcDbLine
 10
-74.7435897436
 20
214.8
 30
0.0
 11
-74.7435897436
 21
213.6
 31
0.0
  0
LINE
  5
DD
330
1F
100
AcDbEntity
  8
0
  6
Continuous
 62
     7
370
    25
100
AcDbLine
 10
-71.2435897436
 20
214.8
 30
0.0
 11
-74.7435897436
 21
214.8
 31
0.0
  0
LINE
  5
DE
330
1F
100
AcDbEntity
  8
0
  6
Continuous
 62
     7
370
    25
100
AcDbLine
 10
-71.2435897436
 20
213.6
 30
0.0
 11
-71.2435897436
 21
214.8
 31
0.0
  0
LINE
  5
DF
330
1F
100
AcDbEntity
  8
0
  6
Continuous
 62
     7
370
    25
100
AcDbLine
 10
-67.7435897436
 20
213.6
 30
0.0
 11
-71.2435897436
 21
213.6
 31
0.0
  0
LINE
  5
E0
330
1F
100
AcDbEntity
  8
0
  6
Continuous
 62
     7
370
    25
100
AcDbLine
 10
-67.7435897436
 20
210.4
 30
0.0
 11
-67.7435897436
 21
213.6
 31
0.0
  0
LINE
  5
E1
330
1F
100
AcDbEntity
  8
0
  6
Continuous
 62
     7
370
    25
100
AcDbLine
 10
-67.7435897436
 20
210.4
 30
0.0
 11
-71.2435897436
 21
210.4
 31
0.0
  0
LINE
  5
E2
330
1F
100
AcDbEntity
  8
0
  6
Continuous
 62
     7
370
    25
100
AcDbLine
 10
-71.2435897436
 20
209.2
 30
0.0
 11
-71.2435897436
 21
210.4
 31
0.0
  0
LINE
  5
E3
330
1F
100
AcDbEntity
  8
0
  6
Continuous
 62
     7
370
    25
100
AcDbLine
 10
-74.7435897436
 20
209.2
 30
0.0
 11
-71.2435897436
 21
209.2
 31
0.0
  0
LINE
  5
E4
330
1F
100
AcDbEntity
  8
0
  6
Continuous
 62
     7
370
    25
100
AcDbLine
 10
-74.7435897436
 20
210.4
 30
0.0
 11
-74.7435897436
 21
209.2
 31
0.0
  0
LINE
  5
E5
330
1F
100
AcDbEntity
  8
0
  6
Continuous
 62
     7
370
    25
100
AcDbLine
 10
-74.7435897436
 20
210.4
 30
0.0
 11
-79.7435897436
 21
210.4
 31
0.0
  0
LINE
  5
E6
330
1F
100
AcDbEntity
  8
0
  6
Continuous
 62
     7
370
    25
100
AcDbLine
 10
-79.7435897436
 20
210.4
 30
0.0
 11
-79.7435897436
 21
207.0
 31
0.0
  0
LINE
  5
E7
330
1F
100
AcDbEntity
  8
0
  6
Continuous
 62
     7
370
    25
100
AcDbLine
 10
-79.7435897436
 20
207.0
 30
0.0
 11
-85.7435897436
 21
207.0
 31
0.0
  0
LINE
  5
E8
330
1F
100
AcDbEntity
  8
0
  6
Continuous
 62
     7
370
    25
100
AcDbLine
 10
-85.7435897436
 20
207.0
 30
0.0
 11
-85.7435897436
 21
197.0
 31
0.0
  0
LINE
  5
E9
330
1F
100
AcDbEntity
  8
0
  6
Continuous
 62
     7
370
    25
100
AcDbLine
 10
-85.7435897436
 20
197.0
 30
0.0
 11
-79.7435897436
 21
197.0
 31
0.0
  0
LINE
  5
EA
330
1F
100
AcDbEntity
  8
0
  6
Continuous
 62
     7
370
    25
100
AcDbLine
 10
-79.7435897436
 20
197.0
 30
0.0
 11
-79.7435897436
 21
187.0
 31
0.0
  0
LINE
  5
EB
330
1F
100
AcDbEntity
  8
0
  6
Continuous
 62
     7
370
    25
100
AcDbLine
 10
-79.7435897436
 20
187.0
 30
0.0
 11
-85.7435897436
 21
187.0
 31
0.0
  0
LINE
  5
EC
330
1F
100
AcDbEntity
  8
0
  6
Continuous
 62
     7
370
    25
100
AcDbLine
 10
-85.7435897436
 20
187.0
 30
0.0
 11
-85.7435897436
 21
177.0
 31
0.0
  0
LINE
  5
ED
330
1F
100
AcDbEntity
  8
0
  6
Continuous
 62
     7
370
    25
100
AcDbLine
 10
-85.7435897436
 20
177.0
 30
0.0
 11
-79.7435897436
 21
177.0
 31
0.0
  0
LINE
  5
EE
330
1F
100
AcDbEntity
  8
0
  6
Continuous
 62
     7
370
    25
100
AcDbLine
 10
-79.7435897436
 20
177.0
 30
0.0
 11
-79.7435897436
 21
173.6
 31
0.0
  0
LINE
  5
EF
330
1F
100
AcDbEntity
  8
0
  6
Continuous
 62
     7
370
    25
100
AcDbLine
 10
-74.7435897436
 20
173.6
 30
0.0
 11
-79.7435897436
 21
173.6
 31
0.0
  0
LINE
  5
F0
330
1F
100
AcDbEntity
  8
0
  6
Continuous
 62
     7
370
    25
100
AcDbLine
 10
-74.7435897436
 20
174.8
 30
0.0
 11
-74.7435897436
 21
173.6
 31
0.0
  0
LINE
  5
F1
330
1F
100
AcDbEntity
  8
0
  6
Continuous
 62
     7
370
    25
100
AcDbLine
 10
-71.2435897436
 20
174.8
 30
0.0
 11
-74.7435897436
 21
174.8
 31
0.0
  0
LINE
  5
F2
330
1F
100
AcDbEntity
  8
0
  6
Continuous
 62
     7
370
    25
100
AcDbLine
 10
-71.2435897436
 20
173.6
 30
0.0
 11
-71.2435897436
 21
174.8
 31
0.0
  0
LINE
  5
F3
330
1F
100
AcDbEntity
  8
0
  6
Continuous
 62
     7
370
    25
100
AcDbLine
 10
-67.7435897436
 20
173.6
 30
0.0
 11
-71.2435897436
 21
173.6
 31
0.0
  0
LINE
  5
F4
330
1F
100
AcDbEntity
  8
0
  6
Continuous
 62
     7
370
    25
100
AcDbLine
 10
-67.7435897436
 20
170.4
 30
0.0
 11
-67.7435897436
 21
173.6
 31
0.0
  0
LINE
  5
F5
330
1F
100
AcDbEntity
  8
0
  6
Continuous
 62
     7
370
    25
100
AcDbLine
 10
-67.7435897436
 20
170.4
 30
0.0
 11
-71.2435897436
 21
170.4
 31
0.0
  0
LINE
  5
F6
330
1F
100
AcDbEntity
  8
0
  6
Continuous
 62
     7
370
    25
100
AcDbLine
 10
-71.2435897436
 20
169.2
 30
0.0
 11
-71.2435897436
 21
170.4
 31
0.0
  0
LINE
  5
F7
330
1F
100
AcDbEntity
  8
0
  6
Continuous
 62
     7
370
    25
100
AcDbLine
 10
-74.7435897436
 20
169.2
 30
0.0
 11
-71.2435897436
 21
169.2
 31
0.0
  0
LINE
  5
F8
330
1F
100
AcDbEntity
  8
0
  6
Continuous
 62
     7
370
    25
100
AcDbLine
 10
-74.7435897436
 20
170.4
 30
0.0
 11
-74.7435897436
 21
169.2
 31
0.0
  0
LINE
  5
F9
330
1F
100
AcDbEntity
  8
0
  6
Continuous
 62
     7
370
    25
100
AcDbLine
 10
-74.7435897436
 20
170.4
 30
0.0
 11
-79.7435897436
 21
170.4
 31
0.0
  0
LINE
  5
FA
330
1F
100
AcDbEntity
  8
0
  6
Continuous
 62
     7
370
    25
100
AcDbLine
 10
-79.7435897436
 20
170.4
 30
0.0
 11
-79.7435897436
 21
167.0
 31
0.0
  0
LINE
  5
FB
330
1F
100
AcDbEntity
  8
0
  6
Continuous
 62
     7
370
    25
100
AcDbLine
 10
-79.7435897436
 20
167.0
 30
0.0
 11
-85.7435897436
 21
167.0
 31
0.0
  0
LINE
  5
FC
330
1F
100
AcDbEntity
  8
0
  6
Continuous
 62
     7
370
    25
100
AcDbLine
 10
-85.7435897436
 20
167.0
 30
0.0
 11
-85.7435897436
 21
157.0
 31
0.0
  0
LINE
  5
FD
330
1F
100
AcDbEntity
  8
0
  6
Continuous
 62
     7
370
    25
100
AcDbLine
 10
-85.7435897436
 20
157.0
 30
0.0
 11
-79.7435897436
 21
157.0
 31
0.0
  0
LINE
  5
FE
330
1F
100
AcDbEntity
  8
0
  6
Continuous
 62
     7
370
    25
100
AcDbLine
 10
-79.7435897436
 20
157.0
 30
0.0
 11
-79.7435897436
 21
147.0
 31
0.0
  0
LINE
  5
FF
330
1F
100
AcDbEntity
  8
0
  6
Continuous
 62
     7
370
    25
100
AcDbLine
 10
-79.7435897436
 20
147.0
 30
0.0
 11
-85.7435897436
 21
147.0
 31
0.0
  0
LINE
  5
100
330
1F
100
AcDbEntity
  8
0
  6
Continuous
 62
     7
370
    25
100
AcDbLine
 10
-85.7435897436
 20
147.0
 30
0.0
 11
-85.7435897436
 21
137.0
 31
0.0
  0
LINE
  5
101
330
1F
100
AcDbEntity
  8
0
  6
Continuous
 62
     7
370
    25
100
AcDbLine
 10
-85.7435897436
 20
137.0
 30
0.0
 11
-79.7435897436
 21
137.0
 31
0.0
  0
LINE
  5
102
330
1F
100
AcDbEntity
  8
0
  6
Continuous
 62
     7
370
    25
100
AcDbLine
 10
-79.7435897436
 20
137.0
 30
0.0
 11
-79.7435897436
 21
133.6
 31
0.0
  0
LINE
  5
103
330
1F
100
AcDbEntity
  8
0
  6
Continuous
 62
     7
370
    25
100
AcDbLine
 10
-74.7435897436
 20
133.6
 30
0.0
 11
-79.7435897436
 21
133.6
 31
0.0
  0
LINE
  5
104
330
1F
100
AcDbEntity
  8
0
  6
Continuous
 62
     7
370
    25
100
AcDbLine
 10
-74.7435897436
 20
134.8
 30
0.0
 11
-74.7435897436
 21
133.6
 31
0.0
  0
LINE
  5
105
330
1F
100
AcDbEntity
  8
0
  6
Continuous
 62
     7
370
    25
100
AcDbLine
 10
-71.2435897436
 20
134.8
 30
0.0
 11
-74.7435897436
 21
134.8
 31
0.0
  0
LINE
  5
106
330
1F
100
AcDbEntity
  8
0
  6
Continuous
 62
     7
370
    25
100
AcDbLine
 10
-71.2435897436
 20
133.6
 30
0.0
 11
-71.2435897436
 21
134.8
 31
0.0
  0
LINE
  5
107
330
1F
100
AcDbEntity
  8
0
  6
Continuous
 62
     7
370
    25
100
AcDbLine
 10
-67.7435897436
 20
133.6
 30
0.0
 11
-71.2435897436
 21
133.6
 31
0.0
  0
LINE
  5
108
330
1F
100
AcDbEntity
  8
0
  6
Continuous
 62
     7
370
    25
100
AcDbLine
 10
-67.7435897436
 20
130.4
 30
0.0
 11
-67.7435897436
 21
133.6
 31
0.0
  0
LINE
  5
109
330
1F
100
AcDbEntity
  8
0
  6
Continuous
 62
     7
370
    25
100
AcDbLine
 10
-67.7435897436
 20
130.4
 30
0.0
 11
-71.2435897436
 21
130.4
 31
0.0
  0
LINE
  5
10A
330
1F
100
AcDbEntity
  8
0
  6
Continuous
 62
     7
370
    25
100
AcDbLine
 10
-71.2435897436
 20
129.2
 30
0.0
 11
-71.2435897436
 21
130.4
 31
0.0
  0
LINE
  5
10B
330
1F
100
AcDbEntity
  8
0
  6
Continuous
 62
     7
370
    25
100
AcDbLine
 10
-74.7435897436
 20
129.2
 30
0.0
 11
-71.2435897436
 21
129.2
 31
0.0
  0
LINE
  5
10C
330
1F
100
AcDbEntity
  8
0
  6
Continuous
 62
     7
370
    25
100
AcDbLine
 10
-74.7435897436
 20
130.4
 30
0.0
 11
-74.7435897436
 21
129.2
 31
0.0
  0
LINE
  5
10D
330
1F
100
AcDbEntity
  8
0
  6
Continuous
 62
     7
370
    25
100
AcDbLine
 10
-74.7435897436
 20
130.4
 30
0.0
 11
-79.7435897436
 21
130.4
 31
0.0
  0
LINE
  5
10E
330
1F
100
AcDbEntity
  8
0
  6
Continuous
 62
     7
370
    25
100
AcDbLine
 10
-79.7435897436
 20
130.4
 30
0.0
 11
-79.7435897436
 21
127.0
 31
0.0
  0
LINE
  5
10F
330
1F
100
AcDbEntity
  8
0
  6
Continuous
 62
     7
370
    25
100
AcDbLine
 10
-79.7435897436
 20
127.0
 30
0.0
 11
-85.7435897436
 21
127.0
 31
0.0
  0
LINE
  5
110
330
1F
100
AcDbEntity
  8
0
  6
Continuous
 62
     7
370
    25
100
AcDbLine
 10
-85.7435897436
 20
127.0
 30
0.0
 11
-85.7435897436
 21
117.0
 31
0.0
  0
LINE
  5
111
330
1F
100
AcDbEntity
  8
0
  6
Continuous
 62
     7
370
    25
100
AcDbLine
 10
-85.7435897436
 20
117.0
 30
0.0
 11
-79.7435897436
 21
117.0
 31
0.0
  0
LINE
  5
112
330
1F
100
AcDbEntity
  8
0
  6
Continuous
 62
     7
370
    25
100
AcDbLine
 10
-79.7435897436
 20
117.0
 30
0.0
 11
-79.7435897436
 21
107.0
 31
0.0
  0
LINE
  5
113
330
1F
100
AcDbEntity
  8
0
  6
Continuous
 62
     7
370
    25
100
AcDbLine
 10
-79.7435897436
 20
107.0
 30
0.0
 11
-85.7435897436
 21
107.0
 31
0.0
  0
LINE
  5
114
330
1F
100
AcDbEntity
  8
0
  6
Continuous
 62
     7
370
    25
100
AcDbLine
 10
-85.7435897436
 20
107.0
 30
0.0
 11
-85.7435897436
 21
97.0
 31
0.0
  0
LINE
  5
115
330
1F
100
AcDbEntity
  8
0
  6
Continuous
 62
     7
370
    25
100
AcDbLine
 10
-85.7435897436
 20
97.0
 30
0.0
 11
-79.7435897436
 21
97.0
 31
0.0
  0
LINE
  5
116
330
1F
100
AcDbEntity
  8
0
  6
Continuous
 62
     7
370
    25
100
AcDbLine
 10
-79.7435897436
 20
97.0
 30
0.0
 11
-79.7435897436
 21
93.6
 31
0.0
  0
LINE
  5
117
330
1F
100
AcDbEntity
  8
0
  6
Continuous
 62
     7
370
    25
100
AcDbLine
 10
-74.7435897436
 20
93.6
 30
0.0
 11
-79.7435897436
 21
93.6
 31
0.0
  0
LINE
  5
118
330
1F
100
AcDbEntity
  8
0
  6
Continuous
 62
     7
370
    25
100
AcDbLine
 10
-74.7435897436
 20
94.8
 30
0.0
 11
-74.7435897436
 21
93.6
 31
0.0
  0
LINE
  5
119
330
1F
100
AcDbEntity
  8
0
  6
Continuous
 62
     7
370
    25
100
AcDbLine
 10
-71.2435897436
 20
94.8
 30
0.0
 11
-74.7435897436
 21
94.8
 31
0.0
  0
LINE
  5
11A
330
1F
100
AcDbEntity
  8
0
  6
Continuous
 62
     7
370
    25
100
AcDbLine
 10
-71.2435897436
 20
93.6
 30
0.0
 11
-71.2435897436
 21
94.8
 31
0.0
  0
LINE
  5
11B
330
1F
100
AcDbEntity
  8
0
  6
Continuous
 62
     7
370
    25
100
AcDbLine
 10
-67.7435897436
 20
93.6
 30
0.0
 11
-71.2435897436
 21
93.6
 31
0.0
  0
LINE
  5
11C
330
1F
100
AcDbEntity
  8
0
  6
Continuous
 62
     7
370
    25
100
AcDbLine
 10
-67.7435897436
 20
90.4
 30
0.0
 11
-67.7435897436
 21
93.6
 31
0.0
  0
LINE
  5
11D
330
1F
100
AcDbEntity
  8
0
  6
Continuous
 62
     7
370
    25
100
AcDbLine
 10
-67.7435897436
 20
90.4
 30
0.0
 11
-71.2435897436
 21
90.4
 31
0.0
  0
LINE
  5
11E
330
1F
100
AcDbEntity
  8
0
  6
Continuous
 62
     7
370
    25
100
AcDbLine
 10
-71.2435897436
 20
89.2
 30
0.0
 11
-71.2435897436
 21
90.4
 31
0.0
  0
LINE
  5
11F
330
1F
100
AcDbEntity
  8
0
  6
Continuous
 62
     7
370
    25
100
AcDbLine
 10
-74.7435897436
 20
89.2
 30
0.0
 11
-71.2435897436
 21
89.2
 31
0.0
  0
LINE
  5
120
330
1F
100
AcDbEntity
  8
0
  6
Continuous
 62
     7
370
    25
100
AcDbLine
 10
-74.7435897436
 20
90.4
 30
0.0
 11
-74.7435897436
 21
89.2
 31
0.0
  0
LINE
  5
121
330
1F
100
AcDbEntity
  8
0
  6
Continuous
 62
     7
370
    25
100
AcDbLine
 10
-74.7435897436
 20
90.4
 30
0.0
 11
-79.7435897436
 21
90.4
 31
0.0
  0
LINE
  5
122
330
1F
100
AcDbEntity
  8
0
  6
Continuous
 62
     7
370
    25
100
AcDbLine
 10
-79.7435897436
 20
90.4
 30
0.0
 11
-79.7435897436
 21
87.0
 31
0.0
  0
LINE
  5
123
330
1F
100
AcDbEntity
  8
0
  6
Continuous
 62
     7
370
    25
100
AcDbLine
 10
-79.7435897436
 20
87.0
 30
0.0
 11
-85.7435897436
 21
87.0
 31
0.0
  0
LINE
  5
124
330
1F
100
AcDbEntity
  8
0
  6
Continuous
 62
     7
370
    25
100
AcDbLine
 10
-85.7435897436
 20
87.0
 30
0.0
 11
-85.7435897436
 21
77.0
 31
0.0
  0
LINE
  5
125
330
1F
100
AcDbEntity
  8
0
  6
Continuous
 62
     7
370
    25
100
AcDbLine
 10
-85.7435897436
 20
77.0
 30
0.0
 11
-79.7435897436
 21
77.0
 31
0.0
  0
LINE
  5
126
330
1F
100
AcDbEntity
  8
0
  6
Continuous
 62
     7
370
    25
100
AcDbLine
 10
-79.7435897436
 20
77.0
 30
0.0
 11
-79.7435897436
 21
67.0
 31
0.0
  0
LINE
  5
127
330
1F
100
AcDbEntity
  8
0
  6
Continuous
 62
     7
370
    25
100
AcDbLine
 10
-79.7435897436
 20
67.0
 30
0.0
 11
-85.7435897436
 21
67.0
 31
0.0
  0
LINE
  5
128
330
1F
100
AcDbEntity
  8
0
  6
Continuous
 62
     7
370
    25
100
AcDbLine
 10
-85.7435897436
 20
67.0
 30
0.0
 11
-85.7435897436
 21
57.0
 31
0.0
  0
LINE
  5
129
330
1F
100
AcDbEntity
  8
0
  6
Continuous
 62
     7
370
    25
100
AcDbLine
 10
-85.7435897436
 20
57.0
 30
0.0
 11
-79.7435897436
 21
57.0
 31
0.0
  0
LINE
  5
12A
330
1F
100
AcDbEntity
  8
0
  6
Continuous
 62
     7
370
    25
100
AcDbLine
 10
-79.7435897436
 20
57.0
 30
0.0
 11
-79.7435897436
 21
53.6
 31
0.0
  0
LINE
  5
12B
330
1F
100
AcDbEntity
  8
0
  6
Continuous
 62
     7
370
    25
100
AcDbLine
 10
-74.7435897436
 20
53.6
 30
0.0
 11
-79.7435897436
 21
53.6
 31
0.0
  0
LINE
  5
12C
330
1F
100
AcDbEntity
  8
0
  6
Continuous
 62
     7
370
    25
100
AcDbLine
 10
-74.7435897436
 20
54.8
 30
0.0
 11
-74.7435897436
 21
53.6
 31
0.0
  0
LINE
  5
12D
330
1F
100
AcDbEntity
  8
0
  6
Continuous
 62
     7
370
    25
100
AcDbLine
 10
-71.2435897436
 20
54.8
 30
0.0
 11
-74.7435897436
 21
54.8
 31
0.0
  0
LINE
  5
12E
330
1F
100
AcDbEntity
  8
0
  6
Continuous
 62
     7
370
    25
100
AcDbLine
 10
-71.2435897436
 20
53.6
 30
0.0
 11
-71.2435897436
 21
54.8
 31
0.0
  0
LINE
  5
12F
330
1F
100
AcDbEntity
  8
0
  6
Continuous
 62
     7
370
    25
100
AcDbLine
 10
-67.7435897436
 20
53.6
 30
0.0
 11
-71.2435897436
 21
53.6
 31
0.0
  0
LINE
  5
130
330
1F
100
AcDbEntity
  8
0
  6
Continuous
 62
     7
370
    25
100
AcDbLine
 10
-67.7435897436
 20
50.4
 30
0.0
 11
-67.7435897436
 21
53.6
 31
0.0
  0
LINE
  5
131
330
1F
100
AcDbEntity
  8
0
  6
Continuous
 62
     7
370
    25
100
AcDbLine
 10
-67.7435897436
 20
50.4
 30
0.0
 11
-71.2435897436
 21
50.4
 31
0.0
  0
LINE
  5
132
330
1F
100
AcDbEntity
  8
0
  6
Continuous
 62
     7
370
    25
100
AcDbLine
 10
-71.2435897436
 20
49.2
 30
0.0
 11
-71.2435897436
 21
50.4
 31
0.0
  0
LINE
  5
133
330
1F
100
AcDbEntity
  8
0
  6
Continuous
 62
     7
370
    25
100
AcDbLine
 10
-74.7435897436
 20
49.2
 30
0.0
 11
-71.2435897436
 21
49.2
 31
0.0
  0
LINE
  5
134
330
1F
100
AcDbEntity
  8
0
  6
Continuous
 62
     7
370
    25
100
AcDbLine
 10
-74.7435897436
 20
50.4
 30
0.0
 11
-74.7435897436
 21
49.2
 31
0.0
  0
LINE
  5
135
330
1F
100
AcDbEntity
  8
0
  6
Continuous
 62
     7
370
    25
100
AcDbLine
 10
-74.7435897436
 20
50.4
 30
0.0
 11
-79.7435897436
 21
50.4
 31
0.0
  0
LINE
  5
136
330
1F
100
AcDbEntity
  8
0
  6
Continuous
 62
     7
370
    25
100
AcDbLine
 10
-79.7435897436
 20
50.4
 30
0.0
 11
-79.7435897436
 21
47.0
 31
0.0
  0
LINE
  5
137
330
1F
100
AcDbEntity
  8
0
  6
Continuous
 62
     7
370
    25
100
AcDbLine
 10
-79.7435897436
 20
47.0
 30
0.0
 11
-85.7435897436
 21
47.0
 31
0.0
  0
LINE
  5
138
330
1F
100
AcDbEntity
  8
0
  6
Continuous
 62
     7
370
    25
100
AcDbLine
 10
-85.7435897436
 20
47.0
 30
0.0
 11
-85.7435897436
 21
37.0
 31
0.0
  0
LINE
  5
139
330
1F
100
AcDbEntity
  8
0
  6
Continuous
 62
     7
370
    25
100
AcDbLine
 10
-85.7435897436
 20
37.0
 30
0.0
 11
-79.7435897436
 21
37.0
 31
0.0
  0
LINE
  5
13A
330
1F
100
AcDbEntity
  8
0
  6
Continuous
 62
     7
370
    25
100
AcDbLine
 10
-79.7435897436
 20
37.0
 30
0.0
 11
-79.7435897436
 21
27.0
 31
0.0
  0
LINE
  5
13B
330
1F
100
AcDbEntity
  8
0
  6
Continuous
 62
     7
370
    25
100
AcDbLine
 10
-79.7435897436
 20
27.0
 30
0.0
 11
-85.7435897436
 21
27.0
 31
0.0
  0
LINE
  5
13C
330
1F
100
AcDbEntity
  8
0
  6
Continuous
 62
     7
370
    25
100
AcDbLine
 10
-85.7435897436
 20
27.0
 30
0.0
 11
-85.7435897436
 21
17.0
 31
0.0
  0
LINE
  5
13D
330
1F
100
AcDbEntity
  8
0
  6
Continuous
 62
     7
370
    25
100
AcDbLine
 10
-85.7435897436
 20
17.0
 30
0.0
 11
-79.7435897436
 21
17.0
 31
0.0
  0
LINE
  5
13E
330
1F
100
AcDbEntity
  8
0
  6
Continuous
 62
     7
370
    25
100
AcDbLine
 10
-79.7435897436
 20
17.0
 30
0.0
 11
-79.7435897436
 21
13.6
 31
0.0
  0
LINE
  5
13F
330
1F
100
AcDbEntity
  8
0
  6
Continuous
 62
     7
370
    25
100
AcDbLine
 10
-74.7435897436
 20
13.6
 30
0.0
 11
-79.7435897436
 21
13.6
 31
0.0
  0
LINE
  5
140
330
1F
100
AcDbEntity
  8
0
  6
Continuous
 62
     7
370
    25
100
AcDbLine
 10
-74.7435897436
 20
14.8
 30
0.0
 11
-74.7435897436
 21
13.6
 31
0.0
  0
LINE
  5
141
330
1F
100
AcDbEntity
  8
0
  6
Continuous
 62
     7
370
    25
100
AcDbLine
 10
-71.2435897436
 20
14.8
 30
0.0
 11
-74.7435897436
 21
14.8
 31
0.0
  0
LINE
  5
142
330
1F
100
AcDbEntity
  8
0
  6
Continuous
 62
     7
370
    25
100
AcDbLine
 10
-71.2435897436
 20
13.6
 30
0.0
 11
-71.2435897436
 21
14.8
 31
0.0
  0
LINE
  5
143
330
1F
100
AcDbEntity
  8
0
  6
Continuous
 62
     7
370
    25
100
AcDbLine
 10
-67.7435897436
 20
13.6
 30
0.0
 11
-71.2435897436
 21
13.6
 31
0.0
  0
LINE
  5
144
330
1F
100
AcDbEntity
  8
0
  6
Continuous
 62
     7
370
    25
100
AcDbLine
 10
-67.7435897436
 20
10.4
 30
0.0
 11
-67.7435897436
 21
13.6
 31
0.0
  0
LINE
  5
145
330
1F
100
AcDbEntity
  8
0
  6
Continuous
 62
     7
370
    25
100
AcDbLine
 10
-67.7435897436
 20
10.4
 30
0.0
 11
-71.2435897436
 21
10.4
 31
0.0
  0
LINE
  5
146
330
1F
100
AcDbEntity
  8
0
  6
Continuous
 62
     7
370
    25
100
AcDbLine
 10
-71.2435897436
 20
9.2
 30
0.0
 11
-71.2435897436
 21
10.4
 31
0.0
  0
LINE
  5
147
330
1F
100
AcDbEntity
  8
0
  6
Continuous
 62
     7
370
    25
100
AcDbLine
 10
-74.7435897436
 20
9.2
 30
0.0
 11
-71.2435897436
 21
9.2
 31
0.0
  0
LINE
  5
148
330
1F
100
AcDbEntity
  8
0
  6
Continuous
 62
     7
370
    25
100
AcDbLine
 10
-74.7435897436
 20
10.4
 30
0.0
 11
-74.7435897436
 21
9.2
 31
0.0
  0
LINE
  5
149
330
1F
100
AcDbEntity
  8
0
  6
Continuous
 62
     7
370
    25
100
AcDbLine
 10
-74.7435897436
 20
10.4
 30
0.0
 11
-79.7435897436
 21
10.4
 31
0.0
  0
LINE
  5
14A
330
1F
100
AcDbEntity
  8
0
  6
Continuous
 62
     7
370
    25
100
AcDbLine
 10
-79.7435897436
 20
10.4
 30
0.0
 11
-79.7435897436
 21
7.0
 31
0.0
  0
LINE
  5
14B
330
1F
100
AcDbEntity
  8
0
  6
Continuous
 62
     7
370
    25
100
AcDbLine
 10
-79.7435897436
 20
7.0
 30
0.0
 11
-85.7435897436
 21
7.0
 31
0.0
  0
LINE
  5
14C
330
1F
100
AcDbEntity
  8
0
  6
Continuous
 62
     7
370
    25
100
AcDbLine
 10
-85.7435897436
 20
7.0
 30
0.0
 11
-85.7435897436
 21
0.0
 31
0.0
  0
LINE
  5
14D
330
1F
100
AcDbEntity
  8
0
  6
Continuous
 62
     7
370
    25
100
AcDbLine
 10
-85.7435897436
 20
0.0
 30
0.0
 11
-29.7435897436
 21
0.0
 31
0.0
  0
LINE
  5
14E
330
1F
100
AcDbEntity
  8
0
  6
Continuous
 62
     7
370
    25
100
AcDbLine
 10
-29.7435897436
 20
7.0
 30
0.0
 11
-29.7435897436
 21
0.0
 31
0.0
  0
LINE
  5
14F
330
1F
100
AcDbEntity
  8
0
  6
Continuous
 62
     7
370
    25
100
AcDbLine
 10
-29.7435897436
 20
7.0
 30
0.0
 11
-35.7435897436
 21
7.0
 31
0.0
  0
LINE
  5
150
330
1F
100
AcDbEntity
  8
0
  6
Continuous
 62
     7
370
    25
100
AcDbLine
 10
-35.7435897436
 20
7.0
 30
0.0
 11
-35.7435897436
 21
10.4
 31
0.0
  0
LINE
  5
151
330
1F
100
AcDbEntity
  8
0
  6
Continuous
 62
     7
370
    25
100
AcDbLine
 10
-40.7435897436
 20
10.4
 30
0.0
 11
-35.7435897436
 21
10.4
 31
0.0
  0
LINE
  5
152
330
1F
100
AcDbEntity
  8
0
  6
Continuous
 62
     7
370
    25
100
AcDbLine
 10
-40.7435897436
 20
9.2
 30
0.0
 11
-40.7435897436
 21
10.4
 31
0.0
  0
LINE
  5
153
330
1F
100
AcDbEntity
  8
0
  6
Continuous
 62
     7
370
    25
100
AcDbLine
 10
-44.2435897436
 20
9.2
 30
0.0
 11
-40.7435897436
 21
9.2
 31
0.0
  0
LINE
  5
154
330
1F
100
AcDbEntity
  8
0
  6
Continuous
 62
     7
370
    25
100
AcDbLine
 10
-44.2435897436
 20
10.4
 30
0.0
 11
-44.2435897436
 21
9.2
 31
0.0
  0
LINE
  5
155
330
1F
100
AcDbEntity
  8
0
  6
Continuous
 62
     7
370
    25
100
AcDbLine
 10
-47.7435897436
 20
10.4
 30
0.0
 11
-44.2435897436
 21
10.4
 31
0.0
  0
LINE
  5
156
330
1F
100
AcDbEntity
  8
0
  6
Continuous
 62
     7
370
    25
100
AcDbLine
 10
-47.7435897436
 20
13.6
 30
0.0
 11
-47.7435897436
 21
10.4
 31
0.0
  0
LINE
  5
157
330
1F
100
AcDbEntity
  8
0
  6
Continuous
 62
     7
370
    25
100
AcDbLine
 10
-47.7435897436
 20
13.6
 30
0.0
 11
-44.2435897436
 21
13.6
 31
0.0
  0
LINE
  5
158
330
1F
100
AcDbEntity
  8
0
  6
Continuous
 62
     7
370
    25
100
AcDbLine
 10
-44.2435897436
 20
14.8
 30
0.0
 11
-44.2435897436
 21
13.6
 31
0.0
  0
LINE
  5
159
330
1F
100
AcDbEntity
  8
0
  6
Continuous
 62
     7
370
    25
100
AcDbLine
 10
-40.7435897436
 20
14.8
 30
0.0
 11
-44.2435897436
 21
14.8
 31
0.0
  0
LINE
  5
15A
330
1F
100
AcDbEntity
  8
0
  6
Continuous
 62
     7
370
    25
100
AcDbLine
 10
-40.7435897436
 20
13.6
 30
0.0
 11
-40.7435897436
 21
14.8
 31
0.0
  0
LINE
  5
15B
330
1F
100
AcDbEntity
  8
0
  6
Continuous
 62
     7
370
    25
100
AcDbLine
 10
-40.7435897436
 20
13.6
 30
0.0
 11
-35.7435897436
 21
13.6
 31
0.0
  0
LINE
  5
15C
330
1F
100
AcDbEntity
  8
0
  6
Continuous
 62
     7
370
    25
100
AcDbLine
 10
-35.7435897436
 20
13.6
 30
0.0
 11
-35.7435897436
 21
17.0
 31
0.0
  0
LINE
  5
15D
330
1F
100
AcDbEntity
  8
0
  6
Continuous
 62
     7
370
    25
100
AcDbLine
 10
-35.7435897436
 20
17.0
 30
0.0
 11
-29.7435897436
 21
17.0
 31
0.0
  0
LINE
  5
15E
330
1F
100
AcDbEntity
  8
0
  6
Continuous
 62
     7
370
    25
100
AcDbLine
 10
-29.7435897436
 20
27.0
 30
0.0
 11
-29.7435897436
 21
17.0
 31
0.0
  0
LINE
  5
15F
330
1F
100
AcDbEntity
  8
0
  6
Continuous
 62
     7
370
    25
100
AcDbLine
 10
-29.7435897436
 20
27.0
 30
0.0
 11
-35.7435897436
 21
27.0
 31
0.0
  0
LINE
  5
160
330
1F
100
AcDbEntity
  8
0
  6
Continuous
 62
     7
370
    25
100
AcDbLine
 10
-35.7435897436
 20
27.0
 30
0.0
 11
-35.7435897436
 21
37.0
 31
0.0
  0
LINE
  5
161
330
1F
100
AcDbEntity
  8
0
  6
Continuous
 62
     7
370
    25
100
AcDbLine
 10
-35.7435897436
 20
37.0
 30
0.0
 11
-29.7435897436
 21
37.0
 31
0.0
  0
LINE
  5
162
330
1F
100
AcDbEntity
  8
0
  6
Continuous
 62
     7
370
    25
100
AcDbLine
 10
-29.7435897436
 20
47.0
 30
0.0
 11
-29.7435897436
 21
37.0
 31
0.0
  0
LINE
  5
163
330
1F
100
AcDbEntity
  8
0
  6
Continuous
 62
     7
370
    25
100
AcDbLine
 10
-29.7435897436
 20
47.0
 30
0.0
 11
-35.7435897436
 21
47.0
 31
0.0
  0
LINE
  5
164
330
1F
100
AcDbEntity
  8
0
  6
Continuous
 62
     7
370
    25
100
AcDbLine
 10
-35.7435897436
 20
47.0
 30
0.0
 11
-35.7435897436
 21
50.4
 31
0.0
  0
LINE
  5
165
330
1F
100
AcDbEntity
  8
0
  6
Continuous
 62
     7
370
    25
100
AcDbLine
 10
-40.7435897436
 20
50.4
 30
0.0
 11
-35.7435897436
 21
50.4
 31
0.0
  0
LINE
  5
166
330
1F
100
AcDbEntity
  8
0
  6
Continuous
 62
     7
370
    25
100
AcDbLine
 10
-40.7435897436
 20
49.2
 30
0.0
 11
-40.7435897436
 21
50.4
 31
0.0
  0
LINE
  5
167
330
1F
100
AcDbEntity
  8
0
  6
Continuous
 62
     7
370
    25
100
AcDbLine
 10
-44.2435897436
 20
49.2
 30
0.0
 11
-40.7435897436
 21
49.2
 31
0.0
  0
LINE
  5
168
330
1F
100
AcDbEntity
  8
0
  6
Continuous
 62
     7
370
    25
100
AcDbLine
 10
-44.2435897436
 20
50.4
 30
0.0
 11
-44.2435897436
 21
49.2
 31
0.0
  0
LINE
  5
169
330
1F
100
AcDbEntity
  8
0
  6
Continuous
 62
     7
370
    25
100
AcDbLine
 10
-47.7435897436
 20
50.4
 30
0.0
 11
-44.2435897436
 21
50.4
 31
0.0
  0
LINE
  5
16A
330
1F
100
AcDbEntity
  8
0
  6
Continuous
 62
     7
370
    25
100
AcDbLine
 10
-47.7435897436
 20
53.6
 30
0.0
 11
-47.7435897436
 21
50.4
 31
0.0
  0
LINE
  5
16B
330
1F
100
AcDbEntity
  8
0
  6
Continuous
 62
     7
370
    25
100
AcDbLine
 10
-47.7435897436
 20
53.6
 30
0.0
 11
-44.2435897436
 21
53.6
 31
0.0
  0
LINE
  5
16C
330
1F
100
AcDbEntity
  8
0
  6
Continuous
 62
     7
370
    25
100
AcDbLine
 10
-44.2435897436
 20
54.8
 30
0.0
 11
-44.2435897436
 21
53.6
 31
0.0
  0
LINE
  5
16D
330
1F
100
AcDbEntity
  8
0
  6
Continuous
 62
     7
370
    25
100
AcDbLine
 10
-40.7435897436
 20
54.8
 30
0.0
 11
-44.2435897436
 21
54.8
 31
0.0
  0
LINE
  5
16E
330
1F
100
AcDbEntity
  8
0
  6
Continuous
 62
     7
370
    25
100
AcDbLine
 10
-40.7435897436
 20
53.6
 30
0.0
 11
-40.7435897436
 21
54.8
 31
0.0
  0
LINE
  5
16F
330
1F
100
AcDbEntity
  8
0
  6
Continuous
 62
     7
370
    25
100
AcDbLine
 10
-40.7435897436
 20
53.6
 30
0.0
 11
-35.7435897436
 21
53.6
 31
0.0
  0
LINE
  5
170
330
1F
100
AcDbEntity
  8
0
  6
Continuous
 62
     7
370
    25
100
AcDbLine
 10
-35.7435897436
 20
53.6
 30
0.0
 11
-35.7435897436
 21
57.0
 31
0.0
  0
LINE
  5
171
330
1F
100
AcDbEntity
  8
0
  6
Continuous
 62
     7
370
    25
100
AcDbLine
 10
-35.7435897436
 20
57.0
 30
0.0
 11
-29.7435897436
 21
57.0
 31
0.0
  0
LINE
  5
172
330
1F
100
AcDbEntity
  8
0
  6
Continuous
 62
     7
370
    25
100
AcDbLine
 10
-29.7435897436
 20
67.0
 30
0.0
 11
-29.7435897436
 21
57.0
 31
0.0
  0
LINE
  5
173
330
1F
100
AcDbEntity
  8
0
  6
Continuous
 62
     7
370
    25
100
AcDbLine
 10
-29.7435897436
 20
67.0
 30
0.0
 11
-35.7435897436
 21
67.0
 31
0.0
  0
LINE
  5
174
330
1F
100
AcDbEntity
  8
0
  6
Continuous
 62
     7
370
    25
100
AcDbLine
 10
-35.7435897436
 20
67.0
 30
0.0
 11
-35.7435897436
 21
77.0
 31
0.0
  0
LINE
  5
175
330
1F
100
AcDbEntity
  8
0
  6
Continuous
 62
     7
370
    25
100
AcDbLine
 10
-35.7435897436
 20
77.0
 30
0.0
 11
-29.7435897436
 21
77.0
 31
0.0
  0
LINE
  5
176
330
1F
100
AcDbEntity
  8
0
  6
Continuous
 62
     7
370
    25
100
AcDbLine
 10
-29.7435897436
 20
87.0
 30
0.0
 11
-29.7435897436
 21
77.0
 31
0.0
  0
LINE
  5
177
330
1F
100
AcDbEntity
  8
0
  6
Continuous
 62
     7
370
    25
100
AcDbLine
 10
-29.7435897436
 20
87.0
 30
0.0
 11
-35.7435897436
 21
87.0
 31
0.0
  0
LINE
  5
178
330
1F
100
AcDbEntity
  8
0
  6
Continuous
 62
     7
370
    25
100
AcDbLine
 10
-35.7435897436
 20
87.0
 30
0.0
 11
-35.7435897436
 21
90.4
 31
0.0
  0
LINE
  5
179
330
1F
100
AcDbEntity
  8
0
  6
Continuous
 62
     7
370
    25
100
AcDbLine
 10
-40.7435897436
 20
90.4
 30
0.0
 11
-35.7435897436
 21
90.4
 31
0.0
  0
LINE
  5
17A
330
1F
100
AcDbEntity
  8
0
  6
Continuous
 62
     7
370
    25
100
AcDbLine
 10
-40.7435897436
 20
89.2
 30
0.0
 11
-40.7435897436
 21
90.4
 31
0.0
  0
LINE
  5
17B
330
1F
100
AcDbEntity
  8
0
  6
Continuous
 62
     7
370
    25
100
AcDbLine
 10
-44.2435897436
 20
89.2
 30
0.0
 11
-40.7435897436
 21
89.2
 31
0.0
  0
LINE
  5
17C
330
1F
100
AcDbEntity
  8
0
  6
Continuous
 62
     7
370
    25
100
AcDbLine
 10
-44.2435897436
 20
90.4
 30
0.0
 11
-44.2435897436
 21
89.2
 31
0.0
  0
LINE
  5
17D
330
1F
100
AcDbEntity
  8
0
  6
Continuous
 62
     7
370
    25
100
AcDbLine
 10
-47.7435897436
 20
90.4
 30
0.0
 11
-44.2435897436
 21
90.4
 31
0.0
  0
LINE
  5
17E
330
1F
100
AcDbEntity
  8
0
  6
Continuous
 62
     7
370
    25
100
AcDbLine
 10
-47.7435897436
 20
93.6
 30
0.0
 11
-47.7435897436
 21
90.4
 31
0.0
  0
LINE
  5
17F
330
1F
100
AcDbEntity
  8
0
  6
Continuous
 62
     7
370
    25
100
AcDbLine
 10
-47.7435897436
 20
93.6
 30
0.0
 11
-44.2435897436
 21
93.6
 31
0.0
  0
LINE
  5
180
330
1F
100
AcDbEntity
  8
0
  6
Continuous
 62
     7
370
    25
100
AcDbLine
 10
-44.2435897436
 20
94.8
 30
0.0
 11
-44.2435897436
 21
93.6
 31
0.0
  0
LINE
  5
181
330
1F
100
AcDbEntity
  8
0
  6
Continuous
 62
     7
370
    25
100
AcDbLine
 10
-40.7435897436
 20
94.8
 30
0.0
 11
-44.2435897436
 21
94.8
 31
0.0
  0
LINE
  5
182
330
1F
100
AcDbEntity
  8
0
  6
Continuous
 62
     7
370
    25
100
AcDbLine
 10
-40.7435897436
 20
93.6
 30
0.0
 11
-40.7435897436
 21
94.8
 31
0.0
  0
LINE
  5
183
330
1F
100
AcDbEntity
  8
0
  6
Continuous
 62
     7
370
    25
100
AcDbLine
 10
-40.7435897436
 20
93.6
 30
0.0
 11
-35.7435897436
 21
93.6
 31
0.0
  0
LINE
  5
184
330
1F
100
AcDbEntity
  8
0
  6
Continuous
 62
     7
370
    25
100
AcDbLine
 10
-35.7435897436
 20
93.6
 30
0.0
 11
-35.7435897436
 21
97.0
 31
0.0
  0
LINE
  5
185
330
1F
100
AcDbEntity
  8
0
  6
Continuous
 62
     7
370
    25
100
AcDbLine
 10
-35.7435897436
 20
97.0
 30
0.0
 11
-29.7435897436
 21
97.0
 31
0.0
  0
LINE
  5
186
330
1F
100
AcDbEntity
  8
0
  6
Continuous
 62
     7
370
    25
100
AcDbLine
 10
-29.7435897436
 20
107.0
 30
0.0
 11
-29.7435897436
 21
97.0
 31
0.0
  0
LINE
  5
187
330
1F
100
AcDbEntity
  8
0
  6
Continuous
 62
     7
370
    25
100
AcDbLine
 10
-29.7435897436
 20
107.0
 30
0.0
 11
-35.7435897436
 21
107.0
 31
0.0
  0
LINE
  5
188
330
1F
100
AcDbEntity
  8
0
  6
Continuous
 62
     7
370
    25
100
AcDbLine
 10
-35.7435897436
 20
107.0
 30
0.0
 11
-35.7435897436
 21
117.0
 31
0.0
  0
LINE
  5
189
330
1F
100
AcDbEntity
  8
0
  6
Continuous
 62
     7
370
    25
100
AcDbLine
 10
-35.7435897436
 20
117.0
 30
0.0
 11
-29.7435897436
 21
117.0
 31
0.0
  0
LINE
  5
18A
330
1F
100
AcDbEntity
  8
0
  6
Continuous
 62
     7
370
    25
100
AcDbLine
 10
-29.7435897436
 20
127.0
 30
0.0
 11
-29.7435897436
 21
117.0
 31
0.0
  0
LINE
  5
18B
330
1F
100
AcDbEntity
  8
0
  6
Continuous
 62
     7
370
    25
100
AcDbLine
 10
-29.7435897436
 20
127.0
 30
0.0
 11
-35.7435897436
 21
127.0
 31
0.0
  0
LINE
  5
18C
330
1F
100
AcDbEntity
  8
0
  6
Continuous
 62
     7
370
    25
100
AcDbLine
 10
-35.7435897436
 20
127.0
 30
0.0
 11
-35.7435897436
 21
130.4
 31
0.0
  0
LINE
  5
18D
330
1F
100
AcDbEntity
  8
0
  6
Continuous
 62
     7
370
    25
100
AcDbLine
 10
-40.7435897436
 20
130.4
 30
0.0
 11
-35.7435897436
 21
130.4
 31
0.0
  0
LINE
  5
18E
330
1F
100
AcDbEntity
  8
0
  6
Continuous
 62
     7
370
    25
100
AcDbLine
 10
-40.7435897436
 20
129.2
 30
0.0
 11
-40.7435897436
 21
130.4
 31
0.0
  0
LINE
  5
18F
330
1F
100
AcDbEntity
  8
0
  6
Continuous
 62
     7
370
    25
100
AcDbLine
 10
-44.2435897436
 20
129.2
 30
0.0
 11
-40.7435897436
 21
129.2
 31
0.0
  0
LINE
  5
190
330
1F
100
AcDbEntity
  8
0
  6
Continuous
 62
     7
370
    25
100
AcDbLine
 10
-44.2435897436
 20
130.4
 30
0.0
 11
-44.2435897436
 21
129.2
 31
0.0
  0
LINE
  5
191
330
1F
100
AcDbEntity
  8
0
  6
Continuous
 62
     7
370
    25
100
AcDbLine
 10
-47.7435897436
 20
130.4
 30
0.0
 11
-44.2435897436
 21
130.4
 31
0.0
  0
LINE
  5
192
330
1F
100
AcDbEntity
  8
0
  6
Continuous
 62
     7
370
    25
100
AcDbLine
 10
-47.7435897436
 20
133.6
 30
0.0
 11
-47.7435897436
 21
130.4
 31
0.0
  0
LINE
  5
193
330
1F
100
AcDbEntity
  8
0
  6
Continuous
 62
     7
370
    25
100
AcDbLine
 10
-47.7435897436
 20
133.6
 30
0.0
 11
-44.2435897436
 21
133.6
 31
0.0
  0
LINE
  5
194
330
1F
100
AcDbEntity
  8
0
  6
Continuous
 62
     7
370
    25
100
AcDbLine
 10
-44.2435897436
 20
134.8
 30
0.0
 11
-44.2435897436
 21
133.6
 31
0.0
  0
LINE
  5
195
330
1F
100
AcDbEntity
  8
0
  6
Continuous
 62
     7
370
    25
100
AcDbLine
 10
-40.7435897436
 20
134.8
 30
0.0
 11
-44.2435897436
 21
134.8
 31
0.0
  0
LINE
  5
196
330
1F
100
AcDbEntity
  8
0
  6
Continuous
 62
     7
370
    25
100
AcDbLine
 10
-40.7435897436
 20
133.6
 30
0.0
 11
-40.7435897436
 21
134.8
 31
0.0
  0
LINE
  5
197
330
1F
100
AcDbEntity
  8
0
  6
Continuous
 62
     7
370
    25
100
AcDbLine
 10
-40.7435897436
 20
133.6
 30
0.0
 11
-35.7435897436
 21
133.6
 31
0.0
  0
LINE
  5
198
330
1F
100
AcDbEntity
  8
0
  6
Continuous
 62
     7
370
    25
100
AcDbLine
 10
-35.7435897436
 20
133.6
 30
0.0
 11
-35.7435897436
 21
137.0
 31
0.0
  0
LINE
  5
199
330
1F
100
AcDbEntity
  8
0
  6
Continuous
 62
     7
370
    25
100
AcDbLine
 10
-35.7435897436
 20
137.0
 30
0.0
 11
-29.7435897436
 21
137.0
 31
0.0
  0
LINE
  5
19A
330
1F
100
AcDbEntity
  8
0
  6
Continuous
 62
     7
370
    25
100
AcDbLine
 10
-29.7435897436
 20
147.0
 30
0.0
 11
-29.7435897436
 21
137.0
 31
0.0
  0
LINE
  5
19B
330
1F
100
AcDbEntity
  8
0
  6
Continuous
 62
     7
370
    25
100
AcDbLine
 10
-29.7435897436
 20
147.0
 30
0.0
 11
-35.7435897436
 21
147.0
 31
0.0
  0
LINE
  5
19C
330
1F
100
AcDbEntity
  8
0
  6
Continuous
 62
     7
370
    25
100
AcDbLine
 10
-35.7435897436
 20
147.0
 30
0.0
 11
-35.7435897436
 21
157.0
 31
0.0
  0
LINE
  5
19D
330
1F
100
AcDbEntity
  8
0
  6
Continuous
 62
     7
370
    25
100
AcDbLine
 10
-35.7435897436
 20
157.0
 30
0.0
 11
-29.7435897436
 21
157.0
 31
0.0
  0
LINE
  5
19E
330
1F
100
AcDbEntity
  8
0
  6
Continuous
 62
     7
370
    25
100
AcDbLine
 10
-29.7435897436
 20
167.0
 30
0.0
 11
-29.7435897436
 21
157.0
 31
0.0
  0
LINE
  5
19F
330
1F
100
AcDbEntity
  8
0
  6
Continuous
 62
     7
370
    25
100
AcDbLine
 10
-29.7435897436
 20
167.0
 30
0.0
 11
-35.7435897436
 21
167.0
 31
0.0
  0
LINE
  5
1A0
330
1F
100
AcDbEntity
  8
0
  6
Continuous
 62
     7
370
    25
100
AcDbLine
 10
-35.7435897436
 20
167.0
 30
0.0
 11
-35.7435897436
 21
170.4
 31
0.0
  0
LINE
  5
1A1
330
1F
100
AcDbEntity
  8
0
  6
Continuous
 62
     7
370
    25
100
AcDbLine
 10
-40.7435897436
 20
170.4
 30
0.0
 11
-35.7435897436
 21
170.4
 31
0.0
  0
LINE
  5
1A2
330
1F
100
AcDbEntity
  8
0
  6
Continuous
 62
     7
370
    25
100
AcDbLine
 10
-40.7435897436
 20
169.2
 30
0.0
 11
-40.7435897436
 21
170.4
 31
0.0
  0
LINE
  5
1A3
330
1F
100
AcDbEntity
  8
0
  6
Continuous
 62
     7
370
    25
100
AcDbLine
 10
-44.2435897436
 20
169.2
 30
0.0
 11
-40.7435897436
 21
169.2
 31
0.0
  0
LINE
  5
1A4
330
1F
100
AcDbEntity
  8
0
  6
Continuous
 62
     7
370
    25
100
AcDbLine
 10
-44.2435897436
 20
170.4
 30
0.0
 11
-44.2435897436
 21
169.2
 31
0.0
  0
LINE
  5
1A5
330
1F
100
AcDbEntity
  8
0
  6
Continuous
 62
     7
370
    25
100
AcDbLine
 10
-47.7435897436
 20
170.4
 30
0.0
 11
-44.2435897436
 21
170.4
 31
0.0
  0
LINE
  5
1A6
330
1F
100
AcDbEntity
  8
0
  6
Continuous
 62
     7
370
    25
100
AcDbLine
 10
-47.7435897436
 20
173.6
 30
0.0
 11
-47.7435897436
 21
170.4
 31
0.0
  0
LINE
  5
1A7
330
1F
100
AcDbEntity
  8
0
  6
Continuous
 62
     7
370
    25
100
AcDbLine
 10
-47.7435897436
 20
173.6
 30
0.0
 11
-44.2435897436
 21
173.6
 31
0.0
  0
LINE
  5
1A8
330
1F
100
AcDbEntity
  8
0
  6
Continuous
 62
     7
370
    25
100
AcDbLine
 10
-44.2435897436
 20
174.8
 30
0.0
 11
-44.2435897436
 21
173.6
 31
0.0
  0
LINE
  5
1A9
330
1F
100
AcDbEntity
  8
0
  6
Continuous
 62
     7
370
    25
100
AcDbLine
 10
-40.7435897436
 20
174.8
 30
0.0
 11
-44.2435897436
 21
174.8
 31
0.0
  0
LINE
  5
1AA
330
1F
100
AcDbEntity
  8
0
  6
Continuous
 62
     7
370
    25
100
AcDbLine
 10
-40.7435897436
 20
173.6
 30
0.0
 11
-40.7435897436
 21
174.8
 31
0.0
  0
LINE
  5
1AB
330
1F
100
AcDbEntity
  8
0
  6
Continuous
 62
     7
370
    25
100
AcDbLine
 10
-40.7435897436
 20
173.6
 30
0.0
 11
-35.7435897436
 21
173.6
 31
0.0
  0
LINE
  5
1AC
330
1F
100
AcDbEntity
  8
0
  6
Continuous
 62
     7
370
    25
100
AcDbLine
 10
-35.7435897436
 20
173.6
 30
0.0
 11
-35.7435897436
 21
177.0
 31
0.0
  0
LINE
  5
1AD
330
1F
100
AcDbEntity
  8
0
  6
Continuous
 62
     7
370
    25
100
AcDbLine
 10
-35.7435897436
 20
177.0
 30
0.0
 11
-29.7435897436
 21
177.0
 31
0.0
  0
LINE
  5
1AE
330
1F
100
AcDbEntity
  8
0
  6
Continuous
 62
     7
370
    25
100
AcDbLine
 10
-29.7435897436
 20
187.0
 30
0.0
 11
-29.7435897436
 21
177.0
 31
0.0
  0
LINE
  5
1AF
330
1F
100
AcDbEntity
  8
0
  6
Continuous
 62
     7
370
    25
100
AcDbLine
 10
-29.7435897436
 20
187.0
 30
0.0
 11
-35.7435897436
 21
187.0
 31
0.0
  0
LINE
  5
1B0
330
1F
100
AcDbEntity
  8
0
  6
Continuous
 62
     7
370
    25
100
AcDbLine
 10
-35.7435897436
 20
187.0
 30
0.0
 11
-35.7435897436
 21
197.0
 31
0.0
  0
LINE
  5
1B1
330
1F
100
AcDbEntity
  8
0
  6
Continuous
 62
     7
370
    25
100
AcDbLine
 10
-35.7435897436
 20
197.0
 30
0.0
 11
-29.7435897436
 21
197.0
 31
0.0
  0
LINE
  5
1B2
330
1F
100
AcDbEntity
  8
0
  6
Continuous
 62
     7
370
    25
100
AcDbLine
 10
-29.7435897436
 20
207.0
 30
0.0
 11
-29.7435897436
 21
197.0
 31
0.0
  0
LINE
  5
1B3
330
1F
100
AcDbEntity
  8
0
  6
Continuous
 62
     7
370
    25
100
AcDbLine
 10
-29.7435897436
 20
207.0
 30
0.0
 11
-35.7435897436
 21
207.0
 31
0.0
  0
LINE
  5
1B4
330
1F
100
AcDbEntity
  8
0
  6
Continuous
 62
     7
370
    25
100
AcDbLine
 10
-35.7435897436
 20
207.0
 30
0.0
 11
-35.7435897436
 21
210.4
 31
0.0
  0
CIRCLE
  5
1B5
330
1F
100
AcDbEntity
  8
0
  6
Continuous
 62
     7
370
    25
100
AcDbCircle
 10
-47.4935897436
 20
280.0
 30
0.0
 40
1.599999999999966
  0
CIRCLE
  5
1B6
330
1F
100
AcDbEntity
  8
0
  6
Continuous
 62
     7
370
    25
100
AcDbCircle
 10
-67.4935897436
 20
280.0
 30
0.0
 40
1.599999999999966
  0
CIRCLE
  5
1B7
330
1F
100
AcDbEntity
  8
0
  6
Continuous
 62
     7
370
    25
100
AcDbCircle
 10
-46.7435897436
 20
39.0
 30
0.0
 40
2.75
  0
CIRCLE
  5
1B8
330
1F
100
AcDbEntity
  8
0
  6
Continuous
 62
     7
370
    25
100
AcDbCircle
 10
-68.7435897436
 20
39.0
 30
0.0
 40
2.750000000000007
  0
CIRCLE
  5
1B9
330
1F
100
AcDbEntity
  8
0
  6
Continuous
 62
     7
370
    25
100
AcDbCircle
 10
-47.8435897436
 20
136.6
 30
0.0
 40
1.599999999999994
  0
CIRCLE
  5
1BA
330
1F
100
AcDbEntity
  8
0
  6
Continuous
 62
     7
370
    25
100
AcDbCircle
 10
-75.7435897436
 20
136.6
 30
0.0
 40
1.599999999999994
  0
CIRCLE
  5
1BB
330
1F
100
AcDbEntity
  8
0
  6
Continuous
 62
     7
370
    25
100
AcDbCircle
 10
-42.7935897436
 20
84.5
 30
0.0
 40
1.599999999999994
  0
CIRCLE
  5
1BC
330
1F
100
AcDbEntity
  8
0
  6
Continuous
 62
     7
370
    25
100
AcDbCircle
 10
-57.4935897436
 20
155.461682015
 30
0.0
 40
7.5
  0
CIRCLE
  5
1BD
330
1F
100
AcDbEntity
  8
0
  6
Continuous
 62
     7
370
    25
100
AcDbCircle
 10
-50.7435897436
 20
250.0
 30
0.0
 40
1.25
  0
CIRCLE
  5
1BE
330
1F
100
AcDbEntity
  8
0
  6
Continuous
 62
     7
370
    25
100
AcDbCircle
 10
-50.7435897436
 20
244.0
 30
0.0
 40
1.25
  0
CIRCLE
  5
1BF
330
1F
100
AcDbEntity
  8
0
  6
Continuous
 62
     7
370
    25
100
AcDbCircle
 10
-57.4935897436
 20
247.0
 30
0.0
 40
5.0
  0
SPLINE
  5
1C0
330
1F
100
AcDbEntity
  8
0
  6
Continuous
 62
     7
370
    25
100
AcDbSpline
210
0.0
220
0.0
230
1.0
 70
     8
 71
     3
 72
    23
 73
    19
 74
     0
 42
0.00000001
 43
0.00000001
 40
0.0
 40
0.0
 40
0.0
 40
0.0
 40
0.0572082694335123
 40
0.1136960596574868
 40
0.1691779164171946
 40
0.2241592165805506
 40
0.2787198783810447
 40
0.333794217446992
 40
0.3892414593399984
 40
0.4458220733936278
 40
0.5037042811090175
 40
0.5642938918193635
 40
0.6279754158952333
 40
0.6950382596840474
 40
0.7653727258510097
 40
0.8396114430907382
 40
0.9175377500777911
 40
1.0
 40
1.0
 40
1.0
 40
1.0
 10
-63.58954326923087
 20
212.6553295377373
 30
0.0
 10
-63.61597861221185
 20
212.6558407193347
 30
0.0
 10
-63.66851637226634
 20
212.656856644724
 30
0.0
 10
-63.74622585413952
 20
212.6658379251462
 30
0.0
 10
-63.82236544333758
 20
212.6785450287373
 30
0.0
 10
-63.89597972537172
 20
212.6987190987143
 30
0.0
 10
-63.96801713701346
 20
212.7231960757564
 30
0.0
 10
-64.03816437153942
 20
212.7533344083546
 30
0.0
 10
-64.10645542539532
 20
212.7894516098021
 30
0.0
 10
-64.17327300826362
 20
212.8307466344305
 30
0.0
 10
-64.23844718284981
 20
212.8788043789943
 30
0.0
 10
-64.3013666507786
 20
212.9347778754324
 30
0.0
 10
-64.36409583629192
 20
212.9971233804238
 30
0.0
 10
-64.4247832326135
 20
213.0675339437853
 30
0.0
 10
-64.4846563769193
 20
213.1448720266432
 30
0.0
 10
-64.5425347864558
 20
213.2298612100406
 30
0.0
 10
-64.59961650413486
 20
213.3220385637996
 30
0.0
 10
-64.63543197196216
 20
213.3869036495194
 30
0.0
 10
-64.65384615384626
 20
213.4202534159425
 30
0.0
  0
LINE
  5
1C1
330
1F
100
AcDbEntity
  8
0
  6
Continuous
 62
     7
370
    25
100
AcDbLine
 10
-64.6538461538
 20
213.4202534159
 30
0.0
 11
-64.3579727564
 21
213.59763723
 31
0.0
  0
SPLINE
  5
1C2
330
1F
100
AcDbEntity
  8
0
  6
Continuous
 62
     7
370
    25
100
AcDbSpline
210
0.0
220
0.0
230
1.0
 70
     8
 71
     3
 72
    15
 73
    11
 74
     0
 42
0.00000001
 43
0.00000001
 40
0.0
 40
0.0
 40
0.0
 40
0.0
 40
0.1590042985173672
 40
0.3046460998968206
 40
0.4385469045795966
 40
0.5623222987759334
 40
0.6774325425257252
 40
0.7868973929387517
 40
0.8936108891042718
 40
1.0
 40
1.0
 40
1.0
 40
1.0
 10
-64.35797275641036
 20
213.597637230045
 30
0.0
 10
-64.33045451915982
 20
213.5515728450979
 30
0.0
 10
-64.27773063853155
 20
213.4633152611889
 30
0.0
 10
-64.1897792793791
 20
213.3440572207601
 30
0.0
 10
-64.09864636821317
 20
213.2426950640012
 30
0.0
 10
-64.00365703466373
 20
213.1598184564614
 30
0.0
 10
-63.90539108654132
 20
213.0945695697137
 30
0.0
 10
-63.80320703280465
 20
213.0483673379952
 30
0.0
 10
-63.69744922209322
 20
213.0195513626239
 30
0.0
 10
-63.62547540061378
 20
213.0160512760692
 30
0.0
 10
-63.58954326923087
 20
213.0143038967117
 30
0.0
  0
SPLINE
  5
1C3
330
1F
100
AcDbEntity
  8
0
  6
Continuous
 62
     7
370
    25
100
AcDbSpline
210
0.0
220
0.0
230
1.0
 70
     8
 71
     3
 72
    19
 73
    15
 74
     0
 42
0.00000001
 43
0.00000001
 40
0.0
 40
0.0
 40
0.0
 40
0.0
 40
0.091263604896627
 40
0.1809303110850834
 40
0.2700882198317245
 40
0.3601561333877383
 40
0.448342532498151
 40
0.5326658421383417
 40
0.6138337041070452
 40
0.6939815272835624
 40
0.7727159770890156
 40
0.8493351720622613
 40
0.9239673265752547
 40
1.0
 40
1.0
 40
1.0
 40
1.0
 10
-63.58954326923087
 20
213.0143038967117
 30
0.0
 10
-63.55885640871937
 20
213.0151585692239
 30
0.0
 10
-63.49801963567213
 20
213.016852959487
 30
0.0
 10
-63.40845739271104
 20
213.0331337615364
 30
0.0
 10
-63.32147559044496
 20
213.0581458904498
 30
0.0
 10
-63.23886695271444
 20
213.0939668219583
 30
0.0
 10
-63.16177133818289
 20
213.1373053076833
 30
0.0
 10
-63.09416464284629
 20
213.1896514851906
 30
0.0
 10
-63.03571852966679
 20
213.2482576909044
 30
0.0
 10
-62.98790941509964
 20
213.3136403455462
 30
0.0
 10
-62.95122937981129
 20
213.3839574941536
 30
0.0
 10
-62.92303731139808
 20
213.4561334454918
 30
0.0
 10
-62.9073922377417
 20
213.5313020137709
 30
0.0
 10
-62.90503548428502
 20
213.5819124766187
 30
0.0
 10
-62.90384615384625
 20
213.6074529351732
 30
0.0
  0
SPLINE
  5
1C4
330
1F
100
AcDbEntity
  8
0
  6
Continuous
 62
     7
370
    25
100
AcDbSpline
210
0.0
220
0.0
230
1.0
 70
     8
 71
     3
 72
    11
 73
     7
 74
     0
 42
0.00000001
 43
0.00000001
 40
0.0
 40
0.0
 40
0.0
 40
0.0
 40
0.2347233736739004
 40
0.4771583189289899
 40
0.728556284203059
 40
1.0
 40
1.0
 40
1.0
 40
1.0
 10
-62.90384615384625
 20
213.6074529351732
 30
0.0
 10
-62.90532046454555
 20
213.6365937848807
 30
0.0
 10
-62.90831752275857
 20
213.6958328740303
 30
0.0
 10
-62.93364900283102
 20
213.7832325269842
 30
0.0
 10
-62.97349824967451
 20
213.8697250970086
 30
0.0
 10
-63.01026089337945
 20
213.9232263625864
 30
0.0
 10
-63.02934695512831
 20
213.9510026146604
 30
0.0
  0
SPLINE
  5
1C5
330
1F
100
AcDbEntity
  8
0
  6
Continuous
 62
     7
370
    25
100
AcDbSpline
210
0.0
220
0.0
230
1.0
 70
     8
 71
     3
 72
    15
 73
    11
 74
     0
 42
0.00000001
 43
0.00000001
 40
0.0
 40
0.0
 40
0.0
 40
0.0
 40
0.0902792146500236
 40
0.1895299184469478
 40
0.2991978724002903
 40
0.4189258867738195
 40
0.5483762854012548
 40
0.6881363695386707
 40
0.8390835016589098
 40
1.0
 40
1.0
 40
1.0
 40
1.0
 10
-63.02934695512831
 20
213.9510026146604
 30
0.0
 10
-63.04501756930891
 20
213.9710494382638
 30
0.0
 10
-63.07791606359883
 20
214.0131352368321
 30
0.0
 10
-63.13447357619183
 20
214.0757804723074
 30
0.0
 10
-63.20083969049727
 20
214.1403988912596
 30
0.0
 10
-63.2747432454089
 20
214.2094579482089
 30
0.0
 10
-63.35887633424952
 20
214.279745744897
 30
0.0
 10
-63.45060384865268
 20
214.3546140228358
 30
0.0
 10
-63.55226770761878
 20
214.4312155998825
 30
0.0
 10
-63.62356720423679
 20
214.4825881654291
 30
0.0
 10
-63.66035657051295
 20
214.5090955633784
 30
0.0
  0
SPLINE
  5
1C6
330
1F
100
AcDbEntity
  8
0
  6
Continuous
 62
     7
370
    25
100
AcDbSpline
210
0.0
220
0.0
230
1.0
 70
     8
 71
     3
 72
    15
 73
    11
 74
     0
 42
0.00000001
 43
0.00000001
 40
0.0
 40
0.0
 40
0.0
 40
0.0
 40
0.1815353013762845
 40
0.3470816724816326
 40
0.4955678164315671
 40
0.6283573018772176
 40
0.7455196699921641
 40
0.8458307507576445
 40
0.930781807384766
 40
1.0
 40
1.0
 40
1.0
 40
1.0
 10
-63.66035657051293
 20
214.5090955633784
 30
0.0
 10
-63.69718056669198
 20
214.5353241509977
 30
0.0
 10
-63.76758524327214
 20
214.5854712132424
 30
0.0
 10
-63.86604382561855
 20
214.6598954972562
 30
0.0
 10
-63.95408828862841
 20
214.727939366798
 30
0.0
 10
-64.03132730515176
 20
214.7902433789006
 30
0.0
 10
-64.0977269019978
 20
214.8468159836304
 30
0.0
 10
-64.15381031301199
 20
214.8971139227726
 30
0.0
 10
-64.1981488701075
 20
214.9424974836409
 30
0.0
 10
-64.22280445076606
 20
214.9719388253861
 30
0.0
 10
-64.23387419871806
 20
214.9851572620963
 30
0.0
  0
SPLINE
  5
1C7
330
1F
100
AcDbEntity
  8
0
  6
Continuous
 62
     7
370
    25
100
AcDbSpline
210
0.0
220
0.0
230
1.0
 70
     8
 71
     3
 72
    15
 73
    11
 74
     0
 42
0.00000001
 43
0.00000001
 40
0.0
 40
0.0
 40
0.0
 40
0.0
 40
0.1335067689985296
 40
0.2625589787303947
 40
0.3882644471488754
 40
0.5126673546814303
 40
0.6337222699657781
 40
0.7553938601370749
 40
0.877552945091268
 40
1.0
 40
1.0
 40
1.0
 40
1.0
 10
-64.23387419871806
 20
214.9851572620963
 30
0.0
 10
-64.2493467439492
 20
215.0057582989505
 30
0.0
 10
-64.27977558066456
 20
215.0462730027202
 30
0.0
 10
-64.31994158612962
 20
215.1095978604879
 30
0.0
 10
-64.35408074892806
 20
215.1744211258972
 30
0.0
 10
-64.38084308106426
 20
215.2409169904617
 30
0.0
 10
-64.40337929990386
 20
215.3081519193424
 30
0.0
 10
-64.41853723062158
 20
215.3770031650418
 30
0.0
 10
-64.42802862753743
 20
215.4471617835065
 30
0.0
 10
-64.4290006140705
 20
215.4943752841289
 30
0.0
 10
-64.42948717948728
 20
215.5180098261989
 30
0.0
  0
SPLINE
  5
1C8
330
1F
100
AcDbEntity
  8
0
  6
Continuous
 62
     7
370
    25
100
AcDbSpline
210
0.0
220
0.0
230
1.0
 70
     8
 71
     3
 72
    19
 73
    15
 74
     0
 42
0.00000001
 43
0.00000001
 40
0.0
 40
0.0
 40
0.0
 40
0.0
 40
0.0837853706537061
 40
0.165779887922134
 40
0.2462800078932542
 40
0.3274609277363995
 40
0.4087969540320655
 40
0.4897152412309844
 40
0.571376032130054
 40
0.6555233211112822
 40
0.7410194827999719
 40
0.8265467605037705
 40
0.9119888516548383
 40
1.0
 40
1.0
 40
1.0
 40
1.0
 10
-64.42948717948728
 20
215.5180098261989
 30
0.0
 10
-64.42818197049392
 20
215.5550396007636
 30
0.0
 10
-64.42559945043165
 20
215.6283076644986
 30
0.0
 10
-64.40375893316127
 20
215.7353384949407
 30
0.0
 10
-64.36928603950675
 20
215.8375249121582
 30
0.0
 10
-64.32099115164522
 20
215.9338552458831
 30
0.0
 10
-64.25873379872694
 20
216.0218212267711
 30
0.0
 10
-64.18668782436175
 20
216.1024347137532
 30
0.0
 10
-64.10087633812427
 20
216.1702032959741
 30
0.0
 10
-64.00672371486087
 20
216.2294153543633
 30
0.0
 10
-63.90366734277816
 20
216.2757612795704
 30
0.0
 10
-63.79567643938056
 20
216.3107222597309
 30
0.0
 10
-63.68257936735537
 20
216.3305315174219
 30
0.0
 10
-63.60597623273195
 20
216.3333742823345
 30
0.0
 10
-63.56710737179498
 20
216.3348167172245
 30
0.0
  0
SPLINE
  5
1C9
330
1F
100
AcDbEntity
  8
0
  6
Continuous
 62
     7
370
    25
100
AcDbSpline
210
0.0
220
0.0
230
1.0
 70
     8
 71
     3
 72
    19
 73
    15
 74
     0
 42
0.00000001
 43
0.00000001
 40
0.0
 40
0.0
 40
0.0
 40
0.0
 40
0.1072327993600907
 40
0.2132518127818525
 40
0.3188304473075878
 40
0.4267935306342844
 40
0.4836459507827198
 40
0.5436038220211341
 40
0.6083076495640793
 40
0.6771267602600322
 40
0.7506856360204895
 40
0.8287134184432825
 40
0.9121903482234471
 40
1.0
 40
1.0
 40
1.0
 40
1.0
 10
-63.56710737179498
 20
216.3348167172245
 30
0.0
 10
-63.52586327149695
 20
216.3333941656253
 30
0.0
 10
-63.44384191975018
 20
216.3305651645258
 30
0.0
 10
-63.32319270418059
 20
216.3059676332059
 30
0.0
 10
-63.20703198778003
 20
216.2652669614181
 30
0.0
 10
-63.11358872296051
 20
216.2190783034404
 30
0.0
 10
-63.04045596149872
 20
216.1729468877272
 30
0.0
 10
-62.98468322880976
 20
216.1309270634483
 30
0.0
 10
-62.92816577802321
 20
216.0825519548442
 30
0.0
 10
-62.87044772319443
 20
216.0276927087633
 30
0.0
 10
-62.81250706375528
 20
215.9658459576737
 30
0.0
 10
-62.75348361151113
 20
215.8974352687645
 30
0.0
 10
-62.69323934270044
 20
215.8228787129
 30
0.0
 10
-62.65448348257652
 20
215.7696542121456
 30
0.0
 10
-62.63461538461549
 20
215.7423688005578
 30
0.0
  0
LINE
  5
1CA
330
1F
100
AcDbEntity
  8
0
  6
Continuous
 62
     7
370
    25
100
AcDbLine
 10
-62.6346153846
 20
215.7423688006
 30
0.0
 11
-62.9185697115
 21
215.5271244095
 31
0.0
  0
SPLINE
  5
1CB
330
1F
100
AcDbEntity
  8
0
  6
Continuous
 62
     7
370
    25
100
AcDbSpline
210
0.0
220
0.0
230
1.0
 70
     8
 71
     3
 72
    19
 73
    15
 74
     0
 42
0.00000001
 43
0.00000001
 40
0.0
 40
0.0
 40
0.0
 40
0.0
 40
0.0984694310255737
 40
0.189629101137631
 40
0.274184089437979
 40
0.352183160967174
 40
0.4231988731834799
 40
0.4885509460005353
 40
0.5484733460279418
 40
0.601440163617874
 40
0.7011980824257665
 40
0.7995918021381966
 40
0.898545098482226
 40
1.0
 40
1.0
 40
1.0
 40
1.0
 10
-62.91856971153856
 20
215.5271244095322
 30
0.0
 10
-62.93571564401088
 20
215.5492130999548
 30
0.0
 10
-62.96873470108302
 20
215.5917507531791
 30
0.0
 10
-63.0188641879435
 20
215.6513220687852
 30
0.0
 10
-63.06611283586383
 20
215.7057385483173
 30
0.0
 10
-63.112663235648
 20
215.7530036763472
 30
0.0
 10
-63.15605686711394
 20
215.7957058096852
 30
0.0
 10
-63.19817390936089
 20
215.8322655665095
 30
0.0
 10
-63.23840826059828
 20
215.8630411619397
 30
0.0
 10
-63.28912517124434
 20
215.8958847218989
 30
0.0
 10
-63.35284288956753
 20
215.9284412254536
 30
0.0
 10
-63.43282742580686
 20
215.9559903035314
 30
0.0
 10
-63.5164137008418
 20
215.9725453654501
 30
0.0
 10
-63.57334333233248
 20
215.9747342530179
 30
0.0
 10
-63.60216346153856
 20
215.9758423582502
 30
0.0
  0
SPLINE
  5
1CC
330
1F
100
AcDbEntity
  8
0
  6
Continuous
 62
     7
370
    25
100
AcDbSpline
210
0.0
220
0.0
230
1.0
 70
     8
 71
     3
 72
    15
 73
    11
 74
     0
 42
0.00000001
 43
0.00000001
 40
0.0
 40
0.0
 40
0.0
 40
0.0
 40
0.1430730837303727
 40
0.2759029640930123
 40
0.4023708562740079
 40
0.5284136450935811
 40
0.6503563791869501
 40
0.7658950861246969
 40
0.8807741308440229
 40
1.0
 40
1.0
 40
1.0
 40
1.0
 10
-63.60216346153856
 20
215.9758423582502
 30
0.0
 10
-63.63831998394402
 20
215.9746306582983
 30
0.0
 10
-63.70804443135837
 20
215.9722940090866
 30
0.0
 10
-63.80703466746597
 20
215.946774023795
 30
0.0
 10
-63.89612859252914
 20
215.906592163489
 30
0.0
 10
-63.97268115758541
 20
215.8502771853934
 30
0.0
 10
-64.03641813462843
 20
215.7835561927082
 30
0.0
 10
-64.08252359339332
 20
215.7067773376333
 30
0.0
 10
-64.1102737579454
 20
215.6219949350289
 30
0.0
 10
-64.11366003759643
 20
215.5628532786971
 30
0.0
 10
-64.11538461538471
 20
215.5327333838912
 30
0.0
  0
SPLINE
  5
1CD
330
1F
100
AcDbEntity
  8
0
  6
Continuous
 62
     7
370
    25
100
AcDbSpline
210
0.0
220
0.0
230
1.0
 70
     8
 71
     3
 72
    15
 73
    11
 74
     0
 42
0.00000001
 43
0.00000001
 40
0.0
 40
0.0
 40
0.0
 40
0.0
 40
0.107285214268923
 40
0.2147458609696261
 40
0.3229385595552905
 40
0.434116162517446
 40
0.5534123109627841
 40
0.6860729848106942
 40
0.8342559920595601
 40
1.0
 40
1.0
 40
1.0
 40
1.0
 10
-64.11538461538471
 20
215.5327333838912
 30
0.0
 10
-64.1149914887498
 20
215.5139819053507
 30
0.0
 10
-64.11420459264058
 20
215.4764482859133
 30
0.0
 10
-64.10322979495423
 20
215.4209968639595
 30
0.0
 10
-64.08913046599638
 20
215.3656855245407
 30
0.0
 10
-64.06678783424294
 20
215.3107629417066
 30
0.0
 10
-64.03594253062721
 20
215.2552685826543
 30
0.0
 10
-63.99543735472081
 20
215.1982468450958
 30
0.0
 10
-63.94442404267085
 20
215.1391951364237
 30
0.0
 10
-63.90534703031941
 20
215.1007877626488
 30
0.0
 10
-63.8847155448719
 20
215.0805098261989
 30
0.0
  0
SPLINE
  5
1CE
330
1F
100
AcDbEntity
  8
0
  6
Continuous
 62
     7
370
    25
100
AcDbSpline
210
0.0
220
0.0
230
1.0
 70
     8
 71
     3
 72
    15
 73
    11
 74
     0
 42
0.00000001
 43
0.00000001
 40
0.0
 40
0.0
 40
0.0
 40
0.0
 40
0.0525942815291222
 40
0.1249519739750231
 40
0.2180938989285998
 40
0.333502410732512
 40
0.4687891785044501
 40
0.6249375859645957
 40
0.8016830479282432
 40
1.0
 40
1.0
 40
1.0
 40
1.0
 10
-63.8847155448719
 20
215.0805098261989
 30
0.0
 10
-63.87705417246421
 20
215.073672800383
 30
0.0
 10
-63.85885250532728
 20
215.0574295920538
 30
0.0
 10
-63.82557657958763
 20
215.0308373114101
 30
0.0
 10
-63.78163378135769
 20
214.9980345391147
 30
0.0
 10
-63.72817158018082
 20
214.95744722264
 30
0.0
 10
-63.66420421845383
 20
214.9103657605228
 30
0.0
 10
-63.58972466230915
 20
214.8573921483589
 30
0.0
 10
-63.50556312947427
 20
214.7968066893521
 30
0.0
 10
-63.44584121357466
 20
214.7544491487421
 30
0.0
 10
-63.41426282051292
 20
214.7320522941476
 30
0.0
  0
SPLINE
  5
1CF
330
1F
100
AcDbEntity
  8
0
  6
Continuous
 62
     7
370
    25
100
AcDbSpline
210
0.0
220
0.0
230
1.0
 70
     8
 71
     3
 72
    19
 73
    15
 74
     0
 42
0.00000001
 43
0.00000001
 40
0.0
 40
0.0
 40
0.0
 40
0.0
 40
0.0969723103815126
 40
0.187773438962871
 40
0.2723961390136968
 40
0.3513209973752878
 40
0.4243347744514703
 40
0.4919087840005362
 40
0.5542332197967964
 40
0.6112676582441544
 40
0.7163478449915419
 40
0.8145400858216161
 40
0.9084954561491752
 40
1.0
 40
1.0
 40
1.0
 40
1.0
 10
-63.41426282051292
 20
214.7320522941476
 30
0.0
 10
-63.37627690720551
 20
214.7044109345979
 30
0.0
 10
-63.30272245082702
 20
214.6508872728449
 30
0.0
 10
-63.19806487091549
 20
214.5704715928175
 30
0.0
 10
-63.10317106282065
 20
214.4918238242432
 30
0.0
 10
-63.01770785925047
 20
214.4154462171471
 30
0.0
 10
-62.94083095081071
 20
214.3419181241435
 30
0.0
 10
-62.87339323013594
 20
214.2703549438133
 30
0.0
 10
-62.81470754978873
 20
214.2012693711311
 30
0.0
 10
-62.75152833132861
 20
214.1126967954399
 30
0.0
 10
-62.68697051180812
 20
214.0039157111655
 30
0.0
 10
-62.63152900438196
 20
213.8706374726202
 30
0.0
 10
-62.59657065692745
 20
213.7368411521233
 30
0.0
 10
-62.59199914149546
 20
213.6469143156483
 30
0.0
 10
-62.58974358974369
 20
213.6025450826091
 30
0.0
  0
SPLINE
  5
1D0
330
1F
100
AcDbEntity
  8
0
  6
Continuous
 62
     7
370
    25
100
AcDbSpline
210
0.0
220
0.0
230
1.0
 70
     8
 71
     3
 72
    23
 73
    19
 74
     0
 42
0.00000001
 43
0.00000001
 40
0.0
 40
0.0
 40
0.0
 40
0.0
 40
0.0614842551968904
 40
0.1217745277022117
 40
0.1809195598139333
 40
0.2402561150782752
 40
0.3001144444023418
 40
0.3611459476126039
 40
0.4235005824125794
 40
0.4886693612807192
 40
0.5539541046535617
 40
0.6175812610152572
 40
0.6802384268167411
 40
0.7421873887724534
 40
0.8046632117692974
 40
0.8682589893126659
 40
0.9330202571803776
 40
1.0
 40
1.0
 40
1.0
 40
1.0
 10
-62.58974358974369
 20
213.6025450826091
 30
0.0
 10
-62.59040072786763
 20
213.5711667175135
 30
0.0
 10
-62.59170224293721
 20
213.5090193339704
 30
0.0
 10
-62.60666315671584
 20
213.4177642570884
 30
0.0
 10
-62.62858282187839
 20
213.3291333874043
 30
0.0
 10
-62.66162005582898
 20
213.2442222749594
 30
0.0
 10
-62.70194321408887
 20
213.1614775122759
 30
0.0
 10
-62.75310946195488
 20
213.0830696118651
 30
0.0
 10
-62.81241714669258
 20
213.0072632132781
 30
0.0
 10
-62.88045091159697
 20
212.9360797219229
 30
0.0
 10
-62.95489681391345
 20
212.8707335259375
 30
0.0
 10
-63.03358050857624
 20
212.812604464465
 30
0.0
 10
-63.11663078151038
 20
212.7641361410697
 30
0.0
 10
-63.20359709819366
 20
212.7245852990198
 30
0.0
 10
-63.29449943490069
 20
212.6936517814935
 30
0.0
 10
-63.3893072187352
 20
212.6712389123626
 30
0.0
 10
-63.48817672995474
 20
212.6574832014491
 30
0.0
 10
-63.55537721152722
 20
212.6560554399845
 30
0.0
 10
-63.58954326923087
 20
212.6553295377373
 30
0.0
  0
LINE
  5
1D1
330
1F
100
AcDbEntity
  8
0
  6
Continuous
 62
     7
370
    25
100
AcDbLine
 10
-58.5064102564
 20
216.2450731275
 30
0.0
 11
-58.4615384615
 21
216.2450731275
 31
0.0
  0
LINE
  5
1D2
330
1F
100
AcDbEntity
  8
0
  6
Continuous
 62
     7
370
    25
100
AcDbLine
 10
-58.4615384615
 20
216.2450731275
 30
0.0
 11
-56.8461538462
 21
212.7450731275
 31
0.0
  0
LINE
  5
1D3
330
1F
100
AcDbEntity
  8
0
  6
Continuous
 62
     7
370
    25
100
AcDbLine
 10
-56.8461538462
 20
212.7450731275
 30
0.0
 11
-57.1876001603
 21
212.7450731275
 31
0.0
  0
LINE
  5
1D4
330
1F
100
AcDbEntity
  8
0
  6
Continuous
 62
     7
370
    25
100
AcDbLine
 10
-57.1876001603
 20
212.7450731275
 30
0.0
 11
-57.7050280449
 21
213.8668679993
 31
0.0
  0
LINE
  5
1D5
330
1F
100
AcDbEntity
  8
0
  6
Continuous
 62
     7
370
    25
100
AcDbLine
 10
-57.7050280449
 20
213.8668679993
 30
0.0
 11
-59.2916666667
 21
213.8668679993
 31
0.0
  0
LINE
  5
1D6
330
1F
100
AcDbEntity
  8
0
  6
Continuous
 62
     7
370
    25
100
AcDbLine
 10
-59.2916666667
 20
213.8668679993
 30
0.0
 11
-59.823818109
 21
212.7450731275
 31
0.0
  0
LINE
  5
1D7
330
1F
100
AcDbEntity
  8
0
  6
Continuous
 62
     7
370
    25
100
AcDbLine
 10
-59.823818109
 20
212.7450731275
 30
0.0
 11
-60.1666666667
 21
212.7450731275
 31
0.0
  0
LINE
  5
1D8
330
1F
100
AcDbEntity
  8
0
  6
Continuous
 62
     7
370
    25
100
AcDbLine
 10
-60.1666666667
 20
212.7450731275
 30
0.0
 11
-58.5064102564
 21
216.2450731275
 31
0.0
  0
LINE
  5
1D9
330
1F
100
AcDbEntity
  8
0
  6
Continuous
 62
     7
370
    25
100
AcDbLine
 10
-52.8974358974
 20
215.8860987685
 30
0.0
 11
-53.6602564103
 21
215.8860987685
 31
0.0
  0
LINE
  5
1DA
330
1F
100
AcDbEntity
  8
0
  6
Continuous
 62
     7
370
    25
100
AcDbLine
 10
-53.6602564103
 20
215.8860987685
 30
0.0
 11
-53.6602564103
 21
216.2450731275
 31
0.0
  0
LINE
  5
1DB
330
1F
100
AcDbEntity
  8
0
  6
Continuous
 62
     7
370
    25
100
AcDbLine
 10
-53.6602564103
 20
216.2450731275
 30
0.0
 11
-51.8205128205
 21
216.2450731275
 31
0.0
  0
LINE
  5
1DC
330
1F
100
AcDbEntity
  8
0
  6
Continuous
 62
     7
370
    25
100
AcDbLine
 10
-51.8205128205
 20
216.2450731275
 30
0.0
 11
-51.8205128205
 21
215.8860987685
 31
0.0
  0
LINE
  5
1DD
330
1F
100
AcDbEntity
  8
0
  6
Continuous
 62
     7
370
    25
100
AcDbLine
 10
-51.8205128205
 20
215.8860987685
 30
0.0
 11
-52.5833333333
 21
215.8860987685
 31
0.0
  0
LINE
  5
1DE
330
1F
100
AcDbEntity
  8
0
  6
Continuous
 62
     7
370
    25
100
AcDbLine
 10
-52.5833333333
 20
215.8860987685
 30
0.0
 11
-52.5833333333
 21
212.7450731275
 31
0.0
  0
LINE
  5
1DF
330
1F
100
AcDbEntity
  8
0
  6
Continuous
 62
     7
370
    25
100
AcDbLine
 10
-52.5833333333
 20
212.7450731275
 30
0.0
 11
-52.8974358974
 21
212.7450731275
 31
0.0
  0
LINE
  5
1E0
330
1F
100
AcDbEntity
  8
0
  6
Continuous
 62
     7
370
    25
100
AcDbLine
 10
-52.8974358974
 20
212.7450731275
 30
0.0
 11
-52.8974358974
 21
215.8860987685
 31
0.0
  0
CIRCLE
  5
1E1
330
1F
100
AcDbEntity
  8
0
  6
Continuous
 62
     7
370
    25
100
AcDbCircle
 10
-40.1185897436
 20
189.4310915352
 30
0.0
 40
1.75
  0
ARC
  5
1E2
330
1F
100
AcDbEntity
  8
0
  6
Continuous
 62
     7
370
    25
100
AcDbCircle
 10
-57.6185897436
 20
189.4310915352
 30
0.0
 40
2.857205352115482
100
AcDbArc
 50
192.191368251
 51
195.1890173885
  0
LINE
  5
1E3
330
1F
100
AcDbEntity
  8
0
  6
Continuous
 62
     7
370
    25
100
AcDbLine
 10
-76.0476277809
 20
184.427825813
 30
0.0
 11
-60.3759835808
 21
188.6824917418
 31
0.0
  0
LINE
  5
1E4
330
1F
100
AcDbEntity
  8
0
  6
Continuous
 62
     7
370
    25
100
AcDbLine
 10
-76.3096319777
 20
185.3928925469
 30
0.0
 11
-76.0476277809
 21
184.427825813
 31
0.0
  0
LINE
  5
1E5
330
1F
100
AcDbEntity
  8
0
  6
Continuous
 62
     7
370
    25
100
AcDbLine
 10
-76.3096319777
 20
185.3928925469
 30
0.0
 11
-60.4113586
 21
188.8277139264
 31
0.0
  0
ARC
  5
1E6
330
1F
100
AcDbEntity
  8
0
  6
Continuous
 62
     7
370
    25
100
AcDbCircle
 10
-57.6185897436
 20
189.4310915352
 30
0.0
 40
2.857205352115475
100
AcDbArc
 50
292.188287203
 51
295.1890173885
  0
LINE
  5
1E7
330
1F
100
AcDbEntity
  8
0
  6
Continuous
 62
     7
370
    25
100
AcDbLine
 10
-49.4911659986
 20
172.1508399706
 30
0.0
 11
-56.4025464482
 21
186.8455816962
 31
0.0
  0
LINE
  5
1E8
330
1F
100
AcDbEntity
  8
0
  6
Continuous
 62
     7
370
    25
100
AcDbLine
 10
-50.4069081817
 20
171.7490735532
 30
0.0
 11
-49.4911659986
 21
172.1508399706
 31
0.0
  0
LINE
  5
1E9
330
1F
100
AcDbEntity
  8
0
  6
Continuous
 62
     7
370
    25
100
AcDbLine
 10
-56.5395618391
 20
186.7854685074
 30
0.0
 11
-50.4069081817
 21
171.7490735532
 31
0.0
  0
MTEXT
  5
1EB
330
1F
100
AcDbEntity
  8
0
  6
Continuous
 62
     7
100
AcDbMText
 10
-85.7435897436
 20
-1.0195663917
 30
0.0
 40
4.83362
 41
0.0
 71
     1
 72
     1
  1
SOLIDWORKS Educational Product.
  7
SLDTEXTSTYLE0
 73
     1
 44
1.0
  0
MTEXT
  5
1EC
330
1F
100
AcDbEntity
  8
0
  6
Continuous
 62
     7
100
AcDbMText
 10
-85.7435897436
 20
-8.2699963917
 30
0.0
 40
4.83362
 41
0.0
 71
     1
 72
     1
  1
For Instructional Use Only.
  7
SLDTEXTSTYLE0
 73
     1
 44
1.0
  0
ENDSEC
  0
SECTION
  2
OBJECTS
  0
DICTIONARY
  5
C
330
0
100
AcDbDictionary
281
     1
  3
ACAD_GROUP
350
D
  3
ACAD_LAYOUT
350
1A
  3
ACAD_MLINESTYLE
350
17
  3
ACAD_PLOTSETTINGS
350
19
  3
ACAD_PLOTSTYLENAME
350
E
  3
ACAD_SCALELIST
350
47
  3
DWGPROPS
350
1ED
  0
DICTIONARY
  5
D
102
{ACAD_REACTORS
330
C
102
}
330
C
100
AcDbDictionary
281
     1
  0
DICTIONARY
  5
1A
102
{ACAD_REACTORS
330
C
102
}
330
C
100
AcDbDictionary
281
     1
  3
Layout1
350
1E
  3
Layout2
350
26
  3
Model
350
22
  0
DICTIONARY
  5
17
102
{ACAD_REACTORS
330
C
102
}
330
C
100
AcDbDictionary
281
     1
  3
Standard
350
18
  0
DICTIONARY
  5
19
102
{ACAD_REACTORS
330
C
102
}
330
C
100
AcDbDictionary
281
     1
  0
ACDBDICTIONARYWDFLT
  5
E
102
{ACAD_REACTORS
330
C
102
}
330
C
100
AcDbDictionary
281
     1
  3
Normal
350
F
100
AcDbDictionaryWithDefault
340
F
  0
DICTIONARY
  5
47
102
{ACAD_REACTORS
330
C
102
}
330
C
100
AcDbDictionary
281
     1
  3
A0
350
48
  3
A1
350
49
  3
A2
350
4A
  3
A3
350
4B
  3
A4
350
4C
  3
A5
350
4D
  3
A6
350
4E
  3
A7
350
4F
  3
A8
350
50
  3
A9
350
51
  3
B0
350
52
  3
B1
350
53
  3
B2
350
54
  3
B3
350
55
  3
B4
350
56
  3
B5
350
57
  3
B6
350
58
  3
B7
350
59
  3
B8
350
5A
  3
B9
350
5B
  3
C0
350
5C
  3
C1
350
5D
  3
C2
350
5E
  3
C3
350
5F
  3
C4
350
60
  3
C5
350
61
  3
C6
350
62
  3
C7
350
63
  3
C8
350
64
  3
C9
350
65
  3
D0
350
66
  3
D1
350
67
  3
D2
350
68
  0
XRECORD
  5
1ED
102
{ACAD_REACTORS
330
C
102
}
330
C
100
AcDbXrecord
280
     1
  1
DWGPROPS COOKIE
  2

  3

  4

  6

  7

  8
tigra
  9

300
=
301
=
302
=
303
=
304
=
305
=
306
=
307
=
308
=
309
=
 40
0.0
 41
2459205.300212732
 42
2459205.300238854
  1

 90
        0
  0
LAYOUT
  5
1E
102
{ACAD_REACTORS
330
1A
102
}
330
1A
100
AcDbPlotSettings
  1

  2
none_device
  4

  6

 40
0.0
 41
0.0
 42
0.0
 43
0.0
 44
0.0
 45
0.0
 46
0.0
 47
0.0
 48
0.0
 49
0.0
140
0.0
141
0.0
142
1.0
143
1.0
 70
   688
 72
     1
 73
     0
 74
     5
  7

 75
    16
147
1.0
148
0.0
149
0.0
100
AcDbLayout
  1
Layout1
 70
     1
 71
     1
 10
0.0
 20
0.0
 11
420.0
 21
297.0
 12
0.0
 22
0.0
 32
0.0
 14
1.0000000000E+20
 24
1.0000000000E+20
 34
1.0000000000E+20
 15
-1.0000000000E+20
 25
-1.0000000000E+20
 35
-1.0000000000E+20
146
0.0
 13
0.0
 23
0.0
 33
0.0
 16
1.0
 26
0.0
 36
0.0
 17
0.0
 27
1.0
 37
0.0
 76
     0
330
1B
  0
LAYOUT
  5
26
102
{ACAD_REACTORS
330
1A
102
}
330
1A
100
AcDbPlotSettings
  1

  2
none_device
  4

  6

 40
0.0
 41
0.0
 42
0.0
 43
0.0
 44
0.0
 45
0.0
 46
0.0
 47
0.0
 48
0.0
 49
0.0
140
0.0
141
0.0
142
1.0
143
1.0
 70
   688
 72
     1
 73
     0
 74
     5
  7

 75
    16
147
1.0
148
0.0
149
0.0
100
AcDbLayout
  1
Layout2
 70
     1
 71
     2
 10
0.0
 20
0.0
 11
0.0
 21
0.0
 12
0.0
 22
0.0
 32
0.0
 14
0.0
 24
0.0
 34
0.0
 15
0.0
 25
0.0
 35
0.0
146
0.0
 13
0.0
 23
0.0
 33
0.0
 16
1.0
 26
0.0
 36
0.0
 17
0.0
 27
1.0
 37
0.0
 76
     0
330
23
  0
LAYOUT
  5
22
102
{ACAD_REACTORS
330
1A
102
}
330
1A
100
AcDbPlotSettings
  1

  2
none_device
  4
ANSI_A_(11.00_x_8.50_Inches)
  6

 40
6.35
 41
19.05
 42
6.35000508
 43
19.05000254
 44
279.4
 45
215.9
 46
176.9619148289
 47
-17.97050127
 48
0.0
 49
0.0
140
0.0
141
0.0
142
0.0297349823
143
1.0
 70
  1696
 72
     0
 73
     0
 74
     0
  7

 75
     0
147
0.0179189148
148
-1300.4909072572
149
0.0
100
AcDbLayout
  1
Model
 70
     1
 71
     0
 10
0.0
 20
0.0
 11
420.0
 21
297.0
 12
0.0
 22
0.0
 32
0.0
 14
-85.7435897436
 24
0.0
 34
0.0
 15
-29.7435897436
 25
283.0
 35
0.0
146
0.0
 13
0.0
 23
0.0
 33
0.0
 16
1.0
 26
0.0
 36
0.0
 17
0.0
 27
1.0
 37
0.0
 76
     0
330
1F
331
29
  0
MLINESTYLE
  5
18
102
{ACAD_REACTORS
330
17
102
}
330
17
100
AcDbMlineStyle
  2
Standard
 70
     0
  3

 62
   256
 51
90.0
 52
90.0
 71
     2
 49
0.5
 62
   256
  6
BYLAYER
 49
-0.5
 62
   256
  6
BYLAYER
  0
ACDBPLACEHOLDER
  5
F
102
{ACAD_REACTORS
330
E
102
}
330
E
  0
SCALE
  5
48
102
{ACAD_REACTORS
330
47
102
}
330
47
100
AcDbScale
 70
     0
300
1:1
140
1.0
141
1.0
290
     1
  0
SCALE
  5
49
102
{ACAD_REACTORS
330
47
102
}
330
47
100
AcDbScale
 70
     0
300
1:2
140
1.0
141
2.0
290
     0
  0
SCALE
  5
4A
102
{ACAD_REACTORS
330
47
102
}
330
47
100
AcDbScale
 70
     0
300
1:4
140
1.0
141
4.0
290
     0
  0
SCALE
  5
4B
102
{ACAD_REACTORS
330
47
102
}
330
47
100
AcDbScale
 70
     0
300
1:5
140
1.0
141
5.0
290
     0
  0
SCALE
  5
4C
102
{ACAD_REACTORS
330
47
102
}
330
47
100
AcDbScale
 70
     0
300
1:8
140
1.0
141
8.0
290
     0
  0
SCALE
  5
4D
102
{ACAD_REACTORS
330
47
102
}
330
47
100
AcDbScale
 70
     0
300
1:10
140
1.0
141
10.0
290
     0
  0
SCALE
  5
4E
102
{ACAD_REACTORS
330
47
102
}
330
47
100
AcDbScale
 70
     0
300
1:16
140
1.0
141
16.0
290
     0
  0
SCALE
  5
4F
102
{ACAD_REACTORS
330
47
102
}
330
47
100
AcDbScale
 70
     0
300
1:20
140
1.0
141
20.0
290
     0
  0
SCALE
  5
50
102
{ACAD_REACTORS
330
47
102
}
330
47
100
AcDbScale
 70
     0
300
1:30
140
1.0
141
30.0
290
     0
  0
SCALE
  5
51
102
{ACAD_REACTORS
330
47
102
}
330
47
100
AcDbScale
 70
     0
300
1:40
140
1.0
141
40.0
290
     0
  0
SCALE
  5
52
102
{ACAD_REACTORS
330
47
102
}
330
47
100
AcDbScale
 70
     0
300
1:50
140
1.0
141
50.0
290
     0
  0
SCALE
  5
53
102
{ACAD_REACTORS
330
47
102
}
330
47
100
AcDbScale
 70
     0
300
1:100
140
1.0
141
100.0
290
     0
  0
SCALE
  5
54
102
{ACAD_REACTORS
330
47
102
}
330
47
100
AcDbScale
 70
     0
300
2:1
140
2.0
141
1.0
290
     0
  0
SCALE
  5
55
102
{ACAD_REACTORS
330
47
102
}
330
47
100
AcDbScale
 70
     0
300
4:1
140
4.0
141
1.0
290
     0
  0
SCALE
  5
56
102
{ACAD_REACTORS
330
47
102
}
330
47
100
AcDbScale
 70
     0
300
8:1
140
8.0
141
1.0
290
     0
  0
SCALE
  5
57
102
{ACAD_REACTORS
330
47
102
}
330
47
100
AcDbScale
 70
     0
300
10:1
140
10.0
141
1.0
290
     0
  0
SCALE
  5
58
102
{ACAD_REACTORS
330
47
102
}
330
47
100
AcDbScale
 70
     0
300
100:1
140
100.0
141
1.0
290
     0
  0
SCALE
  5
59
102
{ACAD_REACTORS
330
47
102
}
330
47
100
AcDbScale
 70
     0
300
1/128" = 1'-0"
140
0.0078125
141
12.0
290
     0
  0
SCALE
  5
5A
102
{ACAD_REACTORS
330
47
102
}
330
47
100
AcDbScale
 70
     0
300
1/64" = 1'-0"
140
0.015625
141
12.0
290
     0
  0
SCALE
  5
5B
102
{ACAD_REACTORS
330
47
102
}
330
47
100
AcDbScale
 70
     0
300
1/32" = 1'-0"
140
0.03125
141
12.0
290
     0
  0
SCALE
  5
5C
102
{ACAD_REACTORS
330
47
102
}
330
47
100
AcDbScale
 70
     0
300
1/16" = 1'-0"
140
0.0625
141
12.0
290
     0
  0
SCALE
  5
5D
102
{ACAD_REACTORS
330
47
102
}
330
47
100
AcDbScale
 70
     0
300
3/32" = 1'-0"
140
0.09375
141
12.0
290
     0
  0
SCALE
  5
5E
102
{ACAD_REACTORS
330
47
102
}
330
47
100
AcDbScale
 70
     0
300
1/8" = 1'-0"
140
0.125
141
12.0
290
     0
  0
SCALE
  5
5F
102
{ACAD_REACTORS
330
47
102
}
330
47
100
AcDbScale
 70
     0
300
3/16" = 1'-0"
140
0.1875
141
12.0
290
     0
  0
SCALE
  5
60
102
{ACAD_REACTORS
330
47
102
}
330
47
100
AcDbScale
 70
     0
300
1/4" = 1'-0"
140
0.25
141
12.0
290
     0
  0
SCALE
  5
61
102
{ACAD_REACTORS
330
47
102
}
330
47
100
AcDbScale
 70
     0
300
3/8" = 1'-0"
140
0.375
141
12.0
290
     0
  0
SCALE
  5
62
102
{ACAD_REACTORS
330
47
102
}
330
47
100
AcDbScale
 70
     0
300
1/2" = 1'-0"
140
0.5
141
12.0
290
     0
  0
SCALE
  5
63
102
{ACAD_REACTORS
330
47
102
}
330
47
100
AcDbScale
 70
     0
300
3/4" = 1'-0"
140
0.75
141
12.0
290
     0
  0
SCALE
  5
64
102
{ACAD_REACTORS
330
47
102
}
330
47
100
AcDbScale
 70
     0
300
1" = 1'-0"
140
1.0
141
12.0
290
     0
  0
SCALE
  5
65
102
{ACAD_REACTORS
330
47
102
}
330
47
100
AcDbScale
 70
     0
300
1-1/2" = 1'-0"
140
1.5
141
12.0
290
     0
  0
SCALE
  5
66
102
{ACAD_REACTORS
330
47
102
}
330
47
100
AcDbScale
 70
     0
300
3" = 1'-0"
140
3.0
141
12.0
290
     0
  0
SCALE
  5
67
102
{ACAD_REACTORS
330
47
102
}
330
47
100
AcDbScale
 70
     0
300
6" = 1'-0"
140
6.0
141
12.0
290
     0
  0
SCALE
  5
68
102
{ACAD_REACTORS
330
47
102
}
330
47
100
AcDbScale
 70
     0
300
1'-0" = 1'-0"
140
12.0
141
12.0
290
     0
  0
ENDSEC
  0
EOF
