  0
SECTION
  2
HEADER
  9
$ACADVER
  1
AC1015
  9
$ACADMAINTVER
 70
     6
  9
$DWGCODEPAGE
  3
ANSI_1252
  9
$INSBASE
 10
0.0
 20
0.0
 30
0.0
  9
$EXTMIN
 10
-79.7435897436
 20
0.0
 30
0.0
  9
$EXTMAX
 10
-29.7435897436
 20
280.0
 30
0.0
  9
$LIMMIN
 10
0.0
 20
0.0
  9
$LIMMAX
 10
420.0
 20
297.0
  9
$ORTHOMODE
 70
     0
  9
$REGENMODE
 70
     1
  9
$FILLMODE
 70
     1
  9
$QTEXTMODE
 70
     0
  9
$MIRRTEXT
 70
     1
  9
$LTSCALE
 40
1.0
  9
$ATTMODE
 70
     1
  9
$TEXTSIZE
 40
3.5
  9
$TRACEWID
 40
1.0
  9
$TEXTSTYLE
  7
Standard
  9
$CLAYER
  8
0
  9
$CELTYPE
  6
ByLayer
  9
$CECOLOR
 62
   256
  9
$CELTSCALE
 40
1.0
  9
$DISPSILH
 70
     0
  9
$DIMSCALE
 40
1.0
  9
$DIMASZ
 40
3.302
  9
$DIMEXO
 40
0.0
  9
$DIMDLI
 40
3.75
  9
$DIMRND
 40
0.0
  9
$DIMDLE
 40
0.0
  9
$DIMEXE
 40
1.0
  9
$DIMTP
 40
0.0
  9
$DIMTM
 40
0.0
  9
$DIMTXT
 40
3.5
  9
$DIMCEN
 40
2.5
  9
$DIMTSZ
 40
0.0
  9
$DIMTOL
 70
     0
  9
$DIMLIM
 70
     0
  9
$DIMTIH
 70
     1
  9
$DIMTOH
 70
     1
  9
$DIMSE1
 70
     0
  9
$DIMSE2
 70
     0
  9
$DIMTAD
 70
     1
  9
$DIMZIN
 70
     1
  9
$DIMBLK
  1

  9
$DIMASO
 70
     1
  9
$DIMSHO
 70
     1
  9
$DIMPOST
  1

  9
$DIMAPOST
  1

  9
$DIMALT
 70
     0
  9
$DIMALTD
 70
     3
  9
$DIMALTF
 40
0.0393700787
  9
$DIMLFAC
 40
1.0
  9
$DIMTOFL
 70
     1
  9
$DIMTVP
 40
0.0
  9
$DIMTIX
 70
     0
  9
$DIMSOXD
 70
     0
  9
$DIMSAH
 70
     0
  9
$DIMBLK1
  1

  9
$DIMBLK2
  1

  9
$DIMSTYLE
  2
ISO-25
  9
$DIMCLRD
 70
     0
  9
$DIMCLRE
 70
     0
  9
$DIMCLRT
 70
     0
  9
$DIMTFAC
 40
1.0
  9
$DIMGAP
 40
1.524
  9
$DIMJUST
 70
     0
  9
$DIMSD1
 70
     0
  9
$DIMSD2
 70
     0
  9
$DIMTOLJ
 70
     0
  9
$DIMTZIN
 70
     1
  9
$DIMALTZ
 70
     0
  9
$DIMALTTZ
 70
     0
  9
$DIMUPT
 70
     0
  9
$DIMDEC
 70
     2
  9
$DIMTDEC
 70
     2
  9
$DIMALTU
 70
     2
  9
$DIMALTTD
 70
     3
  9
$DIMTXSTY
  7
Standard
  9
$DIMAUNIT
 70
     0
  9
$DIMADEC
 70
     2
  9
$DIMALTRND
 40
0.0
  9
$DIMAZIN
 70
     0
  9
$DIMDSEP
 70
    44
  9
$DIMATFIT
 70
     3
  9
$DIMFRAC
 70
     0
  9
$DIMLDRBLK
  1

  9
$DIMLUNIT
 70
     2
  9
$DIMLWD
 70
    -2
  9
$DIMLWE
 70
    -2
  9
$DIMTMOVE
 70
     0
  9
$LUNITS
 70
     2
  9
$LUPREC
 70
     2
  9
$SKETCHINC
 40
1.0
  9
$FILLETRAD
 40
10.0
  9
$AUNITS
 70
     0
  9
$AUPREC
 70
     2
  9
$MENU
  1
.
  9
$ELEVATION
 40
0.0
  9
$PELEVATION
 40
0.0
  9
$THICKNESS
 40
0.0
  9
$LIMCHECK
 70
     0
  9
$CHAMFERA
 40
0.0
  9
$CHAMFERB
 40
0.0
  9
$CHAMFERC
 40
0.0
  9
$CHAMFERD
 40
0.0
  9
$SKPOLY
 70
     0
  9
$TDCREATE
 40
2459191.43475809
  9
$TDUCREATE
 40
2459191.393091423
  9
$TDUPDATE
 40
2459191.434795822
  9
$TDUUPDATE
 40
2459191.393129155
  9
$TDINDWG
 40
0.0000000116
  9
$TDUSRTIMER
 40
0.0000000116
  9
$USRTIMER
 70
     1
  9
$ANGBASE
 50
0.0
  9
$ANGDIR
 70
     0
  9
$PDMODE
 70
     0
  9
$PDSIZE
 40
-1.0
  9
$PLINEWID
 40
0.0
  9
$SPLFRAME
 70
     0
  9
$SPLINETYPE
 70
     6
  9
$SPLINESEGS
 70
     8
  9
$HANDSEED
  5
236
  9
$SURFTAB1
 70
     6
  9
$SURFTAB2
 70
     6
  9
$SURFTYPE
 70
     6
  9
$SURFU
 70
     6
  9
$SURFV
 70
     6
  9
$UCSBASE
  2

  9
$UCSNAME
  2

  9
$UCSORG
 10
0.0
 20
0.0
 30
0.0
  9
$UCSXDIR
 10
1.0
 20
0.0
 30
0.0
  9
$UCSYDIR
 10
0.0
 20
1.0
 30
0.0
  9
$UCSORTHOREF
  2

  9
$UCSORTHOVIEW
 70
     0
  9
$UCSORGTOP
 10
0.0
 20
0.0
 30
0.0
  9
$UCSORGBOTTOM
 10
0.0
 20
0.0
 30
0.0
  9
$UCSORGLEFT
 10
0.0
 20
0.0
 30
0.0
  9
$UCSORGRIGHT
 10
0.0
 20
0.0
 30
0.0
  9
$UCSORGFRONT
 10
0.0
 20
0.0
 30
0.0
  9
$UCSORGBACK
 10
0.0
 20
0.0
 30
0.0
  9
$PUCSBASE
  2

  9
$PUCSNAME
  2

  9
$PUCSORG
 10
0.0
 20
0.0
 30
0.0
  9
$PUCSXDIR
 10
1.0
 20
0.0
 30
0.0
  9
$PUCSYDIR
 10
0.0
 20
1.0
 30
0.0
  9
$PUCSORTHOREF
  2

  9
$PUCSORTHOVIEW
 70
     0
  9
$PUCSORGTOP
 10
0.0
 20
0.0
 30
0.0
  9
$PUCSORGBOTTOM
 10
0.0
 20
0.0
 30
0.0
  9
$PUCSORGLEFT
 10
0.0
 20
0.0
 30
0.0
  9
$PUCSORGRIGHT
 10
0.0
 20
0.0
 30
0.0
  9
$PUCSORGFRONT
 10
0.0
 20
0.0
 30
0.0
  9
$PUCSORGBACK
 10
0.0
 20
0.0
 30
0.0
  9
$USERI1
 70
     0
  9
$USERI2
 70
     0
  9
$USERI3
 70
     0
  9
$USERI4
 70
     0
  9
$USERI5
 70
     0
  9
$USERR1
 40
0.0
  9
$USERR2
 40
0.0
  9
$USERR3
 40
0.0
  9
$USERR4
 40
0.0
  9
$USERR5
 40
0.0
  9
$WORLDVIEW
 70
     1
  9
$SHADEDGE
 70
     3
  9
$SHADEDIF
 70
    70
  9
$TILEMODE
 70
     1
  9
$MAXACTVP
 70
    64
  9
$PINSBASE
 10
0.0
 20
0.0
 30
0.0
  9
$PLIMCHECK
 70
     0
  9
$PEXTMIN
 10
1.0000000000E+20
 20
1.0000000000E+20
 30
1.0000000000E+20
  9
$PEXTMAX
 10
-1.0000000000E+20
 20
-1.0000000000E+20
 30
-1.0000000000E+20
  9
$PLIMMIN
 10
0.0
 20
0.0
  9
$PLIMMAX
 10
420.0
 20
297.0
  9
$UNITMODE
 70
     0
  9
$VISRETAIN
 70
     1
  9
$PLINEGEN
 70
     0
  9
$PSLTSCALE
 70
     1
  9
$TREEDEPTH
 70
  3020
  9
$CMLSTYLE
  2
Standard
  9
$CMLJUST
 70
     0
  9
$CMLSCALE
 40
20.0
  9
$PROXYGRAPHICS
 70
     1
  9
$MEASUREMENT
 70
     1
  9
$CELWEIGHT
370
    -1
  9
$ENDCAPS
280
     0
  9
$JOINSTYLE
280
     0
  9
$LWDISPLAY
290
     1
  9
$INSUNITS
 70
     4
  9
$HYPERLINKBASE
  1

  9
$STYLESHEET
  1

  9
$XEDIT
290
     1
  9
$CEPSNTYPE
380
     0
  9
$PSTYLEMODE
290
     1
  9
$FINGERPRINTGUID
  2
{69fb1ca4-ca59-4d45-ae58-7ae025527dde}
  9
$VERSIONGUID
  2
{FAEB1C32-E019-11D5-929B-00C0DF256EC4}
  9
$EXTNAMES
290
     1
  9
$PSVPSCALE
 40
0.0
  9
$OLESTARTUP
290
     0
  0
ENDSEC
  0
SECTION
  2
CLASSES
  0
CLASS
  1
ACDBDICTIONARYWDFLT
  2
AcDbDictionaryWithDefault
  3
ObjectDBX Classes
 90
        0
280
     0
281
     0
  0
CLASS
  1
VISUALSTYLE
  2
AcDbVisualStyle
  3
ObjectDBX Classes
 90
     4095
280
     0
281
     0
  0
CLASS
  1
MATERIAL
  2
AcDbMaterial
  3
ObjectDBX Classes
 90
     1153
280
     0
281
     0
  0
CLASS
  1
SCALE
  2
AcDbScale
  3
ObjectDBX Classes
 90
     1153
280
     0
281
     0
  0
CLASS
  1
TABLESTYLE
  2
AcDbTableStyle
  3
ObjectDBX Classes
 90
     4095
280
     0
281
     0
  0
CLASS
  1
MLEADERSTYLE
  2
AcDbMLeaderStyle
  3
ACDB_MLEADERSTYLE_CLASS
 90
     4095
280
     0
281
     0
  0
CLASS
  1
SUN
  2
AcDbSun
  3
SCENEOE
 90
     1153
280
     0
281
     0
  0
CLASS
  1
ACDBPLACEHOLDER
  2
AcDbPlaceHolder
  3
ObjectDBX Classes
 90
        0
280
     0
281
     0
  0
CLASS
  1
LAYOUT
  2
AcDbLayout
  3
ObjectDBX Classes
 90
        0
280
     0
281
     0
  0
ENDSEC
  0
SECTION
  2
TABLES
  0
TABLE
  2
VPORT
  5
8
330
0
100
AcDbSymbolTable
 70
     1
  0
VPORT
  5
29
330
8
100
AcDbSymbolTableRecord
100
AcDbViewportTableRecord
  2
*Active
 70
     0
 10
0.0
 20
0.0
 11
1.0
 21
1.0
 12
-54.7435897436
 22
140.0
 13
0.0
 23
0.0
 14
10.0
 24
10.0
 15
10.0
 25
10.0
 16
0.0
 26
0.0
 36
1.0
 17
0.0
 27
0.0
 37
0.0
 40
285.6
 41
0.1785714286
 42
50.0
 43
0.0
 44
0.0
 50
0.0
 51
0.0
 71
     0
 72
   100
 73
     1
 74
     3
 75
     0
 76
     0
 77
     0
 78
     0
281
     0
 65
     1
110
0.0
120
0.0
130
0.0
111
1.0
121
0.0
131
0.0
112
0.0
122
1.0
132
0.0
 79
     0
146
0.0
  0
ENDTAB
  0
TABLE
  2
LTYPE
  5
5
330
0
100
AcDbSymbolTable
 70
     6
  0
LTYPE
  5
14
330
5
100
AcDbSymbolTableRecord
100
AcDbLinetypeTableRecord
  2
ByBlock
 70
     0
  3

 72
    65
 73
     0
 40
0.0
  0
LTYPE
  5
15
330
5
100
AcDbSymbolTableRecord
100
AcDbLinetypeTableRecord
  2
ByLayer
 70
     0
  3

 72
    65
 73
     0
 40
0.0
  0
LTYPE
  5
16
330
5
100
AcDbSymbolTableRecord
100
AcDbLinetypeTableRecord
  2
Continuous
 70
     0
  3
Solid line
 72
    65
 73
     0
 40
0.0
  0
LTYPE
  5
6E
330
5
100
AcDbSymbolTableRecord
100
AcDbLinetypeTableRecord
  2
HIDDEN
 70
     0
  3
Hidden __ __ __ __ __ __ __ __ __ __ __ __ __ __
 72
    65
 73
     2
 40
1.905
 49
1.27
 74
     0
 49
-0.635
 74
     0
  0
LTYPE
  5
6F
330
5
100
AcDbSymbolTableRecord
100
AcDbLinetypeTableRecord
  2
PHANTOM
 70
     0
  3
Phantom ______  __  __  ______  __  __  ______
 72
    65
 73
     6
 40
12.7
 49
6.35
 74
     0
 49
-1.27
 74
     0
 49
1.27
 74
     0
 49
-1.27
 74
     0
 49
1.27
 74
     0
 49
-1.27
 74
     0
  0
LTYPE
  5
70
330
5
100
AcDbSymbolTableRecord
100
AcDbLinetypeTableRecord
  2
CENTER
 70
     0
  3
Center ____ _ ____ _ ____ _ ____ _ ____ _ ____
 72
    65
 73
     4
 40
10.16
 49
6.35
 74
     0
 49
-1.27
 74
     0
 49
1.27
 74
     0
 49
-1.27
 74
     0
  0
LTYPE
  5
71
330
5
100
AcDbSymbolTableRecord
100
AcDbLinetypeTableRecord
  2
CENTERX2
 70
     0
  3
Center (2x) ________  __  ________  __  _____
 72
    65
 73
     4
 40
20.32
 49
12.7
 74
     0
 49
-2.54
 74
     0
 49
2.54
 74
     0
 49
-2.54
 74
     0
  0
LTYPE
  5
72
330
5
100
AcDbSymbolTableRecord
100
AcDbLinetypeTableRecord
  2
DOT2
 70
     0
  3
Dot (.5x) ........................................
 72
    65
 73
     2
 40
0.635
 49
0.0
 74
     0
 49
-0.635
 74
     0
  0
ENDTAB
  0
TABLE
  2
LAYER
  5
2
330
0
100
AcDbSymbolTable
 70
     1
  0
LAYER
  5
10
330
2
100
AcDbSymbolTableRecord
100
AcDbLayerTableRecord
  2
0
 70
     0
 62
     7
  6
Continuous
370
    -3
390
F
  0
ENDTAB
  0
TABLE
  2
STYLE
  5
3
330
0
100
AcDbSymbolTable
 70
     2
  0
STYLE
  5
11
330
3
100
AcDbSymbolTableRecord
100
AcDbTextStyleTableRecord
  2
Standard
 70
     0
 40
0.0
 41
1.0
 50
0.0
 71
     0
 42
3.5
  3
txt
  4

  0
STYLE
  5
232
330
3
100
AcDbSymbolTableRecord
100
AcDbTextStyleTableRecord
  2
SLDTEXTSTYLE0
 70
     0
 40
0.0
 41
0.7
 50
0.0
 71
     0
 42
3.5
  3
TXT
  4

  0
ENDTAB
  0
TABLE
  2
VIEW
  5
6
330
0
100
AcDbSymbolTable
 70
     0
  0
ENDTAB
  0
TABLE
  2
UCS
  5
7
330
0
100
AcDbSymbolTable
 70
     0
  0
ENDTAB
  0
TABLE
  2
APPID
  5
9
330
0
100
AcDbSymbolTable
 70
     1
  0
APPID
  5
12
330
9
100
AcDbSymbolTableRecord
100
AcDbRegAppTableRecord
  2
ACAD
 70
     0
  0
ENDTAB
  0
TABLE
  2
DIMSTYLE
  5
A
330
0
100
AcDbSymbolTable
 70
     1
100
AcDbDimStyleTable
  0
DIMSTYLE
105
27
330
A
100
AcDbSymbolTableRecord
100
AcDbDimStyleTableRecord
  2
ISO-25
 70
     0
 41
2.5
 42
0.625
 43
3.75
 44
1.25
 73
     0
 74
     0
 77
     1
 78
     8
140
2.5
141
2.5
143
0.0393700787
147
0.625
171
     3
172
     1
178
     0
271
     2
272
     2
274
     3
278
    44
283
     0
284
     8
340
11
  0
ENDTAB
  0
TABLE
  2
BLOCK_RECORD
  5
1
330
0
100
AcDbSymbolTable
 70
     1
  0
BLOCK_RECORD
  5
1F
330
1
100
AcDbSymbolTableRecord
100
AcDbBlockTableRecord
  2
*Model_Space
340
22
  0
BLOCK_RECORD
  5
1B
330
1
100
AcDbSymbolTableRecord
100
AcDbBlockTableRecord
  2
*Paper_Space
340
1E
  0
BLOCK_RECORD
  5
23
330
1
100
AcDbSymbolTableRecord
100
AcDbBlockTableRecord
  2
*Paper_Space0
340
26
  0
ENDTAB
  0
ENDSEC
  0
SECTION
  2
BLOCKS
  0
BLOCK
  5
20
330
1F
100
AcDbEntity
  8
0
100
AcDbBlockBegin
  2
*Model_Space
 70
     0
 10
0.0
 20
0.0
 30
0.0
  3
*Model_Space
  1

  0
ENDBLK
  5
21
330
1F
100
AcDbEntity
  8
0
100
AcDbBlockEnd
  0
BLOCK
  5
1C
330
1B
100
AcDbEntity
 67
     1
  8
0
100
AcDbBlockBegin
  2
*Paper_Space
 70
     0
 10
0.0
 20
0.0
 30
0.0
  3
*Paper_Space
  1

  0
ENDBLK
  5
1D
330
1B
100
AcDbEntity
 67
     1
  8
0
100
AcDbBlockEnd
  0
BLOCK
  5
24
330
23
100
AcDbEntity
  8
0
100
AcDbBlockBegin
  2
*Paper_Space0
 70
     0
 10
0.0
 20
0.0
 30
0.0
  3
*Paper_Space0
  1

  0
ENDBLK
  5
25
330
23
100
AcDbEntity
  8
0
100
AcDbBlockEnd
  0
ENDSEC
  0
SECTION
  2
ENTITIES
  0
ARC
  5
73
330
1F
100
AcDbEntity
  8
0
  6
Continuous
 62
     7
370
    25
100
AcDbCircle
 10
-54.684119458
 20
189.4310915352
 30
0.0
 40
2.857205352115487
100
AcDbArc
 50
245.1890173885
 51
247.8021383338
  0
LINE
  5
74
330
1F
100
AcDbEntity
  8
0
  6
Continuous
 62
     7
370
    25
100
AcDbLine
 10
-55.7635894466
 20
186.7856488562
 30
0.0
 11
-62.9686876955
 21
169.1282108407
 31
0.0
  0
LINE
  5
75
330
1F
100
AcDbEntity
  8
0
  6
Continuous
 62
     7
370
    25
100
AcDbLine
 10
-62.9686876955
 20
169.1282108407
 30
0.0
 11
-63.8857169913
 21
169.527030688
 31
0.0
  0
LINE
  5
76
330
1F
100
AcDbEntity
  8
0
  6
Continuous
 62
     7
370
    25
100
AcDbLine
 10
-63.8857169913
 20
169.527030688
 30
0.0
 11
-55.8830773397
 21
186.8376146369
 31
0.0
  0
ARC
  5
77
330
1F
100
AcDbEntity
  8
0
  6
Continuous
 62
     7
370
    25
100
AcDbCircle
 10
-54.684119458
 20
189.4310915352
 30
0.0
 40
2.857205352115489
100
AcDbArc
 50
345.1890173885
 51
347.8001027843
  0
LINE
  5
78
330
1F
100
AcDbEntity
  8
0
  6
Continuous
 62
     7
370
    25
100
AcDbLine
 10
-51.8914404504
 20
188.8272982056
 30
0.0
 11
-33.2289742993
 21
184.7923652449
 31
0.0
  0
LINE
  5
79
330
1F
100
AcDbEntity
  8
0
  6
Continuous
 62
     7
370
    25
100
AcDbLine
 10
-33.2289742993
 20
184.7923652449
 30
0.0
 11
-33.4846053759
 21
183.8255908386
 31
0.0
  0
LINE
  5
7A
330
1F
100
AcDbEntity
  8
0
  6
Continuous
 62
     7
370
    25
100
AcDbLine
 10
-33.4846053759
 20
183.8255908386
 30
0.0
 11
-51.92184645
 21
188.700701055
 31
0.0
  0
CIRCLE
  5
7B
330
1F
100
AcDbEntity
  8
0
  6
Continuous
 62
     7
370
    25
100
AcDbCircle
 10
-72.184119458
 20
189.4310915352
 30
0.0
 40
1.75
  0
CIRCLE
  5
7C
330
1F
100
AcDbEntity
  8
0
  6
Continuous
 62
     7
370
    25
100
AcDbCircle
 10
-64.684119458
 20
225.103941312
 30
0.0
 40
1.599999999999966
  0
CIRCLE
  5
7D
330
1F
100
AcDbEntity
  8
0
  6
Continuous
 62
     7
370
    25
100
AcDbCircle
 10
-44.684119458
 20
225.103941312
 30
0.0
 40
1.599999999999966
  0
LINE
  5
7E
330
1F
100
AcDbEntity
  8
0
  6
Continuous
 62
     7
370
    25
100
AcDbLine
 10
-57.184119458
 20
222.603941312
 30
0.0
 11
-52.184119458
 21
222.603941312
 31
0.0
  0
LINE
  5
7F
330
1F
100
AcDbEntity
  8
0
  6
Continuous
 62
     7
370
    25
100
AcDbLine
 10
-57.184119458
 20
227.603941312
 30
0.0
 11
-57.184119458
 21
222.603941312
 31
0.0
  0
LINE
  5
80
330
1F
100
AcDbEntity
  8
0
  6
Continuous
 62
     7
370
    25
100
AcDbLine
 10
-52.184119458
 20
227.603941312
 30
0.0
 11
-57.184119458
 21
227.603941312
 31
0.0
  0
LINE
  5
81
330
1F
100
AcDbEntity
  8
0
  6
Continuous
 62
     7
370
    25
100
AcDbLine
 10
-52.184119458
 20
222.603941312
 30
0.0
 11
-52.184119458
 21
227.603941312
 31
0.0
  0
LINE
  5
82
330
1F
100
AcDbEntity
  8
0
  6
Continuous
 62
     7
370
    25
100
AcDbLine
 10
-53.6612750368
 20
212.7450731275
 30
0.0
 11
-53.6612750368
 21
216.2450731275
 31
0.0
  0
LINE
  5
83
330
1F
100
AcDbEntity
  8
0
  6
Continuous
 62
     7
370
    25
100
AcDbLine
 10
-53.6612750368
 20
216.2450731275
 30
0.0
 11
-52.9608543637
 21
216.2450731275
 31
0.0
  0
SPLINE
  5
84
330
1F
100
AcDbEntity
  8
0
  6
Continuous
 62
     7
370
    25
100
AcDbSpline
210
0.0
220
0.0
230
1.0
 70
     8
 71
     3
 72
    15
 73
    11
 74
     0
 42
0.00000001
 43
0.00000001
 40
0.0
 40
0.0
 40
0.0
 40
0.0
 40
0.1762577548177992
 40
0.3384344138804686
 40
0.4848220507878292
 40
0.6171575782663286
 40
0.7346983606124721
 40
0.8373851838323512
 40
0.9263724209295824
 40
0.9999999999999999
 40
0.9999999999999999
 40
0.9999999999999999
 40
0.9999999999999999
 10
-52.96085436371603
 20
216.2450731274809
 30
0.0
 10
-52.91411323520246
 20
216.2449175414929
 30
0.0
 10
-52.82436509079339
 20
216.2446187991611
 30
0.0
 10
-52.69579182043376
 20
216.242953036253
 30
0.0
 10
-52.57896472343356
 20
216.2381786805447
 30
0.0
 10
-52.47394488411641
 20
216.2340700970676
 30
0.0
 10
-52.38073422914012
 20
216.2265781557445
 30
0.0
 10
-52.29904693839217
 20
216.2194175086247
 30
0.0
 10
-52.22925924089095
 20
216.2100438478458
 30
0.0
 10
-52.18701338958837
 20
216.2013384248801
 30
0.0
 10
-52.16788561371603
 20
216.1973968454296
 30
0.0
  0
SPLINE
  5
85
330
1F
100
AcDbEntity
  8
0
  6
Continuous
 62
     7
370
    25
100
AcDbSpline
210
0.0
220
0.0
230
1.0
 70
     8
 71
     3
 72
    23
 73
    19
 74
     0
 42
0.00000001
 43
0.00000001
 40
0.0
 40
0.0
 40
0.0
 40
0.0
 40
0.0642168426314281
 40
0.127063765693124
 40
0.1887445383478273
 40
0.2491321028350416
 40
0.3094525327106246
 40
0.3698266762476881
 40
0.4306501418384651
 40
0.4923519318794724
 40
0.5540721062625267
 40
0.6156897837449724
 40
0.6767977025065406
 40
0.7384390482469491
 40
0.8013169100649051
 40
0.865184511711536
 40
0.9316413244190731
 40
1.0
 40
1.0
 40
1.0
 40
1.0
 10
-52.16788561371603
 20
216.1973968454296
 30
0.0
 10
-52.1422789895792
 20
216.1910700800641
 30
0.0
 10
-52.09161200010746
 20
216.1785515164122
 30
0.0
 10
-52.01866193406757
 20
216.1520919155885
 30
0.0
 10
-51.94914761011582
 20
216.1214722909639
 30
0.0
 10
-51.88335778579412
 20
216.0855085706457
 30
0.0
 10
-51.8216219946037
 20
216.0439337909733
 30
0.0
 10
-51.76330368380903
 20
215.9974656685381
 30
0.0
 10
-51.70813822042903
 20
215.9463584627676
 30
0.0
 10
-51.65835659024869
 20
215.8893236212649
 30
0.0
 10
-51.61141753855416
 20
215.829487111585
 30
0.0
 10
-51.57182891205356
 20
215.7647833547438
 30
0.0
 10
-51.53770243233108
 20
215.6971218272197
 30
0.0
 10
-51.51053191533096
 20
215.6258144094644
 30
0.0
 10
-51.48865394185778
 20
215.5515526376016
 30
0.0
 10
-51.47322770248683
 20
215.4736638408745
 30
0.0
 10
-51.46397651485602
 20
215.3925028657905
 30
0.0
 10
-51.46303465930251
 20
215.3371449569989
 30
0.0
 10
-51.46255708807501
 20
215.3090755313271
 30
0.0
  0
SPLINE
  5
86
330
1F
100
AcDbEntity
  8
0
  6
Continuous
 62
     7
370
    25
100
AcDbSpline
210
0.0
220
0.0
230
1.0
 70
     8
 71
     3
 72
    23
 73
    19
 74
     0
 42
0.00000001
 43
0.00000001
 40
0.0
 40
0.0
 40
0.0
 40
0.0
 40
0.0787802355821467
 40
0.1537206442085852
 40
0.2267135303087771
 40
0.2991911660659437
 40
0.3711899968376735
 40
0.4430064143534148
 40
0.5166891732948885
 40
0.593217216623411
 40
0.6338729178078524
 40
0.6769891422899839
 40
0.7228995063258293
 40
0.7719586105061472
 40
0.8242113233348383
 40
0.8793786506272037
 40
0.9379481193304173
 40
1.0
 40
1.0
 40
1.0
 40
1.0
 10
-51.46255708807501
 20
215.3090755313271
 30
0.0
 10
-51.46402608618352
 20
215.2624404267161
 30
0.0
 10
-51.46689248197315
 20
215.171443258828
 30
0.0
 10
-51.49361758565316
 20
215.0393823774193
 30
0.0
 10
-51.53739410538193
 20
214.9161930627788
 30
0.0
 10
-51.59771739439124
 20
214.8020304248634
 30
0.0
 10
-51.67453687010472
 20
214.6991197795032
 30
0.0
 10
-51.76686166120808
 20
214.6087293241994
 30
0.0
 10
-51.87474327269776
 20
214.5330894116086
 30
0.0
 10
-51.97517258863694
 20
214.480636606907
 30
0.0
 10
-52.06388678833355
 20
214.4470436982823
 30
0.0
 10
-52.1369201011216
 20
214.4234073394233
 30
0.0
 10
-52.21658707861743
 20
214.4051453741462
 30
0.0
 10
-52.3021244132233
 20
214.3887852423756
 30
0.0
 10
-52.39388806871541
 20
214.3764335479642
 30
0.0
 10
-52.49165810810459
 20
214.3673869534947
 30
0.0
 10
-52.5955042597347
 20
214.3617329047965
 30
0.0
 10
-52.66684332908784
 20
214.3608908999076
 30
0.0
 10
-52.70354266499808
 20
214.3604577428655
 30
0.0
  0
LINE
  5
87
330
1F
100
AcDbEntity
  8
0
  6
Continuous
 62
     7
370
    25
100
AcDbLine
 10
-52.703542665
 20
214.3604577429
 30
0.0
 11
-51.4176852932
 21
212.7450731275
 31
0.0
  0
LINE
  5
88
330
1F
100
AcDbEntity
  8
0
  6
Continuous
 62
     7
370
    25
100
AcDbLine
 10
-51.4176852932
 20
212.7450731275
 30
0.0
 11
-51.8061067676
 21
212.7450731275
 31
0.0
  0
LINE
  5
89
330
1F
100
AcDbEntity
  8
0
  6
Continuous
 62
     7
370
    25
100
AcDbLine
 10
-51.8061067676
 20
212.7450731275
 30
0.0
 11
-53.0919641394
 21
214.3604577429
 31
0.0
  0
LINE
  5
8A
330
1F
100
AcDbEntity
  8
0
  6
Continuous
 62
     7
370
    25
100
AcDbLine
 10
-53.0919641394
 20
214.3604577429
 30
0.0
 11
-53.3471724727
 21
214.3604577429
 31
0.0
  0
LINE
  5
8B
330
1F
100
AcDbEntity
  8
0
  6
Continuous
 62
     7
370
    25
100
AcDbLine
 10
-53.3471724727
 20
214.3604577429
 30
0.0
 11
-53.3471724727
 21
212.7450731275
 31
0.0
  0
LINE
  5
8C
330
1F
100
AcDbEntity
  8
0
  6
Continuous
 62
     7
370
    25
100
AcDbLine
 10
-53.3471724727
 20
212.7450731275
 30
0.0
 11
-53.6612750368
 21
212.7450731275
 31
0.0
  0
LINE
  5
8D
330
1F
100
AcDbEntity
  8
0
  6
Continuous
 62
     7
370
    25
100
AcDbLine
 10
-58.9561468317
 20
215.8860987685
 30
0.0
 11
-59.7189673445
 21
215.8860987685
 31
0.0
  0
LINE
  5
8E
330
1F
100
AcDbEntity
  8
0
  6
Continuous
 62
     7
370
    25
100
AcDbLine
 10
-59.7189673445
 20
215.8860987685
 30
0.0
 11
-59.7189673445
 21
216.2450731275
 31
0.0
  0
LINE
  5
8F
330
1F
100
AcDbEntity
  8
0
  6
Continuous
 62
     7
370
    25
100
AcDbLine
 10
-59.7189673445
 20
216.2450731275
 30
0.0
 11
-57.8792237547
 21
216.2450731275
 31
0.0
  0
LINE
  5
90
330
1F
100
AcDbEntity
  8
0
  6
Continuous
 62
     7
370
    25
100
AcDbLine
 10
-57.8792237547
 20
216.2450731275
 30
0.0
 11
-57.8792237547
 21
215.8860987685
 31
0.0
  0
LINE
  5
91
330
1F
100
AcDbEntity
  8
0
  6
Continuous
 62
     7
370
    25
100
AcDbLine
 10
-57.8792237547
 20
215.8860987685
 30
0.0
 11
-58.6420442676
 21
215.8860987685
 31
0.0
  0
LINE
  5
92
330
1F
100
AcDbEntity
  8
0
  6
Continuous
 62
     7
370
    25
100
AcDbLine
 10
-58.6420442676
 20
215.8860987685
 30
0.0
 11
-58.6420442676
 21
212.7450731275
 31
0.0
  0
LINE
  5
93
330
1F
100
AcDbEntity
  8
0
  6
Continuous
 62
     7
370
    25
100
AcDbLine
 10
-58.6420442676
 20
212.7450731275
 30
0.0
 11
-58.9561468317
 21
212.7450731275
 31
0.0
  0
LINE
  5
94
330
1F
100
AcDbEntity
  8
0
  6
Continuous
 62
     7
370
    25
100
AcDbLine
 10
-58.9561468317
 20
212.7450731275
 30
0.0
 11
-58.9561468317
 21
215.8860987685
 31
0.0
  0
CIRCLE
  5
95
330
1F
100
AcDbEntity
  8
0
  6
Continuous
 62
     7
370
    25
100
AcDbCircle
 10
-49.7435897436
 20
278.0
 30
0.0
 40
1.599999999999966
  0
CIRCLE
  5
96
330
1F
100
AcDbEntity
  8
0
  6
Continuous
 62
     7
370
    25
100
AcDbCircle
 10
-59.7435897436
 20
278.0
 30
0.0
 40
1.599999999999966
  0
LINE
  5
97
330
1F
100
AcDbEntity
  8
0
  6
Continuous
 62
     7
370
    25
100
AcDbLine
 10
-32.7435897436
 20
262.0
 30
0.0
 11
-32.7435897436
 21
267.0
 31
0.0
  0
LINE
  5
98
330
1F
100
AcDbEntity
  8
0
  6
Continuous
 62
     7
370
    25
100
AcDbLine
 10
-32.7435897436
 20
267.0
 30
0.0
 11
-29.7435897436
 21
267.0
 31
0.0
  0
LINE
  5
99
330
1F
100
AcDbEntity
  8
0
  6
Continuous
 62
     7
370
    25
100
AcDbLine
 10
-29.7435897436
 20
272.0
 30
0.0
 11
-29.7435897436
 21
267.0
 31
0.0
  0
LINE
  5
9A
330
1F
100
AcDbEntity
  8
0
  6
Continuous
 62
     7
370
    25
100
AcDbLine
 10
-29.7435897436
 20
272.0
 30
0.0
 11
-32.7435897436
 21
272.0
 31
0.0
  0
LINE
  5
9B
330
1F
100
AcDbEntity
  8
0
  6
Continuous
 62
     7
370
    25
100
AcDbLine
 10
-32.7435897436
 20
272.0
 30
0.0
 11
-32.7435897436
 21
277.0
 31
0.0
  0
LINE
  5
9C
330
1F
100
AcDbEntity
  8
0
  6
Continuous
 62
     7
370
    25
100
AcDbLine
 10
-37.4935897436
 20
277.0
 30
0.0
 11
-32.7435897436
 21
277.0
 31
0.0
  0
LINE
  5
9D
330
1F
100
AcDbEntity
  8
0
  6
Continuous
 62
     7
370
    25
100
AcDbLine
 10
-37.4935897436
 20
280.0
 30
0.0
 11
-37.4935897436
 21
277.0
 31
0.0
  0
LINE
  5
9E
330
1F
100
AcDbEntity
  8
0
  6
Continuous
 62
     7
370
    25
100
AcDbLine
 10
-41.9935897436
 20
280.0
 30
0.0
 11
-37.4935897436
 21
280.0
 31
0.0
  0
LINE
  5
9F
330
1F
100
AcDbEntity
  8
0
  6
Continuous
 62
     7
370
    25
100
AcDbLine
 10
-41.9935897436
 20
280.0
 30
0.0
 11
-41.9935897436
 21
277.0
 31
0.0
  0
LINE
  5
A0
330
1F
100
AcDbEntity
  8
0
  6
Continuous
 62
     7
370
    25
100
AcDbLine
 10
-47.4935897436
 20
277.0
 30
0.0
 11
-41.9935897436
 21
277.0
 31
0.0
  0
LINE
  5
A1
330
1F
100
AcDbEntity
  8
0
  6
Continuous
 62
     7
370
    25
100
AcDbLine
 10
-47.4935897436
 20
280.0
 30
0.0
 11
-47.4935897436
 21
277.0
 31
0.0
  0
LINE
  5
A2
330
1F
100
AcDbEntity
  8
0
  6
Continuous
 62
     7
370
    25
100
AcDbLine
 10
-51.9935897436
 20
280.0
 30
0.0
 11
-47.4935897436
 21
280.0
 31
0.0
  0
LINE
  5
A3
330
1F
100
AcDbEntity
  8
0
  6
Continuous
 62
     7
370
    25
100
AcDbLine
 10
-51.9935897436
 20
280.0
 30
0.0
 11
-51.9935897436
 21
277.0
 31
0.0
  0
LINE
  5
A4
330
1F
100
AcDbEntity
  8
0
  6
Continuous
 62
     7
370
    25
100
AcDbLine
 10
-57.4935897436
 20
277.0
 30
0.0
 11
-51.9935897436
 21
277.0
 31
0.0
  0
LINE
  5
A5
330
1F
100
AcDbEntity
  8
0
  6
Continuous
 62
     7
370
    25
100
AcDbLine
 10
-57.4935897436
 20
280.0
 30
0.0
 11
-57.4935897436
 21
277.0
 31
0.0
  0
LINE
  5
A6
330
1F
100
AcDbEntity
  8
0
  6
Continuous
 62
     7
370
    25
100
AcDbLine
 10
-61.9935897436
 20
280.0
 30
0.0
 11
-57.4935897436
 21
280.0
 31
0.0
  0
LINE
  5
A7
330
1F
100
AcDbEntity
  8
0
  6
Continuous
 62
     7
370
    25
100
AcDbLine
 10
-61.9935897436
 20
280.0
 30
0.0
 11
-61.9935897436
 21
277.0
 31
0.0
  0
LINE
  5
A8
330
1F
100
AcDbEntity
  8
0
  6
Continuous
 62
     7
370
    25
100
AcDbLine
 10
-67.4935897436
 20
277.0
 30
0.0
 11
-61.9935897436
 21
277.0
 31
0.0
  0
LINE
  5
A9
330
1F
100
AcDbEntity
  8
0
  6
Continuous
 62
     7
370
    25
100
AcDbLine
 10
-67.4935897436
 20
280.0
 30
0.0
 11
-67.4935897436
 21
277.0
 31
0.0
  0
LINE
  5
AA
330
1F
100
AcDbEntity
  8
0
  6
Continuous
 62
     7
370
    25
100
AcDbLine
 10
-71.9935897436
 20
280.0
 30
0.0
 11
-67.4935897436
 21
280.0
 31
0.0
  0
LINE
  5
AB
330
1F
100
AcDbEntity
  8
0
  6
Continuous
 62
     7
370
    25
100
AcDbLine
 10
-71.9935897436
 20
280.0
 30
0.0
 11
-71.9935897436
 21
277.0
 31
0.0
  0
LINE
  5
AC
330
1F
100
AcDbEntity
  8
0
  6
Continuous
 62
     7
370
    25
100
AcDbLine
 10
-76.7435897436
 20
277.0
 30
0.0
 11
-71.9935897436
 21
277.0
 31
0.0
  0
LINE
  5
AD
330
1F
100
AcDbEntity
  8
0
  6
Continuous
 62
     7
370
    25
100
AcDbLine
 10
-76.7435897436
 20
277.0
 30
0.0
 11
-76.7435897436
 21
272.0
 31
0.0
  0
LINE
  5
AE
330
1F
100
AcDbEntity
  8
0
  6
Continuous
 62
     7
370
    25
100
AcDbLine
 10
-76.7435897436
 20
272.0
 30
0.0
 11
-79.7435897436
 21
272.0
 31
0.0
  0
LINE
  5
AF
330
1F
100
AcDbEntity
  8
0
  6
Continuous
 62
     7
370
    25
100
AcDbLine
 10
-79.7435897436
 20
272.0
 30
0.0
 11
-79.7435897436
 21
267.0
 31
0.0
  0
LINE
  5
B0
330
1F
100
AcDbEntity
  8
0
  6
Continuous
 62
     7
370
    25
100
AcDbLine
 10
-79.7435897436
 20
267.0
 30
0.0
 11
-76.7435897436
 21
267.0
 31
0.0
  0
LINE
  5
B1
330
1F
100
AcDbEntity
  8
0
  6
Continuous
 62
     7
370
    25
100
AcDbLine
 10
-76.7435897436
 20
267.0
 30
0.0
 11
-76.7435897436
 21
262.0
 31
0.0
  0
LINE
  5
B2
330
1F
100
AcDbEntity
  8
0
  6
Continuous
 62
     7
370
    25
100
AcDbLine
 10
-76.7435897436
 20
262.0
 30
0.0
 11
-79.7435897436
 21
262.0
 31
0.0
  0
LINE
  5
B3
330
1F
100
AcDbEntity
  8
0
  6
Continuous
 62
     7
370
    25
100
AcDbLine
 10
-79.7435897436
 20
262.0
 30
0.0
 11
-79.7435897436
 21
257.0
 31
0.0
  0
LINE
  5
B4
330
1F
100
AcDbEntity
  8
0
  6
Continuous
 62
     7
370
    25
100
AcDbLine
 10
-79.7435897436
 20
257.0
 30
0.0
 11
-76.7435897436
 21
257.0
 31
0.0
  0
LINE
  5
B5
330
1F
100
AcDbEntity
  8
0
  6
Continuous
 62
     7
370
    25
100
AcDbLine
 10
-76.7435897436
 20
257.0
 30
0.0
 11
-76.7435897436
 21
252.0
 31
0.0
  0
LINE
  5
B6
330
1F
100
AcDbEntity
  8
0
  6
Continuous
 62
     7
370
    25
100
AcDbLine
 10
-76.7435897436
 20
252.0
 30
0.0
 11
-79.7435897436
 21
252.0
 31
0.0
  0
LINE
  5
B7
330
1F
100
AcDbEntity
  8
0
  6
Continuous
 62
     7
370
    25
100
AcDbLine
 10
-79.7435897436
 20
252.0
 30
0.0
 11
-79.7435897436
 21
247.0
 31
0.0
  0
LINE
  5
B8
330
1F
100
AcDbEntity
  8
0
  6
Continuous
 62
     7
370
    25
100
AcDbLine
 10
-79.7435897436
 20
247.0
 30
0.0
 11
-76.7435897436
 21
247.0
 31
0.0
  0
LINE
  5
B9
330
1F
100
AcDbEntity
  8
0
  6
Continuous
 62
     7
370
    25
100
AcDbLine
 10
-76.7435897436
 20
247.0
 30
0.0
 11
-76.7435897436
 21
242.0
 31
0.0
  0
LINE
  5
BA
330
1F
100
AcDbEntity
  8
0
  6
Continuous
 62
     7
370
    25
100
AcDbLine
 10
-76.7435897436
 20
242.0
 30
0.0
 11
-79.7435897436
 21
242.0
 31
0.0
  0
LINE
  5
BB
330
1F
100
AcDbEntity
  8
0
  6
Continuous
 62
     7
370
    25
100
AcDbLine
 10
-79.7435897436
 20
242.0
 30
0.0
 11
-79.7435897436
 21
237.0
 31
0.0
  0
LINE
  5
BC
330
1F
100
AcDbEntity
  8
0
  6
Continuous
 62
     7
370
    25
100
AcDbLine
 10
-79.7435897436
 20
237.0
 30
0.0
 11
-76.7435897436
 21
237.0
 31
0.0
  0
LINE
  5
BD
330
1F
100
AcDbEntity
  8
0
  6
Continuous
 62
     7
370
    25
100
AcDbLine
 10
-76.7435897436
 20
237.0
 30
0.0
 11
-76.7435897436
 21
232.0
 31
0.0
  0
LINE
  5
BE
330
1F
100
AcDbEntity
  8
0
  6
Continuous
 62
     7
370
    25
100
AcDbLine
 10
-76.7435897436
 20
232.0
 30
0.0
 11
-79.7435897436
 21
232.0
 31
0.0
  0
LINE
  5
BF
330
1F
100
AcDbEntity
  8
0
  6
Continuous
 62
     7
370
    25
100
AcDbLine
 10
-79.7435897436
 20
232.0
 30
0.0
 11
-79.7435897436
 21
227.0
 31
0.0
  0
LINE
  5
C0
330
1F
100
AcDbEntity
  8
0
  6
Continuous
 62
     7
370
    25
100
AcDbLine
 10
-79.7435897436
 20
227.0
 30
0.0
 11
-76.7435897436
 21
227.0
 31
0.0
  0
LINE
  5
C1
330
1F
100
AcDbEntity
  8
0
  6
Continuous
 62
     7
370
    25
100
AcDbLine
 10
-76.7435897436
 20
227.0
 30
0.0
 11
-76.7435897436
 21
222.0
 31
0.0
  0
LINE
  5
C2
330
1F
100
AcDbEntity
  8
0
  6
Continuous
 62
     7
370
    25
100
AcDbLine
 10
-76.7435897436
 20
222.0
 30
0.0
 11
-79.7435897436
 21
222.0
 31
0.0
  0
LINE
  5
C3
330
1F
100
AcDbEntity
  8
0
  6
Continuous
 62
     7
370
    25
100
AcDbLine
 10
-79.7435897436
 20
222.0
 30
0.0
 11
-79.7435897436
 21
217.0
 31
0.0
  0
LINE
  5
C4
330
1F
100
AcDbEntity
  8
0
  6
Continuous
 62
     7
370
    25
100
AcDbLine
 10
-79.7435897436
 20
217.0
 30
0.0
 11
-76.7435897436
 21
217.0
 31
0.0
  0
LINE
  5
C5
330
1F
100
AcDbEntity
  8
0
  6
Continuous
 62
     7
370
    25
100
AcDbLine
 10
-76.7435897436
 20
217.0
 30
0.0
 11
-76.7435897436
 21
216.1
 31
0.0
  0
LINE
  5
C6
330
1F
100
AcDbEntity
  8
0
  6
Continuous
 62
     7
370
    25
100
AcDbLine
 10
-71.7435897436
 20
216.1
 30
0.0
 11
-76.7435897436
 21
216.1
 31
0.0
  0
LINE
  5
C7
330
1F
100
AcDbEntity
  8
0
  6
Continuous
 62
     7
370
    25
100
AcDbLine
 10
-71.7435897436
 20
217.5
 30
0.0
 11
-71.7435897436
 21
216.1
 31
0.0
  0
LINE
  5
C8
330
1F
100
AcDbEntity
  8
0
  6
Continuous
 62
     7
370
    25
100
AcDbLine
 10
-68.2435897436
 20
217.5
 30
0.0
 11
-71.7435897436
 21
217.5
 31
0.0
  0
LINE
  5
C9
330
1F
100
AcDbEntity
  8
0
  6
Continuous
 62
     7
370
    25
100
AcDbLine
 10
-68.2435897436
 20
216.1
 30
0.0
 11
-68.2435897436
 21
217.5
 31
0.0
  0
LINE
  5
CA
330
1F
100
AcDbEntity
  8
0
  6
Continuous
 62
     7
370
    25
100
AcDbLine
 10
-64.7435897436
 20
216.1
 30
0.0
 11
-68.2435897436
 21
216.1
 31
0.0
  0
LINE
  5
CB
330
1F
100
AcDbEntity
  8
0
  6
Continuous
 62
     7
370
    25
100
AcDbLine
 10
-64.7435897436
 20
212.9
 30
0.0
 11
-64.7435897436
 21
216.1
 31
0.0
  0
LINE
  5
CC
330
1F
100
AcDbEntity
  8
0
  6
Continuous
 62
     7
370
    25
100
AcDbLine
 10
-64.7435897436
 20
212.9
 30
0.0
 11
-68.2435897436
 21
212.9
 31
0.0
  0
LINE
  5
CD
330
1F
100
AcDbEntity
  8
0
  6
Continuous
 62
     7
370
    25
100
AcDbLine
 10
-68.2435897436
 20
211.5
 30
0.0
 11
-68.2435897436
 21
212.9
 31
0.0
  0
LINE
  5
CE
330
1F
100
AcDbEntity
  8
0
  6
Continuous
 62
     7
370
    25
100
AcDbLine
 10
-71.7435897436
 20
211.5
 30
0.0
 11
-68.2435897436
 21
211.5
 31
0.0
  0
LINE
  5
CF
330
1F
100
AcDbEntity
  8
0
  6
Continuous
 62
     7
370
    25
100
AcDbLine
 10
-71.7435897436
 20
212.9
 30
0.0
 11
-71.7435897436
 21
211.5
 31
0.0
  0
LINE
  5
D0
330
1F
100
AcDbEntity
  8
0
  6
Continuous
 62
     7
370
    25
100
AcDbLine
 10
-71.7435897436
 20
212.9
 30
0.0
 11
-76.7435897436
 21
212.9
 31
0.0
  0
LINE
  5
D1
330
1F
100
AcDbEntity
  8
0
  6
Continuous
 62
     7
370
    25
100
AcDbLine
 10
-76.7435897436
 20
212.9
 30
0.0
 11
-76.7435897436
 21
212.0
 31
0.0
  0
LINE
  5
D2
330
1F
100
AcDbEntity
  8
0
  6
Continuous
 62
     7
370
    25
100
AcDbLine
 10
-76.7435897436
 20
212.0
 30
0.0
 11
-79.7435897436
 21
212.0
 31
0.0
  0
LINE
  5
D3
330
1F
100
AcDbEntity
  8
0
  6
Continuous
 62
     7
370
    25
100
AcDbLine
 10
-79.7435897436
 20
212.0
 30
0.0
 11
-79.7435897436
 21
207.0
 31
0.0
  0
LINE
  5
D4
330
1F
100
AcDbEntity
  8
0
  6
Continuous
 62
     7
370
    25
100
AcDbLine
 10
-79.7435897436
 20
207.0
 30
0.0
 11
-76.7435897436
 21
207.0
 31
0.0
  0
LINE
  5
D5
330
1F
100
AcDbEntity
  8
0
  6
Continuous
 62
     7
370
    25
100
AcDbLine
 10
-76.7435897436
 20
207.0
 30
0.0
 11
-76.7435897436
 21
202.0
 31
0.0
  0
LINE
  5
D6
330
1F
100
AcDbEntity
  8
0
  6
Continuous
 62
     7
370
    25
100
AcDbLine
 10
-76.7435897436
 20
202.0
 30
0.0
 11
-79.7435897436
 21
202.0
 31
0.0
  0
LINE
  5
D7
330
1F
100
AcDbEntity
  8
0
  6
Continuous
 62
     7
370
    25
100
AcDbLine
 10
-79.7435897436
 20
202.0
 30
0.0
 11
-79.7435897436
 21
197.0
 31
0.0
  0
LINE
  5
D8
330
1F
100
AcDbEntity
  8
0
  6
Continuous
 62
     7
370
    25
100
AcDbLine
 10
-79.7435897436
 20
197.0
 30
0.0
 11
-76.7435897436
 21
197.0
 31
0.0
  0
LINE
  5
D9
330
1F
100
AcDbEntity
  8
0
  6
Continuous
 62
     7
370
    25
100
AcDbLine
 10
-76.7435897436
 20
197.0
 30
0.0
 11
-76.7435897436
 21
192.0
 31
0.0
  0
LINE
  5
DA
330
1F
100
AcDbEntity
  8
0
  6
Continuous
 62
     7
370
    25
100
AcDbLine
 10
-76.7435897436
 20
192.0
 30
0.0
 11
-79.7435897436
 21
192.0
 31
0.0
  0
LINE
  5
DB
330
1F
100
AcDbEntity
  8
0
  6
Continuous
 62
     7
370
    25
100
AcDbLine
 10
-79.7435897436
 20
192.0
 30
0.0
 11
-79.7435897436
 21
187.0
 31
0.0
  0
LINE
  5
DC
330
1F
100
AcDbEntity
  8
0
  6
Continuous
 62
     7
370
    25
100
AcDbLine
 10
-79.7435897436
 20
187.0
 30
0.0
 11
-76.7435897436
 21
187.0
 31
0.0
  0
LINE
  5
DD
330
1F
100
AcDbEntity
  8
0
  6
Continuous
 62
     7
370
    25
100
AcDbLine
 10
-76.7435897436
 20
187.0
 30
0.0
 11
-76.7435897436
 21
182.0
 31
0.0
  0
LINE
  5
DE
330
1F
100
AcDbEntity
  8
0
  6
Continuous
 62
     7
370
    25
100
AcDbLine
 10
-76.7435897436
 20
182.0
 30
0.0
 11
-79.7435897436
 21
182.0
 31
0.0
  0
LINE
  5
DF
330
1F
100
AcDbEntity
  8
0
  6
Continuous
 62
     7
370
    25
100
AcDbLine
 10
-79.7435897436
 20
182.0
 30
0.0
 11
-79.7435897436
 21
177.0
 31
0.0
  0
LINE
  5
E0
330
1F
100
AcDbEntity
  8
0
  6
Continuous
 62
     7
370
    25
100
AcDbLine
 10
-79.7435897436
 20
177.0
 30
0.0
 11
-76.7435897436
 21
177.0
 31
0.0
  0
LINE
  5
E1
330
1F
100
AcDbEntity
  8
0
  6
Continuous
 62
     7
370
    25
100
AcDbLine
 10
-76.7435897436
 20
177.0
 30
0.0
 11
-76.7435897436
 21
172.0
 31
0.0
  0
LINE
  5
E2
330
1F
100
AcDbEntity
  8
0
  6
Continuous
 62
     7
370
    25
100
AcDbLine
 10
-76.7435897436
 20
172.0
 30
0.0
 11
-79.7435897436
 21
172.0
 31
0.0
  0
LINE
  5
E3
330
1F
100
AcDbEntity
  8
0
  6
Continuous
 62
     7
370
    25
100
AcDbLine
 10
-79.7435897436
 20
172.0
 30
0.0
 11
-79.7435897436
 21
167.0
 31
0.0
  0
LINE
  5
E4
330
1F
100
AcDbEntity
  8
0
  6
Continuous
 62
     7
370
    25
100
AcDbLine
 10
-79.7435897436
 20
167.0
 30
0.0
 11
-76.7435897436
 21
167.0
 31
0.0
  0
LINE
  5
E5
330
1F
100
AcDbEntity
  8
0
  6
Continuous
 62
     7
370
    25
100
AcDbLine
 10
-76.7435897436
 20
167.0
 30
0.0
 11
-76.7435897436
 21
166.1
 31
0.0
  0
LINE
  5
E6
330
1F
100
AcDbEntity
  8
0
  6
Continuous
 62
     7
370
    25
100
AcDbLine
 10
-71.7435897436
 20
166.1
 30
0.0
 11
-76.7435897436
 21
166.1
 31
0.0
  0
LINE
  5
E7
330
1F
100
AcDbEntity
  8
0
  6
Continuous
 62
     7
370
    25
100
AcDbLine
 10
-71.7435897436
 20
167.5
 30
0.0
 11
-71.7435897436
 21
166.1
 31
0.0
  0
LINE
  5
E8
330
1F
100
AcDbEntity
  8
0
  6
Continuous
 62
     7
370
    25
100
AcDbLine
 10
-68.2435897436
 20
167.5
 30
0.0
 11
-71.7435897436
 21
167.5
 31
0.0
  0
LINE
  5
E9
330
1F
100
AcDbEntity
  8
0
  6
Continuous
 62
     7
370
    25
100
AcDbLine
 10
-68.2435897436
 20
166.1
 30
0.0
 11
-68.2435897436
 21
167.5
 31
0.0
  0
LINE
  5
EA
330
1F
100
AcDbEntity
  8
0
  6
Continuous
 62
     7
370
    25
100
AcDbLine
 10
-64.7435897436
 20
166.1
 30
0.0
 11
-68.2435897436
 21
166.1
 31
0.0
  0
LINE
  5
EB
330
1F
100
AcDbEntity
  8
0
  6
Continuous
 62
     7
370
    25
100
AcDbLine
 10
-64.7435897436
 20
162.9
 30
0.0
 11
-64.7435897436
 21
166.1
 31
0.0
  0
LINE
  5
EC
330
1F
100
AcDbEntity
  8
0
  6
Continuous
 62
     7
370
    25
100
AcDbLine
 10
-64.7435897436
 20
162.9
 30
0.0
 11
-68.2435897436
 21
162.9
 31
0.0
  0
LINE
  5
ED
330
1F
100
AcDbEntity
  8
0
  6
Continuous
 62
     7
370
    25
100
AcDbLine
 10
-68.2435897436
 20
161.5
 30
0.0
 11
-68.2435897436
 21
162.9
 31
0.0
  0
LINE
  5
EE
330
1F
100
AcDbEntity
  8
0
  6
Continuous
 62
     7
370
    25
100
AcDbLine
 10
-71.7435897436
 20
161.5
 30
0.0
 11
-68.2435897436
 21
161.5
 31
0.0
  0
LINE
  5
EF
330
1F
100
AcDbEntity
  8
0
  6
Continuous
 62
     7
370
    25
100
AcDbLine
 10
-71.7435897436
 20
162.9
 30
0.0
 11
-71.7435897436
 21
161.5
 31
0.0
  0
LINE
  5
F0
330
1F
100
AcDbEntity
  8
0
  6
Continuous
 62
     7
370
    25
100
AcDbLine
 10
-71.7435897436
 20
162.9
 30
0.0
 11
-76.7435897436
 21
162.9
 31
0.0
  0
LINE
  5
F1
330
1F
100
AcDbEntity
  8
0
  6
Continuous
 62
     7
370
    25
100
AcDbLine
 10
-76.7435897436
 20
162.9
 30
0.0
 11
-76.7435897436
 21
162.0
 31
0.0
  0
LINE
  5
F2
330
1F
100
AcDbEntity
  8
0
  6
Continuous
 62
     7
370
    25
100
AcDbLine
 10
-76.7435897436
 20
162.0
 30
0.0
 11
-79.7435897436
 21
162.0
 31
0.0
  0
LINE
  5
F3
330
1F
100
AcDbEntity
  8
0
  6
Continuous
 62
     7
370
    25
100
AcDbLine
 10
-79.7435897436
 20
162.0
 30
0.0
 11
-79.7435897436
 21
157.0
 31
0.0
  0
LINE
  5
F4
330
1F
100
AcDbEntity
  8
0
  6
Continuous
 62
     7
370
    25
100
AcDbLine
 10
-79.7435897436
 20
157.0
 30
0.0
 11
-76.7435897436
 21
157.0
 31
0.0
  0
LINE
  5
F5
330
1F
100
AcDbEntity
  8
0
  6
Continuous
 62
     7
370
    25
100
AcDbLine
 10
-76.7435897436
 20
157.0
 30
0.0
 11
-76.7435897436
 21
152.0
 31
0.0
  0
LINE
  5
F6
330
1F
100
AcDbEntity
  8
0
  6
Continuous
 62
     7
370
    25
100
AcDbLine
 10
-76.7435897436
 20
152.0
 30
0.0
 11
-79.7435897436
 21
152.0
 31
0.0
  0
LINE
  5
F7
330
1F
100
AcDbEntity
  8
0
  6
Continuous
 62
     7
370
    25
100
AcDbLine
 10
-79.7435897436
 20
152.0
 30
0.0
 11
-79.7435897436
 21
147.0
 31
0.0
  0
LINE
  5
F8
330
1F
100
AcDbEntity
  8
0
  6
Continuous
 62
     7
370
    25
100
AcDbLine
 10
-79.7435897436
 20
147.0
 30
0.0
 11
-76.7435897436
 21
147.0
 31
0.0
  0
LINE
  5
F9
330
1F
100
AcDbEntity
  8
0
  6
Continuous
 62
     7
370
    25
100
AcDbLine
 10
-76.7435897436
 20
147.0
 30
0.0
 11
-76.7435897436
 21
142.0
 31
0.0
  0
LINE
  5
FA
330
1F
100
AcDbEntity
  8
0
  6
Continuous
 62
     7
370
    25
100
AcDbLine
 10
-76.7435897436
 20
142.0
 30
0.0
 11
-79.7435897436
 21
142.0
 31
0.0
  0
LINE
  5
FB
330
1F
100
AcDbEntity
  8
0
  6
Continuous
 62
     7
370
    25
100
AcDbLine
 10
-79.7435897436
 20
142.0
 30
0.0
 11
-79.7435897436
 21
137.0
 31
0.0
  0
LINE
  5
FC
330
1F
100
AcDbEntity
  8
0
  6
Continuous
 62
     7
370
    25
100
AcDbLine
 10
-79.7435897436
 20
137.0
 30
0.0
 11
-76.7435897436
 21
137.0
 31
0.0
  0
LINE
  5
FD
330
1F
100
AcDbEntity
  8
0
  6
Continuous
 62
     7
370
    25
100
AcDbLine
 10
-76.7435897436
 20
137.0
 30
0.0
 11
-76.7435897436
 21
132.0
 31
0.0
  0
LINE
  5
FE
330
1F
100
AcDbEntity
  8
0
  6
Continuous
 62
     7
370
    25
100
AcDbLine
 10
-76.7435897436
 20
132.0
 30
0.0
 11
-79.7435897436
 21
132.0
 31
0.0
  0
LINE
  5
FF
330
1F
100
AcDbEntity
  8
0
  6
Continuous
 62
     7
370
    25
100
AcDbLine
 10
-79.7435897436
 20
132.0
 30
0.0
 11
-79.7435897436
 21
127.0
 31
0.0
  0
LINE
  5
100
330
1F
100
AcDbEntity
  8
0
  6
Continuous
 62
     7
370
    25
100
AcDbLine
 10
-79.7435897436
 20
127.0
 30
0.0
 11
-76.7435897436
 21
127.0
 31
0.0
  0
LINE
  5
101
330
1F
100
AcDbEntity
  8
0
  6
Continuous
 62
     7
370
    25
100
AcDbLine
 10
-76.7435897436
 20
127.0
 30
0.0
 11
-76.7435897436
 21
122.0
 31
0.0
  0
LINE
  5
102
330
1F
100
AcDbEntity
  8
0
  6
Continuous
 62
     7
370
    25
100
AcDbLine
 10
-76.7435897436
 20
122.0
 30
0.0
 11
-79.7435897436
 21
122.0
 31
0.0
  0
LINE
  5
103
330
1F
100
AcDbEntity
  8
0
  6
Continuous
 62
     7
370
    25
100
AcDbLine
 10
-79.7435897436
 20
122.0
 30
0.0
 11
-79.7435897436
 21
117.0
 31
0.0
  0
LINE
  5
104
330
1F
100
AcDbEntity
  8
0
  6
Continuous
 62
     7
370
    25
100
AcDbLine
 10
-79.7435897436
 20
117.0
 30
0.0
 11
-76.7435897436
 21
117.0
 31
0.0
  0
LINE
  5
105
330
1F
100
AcDbEntity
  8
0
  6
Continuous
 62
     7
370
    25
100
AcDbLine
 10
-76.7435897436
 20
117.0
 30
0.0
 11
-76.7435897436
 21
116.1
 31
0.0
  0
LINE
  5
106
330
1F
100
AcDbEntity
  8
0
  6
Continuous
 62
     7
370
    25
100
AcDbLine
 10
-71.7435897436
 20
116.1
 30
0.0
 11
-76.7435897436
 21
116.1
 31
0.0
  0
LINE
  5
107
330
1F
100
AcDbEntity
  8
0
  6
Continuous
 62
     7
370
    25
100
AcDbLine
 10
-71.7435897436
 20
117.5
 30
0.0
 11
-71.7435897436
 21
116.1
 31
0.0
  0
LINE
  5
108
330
1F
100
AcDbEntity
  8
0
  6
Continuous
 62
     7
370
    25
100
AcDbLine
 10
-68.2435897436
 20
117.5
 30
0.0
 11
-71.7435897436
 21
117.5
 31
0.0
  0
LINE
  5
109
330
1F
100
AcDbEntity
  8
0
  6
Continuous
 62
     7
370
    25
100
AcDbLine
 10
-68.2435897436
 20
116.1
 30
0.0
 11
-68.2435897436
 21
117.5
 31
0.0
  0
LINE
  5
10A
330
1F
100
AcDbEntity
  8
0
  6
Continuous
 62
     7
370
    25
100
AcDbLine
 10
-64.7435897436
 20
116.1
 30
0.0
 11
-68.2435897436
 21
116.1
 31
0.0
  0
LINE
  5
10B
330
1F
100
AcDbEntity
  8
0
  6
Continuous
 62
     7
370
    25
100
AcDbLine
 10
-64.7435897436
 20
112.9
 30
0.0
 11
-64.7435897436
 21
116.1
 31
0.0
  0
LINE
  5
10C
330
1F
100
AcDbEntity
  8
0
  6
Continuous
 62
     7
370
    25
100
AcDbLine
 10
-64.7435897436
 20
112.9
 30
0.0
 11
-68.2435897436
 21
112.9
 31
0.0
  0
LINE
  5
10D
330
1F
100
AcDbEntity
  8
0
  6
Continuous
 62
     7
370
    25
100
AcDbLine
 10
-68.2435897436
 20
111.5
 30
0.0
 11
-68.2435897436
 21
112.9
 31
0.0
  0
LINE
  5
10E
330
1F
100
AcDbEntity
  8
0
  6
Continuous
 62
     7
370
    25
100
AcDbLine
 10
-71.7435897436
 20
111.5
 30
0.0
 11
-68.2435897436
 21
111.5
 31
0.0
  0
LINE
  5
10F
330
1F
100
AcDbEntity
  8
0
  6
Continuous
 62
     7
370
    25
100
AcDbLine
 10
-71.7435897436
 20
112.9
 30
0.0
 11
-71.7435897436
 21
111.5
 31
0.0
  0
LINE
  5
110
330
1F
100
AcDbEntity
  8
0
  6
Continuous
 62
     7
370
    25
100
AcDbLine
 10
-71.7435897436
 20
112.9
 30
0.0
 11
-76.7435897436
 21
112.9
 31
0.0
  0
LINE
  5
111
330
1F
100
AcDbEntity
  8
0
  6
Continuous
 62
     7
370
    25
100
AcDbLine
 10
-76.7435897436
 20
112.9
 30
0.0
 11
-76.7435897436
 21
112.0
 31
0.0
  0
LINE
  5
112
330
1F
100
AcDbEntity
  8
0
  6
Continuous
 62
     7
370
    25
100
AcDbLine
 10
-76.7435897436
 20
112.0
 30
0.0
 11
-79.7435897436
 21
112.0
 31
0.0
  0
LINE
  5
113
330
1F
100
AcDbEntity
  8
0
  6
Continuous
 62
     7
370
    25
100
AcDbLine
 10
-79.7435897436
 20
112.0
 30
0.0
 11
-79.7435897436
 21
107.0
 31
0.0
  0
LINE
  5
114
330
1F
100
AcDbEntity
  8
0
  6
Continuous
 62
     7
370
    25
100
AcDbLine
 10
-79.7435897436
 20
107.0
 30
0.0
 11
-76.7435897436
 21
107.0
 31
0.0
  0
LINE
  5
115
330
1F
100
AcDbEntity
  8
0
  6
Continuous
 62
     7
370
    25
100
AcDbLine
 10
-76.7435897436
 20
107.0
 30
0.0
 11
-76.7435897436
 21
102.0
 31
0.0
  0
LINE
  5
116
330
1F
100
AcDbEntity
  8
0
  6
Continuous
 62
     7
370
    25
100
AcDbLine
 10
-76.7435897436
 20
102.0
 30
0.0
 11
-79.7435897436
 21
102.0
 31
0.0
  0
LINE
  5
117
330
1F
100
AcDbEntity
  8
0
  6
Continuous
 62
     7
370
    25
100
AcDbLine
 10
-79.7435897436
 20
102.0
 30
0.0
 11
-79.7435897436
 21
97.0
 31
0.0
  0
LINE
  5
118
330
1F
100
AcDbEntity
  8
0
  6
Continuous
 62
     7
370
    25
100
AcDbLine
 10
-79.7435897436
 20
97.0
 30
0.0
 11
-76.7435897436
 21
97.0
 31
0.0
  0
LINE
  5
119
330
1F
100
AcDbEntity
  8
0
  6
Continuous
 62
     7
370
    25
100
AcDbLine
 10
-76.7435897436
 20
97.0
 30
0.0
 11
-76.7435897436
 21
92.0
 31
0.0
  0
LINE
  5
11A
330
1F
100
AcDbEntity
  8
0
  6
Continuous
 62
     7
370
    25
100
AcDbLine
 10
-76.7435897436
 20
92.0
 30
0.0
 11
-79.7435897436
 21
92.0
 31
0.0
  0
LINE
  5
11B
330
1F
100
AcDbEntity
  8
0
  6
Continuous
 62
     7
370
    25
100
AcDbLine
 10
-79.7435897436
 20
92.0
 30
0.0
 11
-79.7435897436
 21
87.0
 31
0.0
  0
LINE
  5
11C
330
1F
100
AcDbEntity
  8
0
  6
Continuous
 62
     7
370
    25
100
AcDbLine
 10
-79.7435897436
 20
87.0
 30
0.0
 11
-76.7435897436
 21
87.0
 31
0.0
  0
LINE
  5
11D
330
1F
100
AcDbEntity
  8
0
  6
Continuous
 62
     7
370
    25
100
AcDbLine
 10
-76.7435897436
 20
87.0
 30
0.0
 11
-76.7435897436
 21
82.0
 31
0.0
  0
LINE
  5
11E
330
1F
100
AcDbEntity
  8
0
  6
Continuous
 62
     7
370
    25
100
AcDbLine
 10
-76.7435897436
 20
82.0
 30
0.0
 11
-79.7435897436
 21
82.0
 31
0.0
  0
LINE
  5
11F
330
1F
100
AcDbEntity
  8
0
  6
Continuous
 62
     7
370
    25
100
AcDbLine
 10
-79.7435897436
 20
82.0
 30
0.0
 11
-79.7435897436
 21
77.0
 31
0.0
  0
LINE
  5
120
330
1F
100
AcDbEntity
  8
0
  6
Continuous
 62
     7
370
    25
100
AcDbLine
 10
-79.7435897436
 20
77.0
 30
0.0
 11
-76.7435897436
 21
77.0
 31
0.0
  0
LINE
  5
121
330
1F
100
AcDbEntity
  8
0
  6
Continuous
 62
     7
370
    25
100
AcDbLine
 10
-76.7435897436
 20
77.0
 30
0.0
 11
-76.7435897436
 21
72.0
 31
0.0
  0
LINE
  5
122
330
1F
100
AcDbEntity
  8
0
  6
Continuous
 62
     7
370
    25
100
AcDbLine
 10
-76.7435897436
 20
72.0
 30
0.0
 11
-79.7435897436
 21
72.0
 31
0.0
  0
LINE
  5
123
330
1F
100
AcDbEntity
  8
0
  6
Continuous
 62
     7
370
    25
100
AcDbLine
 10
-79.7435897436
 20
72.0
 30
0.0
 11
-79.7435897436
 21
67.0
 31
0.0
  0
LINE
  5
124
330
1F
100
AcDbEntity
  8
0
  6
Continuous
 62
     7
370
    25
100
AcDbLine
 10
-79.7435897436
 20
67.0
 30
0.0
 11
-76.7435897436
 21
67.0
 31
0.0
  0
LINE
  5
125
330
1F
100
AcDbEntity
  8
0
  6
Continuous
 62
     7
370
    25
100
AcDbLine
 10
-76.7435897436
 20
67.0
 30
0.0
 11
-76.7435897436
 21
66.1
 31
0.0
  0
LINE
  5
126
330
1F
100
AcDbEntity
  8
0
  6
Continuous
 62
     7
370
    25
100
AcDbLine
 10
-71.7435897436
 20
66.1
 30
0.0
 11
-76.7435897436
 21
66.1
 31
0.0
  0
LINE
  5
127
330
1F
100
AcDbEntity
  8
0
  6
Continuous
 62
     7
370
    25
100
AcDbLine
 10
-71.7435897436
 20
67.5
 30
0.0
 11
-71.7435897436
 21
66.1
 31
0.0
  0
LINE
  5
128
330
1F
100
AcDbEntity
  8
0
  6
Continuous
 62
     7
370
    25
100
AcDbLine
 10
-68.2435897436
 20
67.5
 30
0.0
 11
-71.7435897436
 21
67.5
 31
0.0
  0
LINE
  5
129
330
1F
100
AcDbEntity
  8
0
  6
Continuous
 62
     7
370
    25
100
AcDbLine
 10
-68.2435897436
 20
66.1
 30
0.0
 11
-68.2435897436
 21
67.5
 31
0.0
  0
LINE
  5
12A
330
1F
100
AcDbEntity
  8
0
  6
Continuous
 62
     7
370
    25
100
AcDbLine
 10
-64.7435897436
 20
66.1
 30
0.0
 11
-68.2435897436
 21
66.1
 31
0.0
  0
LINE
  5
12B
330
1F
100
AcDbEntity
  8
0
  6
Continuous
 62
     7
370
    25
100
AcDbLine
 10
-64.7435897436
 20
62.9
 30
0.0
 11
-64.7435897436
 21
66.1
 31
0.0
  0
LINE
  5
12C
330
1F
100
AcDbEntity
  8
0
  6
Continuous
 62
     7
370
    25
100
AcDbLine
 10
-64.7435897436
 20
62.9
 30
0.0
 11
-68.2435897436
 21
62.9
 31
0.0
  0
LINE
  5
12D
330
1F
100
AcDbEntity
  8
0
  6
Continuous
 62
     7
370
    25
100
AcDbLine
 10
-68.2435897436
 20
61.5
 30
0.0
 11
-68.2435897436
 21
62.9
 31
0.0
  0
LINE
  5
12E
330
1F
100
AcDbEntity
  8
0
  6
Continuous
 62
     7
370
    25
100
AcDbLine
 10
-71.7435897436
 20
61.5
 30
0.0
 11
-68.2435897436
 21
61.5
 31
0.0
  0
LINE
  5
12F
330
1F
100
AcDbEntity
  8
0
  6
Continuous
 62
     7
370
    25
100
AcDbLine
 10
-71.7435897436
 20
62.9
 30
0.0
 11
-71.7435897436
 21
61.5
 31
0.0
  0
LINE
  5
130
330
1F
100
AcDbEntity
  8
0
  6
Continuous
 62
     7
370
    25
100
AcDbLine
 10
-71.7435897436
 20
62.9
 30
0.0
 11
-76.7435897436
 21
62.9
 31
0.0
  0
LINE
  5
131
330
1F
100
AcDbEntity
  8
0
  6
Continuous
 62
     7
370
    25
100
AcDbLine
 10
-76.7435897436
 20
62.9
 30
0.0
 11
-76.7435897436
 21
62.0
 31
0.0
  0
LINE
  5
132
330
1F
100
AcDbEntity
  8
0
  6
Continuous
 62
     7
370
    25
100
AcDbLine
 10
-76.7435897436
 20
62.0
 30
0.0
 11
-79.7435897436
 21
62.0
 31
0.0
  0
LINE
  5
133
330
1F
100
AcDbEntity
  8
0
  6
Continuous
 62
     7
370
    25
100
AcDbLine
 10
-79.7435897436
 20
62.0
 30
0.0
 11
-79.7435897436
 21
57.0
 31
0.0
  0
LINE
  5
134
330
1F
100
AcDbEntity
  8
0
  6
Continuous
 62
     7
370
    25
100
AcDbLine
 10
-79.7435897436
 20
57.0
 30
0.0
 11
-76.7435897436
 21
57.0
 31
0.0
  0
LINE
  5
135
330
1F
100
AcDbEntity
  8
0
  6
Continuous
 62
     7
370
    25
100
AcDbLine
 10
-76.7435897436
 20
57.0
 30
0.0
 11
-76.7435897436
 21
52.0
 31
0.0
  0
LINE
  5
136
330
1F
100
AcDbEntity
  8
0
  6
Continuous
 62
     7
370
    25
100
AcDbLine
 10
-76.7435897436
 20
52.0
 30
0.0
 11
-79.7435897436
 21
52.0
 31
0.0
  0
LINE
  5
137
330
1F
100
AcDbEntity
  8
0
  6
Continuous
 62
     7
370
    25
100
AcDbLine
 10
-79.7435897436
 20
52.0
 30
0.0
 11
-79.7435897436
 21
47.0
 31
0.0
  0
LINE
  5
138
330
1F
100
AcDbEntity
  8
0
  6
Continuous
 62
     7
370
    25
100
AcDbLine
 10
-79.7435897436
 20
47.0
 30
0.0
 11
-76.7435897436
 21
47.0
 31
0.0
  0
LINE
  5
139
330
1F
100
AcDbEntity
  8
0
  6
Continuous
 62
     7
370
    25
100
AcDbLine
 10
-76.7435897436
 20
47.0
 30
0.0
 11
-76.7435897436
 21
42.0
 31
0.0
  0
LINE
  5
13A
330
1F
100
AcDbEntity
  8
0
  6
Continuous
 62
     7
370
    25
100
AcDbLine
 10
-76.7435897436
 20
42.0
 30
0.0
 11
-79.7435897436
 21
42.0
 31
0.0
  0
LINE
  5
13B
330
1F
100
AcDbEntity
  8
0
  6
Continuous
 62
     7
370
    25
100
AcDbLine
 10
-79.7435897436
 20
42.0
 30
0.0
 11
-79.7435897436
 21
37.0
 31
0.0
  0
LINE
  5
13C
330
1F
100
AcDbEntity
  8
0
  6
Continuous
 62
     7
370
    25
100
AcDbLine
 10
-79.7435897436
 20
37.0
 30
0.0
 11
-76.7435897436
 21
37.0
 31
0.0
  0
LINE
  5
13D
330
1F
100
AcDbEntity
  8
0
  6
Continuous
 62
     7
370
    25
100
AcDbLine
 10
-76.7435897436
 20
37.0
 30
0.0
 11
-76.7435897436
 21
32.0
 31
0.0
  0
LINE
  5
13E
330
1F
100
AcDbEntity
  8
0
  6
Continuous
 62
     7
370
    25
100
AcDbLine
 10
-76.7435897436
 20
32.0
 30
0.0
 11
-79.7435897436
 21
32.0
 31
0.0
  0
LINE
  5
13F
330
1F
100
AcDbEntity
  8
0
  6
Continuous
 62
     7
370
    25
100
AcDbLine
 10
-79.7435897436
 20
32.0
 30
0.0
 11
-79.7435897436
 21
27.0
 31
0.0
  0
LINE
  5
140
330
1F
100
AcDbEntity
  8
0
  6
Continuous
 62
     7
370
    25
100
AcDbLine
 10
-79.7435897436
 20
27.0
 30
0.0
 11
-76.7435897436
 21
27.0
 31
0.0
  0
LINE
  5
141
330
1F
100
AcDbEntity
  8
0
  6
Continuous
 62
     7
370
    25
100
AcDbLine
 10
-76.7435897436
 20
27.0
 30
0.0
 11
-76.7435897436
 21
22.0
 31
0.0
  0
LINE
  5
142
330
1F
100
AcDbEntity
  8
0
  6
Continuous
 62
     7
370
    25
100
AcDbLine
 10
-76.7435897436
 20
22.0
 30
0.0
 11
-79.7435897436
 21
22.0
 31
0.0
  0
LINE
  5
143
330
1F
100
AcDbEntity
  8
0
  6
Continuous
 62
     7
370
    25
100
AcDbLine
 10
-79.7435897436
 20
22.0
 30
0.0
 11
-79.7435897436
 21
17.0
 31
0.0
  0
LINE
  5
144
330
1F
100
AcDbEntity
  8
0
  6
Continuous
 62
     7
370
    25
100
AcDbLine
 10
-79.7435897436
 20
17.0
 30
0.0
 11
-76.7435897436
 21
17.0
 31
0.0
  0
LINE
  5
145
330
1F
100
AcDbEntity
  8
0
  6
Continuous
 62
     7
370
    25
100
AcDbLine
 10
-76.7435897436
 20
17.0
 30
0.0
 11
-76.7435897436
 21
16.1
 31
0.0
  0
LINE
  5
146
330
1F
100
AcDbEntity
  8
0
  6
Continuous
 62
     7
370
    25
100
AcDbLine
 10
-71.7435897436
 20
16.1
 30
0.0
 11
-76.7435897436
 21
16.1
 31
0.0
  0
LINE
  5
147
330
1F
100
AcDbEntity
  8
0
  6
Continuous
 62
     7
370
    25
100
AcDbLine
 10
-71.7435897436
 20
17.5
 30
0.0
 11
-71.7435897436
 21
16.1
 31
0.0
  0
LINE
  5
148
330
1F
100
AcDbEntity
  8
0
  6
Continuous
 62
     7
370
    25
100
AcDbLine
 10
-68.2435897436
 20
17.5
 30
0.0
 11
-71.7435897436
 21
17.5
 31
0.0
  0
LINE
  5
149
330
1F
100
AcDbEntity
  8
0
  6
Continuous
 62
     7
370
    25
100
AcDbLine
 10
-68.2435897436
 20
16.1
 30
0.0
 11
-68.2435897436
 21
17.5
 31
0.0
  0
LINE
  5
14A
330
1F
100
AcDbEntity
  8
0
  6
Continuous
 62
     7
370
    25
100
AcDbLine
 10
-64.7435897436
 20
16.1
 30
0.0
 11
-68.2435897436
 21
16.1
 31
0.0
  0
LINE
  5
14B
330
1F
100
AcDbEntity
  8
0
  6
Continuous
 62
     7
370
    25
100
AcDbLine
 10
-64.7435897436
 20
12.9
 30
0.0
 11
-64.7435897436
 21
16.1
 31
0.0
  0
LINE
  5
14C
330
1F
100
AcDbEntity
  8
0
  6
Continuous
 62
     7
370
    25
100
AcDbLine
 10
-64.7435897436
 20
12.9
 30
0.0
 11
-68.2435897436
 21
12.9
 31
0.0
  0
LINE
  5
14D
330
1F
100
AcDbEntity
  8
0
  6
Continuous
 62
     7
370
    25
100
AcDbLine
 10
-68.2435897436
 20
11.5
 30
0.0
 11
-68.2435897436
 21
12.9
 31
0.0
  0
LINE
  5
14E
330
1F
100
AcDbEntity
  8
0
  6
Continuous
 62
     7
370
    25
100
AcDbLine
 10
-71.7435897436
 20
11.5
 30
0.0
 11
-68.2435897436
 21
11.5
 31
0.0
  0
LINE
  5
14F
330
1F
100
AcDbEntity
  8
0
  6
Continuous
 62
     7
370
    25
100
AcDbLine
 10
-71.7435897436
 20
12.9
 30
0.0
 11
-71.7435897436
 21
11.5
 31
0.0
  0
LINE
  5
150
330
1F
100
AcDbEntity
  8
0
  6
Continuous
 62
     7
370
    25
100
AcDbLine
 10
-71.7435897436
 20
12.9
 30
0.0
 11
-76.7435897436
 21
12.9
 31
0.0
  0
LINE
  5
151
330
1F
100
AcDbEntity
  8
0
  6
Continuous
 62
     7
370
    25
100
AcDbLine
 10
-76.7435897436
 20
12.9
 30
0.0
 11
-76.7435897436
 21
12.0
 31
0.0
  0
LINE
  5
152
330
1F
100
AcDbEntity
  8
0
  6
Continuous
 62
     7
370
    25
100
AcDbLine
 10
-76.7435897436
 20
12.0
 30
0.0
 11
-79.7435897436
 21
12.0
 31
0.0
  0
LINE
  5
153
330
1F
100
AcDbEntity
  8
0
  6
Continuous
 62
     7
370
    25
100
AcDbLine
 10
-79.7435897436
 20
12.0
 30
0.0
 11
-79.7435897436
 21
7.0
 31
0.0
  0
LINE
  5
154
330
1F
100
AcDbEntity
  8
0
  6
Continuous
 62
     7
370
    25
100
AcDbLine
 10
-79.7435897436
 20
7.0
 30
0.0
 11
-76.7435897436
 21
7.0
 31
0.0
  0
LINE
  5
155
330
1F
100
AcDbEntity
  8
0
  6
Continuous
 62
     7
370
    25
100
AcDbLine
 10
-76.7435897436
 20
7.0
 30
0.0
 11
-76.7435897436
 21
2.0
 31
0.0
  0
LINE
  5
156
330
1F
100
AcDbEntity
  8
0
  6
Continuous
 62
     7
370
    25
100
AcDbLine
 10
-76.7435897436
 20
2.0
 30
0.0
 11
-79.7435897436
 21
2.0
 31
0.0
  0
LINE
  5
157
330
1F
100
AcDbEntity
  8
0
  6
Continuous
 62
     7
370
    25
100
AcDbLine
 10
-79.7435897436
 20
2.0
 30
0.0
 11
-79.7435897436
 21
0.0
 31
0.0
  0
LINE
  5
158
330
1F
100
AcDbEntity
  8
0
  6
Continuous
 62
     7
370
    25
100
AcDbLine
 10
-79.7435897436
 20
0.0
 30
0.0
 11
-29.7435897436
 21
0.0
 31
0.0
  0
LINE
  5
159
330
1F
100
AcDbEntity
  8
0
  6
Continuous
 62
     7
370
    25
100
AcDbLine
 10
-29.7435897436
 20
2.0
 30
0.0
 11
-29.7435897436
 21
0.0
 31
0.0
  0
LINE
  5
15A
330
1F
100
AcDbEntity
  8
0
  6
Continuous
 62
     7
370
    25
100
AcDbLine
 10
-29.7435897436
 20
2.0
 30
0.0
 11
-32.7435897436
 21
2.0
 31
0.0
  0
LINE
  5
15B
330
1F
100
AcDbEntity
  8
0
  6
Continuous
 62
     7
370
    25
100
AcDbLine
 10
-32.7435897436
 20
2.0
 30
0.0
 11
-32.7435897436
 21
7.0
 31
0.0
  0
LINE
  5
15C
330
1F
100
AcDbEntity
  8
0
  6
Continuous
 62
     7
370
    25
100
AcDbLine
 10
-32.7435897436
 20
7.0
 30
0.0
 11
-29.7435897436
 21
7.0
 31
0.0
  0
LINE
  5
15D
330
1F
100
AcDbEntity
  8
0
  6
Continuous
 62
     7
370
    25
100
AcDbLine
 10
-29.7435897436
 20
12.0
 30
0.0
 11
-29.7435897436
 21
7.0
 31
0.0
  0
LINE
  5
15E
330
1F
100
AcDbEntity
  8
0
  6
Continuous
 62
     7
370
    25
100
AcDbLine
 10
-29.7435897436
 20
12.0
 30
0.0
 11
-32.7435897436
 21
12.0
 31
0.0
  0
LINE
  5
15F
330
1F
100
AcDbEntity
  8
0
  6
Continuous
 62
     7
370
    25
100
AcDbLine
 10
-32.7435897436
 20
12.0
 30
0.0
 11
-32.7435897436
 21
12.9
 31
0.0
  0
LINE
  5
160
330
1F
100
AcDbEntity
  8
0
  6
Continuous
 62
     7
370
    25
100
AcDbLine
 10
-37.7435897436
 20
12.9
 30
0.0
 11
-32.7435897436
 21
12.9
 31
0.0
  0
LINE
  5
161
330
1F
100
AcDbEntity
  8
0
  6
Continuous
 62
     7
370
    25
100
AcDbLine
 10
-37.7435897436
 20
11.5
 30
0.0
 11
-37.7435897436
 21
12.9
 31
0.0
  0
LINE
  5
162
330
1F
100
AcDbEntity
  8
0
  6
Continuous
 62
     7
370
    25
100
AcDbLine
 10
-41.2435897436
 20
11.5
 30
0.0
 11
-37.7435897436
 21
11.5
 31
0.0
  0
LINE
  5
163
330
1F
100
AcDbEntity
  8
0
  6
Continuous
 62
     7
370
    25
100
AcDbLine
 10
-41.2435897436
 20
12.9
 30
0.0
 11
-41.2435897436
 21
11.5
 31
0.0
  0
LINE
  5
164
330
1F
100
AcDbEntity
  8
0
  6
Continuous
 62
     7
370
    25
100
AcDbLine
 10
-44.7435897436
 20
12.9
 30
0.0
 11
-41.2435897436
 21
12.9
 31
0.0
  0
LINE
  5
165
330
1F
100
AcDbEntity
  8
0
  6
Continuous
 62
     7
370
    25
100
AcDbLine
 10
-44.7435897436
 20
16.1
 30
0.0
 11
-44.7435897436
 21
12.9
 31
0.0
  0
LINE
  5
166
330
1F
100
AcDbEntity
  8
0
  6
Continuous
 62
     7
370
    25
100
AcDbLine
 10
-44.7435897436
 20
16.1
 30
0.0
 11
-41.2435897436
 21
16.1
 31
0.0
  0
LINE
  5
167
330
1F
100
AcDbEntity
  8
0
  6
Continuous
 62
     7
370
    25
100
AcDbLine
 10
-41.2435897436
 20
17.5
 30
0.0
 11
-41.2435897436
 21
16.1
 31
0.0
  0
LINE
  5
168
330
1F
100
AcDbEntity
  8
0
  6
Continuous
 62
     7
370
    25
100
AcDbLine
 10
-37.7435897436
 20
17.5
 30
0.0
 11
-41.2435897436
 21
17.5
 31
0.0
  0
LINE
  5
169
330
1F
100
AcDbEntity
  8
0
  6
Continuous
 62
     7
370
    25
100
AcDbLine
 10
-37.7435897436
 20
16.1
 30
0.0
 11
-37.7435897436
 21
17.5
 31
0.0
  0
LINE
  5
16A
330
1F
100
AcDbEntity
  8
0
  6
Continuous
 62
     7
370
    25
100
AcDbLine
 10
-37.7435897436
 20
16.1
 30
0.0
 11
-32.7435897436
 21
16.1
 31
0.0
  0
LINE
  5
16B
330
1F
100
AcDbEntity
  8
0
  6
Continuous
 62
     7
370
    25
100
AcDbLine
 10
-32.7435897436
 20
16.1
 30
0.0
 11
-32.7435897436
 21
17.0
 31
0.0
  0
LINE
  5
16C
330
1F
100
AcDbEntity
  8
0
  6
Continuous
 62
     7
370
    25
100
AcDbLine
 10
-32.7435897436
 20
17.0
 30
0.0
 11
-29.7435897436
 21
17.0
 31
0.0
  0
LINE
  5
16D
330
1F
100
AcDbEntity
  8
0
  6
Continuous
 62
     7
370
    25
100
AcDbLine
 10
-29.7435897436
 20
22.0
 30
0.0
 11
-29.7435897436
 21
17.0
 31
0.0
  0
LINE
  5
16E
330
1F
100
AcDbEntity
  8
0
  6
Continuous
 62
     7
370
    25
100
AcDbLine
 10
-29.7435897436
 20
22.0
 30
0.0
 11
-32.7435897436
 21
22.0
 31
0.0
  0
LINE
  5
16F
330
1F
100
AcDbEntity
  8
0
  6
Continuous
 62
     7
370
    25
100
AcDbLine
 10
-32.7435897436
 20
22.0
 30
0.0
 11
-32.7435897436
 21
27.0
 31
0.0
  0
LINE
  5
170
330
1F
100
AcDbEntity
  8
0
  6
Continuous
 62
     7
370
    25
100
AcDbLine
 10
-32.7435897436
 20
27.0
 30
0.0
 11
-29.7435897436
 21
27.0
 31
0.0
  0
LINE
  5
171
330
1F
100
AcDbEntity
  8
0
  6
Continuous
 62
     7
370
    25
100
AcDbLine
 10
-29.7435897436
 20
32.0
 30
0.0
 11
-29.7435897436
 21
27.0
 31
0.0
  0
LINE
  5
172
330
1F
100
AcDbEntity
  8
0
  6
Continuous
 62
     7
370
    25
100
AcDbLine
 10
-29.7435897436
 20
32.0
 30
0.0
 11
-32.7435897436
 21
32.0
 31
0.0
  0
LINE
  5
173
330
1F
100
AcDbEntity
  8
0
  6
Continuous
 62
     7
370
    25
100
AcDbLine
 10
-32.7435897436
 20
32.0
 30
0.0
 11
-32.7435897436
 21
37.0
 31
0.0
  0
LINE
  5
174
330
1F
100
AcDbEntity
  8
0
  6
Continuous
 62
     7
370
    25
100
AcDbLine
 10
-32.7435897436
 20
37.0
 30
0.0
 11
-29.7435897436
 21
37.0
 31
0.0
  0
LINE
  5
175
330
1F
100
AcDbEntity
  8
0
  6
Continuous
 62
     7
370
    25
100
AcDbLine
 10
-29.7435897436
 20
42.0
 30
0.0
 11
-29.7435897436
 21
37.0
 31
0.0
  0
LINE
  5
176
330
1F
100
AcDbEntity
  8
0
  6
Continuous
 62
     7
370
    25
100
AcDbLine
 10
-29.7435897436
 20
42.0
 30
0.0
 11
-32.7435897436
 21
42.0
 31
0.0
  0
LINE
  5
177
330
1F
100
AcDbEntity
  8
0
  6
Continuous
 62
     7
370
    25
100
AcDbLine
 10
-32.7435897436
 20
42.0
 30
0.0
 11
-32.7435897436
 21
47.0
 31
0.0
  0
LINE
  5
178
330
1F
100
AcDbEntity
  8
0
  6
Continuous
 62
     7
370
    25
100
AcDbLine
 10
-32.7435897436
 20
47.0
 30
0.0
 11
-29.7435897436
 21
47.0
 31
0.0
  0
LINE
  5
179
330
1F
100
AcDbEntity
  8
0
  6
Continuous
 62
     7
370
    25
100
AcDbLine
 10
-29.7435897436
 20
52.0
 30
0.0
 11
-29.7435897436
 21
47.0
 31
0.0
  0
LINE
  5
17A
330
1F
100
AcDbEntity
  8
0
  6
Continuous
 62
     7
370
    25
100
AcDbLine
 10
-29.7435897436
 20
52.0
 30
0.0
 11
-32.7435897436
 21
52.0
 31
0.0
  0
LINE
  5
17B
330
1F
100
AcDbEntity
  8
0
  6
Continuous
 62
     7
370
    25
100
AcDbLine
 10
-32.7435897436
 20
52.0
 30
0.0
 11
-32.7435897436
 21
57.0
 31
0.0
  0
LINE
  5
17C
330
1F
100
AcDbEntity
  8
0
  6
Continuous
 62
     7
370
    25
100
AcDbLine
 10
-32.7435897436
 20
57.0
 30
0.0
 11
-29.7435897436
 21
57.0
 31
0.0
  0
LINE
  5
17D
330
1F
100
AcDbEntity
  8
0
  6
Continuous
 62
     7
370
    25
100
AcDbLine
 10
-29.7435897436
 20
62.0
 30
0.0
 11
-29.7435897436
 21
57.0
 31
0.0
  0
LINE
  5
17E
330
1F
100
AcDbEntity
  8
0
  6
Continuous
 62
     7
370
    25
100
AcDbLine
 10
-29.7435897436
 20
62.0
 30
0.0
 11
-32.7435897436
 21
62.0
 31
0.0
  0
LINE
  5
17F
330
1F
100
AcDbEntity
  8
0
  6
Continuous
 62
     7
370
    25
100
AcDbLine
 10
-32.7435897436
 20
62.0
 30
0.0
 11
-32.7435897436
 21
62.9
 31
0.0
  0
LINE
  5
180
330
1F
100
AcDbEntity
  8
0
  6
Continuous
 62
     7
370
    25
100
AcDbLine
 10
-37.7435897436
 20
62.9
 30
0.0
 11
-32.7435897436
 21
62.9
 31
0.0
  0
LINE
  5
181
330
1F
100
AcDbEntity
  8
0
  6
Continuous
 62
     7
370
    25
100
AcDbLine
 10
-37.7435897436
 20
61.5
 30
0.0
 11
-37.7435897436
 21
62.9
 31
0.0
  0
LINE
  5
182
330
1F
100
AcDbEntity
  8
0
  6
Continuous
 62
     7
370
    25
100
AcDbLine
 10
-41.2435897436
 20
61.5
 30
0.0
 11
-37.7435897436
 21
61.5
 31
0.0
  0
LINE
  5
183
330
1F
100
AcDbEntity
  8
0
  6
Continuous
 62
     7
370
    25
100
AcDbLine
 10
-41.2435897436
 20
62.9
 30
0.0
 11
-41.2435897436
 21
61.5
 31
0.0
  0
LINE
  5
184
330
1F
100
AcDbEntity
  8
0
  6
Continuous
 62
     7
370
    25
100
AcDbLine
 10
-44.7435897436
 20
62.9
 30
0.0
 11
-41.2435897436
 21
62.9
 31
0.0
  0
LINE
  5
185
330
1F
100
AcDbEntity
  8
0
  6
Continuous
 62
     7
370
    25
100
AcDbLine
 10
-44.7435897436
 20
66.1
 30
0.0
 11
-44.7435897436
 21
62.9
 31
0.0
  0
LINE
  5
186
330
1F
100
AcDbEntity
  8
0
  6
Continuous
 62
     7
370
    25
100
AcDbLine
 10
-44.7435897436
 20
66.1
 30
0.0
 11
-41.2435897436
 21
66.1
 31
0.0
  0
LINE
  5
187
330
1F
100
AcDbEntity
  8
0
  6
Continuous
 62
     7
370
    25
100
AcDbLine
 10
-41.2435897436
 20
67.5
 30
0.0
 11
-41.2435897436
 21
66.1
 31
0.0
  0
LINE
  5
188
330
1F
100
AcDbEntity
  8
0
  6
Continuous
 62
     7
370
    25
100
AcDbLine
 10
-37.7435897436
 20
67.5
 30
0.0
 11
-41.2435897436
 21
67.5
 31
0.0
  0
LINE
  5
189
330
1F
100
AcDbEntity
  8
0
  6
Continuous
 62
     7
370
    25
100
AcDbLine
 10
-37.7435897436
 20
66.1
 30
0.0
 11
-37.7435897436
 21
67.5
 31
0.0
  0
LINE
  5
18A
330
1F
100
AcDbEntity
  8
0
  6
Continuous
 62
     7
370
    25
100
AcDbLine
 10
-37.7435897436
 20
66.1
 30
0.0
 11
-32.7435897436
 21
66.1
 31
0.0
  0
LINE
  5
18B
330
1F
100
AcDbEntity
  8
0
  6
Continuous
 62
     7
370
    25
100
AcDbLine
 10
-32.7435897436
 20
66.1
 30
0.0
 11
-32.7435897436
 21
67.0
 31
0.0
  0
LINE
  5
18C
330
1F
100
AcDbEntity
  8
0
  6
Continuous
 62
     7
370
    25
100
AcDbLine
 10
-32.7435897436
 20
67.0
 30
0.0
 11
-29.7435897436
 21
67.0
 31
0.0
  0
LINE
  5
18D
330
1F
100
AcDbEntity
  8
0
  6
Continuous
 62
     7
370
    25
100
AcDbLine
 10
-29.7435897436
 20
72.0
 30
0.0
 11
-29.7435897436
 21
67.0
 31
0.0
  0
LINE
  5
18E
330
1F
100
AcDbEntity
  8
0
  6
Continuous
 62
     7
370
    25
100
AcDbLine
 10
-29.7435897436
 20
72.0
 30
0.0
 11
-32.7435897436
 21
72.0
 31
0.0
  0
LINE
  5
18F
330
1F
100
AcDbEntity
  8
0
  6
Continuous
 62
     7
370
    25
100
AcDbLine
 10
-32.7435897436
 20
72.0
 30
0.0
 11
-32.7435897436
 21
77.0
 31
0.0
  0
LINE
  5
190
330
1F
100
AcDbEntity
  8
0
  6
Continuous
 62
     7
370
    25
100
AcDbLine
 10
-32.7435897436
 20
77.0
 30
0.0
 11
-29.7435897436
 21
77.0
 31
0.0
  0
LINE
  5
191
330
1F
100
AcDbEntity
  8
0
  6
Continuous
 62
     7
370
    25
100
AcDbLine
 10
-29.7435897436
 20
82.0
 30
0.0
 11
-29.7435897436
 21
77.0
 31
0.0
  0
LINE
  5
192
330
1F
100
AcDbEntity
  8
0
  6
Continuous
 62
     7
370
    25
100
AcDbLine
 10
-29.7435897436
 20
82.0
 30
0.0
 11
-32.7435897436
 21
82.0
 31
0.0
  0
LINE
  5
193
330
1F
100
AcDbEntity
  8
0
  6
Continuous
 62
     7
370
    25
100
AcDbLine
 10
-32.7435897436
 20
82.0
 30
0.0
 11
-32.7435897436
 21
87.0
 31
0.0
  0
LINE
  5
194
330
1F
100
AcDbEntity
  8
0
  6
Continuous
 62
     7
370
    25
100
AcDbLine
 10
-32.7435897436
 20
87.0
 30
0.0
 11
-29.7435897436
 21
87.0
 31
0.0
  0
LINE
  5
195
330
1F
100
AcDbEntity
  8
0
  6
Continuous
 62
     7
370
    25
100
AcDbLine
 10
-29.7435897436
 20
92.0
 30
0.0
 11
-29.7435897436
 21
87.0
 31
0.0
  0
LINE
  5
196
330
1F
100
AcDbEntity
  8
0
  6
Continuous
 62
     7
370
    25
100
AcDbLine
 10
-29.7435897436
 20
92.0
 30
0.0
 11
-32.7435897436
 21
92.0
 31
0.0
  0
LINE
  5
197
330
1F
100
AcDbEntity
  8
0
  6
Continuous
 62
     7
370
    25
100
AcDbLine
 10
-32.7435897436
 20
92.0
 30
0.0
 11
-32.7435897436
 21
97.0
 31
0.0
  0
LINE
  5
198
330
1F
100
AcDbEntity
  8
0
  6
Continuous
 62
     7
370
    25
100
AcDbLine
 10
-32.7435897436
 20
97.0
 30
0.0
 11
-29.7435897436
 21
97.0
 31
0.0
  0
LINE
  5
199
330
1F
100
AcDbEntity
  8
0
  6
Continuous
 62
     7
370
    25
100
AcDbLine
 10
-29.7435897436
 20
102.0
 30
0.0
 11
-29.7435897436
 21
97.0
 31
0.0
  0
LINE
  5
19A
330
1F
100
AcDbEntity
  8
0
  6
Continuous
 62
     7
370
    25
100
AcDbLine
 10
-29.7435897436
 20
102.0
 30
0.0
 11
-32.7435897436
 21
102.0
 31
0.0
  0
LINE
  5
19B
330
1F
100
AcDbEntity
  8
0
  6
Continuous
 62
     7
370
    25
100
AcDbLine
 10
-32.7435897436
 20
102.0
 30
0.0
 11
-32.7435897436
 21
107.0
 31
0.0
  0
LINE
  5
19C
330
1F
100
AcDbEntity
  8
0
  6
Continuous
 62
     7
370
    25
100
AcDbLine
 10
-32.7435897436
 20
107.0
 30
0.0
 11
-29.7435897436
 21
107.0
 31
0.0
  0
LINE
  5
19D
330
1F
100
AcDbEntity
  8
0
  6
Continuous
 62
     7
370
    25
100
AcDbLine
 10
-29.7435897436
 20
112.0
 30
0.0
 11
-29.7435897436
 21
107.0
 31
0.0
  0
LINE
  5
19E
330
1F
100
AcDbEntity
  8
0
  6
Continuous
 62
     7
370
    25
100
AcDbLine
 10
-29.7435897436
 20
112.0
 30
0.0
 11
-32.7435897436
 21
112.0
 31
0.0
  0
LINE
  5
19F
330
1F
100
AcDbEntity
  8
0
  6
Continuous
 62
     7
370
    25
100
AcDbLine
 10
-32.7435897436
 20
112.0
 30
0.0
 11
-32.7435897436
 21
112.9
 31
0.0
  0
LINE
  5
1A0
330
1F
100
AcDbEntity
  8
0
  6
Continuous
 62
     7
370
    25
100
AcDbLine
 10
-37.7435897436
 20
112.9
 30
0.0
 11
-32.7435897436
 21
112.9
 31
0.0
  0
LINE
  5
1A1
330
1F
100
AcDbEntity
  8
0
  6
Continuous
 62
     7
370
    25
100
AcDbLine
 10
-37.7435897436
 20
111.5
 30
0.0
 11
-37.7435897436
 21
112.9
 31
0.0
  0
LINE
  5
1A2
330
1F
100
AcDbEntity
  8
0
  6
Continuous
 62
     7
370
    25
100
AcDbLine
 10
-41.2435897436
 20
111.5
 30
0.0
 11
-37.7435897436
 21
111.5
 31
0.0
  0
LINE
  5
1A3
330
1F
100
AcDbEntity
  8
0
  6
Continuous
 62
     7
370
    25
100
AcDbLine
 10
-41.2435897436
 20
112.9
 30
0.0
 11
-41.2435897436
 21
111.5
 31
0.0
  0
LINE
  5
1A4
330
1F
100
AcDbEntity
  8
0
  6
Continuous
 62
     7
370
    25
100
AcDbLine
 10
-44.7435897436
 20
112.9
 30
0.0
 11
-41.2435897436
 21
112.9
 31
0.0
  0
LINE
  5
1A5
330
1F
100
AcDbEntity
  8
0
  6
Continuous
 62
     7
370
    25
100
AcDbLine
 10
-44.7435897436
 20
116.1
 30
0.0
 11
-44.7435897436
 21
112.9
 31
0.0
  0
LINE
  5
1A6
330
1F
100
AcDbEntity
  8
0
  6
Continuous
 62
     7
370
    25
100
AcDbLine
 10
-44.7435897436
 20
116.1
 30
0.0
 11
-41.2435897436
 21
116.1
 31
0.0
  0
LINE
  5
1A7
330
1F
100
AcDbEntity
  8
0
  6
Continuous
 62
     7
370
    25
100
AcDbLine
 10
-41.2435897436
 20
117.5
 30
0.0
 11
-41.2435897436
 21
116.1
 31
0.0
  0
LINE
  5
1A8
330
1F
100
AcDbEntity
  8
0
  6
Continuous
 62
     7
370
    25
100
AcDbLine
 10
-37.7435897436
 20
117.5
 30
0.0
 11
-41.2435897436
 21
117.5
 31
0.0
  0
LINE
  5
1A9
330
1F
100
AcDbEntity
  8
0
  6
Continuous
 62
     7
370
    25
100
AcDbLine
 10
-37.7435897436
 20
116.1
 30
0.0
 11
-37.7435897436
 21
117.5
 31
0.0
  0
LINE
  5
1AA
330
1F
100
AcDbEntity
  8
0
  6
Continuous
 62
     7
370
    25
100
AcDbLine
 10
-37.7435897436
 20
116.1
 30
0.0
 11
-32.7435897436
 21
116.1
 31
0.0
  0
LINE
  5
1AB
330
1F
100
AcDbEntity
  8
0
  6
Continuous
 62
     7
370
    25
100
AcDbLine
 10
-32.7435897436
 20
116.1
 30
0.0
 11
-32.7435897436
 21
117.0
 31
0.0
  0
LINE
  5
1AC
330
1F
100
AcDbEntity
  8
0
  6
Continuous
 62
     7
370
    25
100
AcDbLine
 10
-32.7435897436
 20
117.0
 30
0.0
 11
-29.7435897436
 21
117.0
 31
0.0
  0
LINE
  5
1AD
330
1F
100
AcDbEntity
  8
0
  6
Continuous
 62
     7
370
    25
100
AcDbLine
 10
-29.7435897436
 20
122.0
 30
0.0
 11
-29.7435897436
 21
117.0
 31
0.0
  0
LINE
  5
1AE
330
1F
100
AcDbEntity
  8
0
  6
Continuous
 62
     7
370
    25
100
AcDbLine
 10
-29.7435897436
 20
122.0
 30
0.0
 11
-32.7435897436
 21
122.0
 31
0.0
  0
LINE
  5
1AF
330
1F
100
AcDbEntity
  8
0
  6
Continuous
 62
     7
370
    25
100
AcDbLine
 10
-32.7435897436
 20
122.0
 30
0.0
 11
-32.7435897436
 21
127.0
 31
0.0
  0
LINE
  5
1B0
330
1F
100
AcDbEntity
  8
0
  6
Continuous
 62
     7
370
    25
100
AcDbLine
 10
-32.7435897436
 20
127.0
 30
0.0
 11
-29.7435897436
 21
127.0
 31
0.0
  0
LINE
  5
1B1
330
1F
100
AcDbEntity
  8
0
  6
Continuous
 62
     7
370
    25
100
AcDbLine
 10
-29.7435897436
 20
132.0
 30
0.0
 11
-29.7435897436
 21
127.0
 31
0.0
  0
LINE
  5
1B2
330
1F
100
AcDbEntity
  8
0
  6
Continuous
 62
     7
370
    25
100
AcDbLine
 10
-29.7435897436
 20
132.0
 30
0.0
 11
-32.7435897436
 21
132.0
 31
0.0
  0
LINE
  5
1B3
330
1F
100
AcDbEntity
  8
0
  6
Continuous
 62
     7
370
    25
100
AcDbLine
 10
-32.7435897436
 20
132.0
 30
0.0
 11
-32.7435897436
 21
137.0
 31
0.0
  0
LINE
  5
1B4
330
1F
100
AcDbEntity
  8
0
  6
Continuous
 62
     7
370
    25
100
AcDbLine
 10
-32.7435897436
 20
137.0
 30
0.0
 11
-29.7435897436
 21
137.0
 31
0.0
  0
LINE
  5
1B5
330
1F
100
AcDbEntity
  8
0
  6
Continuous
 62
     7
370
    25
100
AcDbLine
 10
-29.7435897436
 20
142.0
 30
0.0
 11
-29.7435897436
 21
137.0
 31
0.0
  0
LINE
  5
1B6
330
1F
100
AcDbEntity
  8
0
  6
Continuous
 62
     7
370
    25
100
AcDbLine
 10
-29.7435897436
 20
142.0
 30
0.0
 11
-32.7435897436
 21
142.0
 31
0.0
  0
LINE
  5
1B7
330
1F
100
AcDbEntity
  8
0
  6
Continuous
 62
     7
370
    25
100
AcDbLine
 10
-32.7435897436
 20
142.0
 30
0.0
 11
-32.7435897436
 21
147.0
 31
0.0
  0
LINE
  5
1B8
330
1F
100
AcDbEntity
  8
0
  6
Continuous
 62
     7
370
    25
100
AcDbLine
 10
-32.7435897436
 20
147.0
 30
0.0
 11
-29.7435897436
 21
147.0
 31
0.0
  0
LINE
  5
1B9
330
1F
100
AcDbEntity
  8
0
  6
Continuous
 62
     7
370
    25
100
AcDbLine
 10
-29.7435897436
 20
152.0
 30
0.0
 11
-29.7435897436
 21
147.0
 31
0.0
  0
LINE
  5
1BA
330
1F
100
AcDbEntity
  8
0
  6
Continuous
 62
     7
370
    25
100
AcDbLine
 10
-29.7435897436
 20
152.0
 30
0.0
 11
-32.7435897436
 21
152.0
 31
0.0
  0
LINE
  5
1BB
330
1F
100
AcDbEntity
  8
0
  6
Continuous
 62
     7
370
    25
100
AcDbLine
 10
-32.7435897436
 20
152.0
 30
0.0
 11
-32.7435897436
 21
157.0
 31
0.0
  0
LINE
  5
1BC
330
1F
100
AcDbEntity
  8
0
  6
Continuous
 62
     7
370
    25
100
AcDbLine
 10
-32.7435897436
 20
157.0
 30
0.0
 11
-29.7435897436
 21
157.0
 31
0.0
  0
LINE
  5
1BD
330
1F
100
AcDbEntity
  8
0
  6
Continuous
 62
     7
370
    25
100
AcDbLine
 10
-29.7435897436
 20
162.0
 30
0.0
 11
-29.7435897436
 21
157.0
 31
0.0
  0
LINE
  5
1BE
330
1F
100
AcDbEntity
  8
0
  6
Continuous
 62
     7
370
    25
100
AcDbLine
 10
-29.7435897436
 20
162.0
 30
0.0
 11
-32.7435897436
 21
162.0
 31
0.0
  0
LINE
  5
1BF
330
1F
100
AcDbEntity
  8
0
  6
Continuous
 62
     7
370
    25
100
AcDbLine
 10
-32.7435897436
 20
162.0
 30
0.0
 11
-32.7435897436
 21
162.9
 31
0.0
  0
LINE
  5
1C0
330
1F
100
AcDbEntity
  8
0
  6
Continuous
 62
     7
370
    25
100
AcDbLine
 10
-37.7435897436
 20
162.9
 30
0.0
 11
-32.7435897436
 21
162.9
 31
0.0
  0
LINE
  5
1C1
330
1F
100
AcDbEntity
  8
0
  6
Continuous
 62
     7
370
    25
100
AcDbLine
 10
-37.7435897436
 20
161.5
 30
0.0
 11
-37.7435897436
 21
162.9
 31
0.0
  0
LINE
  5
1C2
330
1F
100
AcDbEntity
  8
0
  6
Continuous
 62
     7
370
    25
100
AcDbLine
 10
-41.2435897436
 20
161.5
 30
0.0
 11
-37.7435897436
 21
161.5
 31
0.0
  0
LINE
  5
1C3
330
1F
100
AcDbEntity
  8
0
  6
Continuous
 62
     7
370
    25
100
AcDbLine
 10
-41.2435897436
 20
162.9
 30
0.0
 11
-41.2435897436
 21
161.5
 31
0.0
  0
LINE
  5
1C4
330
1F
100
AcDbEntity
  8
0
  6
Continuous
 62
     7
370
    25
100
AcDbLine
 10
-44.7435897436
 20
162.9
 30
0.0
 11
-41.2435897436
 21
162.9
 31
0.0
  0
LINE
  5
1C5
330
1F
100
AcDbEntity
  8
0
  6
Continuous
 62
     7
370
    25
100
AcDbLine
 10
-44.7435897436
 20
166.1
 30
0.0
 11
-44.7435897436
 21
162.9
 31
0.0
  0
LINE
  5
1C6
330
1F
100
AcDbEntity
  8
0
  6
Continuous
 62
     7
370
    25
100
AcDbLine
 10
-44.7435897436
 20
166.1
 30
0.0
 11
-41.2435897436
 21
166.1
 31
0.0
  0
LINE
  5
1C7
330
1F
100
AcDbEntity
  8
0
  6
Continuous
 62
     7
370
    25
100
AcDbLine
 10
-41.2435897436
 20
167.5
 30
0.0
 11
-41.2435897436
 21
166.1
 31
0.0
  0
LINE
  5
1C8
330
1F
100
AcDbEntity
  8
0
  6
Continuous
 62
     7
370
    25
100
AcDbLine
 10
-37.7435897436
 20
167.5
 30
0.0
 11
-41.2435897436
 21
167.5
 31
0.0
  0
LINE
  5
1C9
330
1F
100
AcDbEntity
  8
0
  6
Continuous
 62
     7
370
    25
100
AcDbLine
 10
-37.7435897436
 20
166.1
 30
0.0
 11
-37.7435897436
 21
167.5
 31
0.0
  0
LINE
  5
1CA
330
1F
100
AcDbEntity
  8
0
  6
Continuous
 62
     7
370
    25
100
AcDbLine
 10
-37.7435897436
 20
166.1
 30
0.0
 11
-32.7435897436
 21
166.1
 31
0.0
  0
LINE
  5
1CB
330
1F
100
AcDbEntity
  8
0
  6
Continuous
 62
     7
370
    25
100
AcDbLine
 10
-32.7435897436
 20
166.1
 30
0.0
 11
-32.7435897436
 21
167.0
 31
0.0
  0
LINE
  5
1CC
330
1F
100
AcDbEntity
  8
0
  6
Continuous
 62
     7
370
    25
100
AcDbLine
 10
-32.7435897436
 20
167.0
 30
0.0
 11
-29.7435897436
 21
167.0
 31
0.0
  0
LINE
  5
1CD
330
1F
100
AcDbEntity
  8
0
  6
Continuous
 62
     7
370
    25
100
AcDbLine
 10
-29.7435897436
 20
172.0
 30
0.0
 11
-29.7435897436
 21
167.0
 31
0.0
  0
LINE
  5
1CE
330
1F
100
AcDbEntity
  8
0
  6
Continuous
 62
     7
370
    25
100
AcDbLine
 10
-29.7435897436
 20
172.0
 30
0.0
 11
-32.7435897436
 21
172.0
 31
0.0
  0
LINE
  5
1CF
330
1F
100
AcDbEntity
  8
0
  6
Continuous
 62
     7
370
    25
100
AcDbLine
 10
-32.7435897436
 20
172.0
 30
0.0
 11
-32.7435897436
 21
177.0
 31
0.0
  0
LINE
  5
1D0
330
1F
100
AcDbEntity
  8
0
  6
Continuous
 62
     7
370
    25
100
AcDbLine
 10
-32.7435897436
 20
177.0
 30
0.0
 11
-29.7435897436
 21
177.0
 31
0.0
  0
LINE
  5
1D1
330
1F
100
AcDbEntity
  8
0
  6
Continuous
 62
     7
370
    25
100
AcDbLine
 10
-29.7435897436
 20
182.0
 30
0.0
 11
-29.7435897436
 21
177.0
 31
0.0
  0
LINE
  5
1D2
330
1F
100
AcDbEntity
  8
0
  6
Continuous
 62
     7
370
    25
100
AcDbLine
 10
-29.7435897436
 20
182.0
 30
0.0
 11
-32.7435897436
 21
182.0
 31
0.0
  0
LINE
  5
1D3
330
1F
100
AcDbEntity
  8
0
  6
Continuous
 62
     7
370
    25
100
AcDbLine
 10
-32.7435897436
 20
182.0
 30
0.0
 11
-32.7435897436
 21
187.0
 31
0.0
  0
LINE
  5
1D4
330
1F
100
AcDbEntity
  8
0
  6
Continuous
 62
     7
370
    25
100
AcDbLine
 10
-32.7435897436
 20
187.0
 30
0.0
 11
-29.7435897436
 21
187.0
 31
0.0
  0
LINE
  5
1D5
330
1F
100
AcDbEntity
  8
0
  6
Continuous
 62
     7
370
    25
100
AcDbLine
 10
-29.7435897436
 20
192.0
 30
0.0
 11
-29.7435897436
 21
187.0
 31
0.0
  0
LINE
  5
1D6
330
1F
100
AcDbEntity
  8
0
  6
Continuous
 62
     7
370
    25
100
AcDbLine
 10
-29.7435897436
 20
192.0
 30
0.0
 11
-32.7435897436
 21
192.0
 31
0.0
  0
LINE
  5
1D7
330
1F
100
AcDbEntity
  8
0
  6
Continuous
 62
     7
370
    25
100
AcDbLine
 10
-32.7435897436
 20
192.0
 30
0.0
 11
-32.7435897436
 21
197.0
 31
0.0
  0
LINE
  5
1D8
330
1F
100
AcDbEntity
  8
0
  6
Continuous
 62
     7
370
    25
100
AcDbLine
 10
-32.7435897436
 20
197.0
 30
0.0
 11
-29.7435897436
 21
197.0
 31
0.0
  0
LINE
  5
1D9
330
1F
100
AcDbEntity
  8
0
  6
Continuous
 62
     7
370
    25
100
AcDbLine
 10
-29.7435897436
 20
202.0
 30
0.0
 11
-29.7435897436
 21
197.0
 31
0.0
  0
LINE
  5
1DA
330
1F
100
AcDbEntity
  8
0
  6
Continuous
 62
     7
370
    25
100
AcDbLine
 10
-29.7435897436
 20
202.0
 30
0.0
 11
-32.7435897436
 21
202.0
 31
0.0
  0
LINE
  5
1DB
330
1F
100
AcDbEntity
  8
0
  6
Continuous
 62
     7
370
    25
100
AcDbLine
 10
-32.7435897436
 20
202.0
 30
0.0
 11
-32.7435897436
 21
207.0
 31
0.0
  0
LINE
  5
1DC
330
1F
100
AcDbEntity
  8
0
  6
Continuous
 62
     7
370
    25
100
AcDbLine
 10
-32.7435897436
 20
207.0
 30
0.0
 11
-29.7435897436
 21
207.0
 31
0.0
  0
LINE
  5
1DD
330
1F
100
AcDbEntity
  8
0
  6
Continuous
 62
     7
370
    25
100
AcDbLine
 10
-29.7435897436
 20
212.0
 30
0.0
 11
-29.7435897436
 21
207.0
 31
0.0
  0
LINE
  5
1DE
330
1F
100
AcDbEntity
  8
0
  6
Continuous
 62
     7
370
    25
100
AcDbLine
 10
-29.7435897436
 20
212.0
 30
0.0
 11
-32.7435897436
 21
212.0
 31
0.0
  0
LINE
  5
1DF
330
1F
100
AcDbEntity
  8
0
  6
Continuous
 62
     7
370
    25
100
AcDbLine
 10
-32.7435897436
 20
212.0
 30
0.0
 11
-32.7435897436
 21
212.9
 31
0.0
  0
LINE
  5
1E0
330
1F
100
AcDbEntity
  8
0
  6
Continuous
 62
     7
370
    25
100
AcDbLine
 10
-37.7435897436
 20
212.9
 30
0.0
 11
-32.7435897436
 21
212.9
 31
0.0
  0
LINE
  5
1E1
330
1F
100
AcDbEntity
  8
0
  6
Continuous
 62
     7
370
    25
100
AcDbLine
 10
-37.7435897436
 20
211.5
 30
0.0
 11
-37.7435897436
 21
212.9
 31
0.0
  0
LINE
  5
1E2
330
1F
100
AcDbEntity
  8
0
  6
Continuous
 62
     7
370
    25
100
AcDbLine
 10
-41.2435897436
 20
211.5
 30
0.0
 11
-37.7435897436
 21
211.5
 31
0.0
  0
LINE
  5
1E3
330
1F
100
AcDbEntity
  8
0
  6
Continuous
 62
     7
370
    25
100
AcDbLine
 10
-41.2435897436
 20
212.9
 30
0.0
 11
-41.2435897436
 21
211.5
 31
0.0
  0
LINE
  5
1E4
330
1F
100
AcDbEntity
  8
0
  6
Continuous
 62
     7
370
    25
100
AcDbLine
 10
-44.7435897436
 20
212.9
 30
0.0
 11
-41.2435897436
 21
212.9
 31
0.0
  0
LINE
  5
1E5
330
1F
100
AcDbEntity
  8
0
  6
Continuous
 62
     7
370
    25
100
AcDbLine
 10
-44.7435897436
 20
216.1
 30
0.0
 11
-44.7435897436
 21
212.9
 31
0.0
  0
LINE
  5
1E6
330
1F
100
AcDbEntity
  8
0
  6
Continuous
 62
     7
370
    25
100
AcDbLine
 10
-44.7435897436
 20
216.1
 30
0.0
 11
-41.2435897436
 21
216.1
 31
0.0
  0
LINE
  5
1E7
330
1F
100
AcDbEntity
  8
0
  6
Continuous
 62
     7
370
    25
100
AcDbLine
 10
-41.2435897436
 20
217.5
 30
0.0
 11
-41.2435897436
 21
216.1
 31
0.0
  0
LINE
  5
1E8
330
1F
100
AcDbEntity
  8
0
  6
Continuous
 62
     7
370
    25
100
AcDbLine
 10
-37.7435897436
 20
217.5
 30
0.0
 11
-41.2435897436
 21
217.5
 31
0.0
  0
LINE
  5
1E9
330
1F
100
AcDbEntity
  8
0
  6
Continuous
 62
     7
370
    25
100
AcDbLine
 10
-37.7435897436
 20
216.1
 30
0.0
 11
-37.7435897436
 21
217.5
 31
0.0
  0
LINE
  5
1EA
330
1F
100
AcDbEntity
  8
0
  6
Continuous
 62
     7
370
    25
100
AcDbLine
 10
-37.7435897436
 20
216.1
 30
0.0
 11
-32.7435897436
 21
216.1
 31
0.0
  0
LINE
  5
1EB
330
1F
100
AcDbEntity
  8
0
  6
Continuous
 62
     7
370
    25
100
AcDbLine
 10
-32.7435897436
 20
216.1
 30
0.0
 11
-32.7435897436
 21
217.0
 31
0.0
  0
LINE
  5
1EC
330
1F
100
AcDbEntity
  8
0
  6
Continuous
 62
     7
370
    25
100
AcDbLine
 10
-32.7435897436
 20
217.0
 30
0.0
 11
-29.7435897436
 21
217.0
 31
0.0
  0
LINE
  5
1ED
330
1F
100
AcDbEntity
  8
0
  6
Continuous
 62
     7
370
    25
100
AcDbLine
 10
-29.7435897436
 20
222.0
 30
0.0
 11
-29.7435897436
 21
217.0
 31
0.0
  0
LINE
  5
1EE
330
1F
100
AcDbEntity
  8
0
  6
Continuous
 62
     7
370
    25
100
AcDbLine
 10
-29.7435897436
 20
222.0
 30
0.0
 11
-32.7435897436
 21
222.0
 31
0.0
  0
LINE
  5
1EF
330
1F
100
AcDbEntity
  8
0
  6
Continuous
 62
     7
370
    25
100
AcDbLine
 10
-32.7435897436
 20
222.0
 30
0.0
 11
-32.7435897436
 21
227.0
 31
0.0
  0
LINE
  5
1F0
330
1F
100
AcDbEntity
  8
0
  6
Continuous
 62
     7
370
    25
100
AcDbLine
 10
-32.7435897436
 20
227.0
 30
0.0
 11
-29.7435897436
 21
227.0
 31
0.0
  0
LINE
  5
1F1
330
1F
100
AcDbEntity
  8
0
  6
Continuous
 62
     7
370
    25
100
AcDbLine
 10
-29.7435897436
 20
232.0
 30
0.0
 11
-29.7435897436
 21
227.0
 31
0.0
  0
LINE
  5
1F2
330
1F
100
AcDbEntity
  8
0
  6
Continuous
 62
     7
370
    25
100
AcDbLine
 10
-29.7435897436
 20
232.0
 30
0.0
 11
-32.7435897436
 21
232.0
 31
0.0
  0
LINE
  5
1F3
330
1F
100
AcDbEntity
  8
0
  6
Continuous
 62
     7
370
    25
100
AcDbLine
 10
-32.7435897436
 20
232.0
 30
0.0
 11
-32.7435897436
 21
237.0
 31
0.0
  0
LINE
  5
1F4
330
1F
100
AcDbEntity
  8
0
  6
Continuous
 62
     7
370
    25
100
AcDbLine
 10
-32.7435897436
 20
237.0
 30
0.0
 11
-29.7435897436
 21
237.0
 31
0.0
  0
LINE
  5
1F5
330
1F
100
AcDbEntity
  8
0
  6
Continuous
 62
     7
370
    25
100
AcDbLine
 10
-29.7435897436
 20
242.0
 30
0.0
 11
-29.7435897436
 21
237.0
 31
0.0
  0
LINE
  5
1F6
330
1F
100
AcDbEntity
  8
0
  6
Continuous
 62
     7
370
    25
100
AcDbLine
 10
-29.7435897436
 20
242.0
 30
0.0
 11
-32.7435897436
 21
242.0
 31
0.0
  0
LINE
  5
1F7
330
1F
100
AcDbEntity
  8
0
  6
Continuous
 62
     7
370
    25
100
AcDbLine
 10
-32.7435897436
 20
242.0
 30
0.0
 11
-32.7435897436
 21
247.0
 31
0.0
  0
LINE
  5
1F8
330
1F
100
AcDbEntity
  8
0
  6
Continuous
 62
     7
370
    25
100
AcDbLine
 10
-32.7435897436
 20
247.0
 30
0.0
 11
-29.7435897436
 21
247.0
 31
0.0
  0
LINE
  5
1F9
330
1F
100
AcDbEntity
  8
0
  6
Continuous
 62
     7
370
    25
100
AcDbLine
 10
-29.7435897436
 20
252.0
 30
0.0
 11
-29.7435897436
 21
247.0
 31
0.0
  0
LINE
  5
1FA
330
1F
100
AcDbEntity
  8
0
  6
Continuous
 62
     7
370
    25
100
AcDbLine
 10
-29.7435897436
 20
252.0
 30
0.0
 11
-32.7435897436
 21
252.0
 31
0.0
  0
LINE
  5
1FB
330
1F
100
AcDbEntity
  8
0
  6
Continuous
 62
     7
370
    25
100
AcDbLine
 10
-32.7435897436
 20
252.0
 30
0.0
 11
-32.7435897436
 21
257.0
 31
0.0
  0
LINE
  5
1FC
330
1F
100
AcDbEntity
  8
0
  6
Continuous
 62
     7
370
    25
100
AcDbLine
 10
-32.7435897436
 20
257.0
 30
0.0
 11
-29.7435897436
 21
257.0
 31
0.0
  0
LINE
  5
1FD
330
1F
100
AcDbEntity
  8
0
  6
Continuous
 62
     7
370
    25
100
AcDbLine
 10
-29.7435897436
 20
262.0
 30
0.0
 11
-29.7435897436
 21
257.0
 31
0.0
  0
LINE
  5
1FE
330
1F
100
AcDbEntity
  8
0
  6
Continuous
 62
     7
370
    25
100
AcDbLine
 10
-29.7435897436
 20
262.0
 30
0.0
 11
-32.7435897436
 21
262.0
 31
0.0
  0
CIRCLE
  5
1FF
330
1F
100
AcDbEntity
  8
0
  6
Continuous
 62
     7
370
    25
100
AcDbCircle
 10
-43.7435897436
 20
39.0
 30
0.0
 40
2.499999999999993
  0
CIRCLE
  5
200
330
1F
100
AcDbEntity
  8
0
  6
Continuous
 62
     7
370
    25
100
AcDbCircle
 10
-65.7435897436
 20
39.0
 30
0.0
 40
2.500000000000007
  0
CIRCLE
  5
201
330
1F
100
AcDbEntity
  8
0
  6
Continuous
 62
     7
370
    25
100
AcDbCircle
 10
-42.5508866627
 20
136.6027901488
 30
0.0
 40
1.599999999999994
  0
CIRCLE
  5
202
330
1F
100
AcDbEntity
  8
0
  6
Continuous
 62
     7
370
    25
100
AcDbCircle
 10
-70.4508866627
 20
136.6027901488
 30
0.0
 40
1.599999999999994
  0
CIRCLE
  5
203
330
1F
100
AcDbEntity
  8
0
  6
Continuous
 62
     7
370
    25
100
AcDbCircle
 10
-37.5008866627
 20
84.5027901488
 30
0.0
 40
1.599999999999994
  0
CIRCLE
  5
204
330
1F
100
AcDbEntity
  8
0
  6
Continuous
 62
     7
370
    25
100
AcDbCircle
 10
-54.7435897436
 20
155.461682015
 30
0.0
 40
7.5
  0
CIRCLE
  5
205
330
1F
100
AcDbEntity
  8
0
  6
Continuous
 62
     7
370
    25
100
AcDbCircle
 10
-42.7435897436
 20
250.0
 30
0.0
 40
1.25
  0
CIRCLE
  5
206
330
1F
100
AcDbEntity
  8
0
  6
Continuous
 62
     7
370
    25
100
AcDbCircle
 10
-42.7435897436
 20
244.0
 30
0.0
 40
1.25
  0
CIRCLE
  5
207
330
1F
100
AcDbEntity
  8
0
  6
Continuous
 62
     7
370
    25
100
AcDbCircle
 10
-55.5663112275
 20
247.0
 30
0.0
 40
5.0
  0
SPLINE
  5
208
330
1F
100
AcDbEntity
  8
0
  6
Continuous
 62
     7
370
    25
100
AcDbSpline
210
0.0
220
0.0
230
1.0
 70
     8
 71
     3
 72
    23
 73
    19
 74
     0
 42
0.00000001
 43
0.00000001
 40
0.0
 40
0.0
 40
0.0
 40
0.0
 40
0.0572082694335073
 40
0.1136960596574918
 40
0.1691779164171947
 40
0.2241592165805458
 40
0.2787198783810447
 40
0.3337942174469874
 40
0.3892414593399983
 40
0.4458220733936235
 40
0.5037042811090172
 40
0.5642938918193671
 40
0.6279754158952298
 40
0.6950382596840472
 40
0.7653727258510127
 40
0.8396114430907355
 40
0.9175377500777911
 40
1.0
 40
1.0
 40
1.0
 40
1.0
 10
-61.03286958807501
 20
212.6553295377373
 30
0.0
 10
-61.05930493105598
 20
212.6558407193348
 30
0.0
 10
-61.1118426911105
 20
212.6568566447241
 30
0.0
 10
-61.18955217298365
 20
212.6658379251462
 30
0.0
 10
-61.26569176218175
 20
212.6785450287374
 30
0.0
 10
-61.33930604421586
 20
212.6987190987143
 30
0.0
 10
-61.41134345585762
 20
212.7231960757564
 30
0.0
 10
-61.48149069038355
 20
212.7533344083547
 30
0.0
 10
-61.54978174423945
 20
212.789451609802
 30
0.0
 10
-61.61659932710775
 20
212.8307466344305
 30
0.0
 10
-61.68177350169392
 20
212.8788043789942
 30
0.0
 10
-61.74469296962279
 20
212.9347778754325
 30
0.0
 10
-61.80742215513603
 20
212.9971233804237
 30
0.0
 10
-61.86810955145767
 20
213.0675339437854
 30
0.0
 10
-61.92798269576345
 20
213.1448720266432
 30
0.0
 10
-61.98586110529993
 20
213.2298612100406
 30
0.0
 10
-62.04294282297898
 20
213.3220385637996
 30
0.0
 10
-62.07875829080629
 20
213.3869036495194
 30
0.0
 10
-62.0971724726904
 20
213.4202534159425
 30
0.0
  0
LINE
  5
209
330
1F
100
AcDbEntity
  8
0
  6
Continuous
 62
     7
370
    25
100
AcDbLine
 10
-62.0971724727
 20
213.4202534159
 30
0.0
 11
-61.8012990753
 21
213.59763723
 31
0.0
  0
SPLINE
  5
20A
330
1F
100
AcDbEntity
  8
0
  6
Continuous
 62
     7
370
    25
100
AcDbSpline
210
0.0
220
0.0
230
1.0
 70
     8
 71
     3
 72
    15
 73
    11
 74
     0
 42
0.00000001
 43
0.00000001
 40
0.0
 40
0.0
 40
0.0
 40
0.0
 40
0.1590042985173643
 40
0.3046460998968181
 40
0.4385469045795946
 40
0.562322298775932
 40
0.6774325425257242
 40
0.7868973929387574
 40
0.8936108891042646
 40
1.0
 40
1.0
 40
1.0
 40
1.0
 10
-61.80129907525449
 20
213.597637230045
 30
0.0
 10
-61.77378083800397
 20
213.551572845098
 30
0.0
 10
-61.72105695737569
 20
213.463315261189
 30
0.0
 10
-61.63310559822324
 20
213.3440572207602
 30
0.0
 10
-61.5419726870573
 20
213.2426950640012
 30
0.0
 10
-61.44698335350788
 20
213.1598184564614
 30
0.0
 10
-61.34871740538547
 20
213.0945695697138
 30
0.0
 10
-61.24653335164879
 20
213.0483673379952
 30
0.0
 10
-61.14077554093732
 20
213.0195513626238
 30
0.0
 10
-61.06880171945792
 20
213.0160512760692
 30
0.0
 10
-61.03286958807501
 20
213.0143038967117
 30
0.0
  0
SPLINE
  5
20B
330
1F
100
AcDbEntity
  8
0
  6
Continuous
 62
     7
370
    25
100
AcDbSpline
210
0.0
220
0.0
230
1.0
 70
     8
 71
     3
 72
    19
 73
    15
 74
     0
 42
0.00000001
 43
0.00000001
 40
0.0
 40
0.0
 40
0.0
 40
0.0
 40
0.091263604896627
 40
0.1809303110850835
 40
0.2700882198317247
 40
0.3601561333877322
 40
0.448342532498151
 40
0.5326658421383362
 40
0.6138337041070445
 40
0.6939815272835619
 40
0.7727159770890151
 40
0.8493351720622633
 40
0.9239673265752539
 40
1.0
 40
1.0
 40
1.0
 40
1.0
 10
-61.03286958807501
 20
213.0143038967117
 30
0.0
 10
-61.00218272756352
 20
213.0151585692239
 30
0.0
 10
-60.94134595451629
 20
213.016852959487
 30
0.0
 10
-60.85178371155514
 20
213.0331337615364
 30
0.0
 10
-60.7648019092891
 20
213.0581458904498
 30
0.0
 10
-60.68219327155858
 20
213.0939668219584
 30
0.0
 10
-60.60509765702703
 20
213.1373053076834
 30
0.0
 10
-60.53749096169042
 20
213.1896514851907
 30
0.0
 10
-60.47904484851094
 20
213.2482576909043
 30
0.0
 10
-60.4312357339438
 20
213.3136403455463
 30
0.0
 10
-60.39455569865542
 20
213.3839574941535
 30
0.0
 10
-60.36636363024219
 20
213.4561334454918
 30
0.0
 10
-60.35071855658583
 20
213.5313020137708
 30
0.0
 10
-60.34836180312914
 20
213.5819124766186
 30
0.0
 10
-60.34717247269039
 20
213.6074529351732
 30
0.0
  0
SPLINE
  5
20C
330
1F
100
AcDbEntity
  8
0
  6
Continuous
 62
     7
370
    25
100
AcDbSpline
210
0.0
220
0.0
230
1.0
 70
     8
 71
     3
 72
    11
 73
     7
 74
     0
 42
0.00000001
 43
0.00000001
 40
0.0
 40
0.0
 40
0.0
 40
0.0
 40
0.2347233736739024
 40
0.4771583189289871
 40
0.7285562842030486
 40
1.0
 40
1.0
 40
1.0
 40
1.0
 10
-60.34717247269039
 20
213.6074529351732
 30
0.0
 10
-60.34864678338968
 20
213.6365937848807
 30
0.0
 10
-60.35164384160271
 20
213.6958328740303
 30
0.0
 10
-60.37697532167518
 20
213.7832325269843
 30
0.0
 10
-60.41682456851859
 20
213.8697250970085
 30
0.0
 10
-60.45358721222357
 20
213.9232263625863
 30
0.0
 10
-60.47267327397245
 20
213.9510026146604
 30
0.0
  0
SPLINE
  5
20D
330
1F
100
AcDbEntity
  8
0
  6
Continuous
 62
     7
370
    25
100
AcDbSpline
210
0.0
220
0.0
230
1.0
 70
     8
 71
     3
 72
    15
 73
    11
 74
     0
 42
0.00000001
 43
0.00000001
 40
0.0
 40
0.0
 40
0.0
 40
0.0
 40
0.0902792146500242
 40
0.189529918446949
 40
0.2991978724002864
 40
0.4189258867738224
 40
0.5483762854012585
 40
0.6881363695386754
 40
0.8390835016589152
 40
0.9999999999999999
 40
0.9999999999999999
 40
0.9999999999999999
 40
0.9999999999999999
 10
-60.47267327397245
 20
213.9510026146604
 30
0.0
 10
-60.48834388815305
 20
213.9710494382638
 30
0.0
 10
-60.52124238244298
 20
214.0131352368321
 30
0.0
 10
-60.57779989503599
 20
214.0757804723075
 30
0.0
 10
-60.64416600934137
 20
214.1403988912594
 30
0.0
 10
-60.71806956425304
 20
214.2094579482089
 30
0.0
 10
-60.80220265309364
 20
214.2797457448969
 30
0.0
 10
-60.89393016749682
 20
214.3546140228358
 30
0.0
 10
-60.99559402646293
 20
214.4312155998825
 30
0.0
 10
-61.06689352308092
 20
214.4825881654291
 30
0.0
 10
-61.10368288935706
 20
214.5090955633784
 30
0.0
  0
SPLINE
  5
20E
330
1F
100
AcDbEntity
  8
0
  6
Continuous
 62
     7
370
    25
100
AcDbSpline
210
0.0
220
0.0
230
1.0
 70
     8
 71
     3
 72
    15
 73
    11
 74
     0
 42
0.00000001
 43
0.00000001
 40
0.0
 40
0.0
 40
0.0
 40
0.0
 40
0.1815353013762906
 40
0.3470816724816374
 40
0.4955678164315708
 40
0.6283573018772131
 40
0.7455196699921657
 40
0.8458307507576521
 40
0.9307818073847666
 40
1.0
 40
1.0
 40
1.0
 40
1.0
 10
-61.10368288935707
 20
214.5090955633784
 30
0.0
 10
-61.14050688553612
 20
214.5353241509977
 30
0.0
 10
-61.21091156211632
 20
214.5854712132425
 30
0.0
 10
-61.30937014446266
 20
214.6598954972562
 30
0.0
 10
-61.39741460747259
 20
214.727939366798
 30
0.0
 10
-61.47465362399589
 20
214.7902433789005
 30
0.0
 10
-61.54105322084193
 20
214.8468159836304
 30
0.0
 10
-61.59713663185612
 20
214.8971139227726
 30
0.0
 10
-61.64147518895165
 20
214.9424974836409
 30
0.0
 10
-61.66613076961018
 20
214.9719388253861
 30
0.0
 10
-61.67720051756219
 20
214.9851572620963
 30
0.0
  0
SPLINE
  5
20F
330
1F
100
AcDbEntity
  8
0
  6
Continuous
 62
     7
370
    25
100
AcDbSpline
210
0.0
220
0.0
230
1.0
 70
     8
 71
     3
 72
    15
 73
    11
 74
     0
 42
0.00000001
 43
0.00000001
 40
0.0
 40
0.0
 40
0.0
 40
0.0
 40
0.1335067689985299
 40
0.2625589787303951
 40
0.3882644471488705
 40
0.5126673546814303
 40
0.6337222699657746
 40
0.7553938601370742
 40
0.8775529450912678
 40
1.0
 40
1.0
 40
1.0
 40
1.0
 10
-61.67720051756219
 20
214.9851572620963
 30
0.0
 10
-61.69267306279333
 20
215.0057582989505
 30
0.0
 10
-61.72310189950869
 20
215.0462730027202
 30
0.0
 10
-61.76326790497379
 20
215.109597860488
 30
0.0
 10
-61.79740706777218
 20
215.1744211258972
 30
0.0
 10
-61.82416939990839
 20
215.2409169904617
 30
0.0
 10
-61.84670561874798
 20
215.3081519193424
 30
0.0
 10
-61.86186354946575
 20
215.3770031650419
 30
0.0
 10
-61.87135494638153
 20
215.4471617835065
 30
0.0
 10
-61.87232693291463
 20
215.4943752841289
 30
0.0
 10
-61.87281349833142
 20
215.5180098261989
 30
0.0
  0
SPLINE
  5
210
330
1F
100
AcDbEntity
  8
0
  6
Continuous
 62
     7
370
    25
100
AcDbSpline
210
0.0
220
0.0
230
1.0
 70
     8
 71
     3
 72
    19
 73
    15
 74
     0
 42
0.00000001
 43
0.00000001
 40
0.0
 40
0.0
 40
0.0
 40
0.0
 40
0.0837853706537056
 40
0.1657798879221342
 40
0.2462800078932522
 40
0.3274609277363972
 40
0.4087969540320597
 40
0.4897152412309818
 40
0.5713760321300508
 40
0.6555233211112786
 40
0.741019482799968
 40
0.8265467605037612
 40
0.9119888516548337
 40
1.0
 40
1.0
 40
1.0
 40
1.0
 10
-61.87281349833142
 20
215.5180098261989
 30
0.0
 10
-61.87150828933807
 20
215.5550396007636
 30
0.0
 10
-61.86892576927582
 20
215.6283076644986
 30
0.0
 10
-61.84708525200539
 20
215.7353384949407
 30
0.0
 10
-61.8126123583509
 20
215.8375249121582
 30
0.0
 10
-61.76431747048935
 20
215.9338552458831
 30
0.0
 10
-61.70206011757109
 20
216.0218212267712
 30
0.0
 10
-61.63001414320586
 20
216.1024347137532
 30
0.0
 10
-61.54420265696843
 20
216.1702032959742
 30
0.0
 10
-61.45005003370499
 20
216.2294153543633
 30
0.0
 10
-61.34699366162232
 20
216.2757612795704
 30
0.0
 10
-61.23900275822469
 20
216.3107222597309
 30
0.0
 10
-61.12590568619953
 20
216.3305315174219
 30
0.0
 10
-61.04930255157608
 20
216.3333742823345
 30
0.0
 10
-61.01043369063911
 20
216.3348167172245
 30
0.0
  0
SPLINE
  5
211
330
1F
100
AcDbEntity
  8
0
  6
Continuous
 62
     7
370
    25
100
AcDbSpline
210
0.0
220
0.0
230
1.0
 70
     8
 71
     3
 72
    19
 73
    15
 74
     0
 42
0.00000001
 43
0.00000001
 40
0.0
 40
0.0
 40
0.0
 40
0.0
 40
0.1072327993600857
 40
0.2132518127818486
 40
0.3188304473075849
 40
0.4267935306342771
 40
0.483645950782718
 40
0.5436038220211329
 40
0.6083076495640833
 40
0.677126760260028
 40
0.7506856360204904
 40
0.828713418443284
 40
0.9121903482234535
 40
1.0
 40
1.0
 40
1.0
 40
1.0
 10
-61.01043369063911
 20
216.3348167172245
 30
0.0
 10
-60.9691895903411
 20
216.3333941656253
 30
0.0
 10
-60.8871682385943
 20
216.3305651645258
 30
0.0
 10
-60.76651902302478
 20
216.3059676332061
 30
0.0
 10
-60.65035830662413
 20
216.265266961418
 30
0.0
 10
-60.55691504180467
 20
216.2190783034404
 30
0.0
 10
-60.48378228034284
 20
216.1729468877272
 30
0.0
 10
-60.4280095476539
 20
216.1309270634484
 30
0.0
 10
-60.37149209686736
 20
216.0825519548441
 30
0.0
 10
-60.31377404203857
 20
216.0276927087633
 30
0.0
 10
-60.25583338259943
 20
215.9658459576738
 30
0.0
 10
-60.19680993035526
 20
215.8974352687645
 30
0.0
 10
-60.13656566154457
 20
215.8228787129001
 30
0.0
 10
-60.09780980142067
 20
215.7696542121456
 30
0.0
 10
-60.07794170345963
 20
215.7423688005578
 30
0.0
  0
LINE
  5
212
330
1F
100
AcDbEntity
  8
0
  6
Continuous
 62
     7
370
    25
100
AcDbLine
 10
-60.0779417035
 20
215.7423688006
 30
0.0
 11
-60.3618960304
 21
215.5271244095
 31
0.0
  0
SPLINE
  5
213
330
1F
100
AcDbEntity
  8
0
  6
Continuous
 62
     7
370
    25
100
AcDbSpline
210
0.0
220
0.0
230
1.0
 70
     8
 71
     3
 72
    19
 73
    15
 74
     0
 42
0.00000001
 43
0.00000001
 40
0.0
 40
0.0
 40
0.0
 40
0.0
 40
0.0984694310255633
 40
0.1896291011376202
 40
0.2741840894379678
 40
0.3521831609671626
 40
0.4231988731834682
 40
0.4885509460005234
 40
0.5484733460279426
 40
0.6014401636178746
 40
0.7011980824257595
 40
0.7995918021381815
 40
0.8985450984822263
 40
1.0
 40
1.0
 40
1.0
 40
1.0
 10
-60.3618960303827
 20
215.5271244095322
 30
0.0
 10
-60.37904196285503
 20
215.5492130999548
 30
0.0
 10
-60.41206101992713
 20
215.5917507531791
 30
0.0
 10
-60.46219050678764
 20
215.6513220687852
 30
0.0
 10
-60.50943915470792
 20
215.7057385483172
 30
0.0
 10
-60.55598955449215
 20
215.7530036763473
 30
0.0
 10
-60.59938318595805
 20
215.7957058096852
 30
0.0
 10
-60.64150022820503
 20
215.8322655665096
 30
0.0
 10
-60.68173457944241
 20
215.8630411619397
 30
0.0
 10
-60.73245149008847
 20
215.8958847218988
 30
0.0
 10
-60.79616920841168
 20
215.9284412254536
 30
0.0
 10
-60.87615374465097
 20
215.9559903035313
 30
0.0
 10
-60.95974001968596
 20
215.9725453654501
 30
0.0
 10
-61.01666965117665
 20
215.974734253018
 30
0.0
 10
-61.0454897803827
 20
215.9758423582502
 30
0.0
  0
SPLINE
  5
214
330
1F
100
AcDbEntity
  8
0
  6
Continuous
 62
     7
370
    25
100
AcDbSpline
210
0.0
220
0.0
230
1.0
 70
     8
 71
     3
 72
    15
 73
    11
 74
     0
 42
0.00000001
 43
0.00000001
 40
0.0
 40
0.0
 40
0.0
 40
0.0
 40
0.1430730837303561
 40
0.2759029640929974
 40
0.4023708562739944
 40
0.528413645093584
 40
0.6503563791869419
 40
0.7658950861246901
 40
0.8807741308440203
 40
0.9999999999999999
 40
0.9999999999999999
 40
0.9999999999999999
 40
0.9999999999999999
 10
-61.04548978038271
 20
215.9758423582502
 30
0.0
 10
-61.08164630278819
 20
215.9746306582983
 30
0.0
 10
-61.15137075020252
 20
215.9722940090866
 30
0.0
 10
-61.25036098631006
 20
215.9467740237949
 30
0.0
 10
-61.33945491137332
 20
215.906592163489
 30
0.0
 10
-61.41600747642956
 20
215.8502771853935
 30
0.0
 10
-61.47974445347256
 20
215.7835561927082
 30
0.0
 10
-61.52584991223748
 20
215.7067773376333
 30
0.0
 10
-61.55360007678951
 20
215.6219949350288
 30
0.0
 10
-61.55698635644055
 20
215.5628532786971
 30
0.0
 10
-61.55871093422886
 20
215.5327333838912
 30
0.0
  0
SPLINE
  5
215
330
1F
100
AcDbEntity
  8
0
  6
Continuous
 62
     7
370
    25
100
AcDbSpline
210
0.0
220
0.0
230
1.0
 70
     8
 71
     3
 72
    15
 73
    11
 74
     0
 42
0.00000001
 43
0.00000001
 40
0.0
 40
0.0
 40
0.0
 40
0.0
 40
0.1072852142689238
 40
0.21474586096963
 40
0.3229385595552952
 40
0.4341161625174466
 40
0.5534123109627984
 40
0.6860729848107019
 40
0.8342559920595776
 40
1.0
 40
1.0
 40
1.0
 40
1.0
 10
-61.55871093422886
 20
215.5327333838912
 30
0.0
 10
-61.55831780759396
 20
215.5139819053507
 30
0.0
 10
-61.55753091148476
 20
215.4764482859134
 30
0.0
 10
-61.54655611379833
 20
215.4209968639594
 30
0.0
 10
-61.53245678484054
 20
215.3656855245408
 30
0.0
 10
-61.51011415308709
 20
215.3107629417066
 30
0.0
 10
-61.47926884947132
 20
215.2552685826544
 30
0.0
 10
-61.43876367356494
 20
215.1982468450958
 30
0.0
 10
-61.38775036151498
 20
215.1391951364238
 30
0.0
 10
-61.34867334916356
 20
215.1007877626488
 30
0.0
 10
-61.32804186371604
 20
215.0805098261989
 30
0.0
  0
SPLINE
  5
216
330
1F
100
AcDbEntity
  8
0
  6
Continuous
 62
     7
370
    25
100
AcDbSpline
210
0.0
220
0.0
230
1.0
 70
     8
 71
     3
 72
    15
 73
    11
 74
     0
 42
0.00000001
 43
0.00000001
 40
0.0
 40
0.0
 40
0.0
 40
0.0
 40
0.0525942815291306
 40
0.124951973975031
 40
0.2180938989286068
 40
0.333502410732518
 40
0.4687891785044643
 40
0.6249375859645989
 40
0.8016830479282353
 40
1.0
 40
1.0
 40
1.0
 40
1.0
 10
-61.32804186371604
 20
215.0805098261989
 30
0.0
 10
-61.32038049130834
 20
215.073672800383
 30
0.0
 10
-61.30217882417146
 20
215.0574295920539
 30
0.0
 10
-61.26890289843173
 20
215.03083731141
 30
0.0
 10
-61.22496010020185
 20
214.9980345391149
 30
0.0
 10
-61.17149789902495
 20
214.95744722264
 30
0.0
 10
-61.10753053729793
 20
214.9103657605228
 30
0.0
 10
-61.03305098115332
 20
214.8573921483589
 30
0.0
 10
-60.94888944831838
 20
214.796806689352
 30
0.0
 10
-60.8891675324188
 20
214.7544491487421
 30
0.0
 10
-60.85758913935706
 20
214.7320522941476
 30
0.0
  0
SPLINE
  5
217
330
1F
100
AcDbEntity
  8
0
  6
Continuous
 62
     7
370
    25
100
AcDbSpline
210
0.0
220
0.0
230
1.0
 70
     8
 71
     3
 72
    19
 73
    15
 74
     0
 42
0.00000001
 43
0.00000001
 40
0.0
 40
0.0
 40
0.0
 40
0.0
 40
0.0969723103815126
 40
0.1877734389628673
 40
0.2723961390136931
 40
0.3513209973752912
 40
0.4243347744514703
 40
0.4919087840005329
 40
0.5542332197967962
 40
0.6112676582441542
 40
0.716347844991544
 40
0.8145400858216146
 40
0.9084954561491759
 40
1.0
 40
1.0
 40
1.0
 40
1.0
 10
-60.85758913935706
 20
214.7320522941476
 30
0.0
 10
-60.81960322604965
 20
214.7044109345979
 30
0.0
 10
-60.74604876967115
 20
214.650887272845
 30
0.0
 10
-60.64139118975964
 20
214.5704715928175
 30
0.0
 10
-60.54649738166479
 20
214.4918238242432
 30
0.0
 10
-60.46103417809461
 20
214.4154462171471
 30
0.0
 10
-60.38415726965483
 20
214.3419181241433
 30
0.0
 10
-60.31671954898006
 20
214.2703549438133
 30
0.0
 10
-60.25803386863285
 20
214.201269371131
 30
0.0
 10
-60.19485465017276
 20
214.1126967954399
 30
0.0
 10
-60.13029683065222
 20
214.0039157111655
 30
0.0
 10
-60.07485532322611
 20
213.8706374726202
 30
0.0
 10
-60.03989697577155
 20
213.7368411521233
 30
0.0
 10
-60.0353254603396
 20
213.6469143156483
 30
0.0
 10
-60.03306990858784
 20
213.6025450826091
 30
0.0
  0
SPLINE
  5
218
330
1F
100
AcDbEntity
  8
0
  6
Continuous
 62
     7
370
    25
100
AcDbSpline
210
0.0
220
0.0
230
1.0
 70
     8
 71
     3
 72
    23
 73
    19
 74
     0
 42
0.00000001
 43
0.00000001
 40
0.0
 40
0.0
 40
0.0
 40
0.0
 40
0.0614842551968904
 40
0.1217745277022111
 40
0.1809195598139326
 40
0.2402561150782745
 40
0.3001144444023412
 40
0.3611459476126033
 40
0.4235005824125789
 40
0.4886693612807155
 40
0.5539541046535648
 40
0.6175812610152566
 40
0.6802384268167405
 40
0.7421873887724487
 40
0.8046632117692928
 40
0.8682589893126611
 40
0.9330202571803775
 40
0.9999999999999999
 40
0.9999999999999999
 40
0.9999999999999999
 40
0.9999999999999999
 10
-60.03306990858783
 20
213.6025450826091
 30
0.0
 10
-60.0337270467118
 20
213.5711667175136
 30
0.0
 10
-60.03502856178135
 20
213.5090193339704
 30
0.0
 10
-60.04998947556002
 20
213.4177642570884
 30
0.0
 10
-60.07190914072252
 20
213.3291333874043
 30
0.0
 10
-60.10494637467308
 20
213.2442222749594
 30
0.0
 10
-60.14526953293301
 20
213.161477512276
 30
0.0
 10
-60.19643578079902
 20
213.083069611865
 30
0.0
 10
-60.25574346553672
 20
213.0072632132781
 30
0.0
 10
-60.3237772304411
 20
212.9360797219229
 30
0.0
 10
-60.39822313275759
 20
212.8707335259375
 30
0.0
 10
-60.47690682742038
 20
212.812604464465
 30
0.0
 10
-60.55995710035454
 20
212.7641361410697
 30
0.0
 10
-60.64692341703776
 20
212.7245852990198
 30
0.0
 10
-60.73782575374481
 20
212.6936517814935
 30
0.0
 10
-60.83263353757934
 20
212.6712389123626
 30
0.0
 10
-60.9315030487989
 20
212.6574832014492
 30
0.0
 10
-60.99870353037136
 20
212.6560554399845
 30
0.0
 10
-61.03286958807501
 20
212.6553295377373
 30
0.0
  0
LINE
  5
219
330
1F
100
AcDbEntity
  8
0
  6
Continuous
 62
     7
370
    25
100
AcDbLine
 10
-55.9497365753
 20
216.2450731275
 30
0.0
 11
-55.9048647804
 21
216.2450731275
 31
0.0
  0
LINE
  5
21A
330
1F
100
AcDbEntity
  8
0
  6
Continuous
 62
     7
370
    25
100
AcDbLine
 10
-55.9048647804
 20
216.2450731275
 30
0.0
 11
-54.289480165
 21
212.7450731275
 31
0.0
  0
LINE
  5
21B
330
1F
100
AcDbEntity
  8
0
  6
Continuous
 62
     7
370
    25
100
AcDbLine
 10
-54.289480165
 20
212.7450731275
 30
0.0
 11
-54.6309264791
 21
212.7450731275
 31
0.0
  0
LINE
  5
21C
330
1F
100
AcDbEntity
  8
0
  6
Continuous
 62
     7
370
    25
100
AcDbLine
 10
-54.6309264791
 20
212.7450731275
 30
0.0
 11
-55.1483543637
 21
213.8668679993
 31
0.0
  0
LINE
  5
21D
330
1F
100
AcDbEntity
  8
0
  6
Continuous
 62
     7
370
    25
100
AcDbLine
 10
-55.1483543637
 20
213.8668679993
 30
0.0
 11
-56.7349929855
 21
213.8668679993
 31
0.0
  0
LINE
  5
21E
330
1F
100
AcDbEntity
  8
0
  6
Continuous
 62
     7
370
    25
100
AcDbLine
 10
-56.7349929855
 20
213.8668679993
 30
0.0
 11
-57.2671444278
 21
212.7450731275
 31
0.0
  0
LINE
  5
21F
330
1F
100
AcDbEntity
  8
0
  6
Continuous
 62
     7
370
    25
100
AcDbLine
 10
-57.2671444278
 20
212.7450731275
 30
0.0
 11
-57.6099929855
 21
212.7450731275
 31
0.0
  0
LINE
  5
220
330
1F
100
AcDbEntity
  8
0
  6
Continuous
 62
     7
370
    25
100
AcDbLine
 10
-57.6099929855
 20
212.7450731275
 30
0.0
 11
-55.9497365753
 21
216.2450731275
 31
0.0
  0
LINE
  5
221
330
1F
100
AcDbEntity
  8
0
  6
Continuous
 62
     7
370
    25
100
AcDbLine
 10
-50.3407622163
 20
215.8860987685
 30
0.0
 11
-51.1035827291
 21
215.8860987685
 31
0.0
  0
LINE
  5
222
330
1F
100
AcDbEntity
  8
0
  6
Continuous
 62
     7
370
    25
100
AcDbLine
 10
-51.1035827291
 20
215.8860987685
 30
0.0
 11
-51.1035827291
 21
216.2450731275
 31
0.0
  0
LINE
  5
223
330
1F
100
AcDbEntity
  8
0
  6
Continuous
 62
     7
370
    25
100
AcDbLine
 10
-51.1035827291
 20
216.2450731275
 30
0.0
 11
-49.2638391394
 21
216.2450731275
 31
0.0
  0
LINE
  5
224
330
1F
100
AcDbEntity
  8
0
  6
Continuous
 62
     7
370
    25
100
AcDbLine
 10
-49.2638391394
 20
216.2450731275
 30
0.0
 11
-49.2638391394
 21
215.8860987685
 31
0.0
  0
LINE
  5
225
330
1F
100
AcDbEntity
  8
0
  6
Continuous
 62
     7
370
    25
100
AcDbLine
 10
-49.2638391394
 20
215.8860987685
 30
0.0
 11
-50.0266596522
 21
215.8860987685
 31
0.0
  0
LINE
  5
226
330
1F
100
AcDbEntity
  8
0
  6
Continuous
 62
     7
370
    25
100
AcDbLine
 10
-50.0266596522
 20
215.8860987685
 30
0.0
 11
-50.0266596522
 21
212.7450731275
 31
0.0
  0
LINE
  5
227
330
1F
100
AcDbEntity
  8
0
  6
Continuous
 62
     7
370
    25
100
AcDbLine
 10
-50.0266596522
 20
212.7450731275
 30
0.0
 11
-50.3407622163
 21
212.7450731275
 31
0.0
  0
LINE
  5
228
330
1F
100
AcDbEntity
  8
0
  6
Continuous
 62
     7
370
    25
100
AcDbLine
 10
-50.3407622163
 20
212.7450731275
 30
0.0
 11
-50.3407622163
 21
215.8860987685
 31
0.0
  0
CIRCLE
  5
229
330
1F
100
AcDbEntity
  8
0
  6
Continuous
 62
     7
370
    25
100
AcDbCircle
 10
-37.184119458
 20
189.4310915352
 30
0.0
 40
1.75
  0
ARC
  5
22A
330
1F
100
AcDbEntity
  8
0
  6
Continuous
 62
     7
370
    25
100
AcDbCircle
 10
-54.684119458
 20
189.4310915352
 30
0.0
 40
2.857205352115483
100
AcDbArc
 50
192.5779319927
 51
195.1890173885
  0
LINE
  5
22B
330
1F
100
AcDbEntity
  8
0
  6
Continuous
 62
     7
370
    25
100
AcDbLine
 10
-75.8461875493
 20
183.6858404984
 30
0.0
 11
-57.4415132952
 21
188.6824917418
 31
0.0
  0
LINE
  5
22C
330
1F
100
AcDbEntity
  8
0
  6
Continuous
 62
     7
370
    25
100
AcDbLine
 10
-76.1081917461
 20
184.6509072322
 30
0.0
 11
-75.8461875493
 21
183.6858404984
 31
0.0
  0
LINE
  5
22D
330
1F
100
AcDbEntity
  8
0
  6
Continuous
 62
     7
370
    25
100
AcDbLine
 10
-57.4727539088
 20
188.8088855209
 30
0.0
 11
-76.1081917461
 21
184.6509072322
 31
0.0
  0
ARC
  5
22E
330
1F
100
AcDbEntity
  8
0
  6
Continuous
 62
     7
370
    25
100
AcDbCircle
 10
-54.684119458
 20
189.4310915352
 30
0.0
 40
2.857205352115489
100
AcDbArc
 50
292.5758964433
 51
295.1890173885
  0
LINE
  5
22F
330
1F
100
AcDbEntity
  8
0
  6
Continuous
 62
     7
370
    25
100
AcDbLine
 10
-45.3513971342
 20
169.588175182
 30
0.0
 11
-53.4680761626
 21
186.8455816962
 31
0.0
  0
LINE
  5
230
330
1F
100
AcDbEntity
  8
0
  6
Continuous
 62
     7
370
    25
100
AcDbLine
 10
-46.2657750947
 20
169.1833135446
 30
0.0
 11
-45.3513971342
 21
169.588175182
 31
0.0
  0
LINE
  5
231
330
1F
100
AcDbEntity
  8
0
  6
Continuous
 62
     7
370
    25
100
AcDbLine
 10
-53.5872185896
 20
186.792828677
 30
0.0
 11
-46.2657750947
 21
169.1833135446
 31
0.0
  0
MTEXT
  5
233
330
1F
100
AcDbEntity
  8
0
  6
Continuous
 62
     7
100
AcDbMText
 10
-79.7435897436
 20
-1.0195663917
 30
0.0
 40
4.83362
 41
0.0
 71
     1
 72
     1
  1
SOLIDWORKS Educational Product.
  7
SLDTEXTSTYLE0
 73
     1
 44
1.0
  0
MTEXT
  5
234
330
1F
100
AcDbEntity
  8
0
  6
Continuous
 62
     7
100
AcDbMText
 10
-79.7435897436
 20
-8.2699963917
 30
0.0
 40
4.83362
 41
0.0
 71
     1
 72
     1
  1
For Instructional Use Only.
  7
SLDTEXTSTYLE0
 73
     1
 44
1.0
  0
ENDSEC
  0
SECTION
  2
OBJECTS
  0
DICTIONARY
  5
C
330
0
100
AcDbDictionary
281
     1
  3
ACAD_GROUP
350
D
  3
ACAD_LAYOUT
350
1A
  3
ACAD_MLINESTYLE
350
17
  3
ACAD_PLOTSETTINGS
350
19
  3
ACAD_PLOTSTYLENAME
350
E
  3
ACAD_SCALELIST
350
47
  3
DWGPROPS
350
235
  0
DICTIONARY
  5
D
102
{ACAD_REACTORS
330
C
102
}
330
C
100
AcDbDictionary
281
     1
  0
DICTIONARY
  5
1A
102
{ACAD_REACTORS
330
C
102
}
330
C
100
AcDbDictionary
281
     1
  3
Layout1
350
1E
  3
Layout2
350
26
  3
Model
350
22
  0
DICTIONARY
  5
17
102
{ACAD_REACTORS
330
C
102
}
330
C
100
AcDbDictionary
281
     1
  3
Standard
350
18
  0
DICTIONARY
  5
19
102
{ACAD_REACTORS
330
C
102
}
330
C
100
AcDbDictionary
281
     1
  0
ACDBDICTIONARYWDFLT
  5
E
102
{ACAD_REACTORS
330
C
102
}
330
C
100
AcDbDictionary
281
     1
  3
Normal
350
F
100
AcDbDictionaryWithDefault
340
F
  0
DICTIONARY
  5
47
102
{ACAD_REACTORS
330
C
102
}
330
C
100
AcDbDictionary
281
     1
  3
A0
350
48
  3
A1
350
49
  3
A2
350
4A
  3
A3
350
4B
  3
A4
350
4C
  3
A5
350
4D
  3
A6
350
4E
  3
A7
350
4F
  3
A8
350
50
  3
A9
350
51
  3
B0
350
52
  3
B1
350
53
  3
B2
350
54
  3
B3
350
55
  3
B4
350
56
  3
B5
350
57
  3
B6
350
58
  3
B7
350
59
  3
B8
350
5A
  3
B9
350
5B
  3
C0
350
5C
  3
C1
350
5D
  3
C2
350
5E
  3
C3
350
5F
  3
C4
350
60
  3
C5
350
61
  3
C6
350
62
  3
C7
350
63
  3
C8
350
64
  3
C9
350
65
  3
D0
350
66
  3
D1
350
67
  3
D2
350
68
  0
XRECORD
  5
235
102
{ACAD_REACTORS
330
C
102
}
330
C
100
AcDbXrecord
280
     1
  1
DWGPROPS COOKIE
  2

  3

  4

  6

  7

  8
tigra
  9

300
=
301
=
302
=
303
=
304
=
305
=
306
=
307
=
308
=
309
=
 40
0.0
 41
2459191.393091423
 42
2459191.393129155
  1

 90
        0
  0
LAYOUT
  5
1E
102
{ACAD_REACTORS
330
1A
102
}
330
1A
100
AcDbPlotSettings
  1

  2
none_device
  4

  6

 40
0.0
 41
0.0
 42
0.0
 43
0.0
 44
0.0
 45
0.0
 46
0.0
 47
0.0
 48
0.0
 49
0.0
140
0.0
141
0.0
142
1.0
143
1.0
 70
   688
 72
     1
 73
     0
 74
     5
  7

 75
    16
147
1.0
148
0.0
149
0.0
100
AcDbLayout
  1
Layout1
 70
     1
 71
     1
 10
0.0
 20
0.0
 11
420.0
 21
297.0
 12
0.0
 22
0.0
 32
0.0
 14
1.0000000000E+20
 24
1.0000000000E+20
 34
1.0000000000E+20
 15
-1.0000000000E+20
 25
-1.0000000000E+20
 35
-1.0000000000E+20
146
0.0
 13
0.0
 23
0.0
 33
0.0
 16
1.0
 26
0.0
 36
0.0
 17
0.0
 27
1.0
 37
0.0
 76
     0
330
1B
  0
LAYOUT
  5
26
102
{ACAD_REACTORS
330
1A
102
}
330
1A
100
AcDbPlotSettings
  1

  2
none_device
  4

  6

 40
0.0
 41
0.0
 42
0.0
 43
0.0
 44
0.0
 45
0.0
 46
0.0
 47
0.0
 48
0.0
 49
0.0
140
0.0
141
0.0
142
1.0
143
1.0
 70
   688
 72
     1
 73
     0
 74
     5
  7

 75
    16
147
1.0
148
0.0
149
0.0
100
AcDbLayout
  1
Layout2
 70
     1
 71
     2
 10
0.0
 20
0.0
 11
0.0
 21
0.0
 12
0.0
 22
0.0
 32
0.0
 14
0.0
 24
0.0
 34
0.0
 15
0.0
 25
0.0
 35
0.0
146
0.0
 13
0.0
 23
0.0
 33
0.0
 16
1.0
 26
0.0
 36
0.0
 17
0.0
 27
1.0
 37
0.0
 76
     0
330
23
  0
LAYOUT
  5
22
102
{ACAD_REACTORS
330
1A
102
}
330
1A
100
AcDbPlotSettings
  1

  2
none_device
  4
ANSI_A_(11.00_x_8.50_Inches)
  6

 40
6.35
 41
19.05
 42
6.35000508
 43
19.05000254
 44
279.4
 45
215.9
 46
175.1391032292
 47
-17.97050127
 48
0.0
 49
0.0
140
0.0
141
0.0
142
0.0300535714
143
1.0
 70
  1696
 72
     0
 73
     0
 74
     0
  7

 75
     0
147
0.0179189148
148
-1300.4909072572
149
0.0
100
AcDbLayout
  1
Model
 70
     1
 71
     0
 10
0.0
 20
0.0
 11
420.0
 21
297.0
 12
0.0
 22
0.0
 32
0.0
 14
-79.7435897436
 24
0.0
 34
0.0
 15
-29.7435897436
 25
280.0
 35
0.0
146
0.0
 13
0.0
 23
0.0
 33
0.0
 16
1.0
 26
0.0
 36
0.0
 17
0.0
 27
1.0
 37
0.0
 76
     0
330
1F
331
29
  0
MLINESTYLE
  5
18
102
{ACAD_REACTORS
330
17
102
}
330
17
100
AcDbMlineStyle
  2
Standard
 70
     0
  3

 62
   256
 51
90.0
 52
90.0
 71
     2
 49
0.5
 62
   256
  6
BYLAYER
 49
-0.5
 62
   256
  6
BYLAYER
  0
ACDBPLACEHOLDER
  5
F
102
{ACAD_REACTORS
330
E
102
}
330
E
  0
SCALE
  5
48
102
{ACAD_REACTORS
330
47
102
}
330
47
100
AcDbScale
 70
     0
300
1:1
140
1.0
141
1.0
290
     1
  0
SCALE
  5
49
102
{ACAD_REACTORS
330
47
102
}
330
47
100
AcDbScale
 70
     0
300
1:2
140
1.0
141
2.0
290
     0
  0
SCALE
  5
4A
102
{ACAD_REACTORS
330
47
102
}
330
47
100
AcDbScale
 70
     0
300
1:4
140
1.0
141
4.0
290
     0
  0
SCALE
  5
4B
102
{ACAD_REACTORS
330
47
102
}
330
47
100
AcDbScale
 70
     0
300
1:5
140
1.0
141
5.0
290
     0
  0
SCALE
  5
4C
102
{ACAD_REACTORS
330
47
102
}
330
47
100
AcDbScale
 70
     0
300
1:8
140
1.0
141
8.0
290
     0
  0
SCALE
  5
4D
102
{ACAD_REACTORS
330
47
102
}
330
47
100
AcDbScale
 70
     0
300
1:10
140
1.0
141
10.0
290
     0
  0
SCALE
  5
4E
102
{ACAD_REACTORS
330
47
102
}
330
47
100
AcDbScale
 70
     0
300
1:16
140
1.0
141
16.0
290
     0
  0
SCALE
  5
4F
102
{ACAD_REACTORS
330
47
102
}
330
47
100
AcDbScale
 70
     0
300
1:20
140
1.0
141
20.0
290
     0
  0
SCALE
  5
50
102
{ACAD_REACTORS
330
47
102
}
330
47
100
AcDbScale
 70
     0
300
1:30
140
1.0
141
30.0
290
     0
  0
SCALE
  5
51
102
{ACAD_REACTORS
330
47
102
}
330
47
100
AcDbScale
 70
     0
300
1:40
140
1.0
141
40.0
290
     0
  0
SCALE
  5
52
102
{ACAD_REACTORS
330
47
102
}
330
47
100
AcDbScale
 70
     0
300
1:50
140
1.0
141
50.0
290
     0
  0
SCALE
  5
53
102
{ACAD_REACTORS
330
47
102
}
330
47
100
AcDbScale
 70
     0
300
1:100
140
1.0
141
100.0
290
     0
  0
SCALE
  5
54
102
{ACAD_REACTORS
330
47
102
}
330
47
100
AcDbScale
 70
     0
300
2:1
140
2.0
141
1.0
290
     0
  0
SCALE
  5
55
102
{ACAD_REACTORS
330
47
102
}
330
47
100
AcDbScale
 70
     0
300
4:1
140
4.0
141
1.0
290
     0
  0
SCALE
  5
56
102
{ACAD_REACTORS
330
47
102
}
330
47
100
AcDbScale
 70
     0
300
8:1
140
8.0
141
1.0
290
     0
  0
SCALE
  5
57
102
{ACAD_REACTORS
330
47
102
}
330
47
100
AcDbScale
 70
     0
300
10:1
140
10.0
141
1.0
290
     0
  0
SCALE
  5
58
102
{ACAD_REACTORS
330
47
102
}
330
47
100
AcDbScale
 70
     0
300
100:1
140
100.0
141
1.0
290
     0
  0
SCALE
  5
59
102
{ACAD_REACTORS
330
47
102
}
330
47
100
AcDbScale
 70
     0
300
1/128" = 1'-0"
140
0.0078125
141
12.0
290
     0
  0
SCALE
  5
5A
102
{ACAD_REACTORS
330
47
102
}
330
47
100
AcDbScale
 70
     0
300
1/64" = 1'-0"
140
0.015625
141
12.0
290
     0
  0
SCALE
  5
5B
102
{ACAD_REACTORS
330
47
102
}
330
47
100
AcDbScale
 70
     0
300
1/32" = 1'-0"
140
0.03125
141
12.0
290
     0
  0
SCALE
  5
5C
102
{ACAD_REACTORS
330
47
102
}
330
47
100
AcDbScale
 70
     0
300
1/16" = 1'-0"
140
0.0625
141
12.0
290
     0
  0
SCALE
  5
5D
102
{ACAD_REACTORS
330
47
102
}
330
47
100
AcDbScale
 70
     0
300
3/32" = 1'-0"
140
0.09375
141
12.0
290
     0
  0
SCALE
  5
5E
102
{ACAD_REACTORS
330
47
102
}
330
47
100
AcDbScale
 70
     0
300
1/8" = 1'-0"
140
0.125
141
12.0
290
     0
  0
SCALE
  5
5F
102
{ACAD_REACTORS
330
47
102
}
330
47
100
AcDbScale
 70
     0
300
3/16" = 1'-0"
140
0.1875
141
12.0
290
     0
  0
SCALE
  5
60
102
{ACAD_REACTORS
330
47
102
}
330
47
100
AcDbScale
 70
     0
300
1/4" = 1'-0"
140
0.25
141
12.0
290
     0
  0
SCALE
  5
61
102
{ACAD_REACTORS
330
47
102
}
330
47
100
AcDbScale
 70
     0
300
3/8" = 1'-0"
140
0.375
141
12.0
290
     0
  0
SCALE
  5
62
102
{ACAD_REACTORS
330
47
102
}
330
47
100
AcDbScale
 70
     0
300
1/2" = 1'-0"
140
0.5
141
12.0
290
     0
  0
SCALE
  5
63
102
{ACAD_REACTORS
330
47
102
}
330
47
100
AcDbScale
 70
     0
300
3/4" = 1'-0"
140
0.75
141
12.0
290
     0
  0
SCALE
  5
64
102
{ACAD_REACTORS
330
47
102
}
330
47
100
AcDbScale
 70
     0
300
1" = 1'-0"
140
1.0
141
12.0
290
     0
  0
SCALE
  5
65
102
{ACAD_REACTORS
330
47
102
}
330
47
100
AcDbScale
 70
     0
300
1-1/2" = 1'-0"
140
1.5
141
12.0
290
     0
  0
SCALE
  5
66
102
{ACAD_REACTORS
330
47
102
}
330
47
100
AcDbScale
 70
     0
300
3" = 1'-0"
140
3.0
141
12.0
290
     0
  0
SCALE
  5
67
102
{ACAD_REACTORS
330
47
102
}
330
47
100
AcDbScale
 70
     0
300
6" = 1'-0"
140
6.0
141
12.0
290
     0
  0
SCALE
  5
68
102
{ACAD_REACTORS
330
47
102
}
330
47
100
AcDbScale
 70
     0
300
1'-0" = 1'-0"
140
12.0
141
12.0
290
     0
  0
ENDSEC
  0
EOF
