  0
SECTION
  2
HEADER
  9
$ACADVER
  1
AC1006
  9
$EXTMIN
 10
0.000000
 20
0.000000
 30
0.000000
  9
$EXTMAX
 10
6667.000000
 20
6667.000000
 30
0.000000
  0
ENDSEC
  0
SECTION
  2
ENTITIES
  0
POLYLINE
  8
0
 66
1
 70
1
  0
VERTEX
  8
0
 10
3304.500000
 20
6264.473345
 42
0.008764
  0
VERTEX
  8
0
 10
3300.543394
 20
6263.765665
 42
0.006043
  0
VERTEX
  8
0
 10
3296.087500
 20
6262.831741
 42
0.006094
  0
VERTEX
  8
0
 10
3291.822348
 20
6261.829142
 42
0.012375
  0
VERTEX
  8
0
 10
3288.500000
 20
6260.917471
 42
0.081050
  0
VERTEX
  8
0
 10
3257.489242
 20
6245.772445
 42
0.068126
  0
VERTEX
  8
0
 10
3230.753887
 20
6220.761027
 42
0.065878
  0
VERTEX
  8
0
 10
3210.979823
 20
6188.587656
 42
0.066623
  0
VERTEX
  8
0
 10
3200.349143
 20
6152.500000
 42
0.029547
  0
VERTEX
  8
0
 10
3199.343734
 20
6141.875496
 42
0.017046
  0
VERTEX
  8
0
 10
3199.328495
 20
6129.025993
 42
0.017064
  0
VERTEX
  8
0
 10
3200.184069
 20
6116.280330
 42
0.031166
  0
VERTEX
  8
0
 10
3201.879642
 20
6106.000000
 42
0.033519
  0
VERTEX
  8
0
 10
3207.571541
 20
6087.118318
 42
0.040610
  0
VERTEX
  8
0
 10
3215.464332
 20
6070.395333
 42
0.037543
  0
VERTEX
  8
0
 10
3226.499840
 20
6054.167458
 42
0.022951
  0
VERTEX
  8
0
 10
3241.743886
 20
6036.721529
 42
-0.028264
  0
VERTEX
  8
0
 10
3258.579504
 20
6017.036059
 42
-0.035104
  0
VERTEX
  8
0
 10
3271.797443
 20
5996.897655
 42
-0.031141
  0
VERTEX
  8
0
 10
3283.185115
 20
5973.226020
 42
-0.016243
  0
VERTEX
  8
0
 10
3294.527961
 20
5942.500000
 42
-0.018174
  0
VERTEX
  8
0
 10
3304.664792
 20
5907.876593
 42
-0.014036
  0
VERTEX
  8
0
 10
3313.263786
 20
5869.495193
 42
-0.012933
  0
VERTEX
  8
0
 10
3320.339694
 20
5827.382347
 42
-0.010208
  0
VERTEX
  8
0
 10
3325.880893
 20
5781.500000
 42
-0.002394
  0
VERTEX
  8
0
 10
3327.717705
 20
5762.219999
 42
-0.003653
  0
VERTEX
  8
0
 10
3329.109191
 20
5745.471125
 42
-0.000672
  0
VERTEX
  8
0
 10
3330.218389
 20
5730.557725
 42
-0.217928
  0
VERTEX
  8
0
 10
3329.819709
 20
5729.486376
 42
-0.322706
  0
VERTEX
  8
0
 10
3329.378288
 20
5729.414648
 42
-0.002715
  0
VERTEX
  8
0
 10
3326.107298
 20
5731.070672
 42
-0.008127
  0
VERTEX
  8
0
 10
3322.311816
 20
5733.096793
 42
-0.004987
  0
VERTEX
  8
0
 10
3317.903024
 20
5735.601035
 42
0.023720
  0
VERTEX
  8
0
 10
3293.271304
 20
5748.396685
 42
0.008308
  0
VERTEX
  8
0
 10
3256.754876
 20
5764.488134
 42
0.008337
  0
VERTEX
  8
0
 10
3216.622652
 20
5780.599986
 42
0.010823
  0
VERTEX
  8
0
 10
3179.304194
 20
5793.946039
 42
0.023957
  0
VERTEX
  8
0
 10
3092.847113
 20
5818.237357
 42
0.015916
  0
VERTEX
  8
0
 10
2991.759719
 20
5838.115779
 42
0.014693
  0
VERTEX
  8
0
 10
2879.962700
 20
5853.068008
 42
0.012411
  0
VERTEX
  8
0
 10
2761.000000
 20
5862.455991
 42
0.007035
  0
VERTEX
  8
0
 10
2672.434098
 20
5865.988249
 42
0.007951
  0
VERTEX
  8
0
 10
2587.345068
 20
5866.829810
 42
0.008379
  0
VERTEX
  8
0
 10
2506.821795
 20
5864.996107
 42
0.010391
  0
VERTEX
  8
0
 10
2432.000000
 20
5860.478370
 42
0.016191
  0
VERTEX
  8
0
 10
2316.393997
 20
5847.304260
 42
0.016637
  0
VERTEX
  8
0
 10
2202.934482
 20
5826.761342
 42
0.016625
  0
VERTEX
  8
0
 10
2091.009273
 20
5798.701767
 42
0.016110
  0
VERTEX
  8
0
 10
1980.000000
 20
5763.007811
 42
0.019078
  0
VERTEX
  8
0
 10
1840.764989
 20
5707.158394
 42
0.019683
  0
VERTEX
  8
0
 10
1707.664976
 20
5641.383090
 42
0.019638
  0
VERTEX
  8
0
 10
1579.864772
 20
5565.190335
 42
0.018795
  0
VERTEX
  8
0
 10
1456.500000
 20
5478.145489
 42
0.007661
  0
VERTEX
  8
0
 10
1401.839235
 20
5435.073251
 42
0.008494
  0
VERTEX
  8
0
 10
1350.400160
 20
5391.774260
 42
0.008441
  0
VERTEX
  8
0
 10
1300.172517
 20
5346.501959
 42
0.007372
  0
VERTEX
  8
0
 10
1249.148052
 20
5297.500000
 42
0.005580
  0
VERTEX
  8
0
 10
1205.665851
 20
5253.520454
 42
0.006992
  0
VERTEX
  8
0
 10
1166.376979
 20
5211.731257
 42
0.007153
  0
VERTEX
  8
0
 10
1129.026724
 20
5169.681693
 42
0.006367
  0
VERTEX
  8
0
 10
1091.393830
 20
5124.933702
 42
0.035999
  0
VERTEX
  8
0
 10
905.547130
 20
4861.584597
 42
0.033375
  0
VERTEX
  8
0
 10
754.103803
 20
4567.720533
 42
0.032718
  0
VERTEX
  8
0
 10
640.505738
 20
4250.338724
 42
0.031505
  0
VERTEX
  8
0
 10
567.566743
 20
3916.832764
 42
0.007009
  0
VERTEX
  8
0
 10
556.088130
 20
3834.369770
 42
0.007631
  0
VERTEX
  8
0
 10
547.281831
 20
3753.920818
 42
0.007338
  0
VERTEX
  8
0
 10
540.669492
 20
3670.493010
 42
0.005597
  0
VERTEX
  8
0
 10
535.795307
 20
3579.000000
 42
0.008849
  0
VERTEX
  8
0
 10
534.788479
 20
3537.630641
 42
0.001669
  0
VERTEX
  8
0
 10
534.539353
 20
3462.050272
 42
0.001683
  0
VERTEX
  8
0
 10
534.797090
 20
3386.445600
 42
0.008629
  0
VERTEX
  8
0
 10
535.805342
 20
3344.500000
 42
0.002913
  0
VERTEX
  8
0
 10
538.678716
 20
3283.559930
 42
0.003871
  0
VERTEX
  8
0
 10
542.043190
 20
3228.185093
 42
0.004078
  0
VERTEX
  8
0
 10
546.099209
 20
3175.324311
 42
0.003956
  0
VERTEX
  8
0
 10
551.053732
 20
3122.000000
 42
0.029670
  0
VERTEX
  8
0
 10
608.339140
 20
2766.757262
 42
0.033698
  0
VERTEX
  8
0
 10
705.809175
 20
2435.996264
 42
0.034729
  0
VERTEX
  8
0
 10
843.587307
 20
2130.246273
 42
0.035765
  0
VERTEX
  8
0
 10
1021.188710
 20
1849.657090
 42
0.022879
  0
VERTEX
  8
0
 10
1156.440708
 20
1682.933158
 42
0.022194
  0
VERTEX
  8
0
 10
1307.678663
 20
1527.489033
 42
0.021738
  0
VERTEX
  8
0
 10
1475.274546
 20
1383.067169
 42
0.019957
  0
VERTEX
  8
0
 10
1659.500000
 20
1249.341577
 42
0.015018
  0
VERTEX
  8
0
 10
1826.131542
 20
1145.348803
 42
0.015276
  0
VERTEX
  8
0
 10
1997.774439
 20
1052.167090
 42
0.013585
  0
VERTEX
  8
0
 10
2191.957817
 20
960.833822
 42
0.008056
  0
VERTEX
  8
0
 10
2428.000000
 20
862.046840
 42
0.001456
  0
VERTEX
  8
0
 10
2481.555180
 20
840.821148
 42
0.001265
  0
VERTEX
  8
0
 10
2537.796116
 20
818.884403
 42
0.000645
  0
VERTEX
  8
0
 10
2620.758687
 20
786.889458
 42
0.000095
  0
VERTEX
  8
0
 10
2788.500000
 20
722.484066
 42
-0.001041
  0
VERTEX
  8
0
 10
2918.475915
 20
672.296540
 42
-0.003157
  0
VERTEX
  8
0
 10
3006.632659
 20
637.403316
 42
-0.004374
  0
VERTEX
  8
0
 10
3076.555746
 20
608.501656
 42
-0.004655
  0
VERTEX
  8
0
 10
3144.518398
 20
578.962449
 42
-0.007724
  0
VERTEX
  8
0
 10
3199.167309
 20
553.583521
 42
-0.011501
  0
VERTEX
  8
0
 10
3246.096844
 20
529.554954
 42
-0.013081
  0
VERTEX
  8
0
 10
3286.431205
 20
506.333719
 42
-0.018451
  0
VERTEX
  8
0
 10
3321.000000
 20
483.416020
 42
-0.006694
  0
VERTEX
  8
0
 10
3333.352510
 20
474.301012
 42
-0.010602
  0
VERTEX
  8
0
 10
3343.660599
 20
466.129222
 42
-0.009721
  0
VERTEX
  8
0
 10
3354.222106
 20
457.033801
 42
-0.004602
  0
VERTEX
  8
0
 10
3367.500000
 20
444.919687
 42
0.007625
  0
VERTEX
  8
0
 10
3380.286566
 20
433.394742
 42
0.017999
  0
VERTEX
  8
0
 10
3390.245561
 20
425.303228
 42
0.022747
  0
VERTEX
  8
0
 10
3399.160193
 20
419.193572
 42
0.023490
  0
VERTEX
  8
0
 10
3408.500000
 20
413.989227
 42
0.034260
  0
VERTEX
  8
0
 10
3422.224650
 20
408.300947
 42
0.041017
  0
VERTEX
  8
0
 10
3435.802163
 20
404.943381
 42
0.032477
  0
VERTEX
  8
0
 10
3452.098136
 20
403.382272
 42
0.012533
  0
VERTEX
  8
0
 10
3474.818567
 20
403.257059
 42
0.007992
  0
VERTEX
  8
0
 10
3492.407359
 20
403.882380
 42
0.035036
  0
VERTEX
  8
0
 10
3502.722075
 20
405.142490
 42
0.045310
  0
VERTEX
  8
0
 10
3511.451070
 20
407.673024
 42
0.019833
  0
VERTEX
  8
0
 10
3522.500000
 20
412.506592
 42
0.042049
  0
VERTEX
  8
0
 10
3542.339847
 20
424.294091
 42
0.045335
  0
VERTEX
  8
0
 10
3559.393482
 20
438.974443
 42
0.038307
  0
VERTEX
  8
0
 10
3575.665365
 20
458.575401
 42
0.019117
  0
VERTEX
  8
0
 10
3593.294496
 20
485.597741
 42
-0.038065
  0
VERTEX
  8
0
 10
3615.672523
 20
517.215634
 42
-0.026454
  0
VERTEX
  8
0
 10
3645.347874
 20
549.396902
 42
-0.025287
  0
VERTEX
  8
0
 10
3680.026889
 20
579.962099
 42
-0.025547
  0
VERTEX
  8
0
 10
3717.500000
 20
606.758871
 42
-0.021933
  0
VERTEX
  8
0
 10
3773.866513
 20
639.470982
 42
-0.010178
  0
VERTEX
  8
0
 10
3849.652662
 20
677.173128
 42
-0.007882
  0
VERTEX
  8
0
 10
3948.784057
 20
722.099505
 42
-0.003565
  0
VERTEX
  8
0
 10
4080.000000
 20
777.982105
 42
0.003498
  0
VERTEX
  8
0
 10
4268.267261
 20
858.132133
 42
0.007662
  0
VERTEX
  8
0
 10
4411.008482
 20
922.700954
 42
0.009095
  0
VERTEX
  8
0
 10
4535.313088
 20
984.027545
 42
0.007782
  0
VERTEX
  8
0
 10
4664.000000
 20
1053.010665
 42
0.005108
  0
VERTEX
  8
0
 10
4751.210285
 20
1102.695683
 42
0.005368
  0
VERTEX
  8
0
 10
4835.949660
 20
1153.353390
 42
0.005487
  0
VERTEX
  8
0
 10
4917.715170
 20
1204.674780
 42
0.005981
  0
VERTEX
  8
0
 10
4996.000000
 20
1256.351378
 42
0.015198
  0
VERTEX
  8
0
 10
5172.974286
 20
1384.252556
 42
0.017954
  0
VERTEX
  8
0
 10
5331.987064
 20
1516.055085
 42
0.018782
  0
VERTEX
  8
0
 10
5474.649800
 20
1653.168805
 42
0.020402
  0
VERTEX
  8
0
 10
5602.559033
 20
1797.000000
 42
0.025587
  0
VERTEX
  8
0
 10
5730.800889
 20
1971.084133
 42
0.025720
  0
VERTEX
  8
0
 10
5840.349487
 20
2157.062328
 42
0.025335
  0
VERTEX
  8
0
 10
5931.659831
 20
2356.037231
 42
0.023234
  0
VERTEX
  8
0
 10
6005.346964
 20
2569.000000
 42
0.017871
  0
VERTEX
  8
0
 10
6052.099413
 20
2751.398751
 42
0.015811
  0
VERTEX
  8
0
 10
6087.903555
 20
2944.256717
 42
0.014884
  0
VERTEX
  8
0
 10
6113.222687
 20
3150.460974
 42
0.012031
  0
VERTEX
  8
0
 10
6128.456473
 20
3373.000000
 42
0.002108
  0
VERTEX
  8
0
 10
6130.554294
 20
3425.323963
 42
0.004069
  0
VERTEX
  8
0
 10
6131.715930
 20
3467.220680
 42
0.003582
  0
VERTEX
  8
0
 10
6132.277461
 20
3512.438789
 42
0.001278
  0
VERTEX
  8
0
 10
6132.451656
 20
3577.000000
 42
0.001226
  0
VERTEX
  8
0
 10
6132.302422
 20
3641.621653
 42
0.003905
  0
VERTEX
  8
0
 10
6131.759730
 20
3684.786240
 42
0.004632
  0
VERTEX
  8
0
 10
6130.600145
 20
3723.889453
 42
0.002360
  0
VERTEX
  8
0
 10
6128.456124
 20
3773.000000
 42
0.020184
  0
VERTEX
  8
0
 10
6107.543892
 20
4008.113728
 42
0.020793
  0
VERTEX
  8
0
 10
6067.853664
 20
4238.428165
 42
0.021318
  0
VERTEX
  8
0
 10
6010.429430
 20
4458.841934
 42
0.024181
  0
VERTEX
  8
0
 10
5936.400506
 20
4664.291544
 42
0.020176
  0
VERTEX
  8
0
 10
5859.204899
 20
4830.614074
 42
0.022198
  0
VERTEX
  8
0
 10
5771.065829
 20
4984.809549
 42
0.022487
  0
VERTEX
  8
0
 10
5670.731851
 20
5128.783852
 42
0.021896
  0
VERTEX
  8
0
 10
5557.025489
 20
5264.499692
 42
0.008008
  0
VERTEX
  8
0
 10
5528.511017
 20
5294.670291
 42
0.004982
  0
VERTEX
  8
0
 10
5494.157431
 20
5329.177580
 42
0.004969
  0
VERTEX
  8
0
 10
5458.881658
 20
5363.228250
 42
0.007554
  0
VERTEX
  8
0
 10
5427.500000
 20
5392.037362
 42
0.023363
  0
VERTEX
  8
0
 10
5294.042002
 20
5500.149696
 42
0.023751
  0
VERTEX
  8
0
 10
5151.791657
 20
5594.705468
 42
0.023528
  0
VERTEX
  8
0
 10
4999.902922
 20
5676.132706
 42
0.021984
  0
VERTEX
  8
0
 10
4837.603744
 20
5744.961838
 42
0.021517
  0
VERTEX
  8
0
 10
4693.296368
 20
5791.842117
 42
0.019834
  0
VERTEX
  8
0
 10
4541.538650
 20
5827.602190
 42
0.019290
  0
VERTEX
  8
0
 10
4383.155841
 20
5852.054793
 42
0.017783
  0
VERTEX
  8
0
 10
4219.000000
 20
5865.057348
 42
0.008289
  0
VERTEX
  8
0
 10
4189.139069
 20
5865.860919
 42
0.002594
  0
VERTEX
  8
0
 10
4144.368490
 20
5866.090947
 42
0.002575
  0
VERTEX
  8
0
 10
4099.707521
 20
5865.858705
 42
0.008668
  0
VERTEX
  8
0
 10
4070.500000
 20
5865.049872
 42
0.012469
  0
VERTEX
  8
0
 10
3973.094573
 20
5858.224418
 42
0.013377
  0
VERTEX
  8
0
 10
3878.417601
 20
5846.650043
 42
0.012833
  0
VERTEX
  8
0
 10
3781.054484
 20
5829.529408
 42
0.009810
  0
VERTEX
  8
0
 10
3675.500000
 20
5805.997782
 42
-0.002012
  0
VERTEX
  8
0
 10
3653.793359
 20
5800.802023
 42
-0.002741
  0
VERTEX
  8
0
 10
3634.175757
 20
5796.303011
 42
-0.002986
  0
VERTEX
  8
0
 10
3617.737863
 20
5792.730865
 42
-0.009111
  0
VERTEX
  8
0
 10
3606.524884
 20
5790.576809
 42
-0.006351
  0
VERTEX
  8
0
 10
3601.859895
 20
5789.829394
 42
-0.028795
  0
VERTEX
  8
0
 10
3599.117637
 20
5789.585818
 42
-0.051757
  0
VERTEX
  8
0
 10
3597.377544
 20
5789.712032
 42
-0.156704
  0
VERTEX
  8
0
 10
3596.340443
 20
5790.260830
 42
-0.142377
  0
VERTEX
  8
0
 10
3594.896244
 20
5792.966098
 42
-0.010125
  0
VERTEX
  8
0
 10
3593.289634
 20
5801.445401
 42
-0.011795
  0
VERTEX
  8
0
 10
3591.641175
 20
5812.860794
 42
-0.005222
  0
VERTEX
  8
0
 10
3589.978576
 20
5828.000000
 42
0.018995
  0
VERTEX
  8
0
 10
3580.616933
 20
5895.943041
 42
0.018067
  0
VERTEX
  8
0
 10
3566.007660
 20
5964.137620
 42
0.018420
  0
VERTEX
  8
0
 10
3546.887257
 20
6029.642151
 42
0.022226
  0
VERTEX
  8
0
 10
3523.994807
 20
6089.500000
 42
0.010431
  0
VERTEX
  8
0
 10
3517.312414
 20
6104.047993
 42
0.005931
  0
VERTEX
  8
0
 10
3508.656788
 20
6121.373771
 42
0.005830
  0
VERTEX
  8
0
 10
3499.937125
 20
6137.846845
 42
0.015843
  0
VERTEX
  8
0
 10
3493.260099
 20
6149.238042
 42
0.014822
  0
VERTEX
  8
0
 10
3482.217973
 20
6165.676209
 42
0.016227
  0
VERTEX
  8
0
 10
3470.535359
 20
6180.929726
 42
0.014947
  0
VERTEX
  8
0
 10
3457.063999
 20
6196.415682
 42
0.009587
  0
VERTEX
  8
0
 10
3440.562563
 20
6213.604335
 42
0.016461
  0
VERTEX
  8
0
 10
3417.435155
 20
6235.310191
 42
0.040789
  0
VERTEX
  8
0
 10
3398.800045
 20
6249.163077
 42
0.050954
  0
VERTEX
  8
0
 10
3380.874512
 20
6257.952802
 42
0.042606
  0
VERTEX
  8
0
 10
3360.434306
 20
6263.585936
 42
0.031108
  0
VERTEX
  8
0
 10
3348.940354
 20
6264.990059
 42
0.010876
  0
VERTEX
  8
0
 10
3332.290330
 20
6265.616630
 42
0.010791
  0
VERTEX
  8
0
 10
3315.694784
 20
6265.521753
 42
0.033053
  0
SEQEND
  0
POLYLINE
  8
0
 66
1
 70
1
  0
VERTEX
  8
0
 10
4201.500000
 20
5598.988149
 42
-0.015695
  0
VERTEX
  8
0
 10
4321.726096
 20
5591.043469
 42
-0.016154
  0
VERTEX
  8
0
 10
4440.059555
 20
5575.611554
 42
-0.016470
  0
VERTEX
  8
0
 10
4554.837689
 20
5552.951080
 42
-0.018037
  0
VERTEX
  8
0
 10
4664.406644
 20
5523.341897
 42
-0.024685
  0
VERTEX
  8
0
 10
4818.510662
 20
5467.201539
 42
-0.025861
  0
VERTEX
  8
0
 10
4963.884345
 20
5396.901037
 42
-0.026059
  0
VERTEX
  8
0
 10
5100.194396
 20
5312.529942
 42
-0.025943
  0
VERTEX
  8
0
 10
5227.199624
 20
5214.320397
 42
-0.010193
  0
VERTEX
  8
0
 10
5268.338983
 20
5177.467692
 42
-0.008191
  0
VERTEX
  8
0
 10
5311.108591
 20
5136.222248
 42
-0.008169
  0
VERTEX
  8
0
 10
5352.649589
 20
5093.451868
 42
-0.009932
  0
VERTEX
  8
0
 10
5390.091663
 20
5052.000000
 42
-0.045561
  0
VERTEX
  8
0
 10
5569.497913
 20
4802.651605
 42
-0.040640
  0
VERTEX
  8
0
 10
5708.738466
 20
4515.428099
 42
-0.038806
  0
VERTEX
  8
0
 10
5804.903135
 20
4196.194749
 42
-0.034014
  0
VERTEX
  8
0
 10
5855.946954
 20
3851.500000
 42
-0.005885
  0
VERTEX
  8
0
 10
5860.871330
 20
3778.378144
 42
-0.006032
  0
VERTEX
  8
0
 10
5864.025685
 20
3705.758379
 42
-0.005606
  0
VERTEX
  8
0
 10
5865.582536
 20
3628.439639
 42
-0.003886
  0
VERTEX
  8
0
 10
5865.682955
 20
3541.000000
 42
-0.001014
  0
VERTEX
  8
0
 10
5865.202747
 20
3485.489950
 42
-0.003454
  0
VERTEX
  8
0
 10
5864.566981
 20
3449.340334
 42
-0.003902
  0
VERTEX
  8
0
 10
5863.474130
 20
3415.513362
 42
-0.001588
  0
VERTEX
  8
0
 10
5861.481660
 20
3369.500000
 42
-0.017122
  0
VERTEX
  8
0
 10
5839.233006
 20
3094.375898
 42
-0.021846
  0
VERTEX
  8
0
 10
5799.046111
 20
2843.149916
 42
-0.023590
  0
VERTEX
  8
0
 10
5740.676876
 20
2614.057095
 42
-0.028359
  0
VERTEX
  8
0
 10
5663.754703
 20
2405.500000
 42
-0.035995
  0
VERTEX
  8
0
 10
5537.560369
 20
2164.289802
 42
-0.036043
  0
VERTEX
  8
0
 10
5378.125545
 20
1943.785125
 42
-0.034184
  0
VERTEX
  8
0
 10
5180.513713
 20
1738.527324
 42
-0.026566
  0
VERTEX
  8
0
 10
4940.000000
 20
1542.871626
 42
-0.008984
  0
VERTEX
  8
0
 10
4846.646625
 20
1477.371196
 42
-0.008101
  0
VERTEX
  8
0
 10
4747.754961
 20
1412.911299
 42
-0.007596
  0
VERTEX
  8
0
 10
4640.638899
 20
1347.787474
 42
-0.005943
  0
VERTEX
  8
0
 10
4522.500000
 20
1280.273593
 42
-0.008022
  0
VERTEX
  8
0
 10
4409.098783
 20
1219.603971
 42
-0.008330
  0
VERTEX
  8
0
 10
4295.215097
 20
1163.385954
 42
-0.007340
  0
VERTEX
  8
0
 10
4167.514073
 20
1105.250133
 42
-0.004152
  0
VERTEX
  8
0
 10
4011.187020
 20
1038.375825
 42
0.000510
  0
VERTEX
  8
0
 10
3888.098799
 20
986.778098
 42
0.002907
  0
VERTEX
  8
0
 10
3822.868679
 20
958.908496
 42
0.005369
  0
VERTEX
  8
0
 10
3778.501166
 20
939.077757
 42
0.007072
  0
VERTEX
  8
0
 10
3738.500000
 20
919.990752
 42
0.014552
  0
VERTEX
  8
0
 10
3682.972010
 20
890.482727
 42
0.014794
  0
VERTEX
  8
0
 10
3629.564714
 20
857.947805
 42
0.014864
  0
VERTEX
  8
0
 10
3578.418797
 20
822.470002
 42
0.015032
  0
VERTEX
  8
0
 10
3529.667146
 20
784.143459
 42
0.006590
  0
VERTEX
  8
0
 10
3514.202093
 20
770.864647
 42
0.004698
  0
VERTEX
  8
0
 10
3497.222085
 20
755.605819
 42
0.003541
  0
VERTEX
  8
0
 10
3476.277205
 20
736.150761
 42
0.001434
  0
VERTEX
  8
0
 10
3447.993315
 20
709.349542
 42
0.000000
  0
VERTEX
  8
0
 10
3443.486631
 20
705.054497
 42
0.000000
  0
VERTEX
  8
0
 10
3422.993315
 20
721.669338
 42
0.008847
  0
VERTEX
  8
0
 10
3382.116979
 20
753.627759
 42
0.023921
  0
VERTEX
  8
0
 10
3351.687834
 20
774.357945
 42
0.023269
  0
VERTEX
  8
0
 10
3318.947889
 20
792.400501
 42
0.007993
  0
VERTEX
  8
0
 10
3270.000000
 20
815.513800
 42
0.007343
  0
VERTEX
  8
0
 10
3197.825688
 20
846.925271
 42
0.002817
  0
VERTEX
  8
0
 10
3096.625276
 20
888.544569
 42
0.002808
  0
VERTEX
  8
0
 10
2987.291274
 20
932.077369
 42
0.003679
  0
VERTEX
  8
0
 10
2886.893684
 20
970.550694
 42
-0.002282
  0
VERTEX
  8
0
 10
2738.858622
 20
1026.805308
 42
-0.002208
  0
VERTEX
  8
0
 10
2589.710250
 20
1085.021129
 42
-0.002316
  0
VERTEX
  8
0
 10
2452.962489
 20
1139.827832
 42
-0.004458
  0
VERTEX
  8
0
 10
2344.000000
 20
1185.221554
 42
-0.006394
  0
VERTEX
  8
0
 10
2252.759921
 20
1225.577774
 42
-0.006636
  0
VERTEX
  8
0
 10
2163.708929
 20
1267.773367
 42
-0.006801
  0
VERTEX
  8
0
 10
2078.051250
 20
1311.216830
 42
-0.007669
  0
VERTEX
  8
0
 10
1997.000000
 20
1355.317757
 42
-0.020283
  0
VERTEX
  8
0
 10
1792.763521
 20
1481.722261
 42
-0.022989
  0
VERTEX
  8
0
 10
1608.104701
 20
1619.421687
 42
-0.023770
  0
VERTEX
  8
0
 10
1442.464914
 20
1768.926171
 42
-0.025221
  0
VERTEX
  8
0
 10
1295.185642
 20
1930.681209
 42
-0.006798
  0
VERTEX
  8
0
 10
1266.361645
 20
1966.724381
 42
-0.007766
  0
VERTEX
  8
0
 10
1239.805068
 20
2001.990882
 42
-0.006833
  0
VERTEX
  8
0
 10
1211.719238
 20
2041.646558
 42
-0.003625
  0
VERTEX
  8
0
 10
1177.954150
 20
2091.500000
 42
-0.004704
  0
VERTEX
  8
0
 10
1137.365236
 20
2153.633193
 42
-0.009005
  0
VERTEX
  8
0
 10
1106.164159
 20
2204.381719
 42
-0.009812
  0
VERTEX
  8
0
 10
1078.614188
 20
2253.219921
 42
-0.006966
  0
VERTEX
  8
0
 10
1049.570707
 20
2309.000000
 42
-0.026520
  0
VERTEX
  8
0
 10
961.186183
 20
2510.647016
 42
-0.024720
  0
VERTEX
  8
0
 10
892.289688
 20
2725.259263
 42
-0.023542
  0
VERTEX
  8
0
 10
842.167013
 20
2955.745577
 42
-0.019474
  0
VERTEX
  8
0
 10
810.058454
 20
3205.000000
 42
-0.010256
  0
VERTEX
  8
0
 10
806.764901
 20
3252.894311
 42
-0.005194
  0
VERTEX
  8
0
 10
804.482512
 20
3313.308184
 42
-0.004336
  0
VERTEX
  8
0
 10
803.110442
 20
3386.660834
 42
-0.002498
  0
VERTEX
  8
0
 10
802.665651
 20
3475.000000
 42
-0.001930
  0
VERTEX
  8
0
 10
802.975700
 20
3556.143596
 42
-0.005719
  0
VERTEX
  8
0
 10
804.040140
 20
3611.812478
 42
-0.007838
  0
VERTEX
  8
0
 10
806.108771
 20
3656.524869
 42
-0.008189
  0
VERTEX
  8
0
 10
809.558439
 20
3700.500000
 42
-0.027743
  0
VERTEX
  8
0
 10
858.328465
 20
4022.895590
 42
-0.032790
  0
VERTEX
  8
0
 10
940.914061
 20
4319.953655
 42
-0.034139
  0
VERTEX
  8
0
 10
1057.997840
 20
4593.089145
 42
-0.035512
  0
VERTEX
  8
0
 10
1209.840804
 20
4843.996620
 42
-0.018415
  0
VERTEX
  8
0
 10
1301.516360
 20
4964.081557
 42
-0.019394
  0
VERTEX
  8
0
 10
1400.279053
 20
5074.965230
 42
-0.019638
  0
VERTEX
  8
0
 10
1506.093536
 20
5176.568110
 42
-0.020027
  0
VERTEX
  8
0
 10
1618.885771
 20
5268.861674
 42
-0.016223
  0
VERTEX
  8
0
 10
1709.175039
 20
5332.409300
 42
-0.016031
  0
VERTEX
  8
0
 10
1803.747896
 20
5390.234521
 42
-0.016118
  0
VERTEX
  8
0
 10
1901.296213
 20
5441.577682
 42
-0.016868
  0
VERTEX
  8
0
 10
2000.500000
 20
5485.704157
 42
-0.016801
  0
VERTEX
  8
0
 10
2100.520985
 20
5522.350185
 42
-0.016536
  0
VERTEX
  8
0
 10
2203.304351
 20
5552.410551
 42
-0.016581
  0
VERTEX
  8
0
 10
2307.562145
 20
5575.538603
 42
-0.017130
  0
VERTEX
  8
0
 10
2412.000000
 20
5591.417294
 42
-0.003906
  0
VERTEX
  8
0
 10
2447.226247
 20
5595.265671
 42
-0.015180
  0
VERTEX
  8
0
 10
2469.112507
 20
5596.814457
 42
-0.009353
  0
VERTEX
  8
0
 10
2495.350790
 20
5597.380909
 42
-0.000816
  0
VERTEX
  8
0
 10
2562.000000
 20
5597.464111
 42
-0.002091
  0
VERTEX
  8
0
 10
2629.971109
 20
5597.153782
 42
-0.004212
  0
VERTEX
  8
0
 10
2683.563555
 20
5596.233438
 42
-0.005017
  0
VERTEX
  8
0
 10
2730.399018
 20
5594.563995
 42
-0.005079
  0
VERTEX
  8
0
 10
2777.000000
 20
5591.959905
 42
-0.011450
  0
VERTEX
  8
0
 10
2821.449168
 20
5587.998821
 42
-0.006122
  0
VERTEX
  8
0
 10
2876.171871
 20
5581.176923
 42
-0.006009
  0
VERTEX
  8
0
 10
2933.248765
 20
5572.650752
 42
-0.007794
  0
VERTEX
  8
0
 10
2985.337222
 20
5563.393365
 42
-0.005999
  0
VERTEX
  8
0
 10
2999.453501
 20
5560.480768
 42
-0.001311
  0
VERTEX
  8
0
 10
3023.685235
 20
5555.110569
 42
-0.000719
  0
VERTEX
  8
0
 10
3048.694466
 20
5549.461479
 42
-0.018452
  0
VERTEX
  8
0
 10
3055.418000
 20
5547.669347
 42
-0.616723
  0
VERTEX
  8
0
 10
3055.469980
 20
5547.363149
 42
-0.005311
  0
VERTEX
  8
0
 10
3053.006051
 20
5545.592645
 42
-0.009981
  0
VERTEX
  8
0
 10
3049.849365
 20
5543.467640
 42
-0.005531
  0
VERTEX
  8
0
 10
3045.918000
 20
5540.994808
 42
0.006568
  0
VERTEX
  8
0
 10
2977.500702
 20
5497.762052
 42
0.009735
  0
VERTEX
  8
0
 10
2918.808538
 20
5457.939462
 42
0.011030
  0
VERTEX
  8
0
 10
2868.260586
 20
5420.486288
 42
0.015140
  0
VERTEX
  8
0
 10
2824.621265
 20
5384.467924
 42
0.009870
  0
VERTEX
  8
0
 10
2784.017249
 20
5347.390229
 42
0.007015
  0
VERTEX
  8
0
 10
2739.922951
 20
5304.306736
 42
0.006972
  0
VERTEX
  8
0
 10
2696.639794
 20
5259.581986
 42
0.009157
  0
VERTEX
  8
0
 10
2658.464367
 20
5217.500000
 42
0.017619
  0
VERTEX
  8
0
 10
2578.063498
 20
5118.726168
 42
0.016747
  0
VERTEX
  8
0
 10
2503.381958
 20
5012.887861
 42
0.016701
  0
VERTEX
  8
0
 10
2435.747240
 20
4901.975576
 42
0.017266
  0
VERTEX
  8
0
 10
2376.458012
 20
4788.000000
 42
0.021869
  0
VERTEX
  8
0
 10
2300.713647
 20
4609.550554
 42
0.020855
  0
VERTEX
  8
0
 10
2239.509711
 20
4422.343002
 42
0.020139
  0
VERTEX
  8
0
 10
2192.310565
 20
4224.333626
 42
0.017454
  0
VERTEX
  8
0
 10
2158.540645
 20
4013.500000
 42
0.007919
  0
VERTEX
  8
0
 10
2147.599984
 20
3912.669372
 42
0.008711
  0
VERTEX
  8
0
 10
2140.255481
 20
3814.695745
 42
0.008283
  0
VERTEX
  8
0
 10
2136.071547
 20
3712.299411
 42
0.005977
  0
VERTEX
  8
0
 10
2134.663480
 20
3598.000000
 42
0.002644
  0
VERTEX
  8
0
 10
2134.952596
 20
3539.280307
 42
0.006922
  0
VERTEX
  8
0
 10
2135.967018
 20
3497.119040
 42
0.007393
  0
VERTEX
  8
0
 10
2138.103216
 20
3456.610030
 42
0.003416
  0
VERTEX
  8
0
 10
2142.019517
 20
3404.000000
 42
0.021484
  0
VERTEX
  8
0
 10
2173.248668
 20
3153.640993
 42
0.020065
  0
VERTEX
  8
0
 10
2226.344879
 20
2901.039309
 42
0.019452
  0
VERTEX
  8
0
 10
2301.438103
 20
2645.866524
 42
0.017464
  0
VERTEX
  8
0
 10
2398.582252
 20
2387.802511
 42
0.005316
  0
VERTEX
  8
0
 10
2433.789428
 20
2305.809296
 42
0.005011
  0
VERTEX
  8
0
 10
2471.417956
 20
2222.941014
 42
0.005068
  0
VERTEX
  8
0
 10
2506.420625
 20
2149.808212
 42
0.015723
  0
VERTEX
  8
0
 10
2532.062182
 20
2101.500000
 42
0.022953
  0
VERTEX
  8
0
 10
2559.684859
 20
2057.957405
 42
0.053505
  0
VERTEX
  8
0
 10
2585.060913
 20
2028.914932
 42
0.070769
  0
VERTEX
  8
0
 10
2610.963920
 20
2011.023651
 42
0.079659
  0
VERTEX
  8
0
 10
2639.815914
 20
2001.966590
 42
0.033372
  0
VERTEX
  8
0
 10
2650.360607
 20
2001.137426
 42
0.010293
  0
VERTEX
  8
0
 10
2666.308278
 20
2001.278267
 42
0.010067
  0
VERTEX
  8
0
 10
2682.138877
 20
2002.063283
 42
0.037729
  0
VERTEX
  8
0
 10
2691.980884
 20
2003.501492
 42
0.025339
  0
VERTEX
  8
0
 10
2707.221173
 20
2007.738945
 42
0.023905
  0
VERTEX
  8
0
 10
2722.261057
 20
2013.566499
 42
0.024621
  0
VERTEX
  8
0
 10
2736.168966
 20
2020.573501
 42
0.032724
  0
VERTEX
  8
0
 10
2748.000000
 20
2028.347708
 42
0.058189
  0
VERTEX
  8
0
 10
2772.325970
 20
2051.608777
 42
0.067477
  0
VERTEX
  8
0
 10
2789.243869
 20
2078.787586
 42
0.066802
  0
VERTEX
  8
0
 10
2798.429606
 20
2109.725349
 42
0.055415
  0
VERTEX
  8
0
 10
2799.958737
 20
2144.067758
 42
0.044763
  0
VERTEX
  8
0
 10
2797.374719
 20
2160.530892
 42
0.036724
  0
VERTEX
  8
0
 10
2791.796598
 20
2177.444459
 42
0.016109
  0
VERTEX
  8
0
 10
2780.324887
 20
2202.845816
 42
0.001806
  0
VERTEX
  8
0
 10
2752.182123
 20
2259.644738
 42
-0.000992
  0
VERTEX
  8
0
 10
2741.338125
 20
2281.441307
 42
-0.000894
  0
VERTEX
  8
0
 10
2730.195304
 20
2304.051892
 42
-0.000895
  0
VERTEX
  8
0
 10
2720.277962
 20
2324.358628
 42
-0.002835
  0
VERTEX
  8
0
 10
2713.741404
 20
2338.000000
 42
-0.019242
  0
VERTEX
  8
0
 10
2608.442883
 20
2585.193539
 42
-0.018880
  0
VERTEX
  8
0
 10
2521.729193
 20
2841.306309
 42
-0.019373
  0
VERTEX
  8
0
 10
2456.729063
 20
3095.905846
 42
-0.023628
  0
VERTEX
  8
0
 10
2416.589108
 20
3338.500000
 42
-0.006885
  0
VERTEX
  8
0
 10
2410.200047
 20
3400.334561
 42
-0.007460
  0
VERTEX
  8
0
 10
2405.709225
 20
3460.689798
 42
-0.007057
  0
VERTEX
  8
0
 10
2402.841502
 20
3524.040602
 42
-0.005041
  0
VERTEX
  8
0
 10
2401.348122
 20
3595.000000
 42
-0.012231
  0
VERTEX
  8
0
 10
2403.298287
 20
3739.442860
 42
-0.011907
  0
VERTEX
  8
0
 10
2412.296701
 20
3884.923230
 42
-0.012080
  0
VERTEX
  8
0
 10
2428.014523
 20
4027.569292
 42
-0.013667
  0
VERTEX
  8
0
 10
2450.123287
 20
4163.500000
 42
-0.018267
  0
VERTEX
  8
0
 10
2488.347596
 20
4330.434983
 42
-0.019788
  0
VERTEX
  8
0
 10
2537.813961
 20
4489.671418
 42
-0.020546
  0
VERTEX
  8
0
 10
2597.605497
 20
4638.568214
 42
-0.023912
  0
VERTEX
  8
0
 10
2666.783546
 20
4774.500000
 42
-0.013152
  0
VERTEX
  8
0
 10
2697.060130
 20
4824.455205
 42
-0.006924
  0
VERTEX
  8
0
 10
2737.139239
 20
4884.963606
 42
-0.006923
  0
VERTEX
  8
0
 10
2778.996088
 20
4944.506411
 42
-0.012803
  0
VERTEX
  8
0
 10
2814.881772
 20
4991.500000
 42
-0.014431
  0
VERTEX
  8
0
 10
2852.579841
 20
5035.659072
 42
-0.007746
  0
VERTEX
  8
0
 10
2901.474535
 20
5088.040510
 42
-0.007656
  0
VERTEX
  8
0
 10
2953.701610
 20
5140.646018
 42
-0.010761
  0
VERTEX
  8
0
 10
3002.000000
 20
5185.837191
 42
-0.014965
  0
VERTEX
  8
0
 10
3047.919812
 20
5224.571958
 42
-0.010558
  0
VERTEX
  8
0
 10
3101.685764
 20
5265.418280
 42
-0.010184
  0
VERTEX
  8
0
 10
3159.697325
 20
5305.808631
 42
-0.010626
  0
VERTEX
  8
0
 10
3218.500000
 20
5343.216593
 42
-0.025896
  0
VERTEX
  8
0
 10
3374.167529
 20
5426.959574
 42
-0.025045
  0
VERTEX
  8
0
 10
3539.378787
 20
5495.197555
 42
-0.024884
  0
VERTEX
  8
0
 10
3711.668253
 20
5546.959346
 42
-0.024775
  0
VERTEX
  8
0
 10
3888.500000
 20
5581.437142
 42
-0.011085
  0
VERTEX
  8
0
 10
3966.663229
 20
5590.929535
 42
-0.010667
  0
VERTEX
  8
0
 10
4046.176914
 20
5597.092111
 42
-0.010766
  0
VERTEX
  8
0
 10
4125.102766
 20
5599.814915
 42
-0.011888
  0
SEQEND
  0
ENDSEC
  0
EOF
