  0
SECTION
  2
HEADER
  9
$ACADVER
  1
AC1006
  9
$EXTMIN
 10
0.000000
 20
0.000000
 30
0.000000
  9
$EXTMAX
 10
1975.000000
 20
1354.000000
 30
0.000000
  0
ENDSEC
  0
SECTION
  2
ENTITIES
  0
POLYLINE
  8
0
 66
1
 70
1
  0
VERTEX
  8
0
 10
1025.298474
 20
1352.521297
 42
0.127599
  0
VERTEX
  8
0
 10
1019.974021
 20
1348.373112
 42
0.025799
  0
VERTEX
  8
0
 10
1013.113120
 20
1338.420070
 42
0.017492
  0
VERTEX
  8
0
 10
1004.026969
 20
1322.438279
 42
0.004521
  0
VERTEX
  8
0
 10
990.526131
 20
1296.052230
 42
0.004325
  0
VERTEX
  8
0
 10
975.627541
 20
1265.618266
 42
0.004435
  0
VERTEX
  8
0
 10
961.383281
 20
1235.181983
 42
0.004548
  0
VERTEX
  8
0
 10
949.348972
 20
1208.216337
 42
0.014068
  0
VERTEX
  8
0
 10
941.905402
 20
1189.715935
 42
0.025088
  0
VERTEX
  8
0
 10
937.679032
 20
1176.255022
 42
0.022162
  0
VERTEX
  8
0
 10
934.617136
 20
1161.871510
 42
0.019589
  0
VERTEX
  8
0
 10
932.558859
 20
1145.655738
 42
0.012356
  0
VERTEX
  8
0
 10
931.369281
 20
1126.608016
 42
0.018304
  0
VERTEX
  8
0
 10
931.346722
 20
1105.241619
 42
0.018078
  0
VERTEX
  8
0
 10
932.883765
 20
1083.841325
 42
0.017936
  0
VERTEX
  8
0
 10
935.980541
 20
1062.442541
 42
0.017352
  0
VERTEX
  8
0
 10
940.629496
 20
1041.080676
 42
-0.005359
  0
VERTEX
  8
0
 10
944.228436
 20
1026.263163
 42
-0.012847
  0
VERTEX
  8
0
 10
946.494807
 20
1015.188650
 42
-0.009361
  0
VERTEX
  8
0
 10
947.820268
 20
1006.839802
 42
-0.235231
  0
VERTEX
  8
0
 10
947.104854
 20
1004.704854
 42
-0.299130
  0
VERTEX
  8
0
 10
944.134220
 20
1004.090043
 42
-0.014510
  0
VERTEX
  8
0
 10
934.418360
 20
1008.269651
 42
-0.008942
  0
VERTEX
  8
0
 10
917.356732
 20
1016.577867
 42
-0.000803
  0
VERTEX
  8
0
 10
875.000000
 20
1038.234854
 42
0.011383
  0
VERTEX
  8
0
 10
849.205770
 20
1050.742283
 42
0.019156
  0
VERTEX
  8
0
 10
826.959881
 20
1059.897398
 42
0.021908
  0
VERTEX
  8
0
 10
806.447069
 20
1066.429781
 42
0.023810
  0
VERTEX
  8
0
 10
786.000000
 20
1070.935224
 42
0.054501
  0
VERTEX
  8
0
 10
741.435108
 20
1073.629210
 42
0.038842
  0
VERTEX
  8
0
 10
691.785836
 20
1067.331960
 42
0.036945
  0
VERTEX
  8
0
 10
640.877515
 20
1052.821831
 42
0.036616
  0
VERTEX
  8
0
 10
592.500000
 20
1030.943505
 42
0.013769
  0
VERTEX
  8
0
 10
579.447171
 20
1023.375162
 42
0.008332
  0
VERTEX
  8
0
 10
564.401434
 20
1013.738689
 42
0.008326
  0
VERTEX
  8
0
 10
549.650884
 20
1003.582905
 42
0.013494
  0
VERTEX
  8
0
 10
537.500000
 20
994.410657
 42
0.021028
  0
VERTEX
  8
0
 10
524.513382
 20
983.120244
 42
0.008162
  0
VERTEX
  8
0
 10
507.475259
 20
966.465615
 42
0.008125
  0
VERTEX
  8
0
 10
491.047336
 20
949.326222
 42
0.022050
  0
VERTEX
  8
0
 10
480.158979
 20
936.500000
 42
0.037355
  0
VERTEX
  8
0
 10
448.159402
 20
888.196778
 42
0.041516
  0
VERTEX
  8
0
 10
424.976153
 20
837.302389
 42
0.038964
  0
VERTEX
  8
0
 10
409.474672
 20
780.531939
 42
0.026923
  0
VERTEX
  8
0
 10
400.516857
 20
714.500000
 42
0.027954
  0
VERTEX
  8
0
 10
398.520614
 20
635.019894
 42
0.024643
  0
VERTEX
  8
0
 10
405.152442
 20
552.358371
 42
0.024614
  0
VERTEX
  8
0
 10
419.899675
 20
470.644370
 42
0.027697
  0
VERTEX
  8
0
 10
442.200755
 20
394.000000
 42
0.024760
  0
VERTEX
  8
0
 10
463.880697
 20
340.962363
 42
0.017807
  0
VERTEX
  8
0
 10
493.041331
 20
284.002115
 42
0.016750
  0
VERTEX
  8
0
 10
528.407291
 20
225.304840
 42
0.015104
  0
VERTEX
  8
0
 10
568.808801
 20
167.000000
 42
0.007106
  0
VERTEX
  8
0
 10
580.434826
 20
151.719008
 42
0.004410
  0
VERTEX
  8
0
 10
594.492877
 20
134.098757
 42
0.004304
  0
VERTEX
  8
0
 10
608.101756
 20
117.638278
 42
0.012797
  0
VERTEX
  8
0
 10
617.808936
 20
106.682559
 42
0.034444
  0
VERTEX
  8
0
 10
656.853257
 20
70.214426
 42
0.044217
  0
VERTEX
  8
0
 10
697.564402
 20
42.716198
 42
0.049162
  0
VERTEX
  8
0
 10
738.317413
 20
25.127861
 42
0.067960
  0
VERTEX
  8
0
 10
777.500000
 20
18.261596
 42
0.035246
  0
VERTEX
  8
0
 10
791.820015
 20
18.730003
 42
0.024230
  0
VERTEX
  8
0
 10
807.884037
 20
21.184323
 42
0.014596
  0
VERTEX
  8
0
 10
830.196038
 20
26.390904
 42
0.003402
  0
VERTEX
  8
0
 10
867.310845
 20
36.472914
 42
-0.006952
  0
VERTEX
  8
0
 10
893.382985
 20
43.356849
 42
-0.018765
  0
VERTEX
  8
0
 10
912.123973
 20
47.287006
 42
-0.021739
  0
VERTEX
  8
0
 10
929.475904
 20
49.479999
 42
-0.012536
  0
VERTEX
  8
0
 10
950.500000
 20
50.683351
 42
-0.015683
  0
VERTEX
  8
0
 10
971.344846
 20
50.698763
 42
-0.038714
  0
VERTEX
  8
0
 10
986.538064
 20
49.051280
 42
-0.036241
  0
VERTEX
  8
0
 10
1001.870563
 20
45.007755
 42
-0.012307
  0
VERTEX
  8
0
 10
1023.500000
 20
36.991745
 42
0.012025
  0
VERTEX
  8
0
 10
1051.315328
 20
26.665356
 42
0.012530
  0
VERTEX
  8
0
 10
1079.218360
 20
17.838777
 42
0.013139
  0
VERTEX
  8
0
 10
1104.231708
 20
11.317483
 42
0.034937
  0
VERTEX
  8
0
 10
1122.448806
 20
8.397949
 42
-0.009843
  0
VERTEX
  8
0
 10
1127.003763
 20
7.900631
 42
-0.049521
  0
VERTEX
  8
0
 10
1129.497011
 20
7.323694
 42
-0.077884
  0
VERTEX
  8
0
 10
1131.269462
 20
6.396849
 42
-0.048383
  0
VERTEX
  8
0
 10
1133.015957
 20
4.821387
 42
0.047237
  0
VERTEX
  8
0
 10
1134.597174
 20
3.388444
 42
0.055040
  0
VERTEX
  8
0
 10
1136.344079
 20
2.360506
 42
0.045081
  0
VERTEX
  8
0
 10
1138.545970
 20
1.601869
 42
0.019849
  0
VERTEX
  8
0
 10
1141.567150
 20
0.983126
 42
0.035985
  0
VERTEX
  8
0
 10
1151.962215
 20
0.041095
 42
0.027316
  0
VERTEX
  8
0
 10
1163.403196
 20
0.455245
 42
0.027398
  0
VERTEX
  8
0
 10
1174.682722
 20
2.109080
 42
0.037162
  0
VERTEX
  8
0
 10
1184.588539
 20
4.900342
 42
-0.014509
  0
VERTEX
  8
0
 10
1188.583230
 20
6.223846
 42
-0.005347
  0
VERTEX
  8
0
 10
1194.288508
 20
7.865804
 42
-0.005295
  0
VERTEX
  8
0
 10
1200.560052
 20
9.527046
 42
-0.006341
  0
VERTEX
  8
0
 10
1206.500000
 20
10.953399
 42
0.003828
  0
VERTEX
  8
0
 10
1219.221728
 20
13.940689
 42
0.013681
  0
VERTEX
  8
0
 10
1227.284922
 20
16.134563
 42
0.014991
  0
VERTEX
  8
0
 10
1234.841234
 20
18.663772
 42
0.005313
  0
VERTEX
  8
0
 10
1245.500000
 20
22.719614
 42
0.017152
  0
VERTEX
  8
0
 10
1264.039445
 20
30.744927
 42
0.012035
  0
VERTEX
  8
0
 10
1284.353126
 20
40.984300
 42
0.012095
  0
VERTEX
  8
0
 10
1303.955631
 20
52.082086
 42
0.018587
  0
VERTEX
  8
0
 10
1320.303375
 20
62.711266
 42
0.026978
  0
VERTEX
  8
0
 10
1341.241197
 20
79.218496
 42
0.018581
  0
VERTEX
  8
0
 10
1363.169850
 20
100.007430
 42
0.017594
  0
VERTEX
  8
0
 10
1384.906928
 20
123.826377
 42
0.016747
  0
VERTEX
  8
0
 10
1405.291178
 20
149.500000
 42
0.024912
  0
VERTEX
  8
0
 10
1443.929490
 20
207.488793
 42
0.021152
  0
VERTEX
  8
0
 10
1478.932831
 20
272.231140
 42
0.020399
  0
VERTEX
  8
0
 10
1509.571091
 20
342.234865
 42
0.019134
  0
VERTEX
  8
0
 10
1535.125842
 20
416.000000
 42
0.014758
  0
VERTEX
  8
0
 10
1546.801504
 20
458.901040
 42
0.009551
  0
VERTEX
  8
0
 10
1557.885327
 20
509.149881
 42
0.009582
  0
VERTEX
  8
0
 10
1566.959062
 20
559.345020
 42
0.015908
  0
VERTEX
  8
0
 10
1572.442915
 20
602.000000
 42
0.014321
  0
VERTEX
  8
0
 10
1575.333493
 20
644.816908
 42
0.007658
  0
VERTEX
  8
0
 10
1576.577075
 20
697.833752
 42
0.007632
  0
VERTEX
  8
0
 10
1576.205251
 20
750.006304
 42
0.016917
  0
VERTEX
  8
0
 10
1573.970310
 20
789.717084
 42
0.016034
  0
VERTEX
  8
0
 10
1570.442042
 20
818.465858
 42
0.018615
  0
VERTEX
  8
0
 10
1565.199789
 20
845.518488
 42
0.017801
  0
VERTEX
  8
0
 10
1557.736240
 20
873.104291
 42
0.012612
  0
VERTEX
  8
0
 10
1547.492739
 20
903.500000
 42
0.019385
  0
VERTEX
  8
0
 10
1530.319030
 20
945.394183
 42
0.035435
  0
VERTEX
  8
0
 10
1512.664859
 20
977.814464
 42
0.041028
  0
VERTEX
  8
0
 10
1492.662775
 20
1004.044631
 42
0.039919
  0
VERTEX
  8
0
 10
1468.475164
 20
1026.919010
 42
0.040786
  0
VERTEX
  8
0
 10
1440.644163
 20
1045.803522
 42
0.050652
  0
VERTEX
  8
0
 10
1412.008405
 20
1058.366620
 42
0.042159
  0
VERTEX
  8
0
 10
1377.455144
 20
1066.382308
 42
0.018494
  0
VERTEX
  8
0
 10
1330.696846
 20
1071.390235
 42
-0.001621
  0
VERTEX
  8
0
 10
1323.084794
 20
1071.946542
 42
-0.002643
  0
VERTEX
  8
0
 10
1316.630848
 20
1072.473576
 42
-0.000372
  0
VERTEX
  8
0
 10
1310.910579
 20
1072.975435
 42
-0.212994
  0
VERTEX
  8
0
 10
1310.621279
 20
1073.136487
 42
-0.194527
  0
VERTEX
  8
0
 10
1309.823102
 20
1076.150801
 42
-0.001226
  0
VERTEX
  8
0
 10
1313.450682
 20
1104.369141
 42
-0.004492
  0
VERTEX
  8
0
 10
1318.138480
 20
1137.806731
 42
-0.002409
  0
VERTEX
  8
0
 10
1324.494391
 20
1179.000000
 42
0.002790
  0
VERTEX
  8
0
 10
1328.401857
 20
1204.453346
 42
0.005758
  0
VERTEX
  8
0
 10
1331.116239
 20
1224.403154
 42
0.007280
  0
VERTEX
  8
0
 10
1332.865481
 20
1240.364872
 42
0.014025
  0
VERTEX
  8
0
 10
1333.720665
 20
1253.196753
 42
0.009945
  0
VERTEX
  8
0
 10
1333.913099
 20
1263.535795
 42
0.044871
  0
VERTEX
  8
0
 10
1333.365028
 20
1269.544575
 42
0.097740
  0
VERTEX
  8
0
 10
1332.072085
 20
1272.824424
 42
0.255457
  0
VERTEX
  8
0
 10
1329.921312
 20
1274.000000
 42
0.160590
  0
VERTEX
  8
0
 10
1328.401174
 20
1273.498838
 42
0.054293
  0
VERTEX
  8
0
 10
1326.666431
 20
1271.897598
 42
0.017783
  0
VERTEX
  8
0
 10
1323.860320
 20
1268.437127
 42
0.001262
  0
VERTEX
  8
0
 10
1316.411091
 20
1258.500000
 42
-0.008885
  0
VERTEX
  8
0
 10
1308.823360
 20
1248.693239
 42
-0.006463
  0
VERTEX
  8
0
 10
1300.052202
 20
1238.048697
 42
-0.006169
  0
VERTEX
  8
0
 10
1291.751314
 20
1228.478112
 42
-0.022995
  0
VERTEX
  8
0
 10
1286.186891
 20
1222.771584
 42
-0.028043
  0
VERTEX
  8
0
 10
1279.648262
 20
1217.309271
 42
-0.025304
  0
VERTEX
  8
0
 10
1272.317683
 20
1212.408663
 42
-0.025499
  0
VERTEX
  8
0
 10
1264.594809
 20
1208.312198
 42
-0.029831
  0
VERTEX
  8
0
 10
1256.882396
 20
1205.257980
 42
-0.028188
  0
VERTEX
  8
0
 10
1243.657448
 20
1201.724858
 42
-0.020543
  0
VERTEX
  8
0
 10
1228.640246
 20
1199.245614
 42
-0.013753
  0
VERTEX
  8
0
 10
1208.449976
 20
1197.321031
 42
-0.004085
  0
VERTEX
  8
0
 10
1177.500000
 20
1195.481602
 42
0.005596
  0
VERTEX
  8
0
 10
1145.307773
 20
1193.470704
 42
0.020729
  0
VERTEX
  8
0
 10
1125.099926
 20
1191.135937
 42
0.031746
  0
VERTEX
  8
0
 10
1110.157004
 20
1187.795182
 42
0.036777
  0
VERTEX
  8
0
 10
1096.500000
 20
1182.702256
 42
0.024422
  0
VERTEX
  8
0
 10
1077.038934
 20
1172.587966
 42
0.025951
  0
VERTEX
  8
0
 10
1059.062089
 20
1160.809506
 42
0.026764
  0
VERTEX
  8
0
 10
1042.933039
 20
1147.621069
 42
0.030296
  0
VERTEX
  8
0
 10
1029.000000
 20
1133.288833
 42
-0.006692
  0
VERTEX
  8
0
 10
1016.797553
 20
1119.490199
 42
-0.036277
  0
VERTEX
  8
0
 10
1009.563868
 20
1112.603844
 42
-0.103632
  0
VERTEX
  8
0
 10
1005.160976
 20
1110.301815
 42
-0.387753
  0
VERTEX
  8
0
 10
1002.606989
 20
1111.581787
 42
-0.089970
  0
VERTEX
  8
0
 10
1001.978799
 20
1114.902751
 42
-0.009883
  0
VERTEX
  8
0
 10
1002.074354
 20
1122.688294
 42
-0.012366
  0
VERTEX
  8
0
 10
1002.584118
 20
1131.658351
 42
-0.012212
  0
VERTEX
  8
0
 10
1003.537960
 20
1140.629788
 42
-0.030265
  0
VERTEX
  8
0
 10
1008.969720
 20
1168.743143
 42
-0.042288
  0
VERTEX
  8
0
 10
1017.403929
 20
1192.901278
 42
-0.040746
  0
VERTEX
  8
0
 10
1030.052743
 20
1215.952360
 42
-0.025491
  0
VERTEX
  8
0
 10
1048.304161
 20
1240.760641
 42
0.008227
  0
VERTEX
  8
0
 10
1056.216569
 20
1250.772448
 42
0.014959
  0
VERTEX
  8
0
 10
1062.295831
 20
1259.244237
 42
0.018212
  0
VERTEX
  8
0
 10
1066.733192
 20
1266.383717
 42
0.040089
  0
VERTEX
  8
0
 10
1069.465258
 20
1272.193912
 42
0.021095
  0
VERTEX
  8
0
 10
1070.459031
 20
1275.220848
 42
0.077474
  0
VERTEX
  8
0
 10
1070.700490
 20
1277.216593
 42
0.057183
  0
VERTEX
  8
0
 10
1070.361845
 20
1279.480566
 42
0.008041
  0
VERTEX
  8
0
 10
1069.059917
 20
1284.028647
 42
0.029509
  0
VERTEX
  8
0
 10
1063.266727
 20
1299.709704
 42
0.012766
  0
VERTEX
  8
0
 10
1053.815422
 20
1319.868235
 42
0.011141
  0
VERTEX
  8
0
 10
1043.790955
 20
1338.834104
 42
0.062049
  0
VERTEX
  8
0
 10
1037.000000
 20
1348.100351
 42
0.023176
  0
VERTEX
  8
0
 10
1033.446740
 20
1351.532530
 42
0.090368
  0
VERTEX
  8
0
 10
1030.839276
 20
1353.100763
 42
0.126419
  0
VERTEX
  8
0
 10
1028.332276
 20
1353.376960
 42
0.066662
  0
SEQEND
  0
POLYLINE
  8
0
 66
1
 70
1
  0
VERTEX
  8
0
 10
1018.905001
 20
1302.549126
 42
-0.076273
  0
VERTEX
  8
0
 10
1022.695059
 20
1299.788630
 42
-0.011700
  0
VERTEX
  8
0
 10
1029.177418
 20
1293.044957
 42
-0.013612
  0
VERTEX
  8
0
 10
1035.423988
 20
1285.850928
 42
-0.041781
  0
VERTEX
  8
0
 10
1039.087488
 20
1280.544965
 42
-0.088337
  0
VERTEX
  8
0
 10
1041.596680
 20
1273.553098
 42
-0.098670
  0
VERTEX
  8
0
 10
1041.393864
 20
1266.404421
 42
-0.065585
  0
VERTEX
  8
0
 10
1038.168482
 20
1257.731723
 42
-0.019584
  0
VERTEX
  8
0
 10
1031.064064
 20
1245.500000
 42
0.005487
  0
VERTEX
  8
0
 10
1016.180705
 20
1221.461792
 42
0.013097
  0
VERTEX
  8
0
 10
1005.800403
 20
1203.214626
 42
0.017291
  0
VERTEX
  8
0
 10
998.422287
 20
1188.188766
 42
0.025531
  0
VERTEX
  8
0
 10
993.100104
 20
1174.500000
 42
0.036417
  0
VERTEX
  8
0
 10
987.495644
 20
1152.269435
 42
0.028505
  0
VERTEX
  8
0
 10
984.586287
 20
1127.551584
 42
0.028627
  0
VERTEX
  8
0
 10
984.513746
 20
1102.806164
 42
0.038026
  0
VERTEX
  8
0
 10
987.437292
 20
1080.500000
 42
0.006159
  0
VERTEX
  8
0
 10
988.926127
 20
1073.799801
 42
0.001276
  0
VERTEX
  8
0
 10
991.719401
 20
1062.056719
 42
0.001341
  0
VERTEX
  8
0
 10
995.034404
 20
1048.437290
 42
0.001264
  0
VERTEX
  8
0
 10
998.487496
 20
1034.565425
 42
-0.001792
  0
VERTEX
  8
0
 10
1001.802672
 20
1021.187318
 42
-0.002423
  0
VERTEX
  8
0
 10
1004.697731
 20
1009.067813
 42
-0.001634
  0
VERTEX
  8
0
 10
1007.044076
 20
998.880312
 42
-0.026533
  0
VERTEX
  8
0
 10
1007.638601
 20
995.417851
 42
-0.011868
  0
VERTEX
  8
0
 10
1007.928352
 20
992.319885
 42
-0.083568
  0
VERTEX
  8
0
 10
1007.781869
 20
990.818002
 42
-0.143208
  0
VERTEX
  8
0
 10
1007.174710
 20
989.824261
 42
-0.058573
  0
VERTEX
  8
0
 10
1005.875643
 20
988.895187
 42
-0.132576
  0
VERTEX
  8
0
 10
1000.319495
 20
987.534226
 42
-0.042909
  0
VERTEX
  8
0
 10
991.830116
 20
988.464642
 42
-0.043170
  0
VERTEX
  8
0
 10
983.238507
 20
990.946488
 42
-0.083192
  0
VERTEX
  8
0
 10
977.088902
 20
994.578648
 42
-0.103648
  0
VERTEX
  8
0
 10
972.405769
 20
1000.554199
 42
-0.015585
  0
VERTEX
  8
0
 10
966.064113
 20
1014.491790
 42
-0.018055
  0
VERTEX
  8
0
 10
959.989322
 20
1030.643871
 42
-0.021485
  0
VERTEX
  8
0
 10
955.479197
 20
1046.289092
 42
-0.035937
  0
VERTEX
  8
0
 10
949.684652
 20
1080.904877
 42
-0.027348
  0
VERTEX
  8
0
 10
948.172194
 20
1119.339170
 42
-0.027699
  0
VERTEX
  8
0
 10
950.836633
 20
1156.944149
 42
-0.042029
  0
VERTEX
  8
0
 10
957.669914
 20
1188.983923
 42
-0.025616
  0
VERTEX
  8
0
 10
967.295038
 20
1215.737196
 42
-0.012048
  0
VERTEX
  8
0
 10
982.305167
 20
1249.288606
 42
-0.011259
  0
VERTEX
  8
0
 10
998.245923
 20
1280.882537
 42
-0.044804
  0
VERTEX
  8
0
 10
1010.121827
 20
1299.034907
 42
-0.012937
  0
VERTEX
  8
0
 10
1013.011514
 20
1302.502336
 42
-0.117932
  0
VERTEX
  8
0
 10
1014.605611
 20
1303.629291
 42
-0.178005
  0
VERTEX
  8
0
 10
1016.245251
 20
1303.675672
 42
-0.038321
  0
SEQEND
  0
POLYLINE
  8
0
 66
1
 70
1
  0
VERTEX
  8
0
 10
1315.257326
 20
1217.434840
 42
-0.075721
  0
VERTEX
  8
0
 10
1315.824539
 20
1213.286630
 42
-0.007610
  0
VERTEX
  8
0
 10
1315.519305
 20
1203.274954
 42
-0.009573
  0
VERTEX
  8
0
 10
1314.752107
 20
1191.459871
 42
-0.008086
  0
VERTEX
  8
0
 10
1313.499572
 20
1178.996340
 42
-0.043953
  0
VERTEX
  8
0
 10
1301.189116
 20
1119.544266
 42
-0.062477
  0
VERTEX
  8
0
 10
1279.363738
 20
1070.250658
 42
-0.063805
  0
VERTEX
  8
0
 10
1246.449528
 20
1028.624236
 42
-0.048359
  0
VERTEX
  8
0
 10
1201.051039
 20
992.086954
 42
-0.017441
  0
VERTEX
  8
0
 10
1186.414752
 20
983.190788
 42
-0.021544
  0
VERTEX
  8
0
 10
1172.172420
 20
975.988650
 42
-0.022883
  0
VERTEX
  8
0
 10
1158.165956
 20
970.404927
 42
-0.025722
  0
VERTEX
  8
0
 10
1144.238804
 20
966.367624
 42
-0.040198
  0
VERTEX
  8
0
 10
1126.628748
 20
963.699502
 42
-0.022933
  0
VERTEX
  8
0
 10
1105.101095
 20
963.179354
 42
-0.022966
  0
VERTEX
  8
0
 10
1083.950588
 20
964.611824
 42
-0.046540
  0
VERTEX
  8
0
 10
1067.637751
 20
968.030168
 42
-0.027604
  0
VERTEX
  8
0
 10
1064.214212
 20
969.298382
 42
-0.023332
  0
VERTEX
  8
0
 10
1060.747837
 20
971.001203
 42
-0.021125
  0
VERTEX
  8
0
 10
1057.134055
 20
973.194583
 42
-0.014945
  0
VERTEX
  8
0
 10
1053.263934
 20
975.943756
 42
-0.023965
  0
VERTEX
  8
0
 10
1045.497287
 20
982.425365
 42
-0.011420
  0
VERTEX
  8
0
 10
1036.118350
 20
991.451148
 42
-0.005010
  0
VERTEX
  8
0
 10
1027.059753
 20
1000.760940
 42
-0.192761
  0
VERTEX
  8
0
 10
1026.000000
 20
1003.407672
 42
-0.250968
  0
VERTEX
  8
0
 10
1028.335201
 20
1007.767025
 42
-0.031647
  0
VERTEX
  8
0
 10
1037.909621
 20
1013.299504
 42
-0.025262
  0
VERTEX
  8
0
 10
1052.764092
 20
1019.758912
 42
-0.009001
  0
VERTEX
  8
0
 10
1074.568354
 20
1027.512784
 42
0.015240
  0
VERTEX
  8
0
 10
1117.381510
 20
1043.342104
 42
0.024600
  0
VERTEX
  8
0
 10
1152.635168
 20
1059.673016
 42
0.026287
  0
VERTEX
  8
0
 10
1184.401295
 20
1078.523425
 42
0.021140
  0
VERTEX
  8
0
 10
1216.496080
 20
1101.943772
 42
0.008041
  0
VERTEX
  8
0
 10
1227.012785
 20
1110.601592
 42
0.013649
  0
VERTEX
  8
0
 10
1235.490447
 20
1118.221030
 42
0.016264
  0
VERTEX
  8
0
 10
1242.038478
 20
1124.855492
 42
0.035814
  0
VERTEX
  8
0
 10
1246.486039
 20
1130.415204
 42
0.033643
  0
VERTEX
  8
0
 10
1248.923249
 20
1134.519542
 42
0.098177
  0
VERTEX
  8
0
 10
1249.806956
 20
1137.677326
 42
0.190594
  0
VERTEX
  8
0
 10
1249.168839
 20
1139.743641
 42
0.190590
  0
VERTEX
  8
0
 10
1247.289858
 20
1140.814328
 42
0.165724
  0
VERTEX
  8
0
 10
1244.425965
 20
1140.271888
 42
0.020173
  0
VERTEX
  8
0
 10
1238.914553
 20
1136.847211
 42
0.013434
  0
VERTEX
  8
0
 10
1230.368614
 20
1130.704851
 42
0.002473
  0
VERTEX
  8
0
 10
1214.972170
 20
1118.878242
 42
-0.008584
  0
VERTEX
  8
0
 10
1194.399507
 20
1103.471642
 42
-0.015567
  0
VERTEX
  8
0
 10
1176.984792
 20
1091.697974
 42
-0.015808
  0
VERTEX
  8
0
 10
1159.053850
 20
1081.149902
 42
-0.009181
  0
VERTEX
  8
0
 10
1136.912730
 20
1069.573169
 42
-0.015277
  0
VERTEX
  8
0
 10
1107.520889
 20
1055.991728
 42
-0.022291
  0
VERTEX
  8
0
 10
1080.803017
 20
1046.004284
 42
-0.025689
  0
VERTEX
  8
0
 10
1057.451607
 20
1039.747643
 42
-0.051608
  0
VERTEX
  8
0
 10
1038.500000
 20
1037.706413
 42
-0.038784
  0
VERTEX
  8
0
 10
1026.953180
 20
1038.555014
 42
-0.177949
  0
VERTEX
  8
0
 10
1021.164609
 20
1041.740675
 42
-0.148648
  0
VERTEX
  8
0
 10
1018.233171
 20
1048.298843
 42
-0.024678
  0
VERTEX
  8
0
 10
1017.173058
 20
1062.245270
 42
-0.005907
  0
VERTEX
  8
0
 10
1017.053533
 20
1070.371295
 42
-0.025044
  0
VERTEX
  8
0
 10
1017.282918
 20
1075.229142
 42
-0.031738
  0
VERTEX
  8
0
 10
1017.970427
 20
1079.469998
 42
-0.013795
  0
VERTEX
  8
0
 10
1019.393498
 20
1085.002563
 42
-0.073611
  0
VERTEX
  8
0
 10
1030.635568
 20
1109.756378
 42
-0.057257
  0
VERTEX
  8
0
 10
1049.425424
 20
1132.631946
 42
-0.052916
  0
VERTEX
  8
0
 10
1074.551521
 20
1152.254380
 42
-0.045331
  0
VERTEX
  8
0
 10
1104.543429
 20
1167.364456
 42
-0.022069
  0
VERTEX
  8
0
 10
1116.457983
 20
1171.471525
 42
-0.031073
  0
VERTEX
  8
0
 10
1127.408718
 20
1173.985911
 42
-0.022150
  0
VERTEX
  8
0
 10
1141.055186
 20
1175.621409
 42
-0.005842
  0
VERTEX
  8
0
 10
1163.000000
 20
1177.012438
 42
0.006213
  0
VERTEX
  8
0
 10
1182.535313
 20
1178.265274
 42
0.005225
  0
VERTEX
  8
0
 10
1203.197487
 20
1180.065729
 42
0.005250
  0
VERTEX
  8
0
 10
1221.978944
 20
1182.099533
 42
0.015077
  0
VERTEX
  8
0
 10
1234.948709
 20
1184.040100
 42
0.021229
  0
VERTEX
  8
0
 10
1246.524636
 20
1186.642380
 42
0.018990
  0
VERTEX
  8
0
 10
1258.283700
 20
1190.299894
 42
0.017743
  0
VERTEX
  8
0
 10
1270.487987
 20
1195.103977
 42
0.013803
  0
VERTEX
  8
0
 10
1283.405395
 20
1201.155271
 42
0.008987
  0
VERTEX
  8
0
 10
1291.288029
 20
1205.295972
 42
0.020952
  0
VERTEX
  8
0
 10
1296.993729
 20
1208.743713
 42
0.026995
  0
VERTEX
  8
0
 10
1301.398804
 20
1212.019532
 42
0.032420
  0
VERTEX
  8
0
 10
1305.147647
 20
1215.569921
 42
-0.025684
  0
VERTEX
  8
0
 10
1307.581659
 20
1217.938038
 42
-0.043474
  0
VERTEX
  8
0
 10
1309.872768
 20
1219.620580
 42
-0.054567
  0
VERTEX
  8
0
 10
1311.885238
 20
1220.561894
 42
-0.147356
  0
VERTEX
  8
0
 10
1313.445480
 20
1220.617892
 42
-0.166841
  0
VERTEX
  8
0
 10
1313.865798
 20
1220.338065
 42
-0.033842
  0
VERTEX
  8
0
 10
1314.367720
 20
1219.580483
 42
-0.032265
  0
VERTEX
  8
0
 10
1314.856302
 20
1218.576665
 42
-0.025359
  0
SEQEND
  0
POLYLINE
  8
0
 66
1
 70
1
  0
VERTEX
  8
0
 10
790.500000
 20
1053.528886
 42
-0.027615
  0
VERTEX
  8
0
 10
813.967665
 20
1047.928744
 42
-0.025238
  0
VERTEX
  8
0
 10
837.408366
 20
1039.638708
 42
-0.020398
  0
VERTEX
  8
0
 10
863.990585
 20
1027.409366
 42
-0.009470
  0
VERTEX
  8
0
 10
897.500000
 20
1009.496444
 42
0.006552
  0
VERTEX
  8
0
 10
934.451760
 20
989.465219
 42
0.024196
  0
VERTEX
  8
0
 10
958.514932
 20
978.275634
 42
0.036802
  0
VERTEX
  8
0
 10
977.680853
 20
972.066211
 42
0.040149
  0
VERTEX
  8
0
 10
997.000000
 20
968.958701
 42
-0.002379
  0
VERTEX
  8
0
 10
1022.898159
 20
966.778453
 42
-0.020339
  0
VERTEX
  8
0
 10
1034.440632
 20
965.276247
 42
-0.039347
  0
VERTEX
  8
0
 10
1042.658929
 20
963.188755
 42
-0.024019
  0
VERTEX
  8
0
 10
1051.976867
 20
959.516359
 42
0.029637
  0
VERTEX
  8
0
 10
1065.868160
 20
954.220898
 42
0.028691
  0
VERTEX
  8
0
 10
1080.438396
 20
950.538058
 42
0.026984
  0
VERTEX
  8
0
 10
1096.156771
 20
948.382959
 42
0.020630
  0
VERTEX
  8
0
 10
1113.500000
 20
947.670665
 42
0.005241
  0
VERTEX
  8
0
 10
1122.809340
 20
947.770183
 42
0.015664
  0
VERTEX
  8
0
 10
1129.168581
 20
948.104336
 42
0.020079
  0
VERTEX
  8
0
 10
1134.567313
 20
948.777096
 42
0.014655
  0
VERTEX
  8
0
 10
1140.500000
 20
949.939221
 42
0.031102
  0
VERTEX
  8
0
 10
1163.221333
 20
956.594243
 42
0.034639
  0
VERTEX
  8
0
 10
1184.107862
 20
965.830598
 42
0.027165
  0
VERTEX
  8
0
 10
1207.266391
 20
979.710267
 42
0.010570
  0
VERTEX
  8
0
 10
1237.767924
 20
1001.273804
 42
-0.010752
  0
VERTEX
  8
0
 10
1265.139328
 20
1020.609499
 42
-0.023362
  0
VERTEX
  8
0
 10
1287.114773
 20
1033.986271
 42
-0.029272
  0
VERTEX
  8
0
 10
1306.650489
 20
1043.220584
 42
-0.033870
  0
VERTEX
  8
0
 10
1326.214277
 20
1049.602352
 42
-0.032794
  0
VERTEX
  8
0
 10
1339.871439
 20
1052.116332
 42
-0.025282
  0
VERTEX
  8
0
 10
1354.990151
 20
1053.114422
 42
-0.025078
  0
VERTEX
  8
0
 10
1370.290697
 20
1052.582102
 42
-0.030359
  0
VERTEX
  8
0
 10
1384.500000
 20
1050.498163
 42
-0.028141
  0
VERTEX
  8
0
 10
1400.574805
 20
1046.177320
 42
-0.023076
  0
VERTEX
  8
0
 10
1417.190917
 20
1039.827928
 42
-0.023155
  0
VERTEX
  8
0
 10
1433.080786
 20
1032.005779
 42
-0.029062
  0
VERTEX
  8
0
 10
1446.971321
 20
1023.261147
 42
-0.023165
  0
VERTEX
  8
0
 10
1456.172450
 20
1016.026978
 42
-0.011648
  0
VERTEX
  8
0
 10
1467.127039
 20
1006.106455
 42
-0.011650
  0
VERTEX
  8
0
 10
1477.693379
 20
995.601245
 42
-0.021411
  0
VERTEX
  8
0
 10
1485.711035
 20
986.500000
 42
-0.053208
  0
VERTEX
  8
0
 10
1514.541689
 20
941.821088
 42
-0.036798
  0
VERTEX
  8
0
 10
1537.611385
 20
886.200989
 42
-0.033195
  0
VERTEX
  8
0
 10
1554.355278
 20
821.503753
 42
-0.025854
  0
VERTEX
  8
0
 10
1564.148783
 20
749.500000
 42
-0.017425
  0
VERTEX
  8
0
 10
1565.421115
 20
723.363321
 42
-0.008814
  0
VERTEX
  8
0
 10
1565.294779
 20
690.393351
 42
-0.008606
  0
VERTEX
  8
0
 10
1563.943619
 20
655.469680
 42
-0.010632
  0
VERTEX
  8
0
 10
1561.433806
 20
623.000000
 42
-0.030895
  0
VERTEX
  8
0
 10
1542.460417
 20
505.562015
 42
-0.026876
  0
VERTEX
  8
0
 10
1508.533317
 20
385.631165
 42
-0.027484
  0
VERTEX
  8
0
 10
1463.125904
 20
273.375174
 42
-0.038289
  0
VERTEX
  8
0
 10
1409.686782
 20
179.141956
 42
-0.017440
  0
VERTEX
  8
0
 10
1385.621884
 20
145.947706
 42
-0.025291
  0
VERTEX
  8
0
 10
1361.955014
 20
118.565060
 42
-0.027510
  0
VERTEX
  8
0
 10
1337.351988
 20
95.530751
 42
-0.027972
  0
VERTEX
  8
0
 10
1310.500000
 20
75.473787
 42
-0.020723
  0
VERTEX
  8
0
 10
1275.940035
 20
54.560969
 42
-0.030032
  0
VERTEX
  8
0
 10
1243.714072
 20
39.283682
 42
-0.032773
  0
VERTEX
  8
0
 10
1212.244177
 20
28.955444
 42
-0.033747
  0
VERTEX
  8
0
 10
1180.000000
 20
22.950371
 42
-0.022205
  0
VERTEX
  8
0
 10
1168.246148
 20
22.099576
 42
-0.007083
  0
VERTEX
  8
0
 10
1150.707882
 20
21.859468
 42
-0.007280
  0
VERTEX
  8
0
 10
1132.830865
 20
22.128302
 42
-0.017076
  0
VERTEX
  8
0
 10
1119.500000
 20
22.979227
 42
-0.017883
  0
VERTEX
  8
0
 10
1104.052475
 20
25.056259
 42
-0.028668
  0
VERTEX
  8
0
 10
1091.095678
 20
28.045475
 42
-0.018873
  0
VERTEX
  8
0
 10
1075.257928
 20
33.325610
 42
-0.003789
  0
VERTEX
  8
0
 10
1047.500000
 20
44.000000
 42
0.004492
  0
VERTEX
  8
0
 10
1014.364832
 20
56.688771
 42
0.036705
  0
VERTEX
  8
0
 10
998.814231
 20
61.216896
 42
0.044335
  0
VERTEX
  8
0
 10
983.831420
 20
63.044217
 42
0.008188
  0
VERTEX
  8
0
 10
956.000000
 20
63.500000
 42
0.010381
  0
VERTEX
  8
0
 10
926.830630
 20
62.894332
 42
0.030542
  0
VERTEX
  8
0
 10
906.869953
 20
60.839419
 42
0.027667
  0
VERTEX
  8
0
 10
886.271140
 20
56.255362
 42
0.007330
  0
VERTEX
  8
0
 10
853.960828
 20
46.650428
 42
-0.005334
  0
VERTEX
  8
0
 10
845.403400
 20
44.069328
 42
-0.005121
  0
VERTEX
  8
0
 10
836.675920
 20
41.634816
 42
-0.005076
  0
VERTEX
  8
0
 10
828.936537
 20
39.645117
 42
-0.018405
  0
VERTEX
  8
0
 10
823.960828
 20
38.612225
 42
-0.024508
  0
VERTEX
  8
0
 10
805.775912
 20
36.440398
 42
-0.014215
  0
VERTEX
  8
0
 10
783.786409
 20
35.528795
 42
-0.014115
  0
VERTEX
  8
0
 10
762.517972
 20
35.852576
 42
-0.034715
  0
VERTEX
  8
0
 10
747.000000
 20
37.611276
 42
-0.049634
  0
VERTEX
  8
0
 10
730.361270
 20
42.421758
 42
-0.023294
  0
VERTEX
  8
0
 10
709.951374
 20
51.713212
 42
-0.022586
  0
VERTEX
  8
0
 10
689.014778
 20
63.671501
 42
-0.026987
  0
VERTEX
  8
0
 10
670.500000
 20
76.835588
 42
-0.041964
  0
VERTEX
  8
0
 10
637.201411
 20
108.226234
 42
-0.016485
  0
VERTEX
  8
0
 10
596.630528
 20
156.586055
 42
-0.016041
  0
VERTEX
  8
0
 10
555.542872
 20
212.586394
 42
-0.018039
  0
VERTEX
  8
0
 10
519.793234
 20
269.000000
 42
-0.033333
  0
VERTEX
  8
0
 10
470.394628
 20
368.175784
 42
-0.036288
  0
VERTEX
  8
0
 10
436.218877
 20
470.299908
 42
-0.036686
  0
VERTEX
  8
0
 10
417.439813
 20
575.255477
 42
-0.035626
  0
VERTEX
  8
0
 10
413.942249
 20
682.872718
 42
-0.016517
  0
VERTEX
  8
0
 10
418.100445
 20
740.715154
 42
-0.031245
  0
VERTEX
  8
0
 10
425.879932
 20
786.790347
 42
-0.033651
  0
VERTEX
  8
0
 10
438.867046
 20
829.222676
 42
-0.022952
  0
VERTEX
  8
0
 10
458.990909
 20
875.500000
 42
-0.013601
  0
VERTEX
  8
0
 10
471.684538
 20
899.687946
 42
-0.027065
  0
VERTEX
  8
0
 10
483.256669
 20
917.958438
 42
-0.027466
  0
VERTEX
  8
0
 10
496.620760
 20
934.701426
 42
-0.014454
  0
VERTEX
  8
0
 10
514.914783
 20
954.047288
 42
-0.017055
  0
VERTEX
  8
0
 10
535.962688
 20
973.668124
 42
-0.024354
  0
VERTEX
  8
0
 10
556.016389
 20
989.474875
 42
-0.025560
  0
VERTEX
  8
0
 10
576.721219
 20
1002.679197
 42
-0.022022
  0
VERTEX
  8
0
 10
599.703279
 20
1014.427470
 42
-0.021447
  0
VERTEX
  8
0
 10
632.404565
 20
1027.702988
 42
-0.013983
  0
VERTEX
  8
0
 10
671.149030
 20
1040.318584
 42
-0.014032
  0
VERTEX
  8
0
 10
709.022658
 20
1050.343376
 42
-0.030975
  0
VERTEX
  8
0
 10
738.500000
 20
1055.365853
 42
-0.029826
  0
VERTEX
  8
0
 10
747.755686
 20
1055.803033
 42
-0.005719
  0
VERTEX
  8
0
 10
764.570927
 20
1055.401510
 42
-0.005693
  0
VERTEX
  8
0
 10
781.369668
 20
1054.616476
 42
-0.030247
  0
SEQEND
  0
ENDSEC
  0
EOF
